<svg width="36" height="36" viewBox="0 0 36 36" fill="none" xmlns="http://www.w3.org/2000/svg">
<circle cx="18" cy="18" r="18" fill="#0047FF"/>
<circle cx="18" cy="18" r="18" fill="url(#paint0_linear)"/>
<path d="M26.6073 25.9668L25.5802 13.0241C25.5162 12.1903 24.811 11.5371 23.9747 11.5371H21.9459V11.4459C21.9459 8.9944 19.9515 7 17.5001 7C15.0486 7 13.0542 8.9944 13.0542 11.4459V11.5371H11.0254C10.1891 11.5371 9.48388 12.1902 9.4201 13.0224L8.39264 25.9686C8.31313 27.0051 8.67273 28.0371 9.37917 28.7998C10.0856 29.5625 11.0871 30 12.1267 30H22.8734C23.913 30 24.9145 29.5625 25.6209 28.7998C26.3274 28.0371 26.6869 27.0051 26.6073 25.9668ZM14.4014 11.4459C14.4014 9.73727 15.7915 8.34721 17.5001 8.34721C19.2086 8.34721 20.5987 9.73731 20.5987 11.4459V11.5371H14.4014V11.4459ZM24.6325 27.8844C24.1735 28.3799 23.5488 28.6528 22.8734 28.6528H12.1267C11.4513 28.6528 10.8266 28.3799 10.3676 27.8844C9.90862 27.3889 9.68428 26.7451 9.73585 26.0734L10.7632 13.1271C10.7736 12.9909 10.8888 12.8843 11.0254 12.8843H13.0542V14.5435C13.0542 14.9155 13.3558 15.2171 13.7278 15.2171C14.0998 15.2171 14.4014 14.9155 14.4014 14.5435V12.8843H20.5987V14.5435C20.5987 14.9155 20.9003 15.2171 21.2723 15.2171C21.6443 15.2171 21.9459 14.9155 21.9459 14.5435V12.8843H23.9747C24.1113 12.8843 24.2265 12.991 24.2371 13.1289L25.2642 26.0716C25.3159 26.7451 25.0915 27.3888 24.6325 27.8844Z" fill="white"/>
<path d="M20.5348 18.423C20.2718 18.1599 19.8453 18.1599 19.5823 18.423L16.5745 21.4308L15.4179 20.2742C15.1549 20.0112 14.7284 20.0112 14.4653 20.2742C14.2022 20.5373 14.2022 20.9638 14.4653 21.2268L16.0982 22.8597C16.2297 22.9912 16.4021 23.0571 16.5744 23.0571C16.7467 23.0571 16.9192 22.9913 17.0507 22.8597L20.5347 19.3757C20.7978 19.1126 20.7978 18.6861 20.5348 18.423Z" fill="white"/>
<defs>
<linearGradient id="paint0_linear" x1="18" y1="0" x2="18" y2="36" gradientUnits="userSpaceOnUse">
<stop stop-color="#5181FF"/>
<stop offset="1" stop-color="white" stop-opacity="0"/>
</linearGradient>
</defs>
</svg>
