<svg width="36" height="36" viewBox="0 0 36 36" fill="none" xmlns="http://www.w3.org/2000/svg">
<circle cx="18" cy="18" r="18" fill="#0047FF"/>
<circle cx="18" cy="18" r="18" fill="url(#paint0_linear)"/>
<path d="M13.4104 21.8693H13.4114C13.4123 21.8693 13.4132 21.8691 13.414 21.8691H25.6309C25.9316 21.8691 26.1961 21.6696 26.2787 21.3804L28.974 11.9468C29.0321 11.7435 28.9914 11.5248 28.8642 11.356C28.7368 11.1872 28.5376 11.0879 28.3262 11.0879H11.8563L11.3747 8.92023C11.306 8.61192 11.0327 8.39258 10.7168 8.39258H6.67383C6.30164 8.39258 6 8.69422 6 9.06641C6 9.43859 6.30164 9.74023 6.67383 9.74023H10.1763C10.2616 10.1244 12.4814 20.1135 12.6091 20.6882C11.893 20.9995 11.3906 21.7135 11.3906 22.543C11.3906 23.6576 12.2975 24.5645 13.4121 24.5645H25.6309C26.003 24.5645 26.3047 24.2628 26.3047 23.8906C26.3047 23.5184 26.003 23.2168 25.6309 23.2168H13.4121C13.0406 23.2168 12.7383 22.9145 12.7383 22.543C12.7383 22.172 13.0396 21.8702 13.4104 21.8693ZM27.4328 12.4355L25.1225 20.5215H13.9526L12.1557 12.4355H27.4328Z" fill="white"/>
<path d="M12.7383 26.5859C12.7383 27.7006 13.6451 28.6074 14.7598 28.6074C15.8744 28.6074 16.7813 27.7006 16.7813 26.5859C16.7813 25.4713 15.8744 24.5645 14.7598 24.5645C13.6451 24.5645 12.7383 25.4713 12.7383 26.5859ZM14.7598 25.9121C15.1312 25.9121 15.4336 26.2145 15.4336 26.5859C15.4336 26.9574 15.1312 27.2598 14.7598 27.2598C14.3883 27.2598 14.0859 26.9574 14.0859 26.5859C14.0859 26.2145 14.3883 25.9121 14.7598 25.9121Z" fill="white"/>
<path d="M22.2617 26.5859C22.2617 27.7006 23.1686 28.6074 24.2832 28.6074C25.3978 28.6074 26.3047 27.7006 26.3047 26.5859C26.3047 25.4713 25.3978 24.5645 24.2832 24.5645C23.1686 24.5645 22.2617 25.4713 22.2617 26.5859ZM24.2832 25.9121C24.6547 25.9121 24.957 26.2145 24.957 26.5859C24.957 26.9574 24.6547 27.2598 24.2832 27.2598C23.9117 27.2598 23.6094 26.9574 23.6094 26.5859C23.6094 26.2145 23.9117 25.9121 24.2832 25.9121Z" fill="white"/>
<defs>
<linearGradient id="paint0_linear" x1="18" y1="0" x2="18" y2="36" gradientUnits="userSpaceOnUse">
<stop stop-color="#5181FF"/>
<stop offset="1" stop-color="white" stop-opacity="0"/>
</linearGradient>
</defs>
</svg>
