<svg width="36" height="36" viewBox="0 0 36 36" fill="none" xmlns="http://www.w3.org/2000/svg">
<circle cx="18" cy="18" r="18" fill="#0047FF"/>
<circle cx="18" cy="18" r="18" fill="url(#paint0_linear)"/>
<path d="M26.6304 16.2174H24.9212C24.7779 15.7495 24.5902 15.2975 24.3624 14.867L25.5699 13.6595C25.8283 13.4011 25.9708 13.0569 25.9708 12.6903C25.9708 12.3242 25.8283 11.98 25.5699 11.7216L24.278 10.4296C23.7617 9.91328 22.8577 9.91191 22.3405 10.4296L21.133 11.6371C20.703 11.4093 20.2505 11.2221 19.7826 11.0783V9.36957C19.7826 8.61448 19.1681 8 18.413 8H16.587C15.8319 8 15.2174 8.61448 15.2174 9.36957V11.0788C14.7495 11.2226 14.2975 11.4098 13.867 11.6376L12.659 10.4301C12.1249 9.89593 11.2557 9.89593 10.7216 10.4301L9.42915 11.722C8.89548 12.2562 8.89548 13.1254 9.42915 13.6595L10.6367 14.8675C10.4088 15.2975 10.2217 15.7499 10.0779 16.2178H8.36957C7.61448 16.2178 7 16.8323 7 17.5874V19.4135C7 20.1681 7.61448 20.7826 8.36957 20.7826H10.0788C10.2226 21.2505 10.4098 21.7025 10.6376 22.133L9.43007 23.341C8.89593 23.8751 8.89593 24.7443 9.43007 25.2784L10.722 26.5708C11.2562 27.1045 12.1254 27.1045 12.6595 26.5708L13.8675 25.3633C14.2975 25.5912 14.7499 25.7783 15.2178 25.9221V27.6304C15.2178 28.3855 15.8323 29 16.5874 29H18.4135C19.1686 29 19.7831 28.3855 19.7831 27.6304V25.9212C20.251 25.7774 20.7034 25.5902 21.1335 25.3624L22.341 26.5704C22.8587 27.0876 23.7626 27.0867 24.2784 26.5704L25.5704 25.2784C25.8288 25.02 25.9712 24.6758 25.9712 24.3097C25.9712 23.9431 25.8288 23.5993 25.5704 23.341L24.3629 22.133C24.5907 21.703 24.7779 21.2505 24.9217 20.7826H26.6304C27.3855 20.7826 28 20.1681 28 19.413V17.587C28 16.8319 27.3855 16.2174 26.6304 16.2174ZM27.087 19.413C27.087 19.6646 26.8824 19.8696 26.6304 19.8696H24.5761C24.3679 19.8696 24.1862 20.0106 24.1342 20.212C23.9726 20.8351 23.7265 21.43 23.4019 21.9796C23.2965 22.159 23.3252 22.3873 23.4722 22.5343L24.924 23.9865C25.0098 24.0723 25.0573 24.1869 25.0573 24.3097C25.0573 24.4325 25.0098 24.5471 24.924 24.6329L23.632 25.9249C23.4603 26.0965 23.1577 26.0965 22.9856 25.9249L21.5338 24.4731C21.3868 24.3257 21.1586 24.2974 20.9787 24.4028C20.43 24.727 19.8351 24.9735 19.2115 25.1346C19.0106 25.1862 18.8696 25.3679 18.8696 25.5761V27.6304C18.8696 27.882 18.665 28.087 18.413 28.087H16.587C16.3354 28.087 16.1304 27.882 16.1304 27.6304V25.5761C16.1304 25.3679 15.9894 25.1862 15.788 25.1342C15.1649 24.973 14.57 24.727 14.0204 24.4024C13.9483 24.3595 13.8684 24.3389 13.7885 24.3389C13.6702 24.3389 13.5534 24.3846 13.4653 24.4727L12.0135 25.9244C11.835 26.1025 11.5456 26.1025 11.3671 25.9244L10.0751 24.6325C9.89663 24.454 9.89663 24.1641 10.0751 23.986L11.5269 22.5343C11.6743 22.3868 11.7031 22.1586 11.5972 21.9796C11.273 21.43 11.0265 20.8356 10.8654 20.212C10.8138 20.0106 10.6321 19.8696 10.4239 19.8696H8.36957C8.11802 19.8696 7.91304 19.6646 7.91304 19.413V17.587C7.91304 17.3354 8.11802 17.1304 8.36957 17.1304H10.4239C10.6321 17.1304 10.8138 16.9894 10.8658 16.788C11.027 16.1649 11.273 15.57 11.5976 15.0204C11.7035 14.841 11.6748 14.6127 11.5273 14.4657L10.0756 13.014C9.89754 12.8359 9.89754 12.546 10.0756 12.3675L11.3675 11.0756C11.546 10.8971 11.8355 10.8975 12.014 11.0756L13.4657 12.5273C13.6132 12.6748 13.841 12.704 14.0204 12.5976C14.57 12.2735 15.1644 12.027 15.788 11.8658C15.9894 11.8138 16.1304 11.6321 16.1304 11.4239V9.36957C16.1304 9.11802 16.3354 8.91304 16.587 8.91304H18.413C18.665 8.91304 18.8696 9.11802 18.8696 9.36957V11.4239C18.8696 11.6321 19.0106 11.8138 19.212 11.8658C19.8356 12.027 20.4304 12.2735 20.9792 12.5976C21.159 12.7035 21.3873 12.6752 21.5343 12.5273L22.986 11.0756C23.1581 10.903 23.4608 10.9035 23.6325 11.0756L24.9244 12.3675C25.0102 12.4534 25.0577 12.5684 25.0577 12.6908C25.0577 12.8131 25.0102 12.9282 24.9244 13.014L23.4727 14.4657C23.3257 14.6132 23.2965 14.8414 23.4024 15.0204C23.727 15.57 23.973 16.1644 24.1346 16.788C24.1862 16.9894 24.3679 17.1304 24.5761 17.1304H26.6304C26.8824 17.1304 27.087 17.3354 27.087 17.587V19.413Z" fill="white"/>
<path d="M17.5 14.3914C15.2347 14.3914 13.3913 16.2348 13.3913 18.5001C13.3913 20.7653 15.2347 22.6087 17.5 22.6087C19.7657 22.6087 21.6087 20.7653 21.6087 18.5001C21.6087 16.2348 19.7657 14.3914 17.5 14.3914ZM17.5 21.6957C15.7378 21.6957 14.3043 20.2622 14.3043 18.5001C14.3043 16.7379 15.7378 15.3044 17.5 15.3044C19.2617 15.3044 20.6956 16.7379 20.6956 18.5001C20.6956 20.2622 19.2617 21.6957 17.5 21.6957Z" fill="white"/>
<defs>
<linearGradient id="paint0_linear" x1="18" y1="0" x2="18" y2="36" gradientUnits="userSpaceOnUse">
<stop stop-color="#5181FF"/>
<stop offset="1" stop-color="white" stop-opacity="0"/>
</linearGradient>
</defs>
</svg>
