<svg width="38" height="38" viewBox="0 0 38 38" fill="none" xmlns="http://www.w3.org/2000/svg">
<circle cx="19" cy="19" r="19" fill="#0047FF"/>
<circle cx="19" cy="19" r="19" fill="url(#paint0_linear)"/>
<path d="M18.3333 26.9999C13.75 26.9999 10 23.2499 10 18.6666C10 14.0833 13.75 10.3333 18.3333 10.3333C22.9167 10.3333 26.6667 14.0833 26.6667 18.6666C26.6667 23.2499 22.9167 26.9999 18.3333 26.9999ZM18.3333 11.1666C14.1667 11.1666 10.8333 14.4999 10.8333 18.6666C10.8333 22.8333 14.1667 26.1666 18.3333 26.1666C22.5 26.1666 25.8333 22.8333 25.8333 18.6666C25.8333 14.4999 22.5 11.1666 18.3333 11.1666Z" fill="white"/>
<path d="M18.3334 24.0833C15.3334 24.0833 12.9167 21.6667 12.9167 18.6667C12.9167 15.6667 15.3334 13.25 18.3334 13.25C21.3334 13.25 23.75 15.6667 23.75 18.6667C23.75 21.6667 21.3334 24.0833 18.3334 24.0833ZM18.3334 14.0833C15.8334 14.0833 13.75 16.1667 13.75 18.6667C13.75 21.1667 15.8334 23.25 18.3334 23.25C20.8334 23.25 22.9167 21.1667 22.9167 18.6667C22.9167 16.1667 20.8334 14.0833 18.3334 14.0833Z" fill="white"/>
<path d="M18.3333 21.1667C16.9166 21.1667 15.8333 20.0834 15.8333 18.6667C15.8333 17.2501 16.9166 16.1667 18.3333 16.1667C19.75 16.1667 20.8333 17.2501 20.8333 18.6667C20.8333 20.0834 19.75 21.1667 18.3333 21.1667ZM18.3333 17.0001C17.4166 17.0001 16.6666 17.7501 16.6666 18.6667C16.6666 19.5834 17.4166 20.3334 18.3333 20.3334C19.25 20.3334 20 19.5834 20 18.6667C20 17.7501 19.25 17.0001 18.3333 17.0001Z" fill="white"/>
<path d="M18.3333 19.0834C18.25 19.0834 18.0833 19.0834 18 19.0001C17.8333 18.8334 17.8333 18.5834 18 18.4167L24.25 12.1667C24.4167 12.0001 24.6667 12.0001 24.8333 12.1667C25 12.3334 25 12.5834 24.8333 12.7501L18.5833 19.0001C18.5833 19.0834 18.4167 19.0834 18.3333 19.0834Z" fill="white"/>
<path d="M26.6667 12.8333H24.5834C24.3334 12.8333 24.1667 12.6667 24.1667 12.4167V10.3333C24.1667 10.25 24.25 10.0833 24.25 10L27.1667 7.08333C27.3334 7 27.5 7 27.6667 7C27.8334 7.08333 27.9167 7.25 27.9167 7.41667V9.08333H29.5834C29.75 9.08333 29.9167 9.16667 30 9.33333C30 9.5 30 9.66667 29.9167 9.83333L27 12.75C26.9167 12.75 26.75 12.8333 26.6667 12.8333ZM25 12H26.5L28.5834 9.91667H27.5C27.25 9.91667 27.0834 9.75 27.0834 9.5V8.41667L25 10.5V12Z" fill="white"/>
<defs>
<linearGradient id="paint0_linear" x1="19" y1="0" x2="19" y2="38" gradientUnits="userSpaceOnUse">
<stop stop-color="#5181FF"/>
<stop offset="1" stop-color="white" stop-opacity="0"/>
</linearGradient>
</defs>
</svg>
