<svg width="36" height="36" viewBox="0 0 36 36" fill="none" xmlns="http://www.w3.org/2000/svg">
<circle cx="18" cy="17.9999" r="18" fill="#0047FF"/>
<circle cx="18" cy="17.9999" r="18" fill="url(#paint0_linear)"/>
<g clip-path="url(#clip0)">
<path d="M21.9531 21.4521C21.9338 21.3636 21.8803 21.2863 21.8041 21.2372C21.728 21.1881 21.6355 21.1712 21.5469 21.1902L20.923 21.3248C20.8787 21.3337 20.8365 21.3514 20.7991 21.3768C20.7616 21.4022 20.7295 21.4348 20.7047 21.4726C20.6799 21.5105 20.6629 21.5529 20.6547 21.5974C20.6464 21.6419 20.6471 21.6876 20.6566 21.7319C20.6662 21.7761 20.6844 21.818 20.7103 21.8552C20.7361 21.8923 20.7691 21.924 20.8073 21.9482C20.8455 21.9725 20.8882 21.989 20.9328 21.9967C20.9774 22.0043 21.0231 22.0031 21.0672 21.9929L21.6912 21.8584C21.7798 21.8392 21.8572 21.7857 21.9063 21.7095C21.9554 21.6333 21.9723 21.5407 21.9531 21.4521Z" fill="white"/>
<path d="M19.7336 21.5811L18.0041 21.9542C17.9597 21.9631 17.9176 21.9808 17.8801 22.0062C17.8426 22.0316 17.8106 22.0641 17.7858 22.102C17.761 22.1399 17.744 22.1823 17.7357 22.2268C17.7275 22.2713 17.7281 22.317 17.7377 22.3613C17.7472 22.4055 17.7654 22.4474 17.7913 22.4846C17.8172 22.5217 17.8502 22.5533 17.8884 22.5776C17.9266 22.6019 17.9692 22.6184 18.0138 22.626C18.0584 22.6337 18.1041 22.6324 18.1482 22.6223L19.8777 22.2493C19.9653 22.2292 20.0415 22.1754 20.0897 22.0995C20.1379 22.0237 20.1543 21.9319 20.1354 21.8441C20.1164 21.7562 20.0636 21.6794 19.9884 21.6301C19.9132 21.5809 19.8217 21.5633 19.7336 21.5811Z" fill="white"/>
<path d="M14.325 23.9232C13.9086 24.0129 13.5281 24.2241 13.2317 24.53C12.9354 24.8359 12.7364 25.2229 12.6599 25.6419C12.5835 26.0609 12.633 26.4932 12.8022 26.8841C12.9715 27.275 13.2528 27.6069 13.6107 27.8379C13.9686 28.0688 14.387 28.1885 14.8129 28.1817C15.2388 28.1749 15.6531 28.0419 16.0034 27.7996C16.3537 27.5573 16.6244 27.2166 16.781 26.8205C16.9377 26.4244 16.9734 25.9908 16.8836 25.5744C16.7626 25.0165 16.4253 24.5293 15.9457 24.2197C15.466 23.9102 14.8832 23.8035 14.325 23.9232ZM15.0888 27.4648C14.8047 27.5261 14.5087 27.5018 14.2383 27.3949C13.9679 27.288 13.7353 27.1034 13.5699 26.8643C13.4045 26.6252 13.3137 26.3425 13.309 26.0518C13.3043 25.7611 13.3859 25.4755 13.5435 25.2312C13.7011 24.9869 13.9276 24.7948 14.1943 24.6792C14.4611 24.5636 14.7561 24.5297 15.0421 24.5818C15.3282 24.6339 15.5923 24.7697 15.8012 24.9719C16.0101 25.1741 16.1543 25.4337 16.2156 25.7179C16.2973 26.099 16.2245 26.4968 16.0133 26.8243C15.8021 27.1518 15.4696 27.3821 15.0888 27.4648Z" fill="white"/>
<path d="M29.1015 22.9392L28.8099 21.5868C28.8005 21.5429 28.7825 21.5013 28.7569 21.4644C28.7314 21.4275 28.6988 21.396 28.6611 21.3716C28.6234 21.3473 28.5812 21.3306 28.5371 21.3226C28.4929 21.3145 28.4476 21.3152 28.4037 21.3247L27.116 21.6025L24.8131 10.9218C24.7939 10.8333 24.7403 10.756 24.6642 10.7068C24.5881 10.6577 24.4956 10.6409 24.407 10.6599L17.5586 12.1364L13.7261 12.963L12.4746 7.15968C12.4581 7.08331 12.4159 7.0149 12.3551 6.96582C12.2943 6.91675 12.2185 6.88997 12.1404 6.88995H6.23181C6.18692 6.88993 6.14246 6.89875 6.10098 6.91592C6.0595 6.93309 6.02181 6.95826 5.99007 6.99001C5.95832 7.02175 5.93315 7.05944 5.91598 7.10092C5.89881 7.1424 5.88999 7.18686 5.89001 7.23175V8.61515C5.89001 8.7058 5.92603 8.79274 5.99012 8.85684C6.05422 8.92094 6.14116 8.95695 6.23181 8.95695H10.7476L13.5881 22.128C12.8439 22.3547 12.1801 22.7895 11.6749 23.381C11.1696 23.9725 10.844 24.6961 10.7365 25.4666C10.629 26.237 10.744 27.0222 11.068 27.7294C11.3919 28.4367 11.9114 29.0365 12.565 29.4583C13.2187 29.8801 13.9793 30.1062 14.7572 30.1099C15.5351 30.1137 16.2978 29.8949 16.9555 29.4795C17.6132 29.064 18.1384 28.4692 18.4692 27.7651C18.8 27.061 18.9225 26.277 18.8224 25.5056L28.8394 23.3452C28.928 23.3261 29.0054 23.2726 29.0546 23.1965C29.1037 23.1203 29.1206 23.0278 29.1015 22.9392ZM15.6869 22.0546L14.4726 16.4269L17.9711 15.6724L18.4845 18.0507C18.4986 18.1162 18.5316 18.176 18.5794 18.2229C18.6272 18.2697 18.6878 18.3015 18.7535 18.3142C18.7749 18.3184 18.7967 18.3205 18.8185 18.3204C18.8744 18.3204 18.9295 18.3067 18.9788 18.2805C19.0282 18.2543 19.0704 18.2163 19.1017 18.17L20.0209 16.8107L21.3086 17.6825C21.365 17.7207 21.4316 17.7412 21.4998 17.7412C21.568 17.7413 21.6346 17.721 21.6912 17.6828C21.7477 17.6447 21.7915 17.5906 21.8171 17.5274C21.8426 17.4641 21.8486 17.3947 21.8343 17.328L21.3215 14.9497L24.8199 14.1952L26.4486 21.7466L18.0254 23.563C17.4455 22.8031 16.6183 22.2695 15.6869 22.0546ZM20.0504 12.2984L20.5812 14.7593L20.9865 16.6382L20.1209 16.0523C20.0458 16.0015 19.9535 15.9826 19.8645 15.9998C19.7755 16.0169 19.6969 16.0688 19.6461 16.1439L18.9843 17.1234L18.0369 12.7325L20.0504 12.2984ZM24.6758 13.5271L21.1773 14.2812L20.7185 12.1542L24.217 11.3997L24.6758 13.5271ZM17.3687 12.8767L17.8275 15.0038L14.3291 15.7587L13.8703 13.6312L17.3687 12.8767ZM11.0234 8.27335H6.57361V7.57355H11.8644L13.1299 13.4413L14.9658 21.9554C14.7287 21.9439 14.4911 21.9533 14.2556 21.9833L11.3576 8.54308C11.3411 8.46669 11.299 8.39826 11.2382 8.34918C11.1773 8.3001 11.1016 8.27334 11.0234 8.27335ZM15.4961 29.3493C14.839 29.4914 14.1545 29.4355 13.5293 29.1885C12.904 28.9415 12.3661 28.5147 11.9834 27.9619C11.6008 27.4091 11.3907 26.7553 11.3798 26.0832C11.3688 25.411 11.5574 24.7506 11.9218 24.1857C12.2862 23.6207 12.8099 23.1765 13.4268 22.9093C14.0436 22.6421 14.7259 22.5638 15.3873 22.6843C16.0486 22.8049 16.6594 23.1189 17.1422 23.5867C17.6251 24.0544 17.9584 24.6548 18.1 25.312C18.2887 26.1927 18.1205 27.1124 17.6322 27.8692C17.1439 28.626 16.3753 29.1583 15.4951 29.3493H15.4961ZM18.6797 24.8376C18.61 24.6107 18.5205 24.3904 18.4123 24.1792L28.2148 22.0652L28.3625 22.7487L18.6797 24.8376Z" fill="white"/>
</g>
<defs>
<linearGradient id="paint0_linear" x1="18" y1="-0.00012207" x2="18" y2="35.9999" gradientUnits="userSpaceOnUse">
<stop stop-color="#5181FF"/>
<stop offset="1" stop-color="white" stop-opacity="0"/>
</linearGradient>
<clipPath id="clip0">
<rect width="25" height="25" fill="white" transform="translate(5 5.99988)"/>
</clipPath>
</defs>
</svg>
