<svg width="36" height="36" viewBox="0 0 36 36" fill="none" xmlns="http://www.w3.org/2000/svg">
<circle cx="18" cy="18" r="18" fill="#0047FF"/>
<circle cx="18" cy="18" r="18" fill="url(#paint0_linear)"/>
<path d="M25.0417 29H11.2917C10.0285 29 9 27.9715 9 26.7083V9.29167C9 8.0285 10.0285 7 11.2917 7H25.0417C26.3048 7 27.3333 8.0285 27.3333 9.29167V26.7083C27.3333 27.9715 26.3048 29 25.0417 29ZM11.2917 7.91667C10.5336 7.91667 9.91667 8.53358 9.91667 9.29167V26.7083C9.91667 27.4664 10.5336 28.0833 11.2917 28.0833H25.0417C25.7998 28.0833 26.4167 27.4664 26.4167 26.7083V9.29167C26.4167 8.53358 25.7998 7.91667 25.0417 7.91667H11.2917Z" fill="white"/>
<path d="M24.125 26.2499H12.2083C11.9553 26.2499 11.75 26.0446 11.75 25.7916V14.7916C11.75 14.5386 11.9553 14.3333 12.2083 14.3333H24.125C24.378 14.3333 24.5833 14.5386 24.5833 14.7916V25.7916C24.5833 26.0446 24.378 26.2499 24.125 26.2499ZM12.6667 25.3333H23.6667V15.2499H12.6667V25.3333Z" fill="white"/>
<path d="M15.875 26.2499C15.622 26.2499 15.4167 26.0446 15.4167 25.7916V14.7916C15.4167 14.5386 15.622 14.3333 15.875 14.3333C16.128 14.3333 16.3334 14.5386 16.3334 14.7916V25.7916C16.3334 26.0446 16.128 26.2499 15.875 26.2499Z" fill="white"/>
<path d="M24.125 17.9999H12.2083C11.9553 17.9999 11.75 17.7946 11.75 17.5416C11.75 17.2886 11.9553 17.0833 12.2083 17.0833H24.125C24.378 17.0833 24.5833 17.2886 24.5833 17.5416C24.5833 17.7946 24.378 17.9999 24.125 17.9999Z" fill="white"/>
<path d="M24.125 20.7499H12.2083C11.9553 20.7499 11.75 20.5446 11.75 20.2916C11.75 20.0386 11.9553 19.8333 12.2083 19.8333H24.125C24.378 19.8333 24.5833 20.0386 24.5833 20.2916C24.5833 20.5446 24.378 20.7499 24.125 20.7499Z" fill="white"/>
<path d="M24.125 23.4999H12.2083C11.9553 23.4999 11.75 23.2946 11.75 23.0416C11.75 22.7886 11.9553 22.5833 12.2083 22.5833H24.125C24.378 22.5833 24.5833 22.7886 24.5833 23.0416C24.5833 23.2946 24.378 23.4999 24.125 23.4999Z" fill="white"/>
<defs>
<linearGradient id="paint0_linear" x1="18" y1="0" x2="18" y2="36" gradientUnits="userSpaceOnUse">
<stop stop-color="#5181FF"/>
<stop offset="1" stop-color="white" stop-opacity="0"/>
</linearGradient>
</defs>
</svg>
