<svg width="36" height="36" viewBox="0 0 36 36" fill="none" xmlns="http://www.w3.org/2000/svg">
<circle cx="18" cy="18" r="18" fill="#0047FF"/>
<circle cx="18" cy="18" r="18" fill="url(#paint0_linear)"/>
<g clip-path="url(#clip0)">
<path d="M25.4787 11.0923C22.7063 8.31227 18.2053 8.306 15.4253 11.0783C12.7428 13.7533 12.6293 18.0619 15.1672 20.8744L14.6243 21.4173C14.1857 20.9786 13.4745 20.9785 13.0358 21.4171C13.0358 21.4172 13.0357 21.4172 13.0357 21.4173L9.32905 25.1239C8.89039 25.5625 8.89029 26.2737 9.32891 26.7124C9.32896 26.7124 9.329 26.7125 9.32905 26.7125L9.85846 27.2419C10.2971 27.6804 11.0081 27.6804 11.4467 27.2419L15.1533 23.5353C15.592 23.0967 15.5921 22.3855 15.1535 21.9468C15.1534 21.9468 15.1534 21.9467 15.1533 21.9467L15.6962 21.4038C18.6091 24.0362 23.1044 23.8088 25.7368 20.896C28.2795 18.0824 28.1659 13.7682 25.4787 11.0923ZM14.6243 23.0055L10.9177 26.7121C10.7714 26.8583 10.5345 26.8583 10.3882 26.7121L9.85883 26.1823C9.71291 26.0362 9.71291 25.7995 9.85883 25.6533L13.5655 21.9467C13.7135 21.8051 13.9468 21.8051 14.0949 21.9467L14.6243 22.4765C14.7702 22.6226 14.7702 22.8594 14.6243 23.0055ZM24.9496 20.6232C22.464 23.1088 18.4339 23.1087 15.9483 20.623C13.4627 18.1373 13.4628 14.1073 15.9485 11.6217C18.4341 9.13615 22.464 9.13615 24.9496 11.6217C27.4313 14.1091 27.4313 18.1358 24.9496 20.6232Z" fill="white"/>
<path d="M24.4199 12.1499L23.8904 12.6793C25.788 14.5815 25.788 17.6606 23.8904 19.5628L24.4199 20.0922C26.6099 17.8977 26.6099 14.3444 24.4199 12.1499Z" fill="white"/>
</g>
<defs>
<linearGradient id="paint0_linear" x1="18" y1="0" x2="18" y2="36" gradientUnits="userSpaceOnUse">
<stop stop-color="#5181FF"/>
<stop offset="1" stop-color="white" stop-opacity="0"/>
</linearGradient>
<clipPath id="clip0">
<rect width="18.5714" height="18.5714" fill="white" transform="translate(9 9)"/>
</clipPath>
</defs>
</svg>
