<svg width="36" height="36" viewBox="0 0 36 36" fill="none" xmlns="http://www.w3.org/2000/svg">
<circle cx="18" cy="17.9999" r="18" fill="#0047FF"/>
<circle cx="18" cy="17.9999" r="18" fill="url(#paint0_linear)"/>
<g clip-path="url(#clip0)">
<path d="M16.1715 8.47083C11.9205 8.47083 8.47443 11.9169 8.47443 16.1679C8.47443 20.4189 11.9205 23.865 16.1715 23.865C20.4225 23.865 23.8686 20.4189 23.8686 16.1679C23.864 11.9188 20.4206 8.47545 16.1715 8.47083ZM16.1715 9.20388C18.4355 9.20567 20.5571 10.3091 21.8586 12.1618L20.9422 13.0781C20.7192 12.9432 20.464 12.8709 20.2033 12.8692C19.3936 12.8692 18.7372 13.5256 18.7372 14.3353C18.7385 14.5962 18.8103 14.8519 18.945 15.0753L16.545 17.4753C16.0906 17.1982 15.5194 17.1982 15.065 17.4753L13.398 15.8083C13.5327 15.5849 13.6045 15.3292 13.6058 15.0683C13.6068 14.2602 12.9526 13.6043 12.1445 13.6033C11.4762 13.6025 10.8922 14.0546 10.7256 14.7018H9.36582C10.0598 11.4971 12.8926 9.20869 16.1715 9.20388ZM20.9364 14.3353C20.9364 14.7401 20.6082 15.0683 20.2033 15.0683C19.7984 15.0683 19.4703 14.7401 19.4703 14.3353C19.4703 13.9304 19.7984 13.6022 20.2033 13.6022C20.6082 13.6022 20.9364 13.9304 20.9364 14.3353ZM16.538 18.7336C16.538 19.1385 16.2099 19.4667 15.805 19.4667C15.4001 19.4667 15.0719 19.1385 15.0719 18.7336C15.0719 18.3287 15.4001 18.0005 15.805 18.0005C16.2099 18.0005 16.538 18.3287 16.538 18.7336ZM12.8728 15.0683C12.8728 15.4732 12.5446 15.8014 12.1397 15.8014C11.7348 15.8014 11.4066 15.4732 11.4066 15.0683C11.4066 14.6634 11.7348 14.3353 12.1397 14.3353C12.5446 14.3353 12.8728 14.6634 12.8728 15.0683ZM19.5552 22.2571C18.5201 22.8318 17.3555 23.1329 16.1715 23.1319C12.328 23.1345 9.21009 20.0209 9.20748 16.1774C9.2073 15.9293 9.2204 15.6814 9.2467 15.4348H10.7256C10.8923 16.0801 11.4732 16.5319 12.1397 16.5344C12.4006 16.5331 12.6563 16.4613 12.8797 16.3266L14.5467 17.9935C14.4119 18.2169 14.3402 18.4726 14.3389 18.7336C14.3389 19.5433 14.9953 20.1997 15.805 20.1997C16.6147 20.1997 17.2711 19.5433 17.2711 18.7336C17.2698 18.4726 17.198 18.2169 17.0633 17.9935L19.4633 15.5935C19.6867 15.7283 19.9424 15.8001 20.2033 15.8013C21.013 15.8013 21.6694 15.1449 21.6694 14.3352C21.6681 14.0743 21.5963 13.8186 21.4616 13.5952L22.2606 12.7965C24.126 16.1561 22.9147 20.3918 19.5552 22.2571Z" fill="white"/>
<path d="M25.3347 10.671C26.0012 10.6685 26.5821 10.2168 26.7488 9.57139H29V8.83833H26.7488C26.5821 8.19297 26.0012 7.74127 25.3347 7.73875C24.525 7.73875 23.8686 8.39515 23.8686 9.20486C23.8699 9.46578 23.9417 9.72148 24.0764 9.94488L23.4324 10.5889C20.3511 6.57443 14.5988 5.81801 10.5844 8.89936C6.56991 11.9807 5.81349 17.733 8.89484 21.7475C11.8034 25.5368 17.1351 26.456 21.1446 23.8594L22.2507 24.9656L22.769 25.4838L25.7196 28.4344C26.47 29.1848 27.6866 29.1848 28.437 28.4344C29.1874 27.684 29.1874 26.4674 28.437 25.7169L25.4865 22.7664L24.9682 22.2481L23.862 21.1419C25.8256 18.1173 25.8256 14.2205 23.862 11.1958L24.5951 10.4628C24.8183 10.5976 25.0739 10.6695 25.3347 10.671ZM25.3347 8.4718C25.7396 8.4718 26.0678 8.79998 26.0678 9.20486C26.0678 9.60974 25.7396 9.93792 25.3347 9.93792C24.9298 9.93792 24.6017 9.60974 24.6017 9.20486C24.6017 8.79998 24.9299 8.4718 25.3347 8.4718ZM27.9187 26.2352C28.3882 26.6941 28.3967 27.4467 27.9378 27.9161C27.4789 28.3855 26.7264 28.3941 26.2569 27.9352C26.2505 27.9289 26.2442 27.9226 26.2378 27.9161L23.2873 24.9656L24.9682 23.2847L27.9187 26.2352ZM24.4499 22.7664L22.769 24.4473L21.7545 23.4327C21.8061 23.3931 21.8545 23.3495 21.9055 23.3088C21.9564 23.2682 22.0154 23.2194 22.07 23.1736C22.1503 23.1062 22.2295 23.038 22.3072 22.968C22.3471 22.9313 22.3853 22.8947 22.4245 22.858C22.5748 22.7173 22.7203 22.5718 22.861 22.4215C22.8977 22.3823 22.9343 22.3441 22.971 22.3042C23.041 22.2265 23.1092 22.1473 23.1766 22.0671C23.2225 22.0128 23.2676 21.958 23.3118 21.9025C23.3522 21.8519 23.3958 21.8035 23.4354 21.7518L24.4499 22.7664ZM23.0285 21.0639C22.9131 21.2251 22.7939 21.3831 22.6682 21.5352C22.6316 21.5796 22.5924 21.6225 22.5546 21.6661C22.4424 21.7966 22.3266 21.9231 22.2071 22.0458C22.1551 22.0995 22.1022 22.1525 22.0484 22.2045C21.9262 22.324 21.7997 22.4398 21.6687 22.552C21.6251 22.5886 21.5822 22.6286 21.5378 22.6656C21.3857 22.7913 21.2278 22.9104 21.0665 23.0259C17.2722 25.7366 11.9988 24.8582 9.28813 21.0639C6.57743 17.2696 7.45585 11.9962 11.2501 9.2855C15.0444 6.57479 20.3178 7.45318 23.0285 11.2475C25.126 14.1835 25.126 18.1279 23.0285 21.0639Z" fill="white"/>
</g>
<defs>
<linearGradient id="paint0_linear" x1="18" y1="-0.00012207" x2="18" y2="35.9999" gradientUnits="userSpaceOnUse">
<stop stop-color="#5181FF"/>
<stop offset="1" stop-color="white" stop-opacity="0"/>
</linearGradient>
<clipPath id="clip0">
<rect width="22" height="22" fill="white" transform="translate(7 6.99988)"/>
</clipPath>
</defs>
</svg>
