<svg width="36" height="36" viewBox="0 0 36 36" fill="none" xmlns="http://www.w3.org/2000/svg">
<circle cx="18" cy="18" r="18" fill="#0047FF"/>
<circle cx="18" cy="18" r="18" fill="url(#paint0_linear)"/>
<g clip-path="url(#clip0)">
<path d="M11.9794 15.5951H13.577C14.0133 15.5951 14.3683 15.2411 14.3683 14.806V13.2122C14.3683 12.7771 14.0133 12.4231 13.577 12.4231H11.9794C11.5438 12.4231 11.1894 12.7771 11.1894 13.2122V14.806C11.1894 15.2411 11.5438 15.5951 11.9794 15.5951ZM12.0097 13.2433H13.5479V14.7748H12.0097V13.2433Z" fill="white"/>
<path d="M26.2244 18.4628C26.028 18.4628 25.8308 18.5049 25.6509 18.5879C25.5126 18.1494 25.1835 17.8675 24.8068 17.75V8.93532C24.8068 7.86818 23.937 7 22.8678 7H9.39019C8.32103 7 7.45117 7.86818 7.45117 8.93532V10.0269C7.45117 10.5396 7.86883 10.9567 8.38223 10.9567H8.78192V26.3612C8.78192 26.8738 9.19959 27.2909 9.71298 27.2909H20.5678C21.2874 27.7572 22.0723 28 22.8696 28C23.3129 28 23.7601 27.925 24.2019 27.7717C25.1548 27.4412 26.0062 26.75 26.5992 25.8256C27.228 24.8454 27.5563 23.6393 27.5487 22.3401V19.8372C27.5487 18.9349 26.8825 18.4628 26.2244 18.4628ZM9.60224 26.3612V10.9567H13.3603C13.5868 10.9567 13.7704 10.773 13.7704 10.5465C13.7704 10.3201 13.5868 10.1364 13.3603 10.1364H8.38223C8.32222 10.1364 8.27148 10.0863 8.27148 10.0269V8.93532C8.27148 8.32046 8.77331 7.82023 9.39019 7.82023H21.2839C21.0603 8.13564 20.9288 8.52041 20.9288 8.93532V10.0269C20.9288 10.0863 20.8781 10.1365 20.8181 10.1365H17.0519C16.8254 10.1365 16.6417 10.3201 16.6417 10.5466C16.6417 10.7731 16.8254 10.9567 17.0519 10.9567H20.8181C21.3315 10.9567 21.7491 10.5396 21.7491 10.027V8.93532C21.7491 8.32046 22.251 7.82023 22.8678 7.82023C23.4846 7.82023 23.9865 8.32046 23.9865 8.93532V17.7498C23.9311 17.7671 23.8767 17.7874 23.8238 17.8118C23.6368 17.2186 23.1005 16.9109 22.5695 16.9109C22.3982 16.9109 22.2265 16.9428 22.0661 17.0061V14.6967C22.0661 13.7944 21.4002 13.3222 20.7424 13.3222C20.0845 13.3222 19.4186 13.7943 19.4186 14.6967V20.6231C19.4186 20.8097 19.422 20.9799 19.425 21.1301C19.4254 21.1463 19.4257 21.1627 19.426 21.1792L18.4726 20.1571C17.9172 19.5626 17.1142 19.5016 16.5198 20.0089C15.9349 20.5081 15.6655 21.4906 16.3181 22.3282L19.1649 25.982C19.3003 26.1557 19.4411 26.3185 19.5863 26.4707H9.71298C9.65293 26.4707 9.60224 26.4205 9.60224 26.3612ZM26.7284 22.3425C26.7414 24.5763 25.6442 26.4033 23.9331 26.9968C22.4854 27.4989 20.9448 26.9312 19.8121 25.4779L16.9653 21.8242C16.6258 21.3884 16.7568 20.8851 17.0524 20.6328C17.1214 20.5739 17.2534 20.4848 17.4203 20.4848C17.5537 20.4848 17.7094 20.5418 17.873 20.7168L18.8717 21.7876C19.1536 22.0895 19.5042 22.4654 19.893 22.3078C20.2027 22.1821 20.2315 21.8321 20.241 21.7171C20.254 21.5589 20.2501 21.3625 20.2451 21.1138C20.2423 20.9675 20.2389 20.8016 20.2389 20.6231V14.6967C20.2389 14.1692 20.6583 14.1425 20.7424 14.1425C20.8264 14.1425 21.2458 14.1692 21.2458 14.6967V20.5685C21.2458 20.7949 21.4294 20.9786 21.6559 20.9786C21.8824 20.9786 22.0661 20.7949 22.0661 20.5685V18.2853C22.0661 17.7578 22.4854 17.7311 22.5695 17.7311C22.7022 17.7311 22.8288 17.7785 22.9169 17.8612C23.0204 17.9583 23.0729 18.101 23.0729 18.2854V20.5685C23.0729 20.795 23.2566 20.9786 23.4831 20.9786C23.7096 20.9786 23.8932 20.795 23.8932 20.5685V19.0619C23.8932 18.534 24.3123 18.5073 24.3964 18.5073C24.5291 18.5073 24.6558 18.5547 24.744 18.6374C24.8476 18.7347 24.9001 18.8774 24.9001 19.0618V20.5685C24.9001 20.7949 25.0838 20.9786 25.3103 20.9786C25.5368 20.9786 25.7204 20.7949 25.7204 20.5685V19.8372C25.7204 19.3098 26.1403 19.2831 26.2244 19.2831C26.3573 19.2831 26.4842 19.3305 26.5723 19.4132C26.6759 19.5103 26.7284 19.653 26.7284 19.8372V22.3425H26.7284Z" fill="white"/>
<path d="M15.2737 12.8332C15.2737 13.0597 15.4573 13.2433 15.6838 13.2433H18.9664C19.1929 13.2433 19.3766 13.0597 19.3766 12.8332C19.3766 12.6067 19.1929 12.4231 18.9664 12.4231H15.6838C15.4573 12.4231 15.2737 12.6067 15.2737 12.8332Z" fill="white"/>
<path d="M18.2696 14.7749H15.6838C15.4573 14.7749 15.2737 14.9585 15.2737 15.185C15.2737 15.4115 15.4573 15.5951 15.6838 15.5951H18.2696C18.4961 15.5951 18.6797 15.4115 18.6797 15.185C18.6797 14.9585 18.4961 14.7749 18.2696 14.7749Z" fill="white"/>
<path d="M11.5995 17.9479H17.8641C18.0906 17.9479 18.2743 17.7643 18.2743 17.5378C18.2743 17.3113 18.0906 17.1277 17.8641 17.1277H11.5995C11.373 17.1277 11.1894 17.3113 11.1894 17.5378C11.1894 17.7643 11.373 17.9479 11.5995 17.9479Z" fill="white"/>
<path d="M11.5995 20.2997H14.9789C15.2054 20.2997 15.389 20.1161 15.389 19.8896C15.389 19.6631 15.2054 19.4795 14.9789 19.4795H11.5995C11.373 19.4795 11.1894 19.6631 11.1894 19.8896C11.1894 20.1161 11.373 20.2997 11.5995 20.2997Z" fill="white"/>
<path d="M11.5995 22.6525H14.5757C14.8022 22.6525 14.9858 22.4689 14.9858 22.2424C14.9858 22.0159 14.8022 21.8323 14.5757 21.8323H11.5995C11.373 21.8323 11.1894 22.0159 11.1894 22.2424C11.1894 22.4689 11.373 22.6525 11.5995 22.6525Z" fill="white"/>
<path d="M15.9659 24.1841H11.5995C11.373 24.1841 11.1894 24.3677 11.1894 24.5942C11.1894 24.8207 11.373 25.0043 11.5995 25.0043H15.9659C16.1924 25.0043 16.376 24.8207 16.376 24.5942C16.376 24.3677 16.1924 24.1841 15.9659 24.1841Z" fill="white"/>
<path d="M15.2061 10.9567H15.2084C15.4349 10.9567 15.6174 10.7731 15.6174 10.5466C15.6174 10.3201 15.4326 10.1365 15.2061 10.1365C14.9796 10.1365 14.796 10.3201 14.796 10.5466C14.796 10.7731 14.9795 10.9567 15.2061 10.9567Z" fill="white"/>
</g>
<defs>
<linearGradient id="paint0_linear" x1="18" y1="0" x2="18" y2="36" gradientUnits="userSpaceOnUse">
<stop stop-color="#5181FF"/>
<stop offset="1" stop-color="white" stop-opacity="0"/>
</linearGradient>
<clipPath id="clip0">
<rect width="21" height="21" fill="white" transform="translate(7 7)"/>
</clipPath>
</defs>
</svg>
