<svg width="36" height="36" viewBox="0 0 36 36" fill="none" xmlns="http://www.w3.org/2000/svg">
<circle cx="18" cy="18.0004" r="18" fill="#0047FF"/>
<circle cx="18" cy="18.0004" r="18" fill="url(#paint0_linear)"/>
<g clip-path="url(#clip0)">
<path d="M30.5151 15.5685L29.4881 14.6882C29.0083 14.2769 28.2277 14.277 27.7479 14.6882L25.5845 16.5425V10.5824C25.5845 9.71007 24.7565 9.00037 23.7388 9.00037H11.7213C10.7035 9.00037 9.87555 9.71007 9.87555 10.5824V25.4183C9.87555 26.2907 10.7035 27.0004 11.7213 27.0004H23.7388C24.7565 27.0004 25.5845 26.2907 25.5845 25.4183V21.2336L30.5151 17.0601C30.9949 16.6489 30.9949 15.9798 30.5151 15.5685ZM23.157 21.8061L21.3063 22.5464L22.1691 20.9616L26.7618 17.025L27.7773 17.8953L23.157 21.8061ZM24.3541 25.4183C24.3541 25.7091 24.0781 25.9457 23.7388 25.9457H11.7213C11.382 25.9457 11.106 25.7091 11.106 25.4183V10.5824C11.106 10.2916 11.382 10.0551 11.7213 10.0551H23.7388C24.0781 10.0551 24.3541 10.2916 24.3541 10.5824V17.5972C20.9424 20.5215 21.1652 20.3114 21.0999 20.4314L19.4757 23.4145C19.3664 23.6155 19.4153 23.8536 19.5982 24.0104C19.7811 24.1672 20.0591 24.2091 20.2934 24.1154L23.7738 22.7232C23.9014 22.6722 23.9224 22.6405 24.3541 22.2751V25.4183ZM28.6527 17.1543L27.6319 16.2792L28.618 15.434L29.6447 16.3146L28.6527 17.1543Z" fill="white"/>
<path d="M13.1565 13.4652H22.344C22.6838 13.4652 22.9592 13.2291 22.9592 12.9379C22.9592 12.6466 22.6838 12.4105 22.344 12.4105H13.1565C12.8167 12.4105 12.5413 12.6466 12.5413 12.9379C12.5413 13.2291 12.8167 13.4652 13.1565 13.4652Z" fill="white"/>
<path d="M13.1565 16.2777H20.3752C20.715 16.2777 20.9905 16.0416 20.9905 15.7504C20.9905 15.4591 20.715 15.223 20.3752 15.223H13.1565C12.8167 15.223 12.5413 15.4591 12.5413 15.7504C12.5413 16.0416 12.8167 16.2777 13.1565 16.2777Z" fill="white"/>
<path d="M18.4065 18.0355H13.1565C12.8167 18.0355 12.5413 18.2716 12.5413 18.5629C12.5413 18.8541 12.8167 19.0902 13.1565 19.0902H18.4065C18.7463 19.0902 19.0217 18.8541 19.0217 18.5629C19.0217 18.2716 18.7463 18.0355 18.4065 18.0355Z" fill="white"/>
</g>
<defs>
<linearGradient id="paint0_linear" x1="18" y1="0.000366211" x2="18" y2="36.0004" gradientUnits="userSpaceOnUse">
<stop stop-color="#5181FF"/>
<stop offset="1" stop-color="white" stop-opacity="0"/>
</linearGradient>
<clipPath id="clip0">
<rect width="21" height="18" fill="white" transform="translate(9 9.00037)"/>
</clipPath>
</defs>
</svg>
