<svg width="36" height="36" viewBox="0 0 36 36" fill="none" xmlns="http://www.w3.org/2000/svg">
<circle cx="18" cy="18.0004" r="18" fill="#0047FF"/>
<circle cx="18" cy="18.0004" r="18" fill="url(#paint0_linear)"/>
<g clip-path="url(#clip0)">
<path d="M22.8667 7.00037H12.1333C11.0753 7.00161 10.2179 7.85903 10.2167 8.91703V28.0837C10.2179 29.1417 11.0753 29.9991 12.1333 30.0004H22.8667C23.9247 29.9991 24.7821 29.1417 24.7833 28.0837V8.91703C24.7821 7.85903 23.9247 7.00161 22.8667 7.00037ZM24.0167 28.0837C24.0167 28.7188 23.5018 29.2337 22.8667 29.2337H12.1333C11.4982 29.2337 10.9833 28.7188 10.9833 28.0837V26.167H24.0167V28.0837ZM24.0167 25.4004H10.9833V10.067H24.0167V25.4004ZM24.0167 9.30037H10.9833V8.91703C10.9833 8.2819 11.4982 7.76703 12.1333 7.76703H22.8667C23.5018 7.76703 24.0167 8.2819 24.0167 8.91703V9.30037Z" fill="white"/>
<path d="M17.5 26.5503C16.8648 26.5503 16.35 27.0652 16.35 27.7003C16.35 28.3354 16.8648 28.8503 17.5 28.8503C18.1351 28.8503 18.65 28.3354 18.65 27.7003C18.65 27.0652 18.1351 26.5503 17.5 26.5503ZM17.5 28.0836C17.2883 28.0836 17.1166 27.912 17.1166 27.7003C17.1166 27.4886 17.2883 27.317 17.5 27.317C17.7117 27.317 17.8833 27.4886 17.8833 27.7003C17.8833 27.912 17.7117 28.0836 17.5 28.0836Z" fill="white"/>
<path d="M17.8833 8.15039H17.1167C16.905 8.15039 16.7333 8.32203 16.7333 8.53372C16.7333 8.74542 16.905 8.91706 17.1167 8.91706H17.8833C18.095 8.91706 18.2667 8.74542 18.2667 8.53372C18.2667 8.32203 18.095 8.15039 17.8833 8.15039Z" fill="white"/>
</g>
<defs>
<linearGradient id="paint0_linear" x1="18" y1="0.000366211" x2="18" y2="36.0004" gradientUnits="userSpaceOnUse">
<stop stop-color="#5181FF"/>
<stop offset="1" stop-color="white" stop-opacity="0"/>
</linearGradient>
<clipPath id="clip0">
<rect width="23" height="23" fill="white" transform="translate(6 7.00037)"/>
</clipPath>
</defs>
</svg>
