<svg width="36" height="36" viewBox="0 0 36 36" fill="none" xmlns="http://www.w3.org/2000/svg">
<circle cx="18" cy="17.9999" r="18" fill="#0047FF"/>
<circle cx="18" cy="17.9999" r="18" fill="url(#paint0_linear)"/>
<path d="M30.9649 18.1614C30.9648 18.1612 30.9648 18.1612 30.9648 18.1611L26.2447 6.30928C26.1445 6.05746 25.8591 5.93453 25.6073 6.0347C25.6071 6.03476 25.6069 6.03482 25.6067 6.03495L6.45788 13.6598C6.37978 13.6936 6.31206 13.7474 6.26157 13.8159C6.10232 13.8987 6.00172 14.0624 6 14.2419V27.0016C6 27.2726 6.21974 27.4923 6.49076 27.4923H27.1025C27.3736 27.4923 27.5933 27.2726 27.5933 27.0016V20.0328L30.6909 18.799C30.9427 18.6986 31.0653 18.4131 30.9649 18.1614ZM26.6118 26.5108H6.98151V14.7326H26.6118V26.5108ZM14.1883 13.7536L22.4055 10.4792C23.1389 11.2501 24.155 11.6882 25.219 11.6924L26.0386 13.7536H14.1883ZM27.5933 18.9787V14.2419C27.5933 13.9709 27.3736 13.7511 27.1025 13.7511H27.0947L26.0548 11.1393C26.0432 11.1175 26.0298 11.0968 26.0145 11.0775C25.9619 10.8411 25.743 10.6798 25.5017 10.6996C24.5117 10.7898 23.5433 10.3728 22.9286 9.59146C22.7757 9.4027 22.5069 9.35578 22.299 9.48153C22.2757 9.48429 22.2526 9.48859 22.2298 9.49429L12.1978 13.4891C12.0764 13.5367 11.9793 13.6311 11.9283 13.7511H8.88172L25.5144 7.12835L29.8719 18.0698L27.5933 18.9787Z" fill="white"/>
<path d="M8.31341 23.1976C9.26622 23.4792 10.0118 24.2239 10.2946 25.1763C10.3566 25.3842 10.5478 25.5267 10.7647 25.5267C10.7902 25.5251 10.8155 25.5213 10.8403 25.5154C10.8623 25.5217 10.8849 25.5263 10.9076 25.5292H22.6857C22.706 25.5266 22.726 25.5224 22.7456 25.5169C22.9908 25.5765 23.2379 25.4262 23.2976 25.181C23.2977 25.1801 23.298 25.1792 23.2982 25.1783C23.5802 24.2249 24.3259 23.4792 25.2794 23.1971C25.5106 23.1264 25.6542 22.896 25.616 22.6573C25.6226 22.6335 25.6273 22.6092 25.6303 22.5846V18.6586C25.6274 18.634 25.6225 18.6097 25.6155 18.586C25.654 18.3471 25.5103 18.1166 25.2789 18.0461C24.3255 17.7641 23.5799 17.0181 23.2987 16.0645C23.2276 15.8316 22.9949 15.6876 22.7549 15.7278C22.7322 15.7215 22.7091 15.7169 22.6857 15.7141H10.9076C10.8828 15.717 10.8584 15.7219 10.8344 15.7288C10.5957 15.6907 10.3655 15.8343 10.2946 16.0654C10.0124 17.0187 9.26671 17.7641 8.31341 18.0461C8.08221 18.1168 7.93854 18.3472 7.97675 18.586C7.97037 18.6098 7.96577 18.6341 7.96301 18.6586V22.5846C7.96583 22.6077 7.97044 22.6305 7.97675 22.6529C7.93651 22.8932 8.08049 23.1261 8.31341 23.1976ZM8.94453 18.8578C9.92997 18.462 10.711 17.681 11.1068 16.6956H22.486C22.882 17.681 23.6632 18.462 24.6487 18.8578V22.3854C23.6636 22.7816 22.8827 23.5625 22.4865 24.5477H11.1068C10.7106 23.5625 9.92966 22.7816 8.94453 22.3854V18.8578Z" fill="white"/>
<path d="M16.7967 23.5662C18.4229 23.5662 19.7412 22.2479 19.7412 20.6217C19.7412 18.9954 18.4229 17.6771 16.7967 17.6771C15.1704 17.6771 13.8521 18.9954 13.8521 20.6217C13.8537 22.2472 15.1711 23.5646 16.7967 23.5662ZM16.7967 18.6586C17.8808 18.6586 18.7597 19.5375 18.7597 20.6217C18.7597 21.7058 17.8808 22.5847 16.7967 22.5847C15.7125 22.5847 14.8336 21.7058 14.8336 20.6217C14.8336 19.5375 15.7125 18.6586 16.7967 18.6586Z" fill="white"/>
<path d="M11.3983 21.3577C11.8048 21.3577 12.1344 21.0281 12.1344 20.6216C12.1344 20.215 11.8048 19.8854 11.3983 19.8854C10.9918 19.8854 10.6622 20.215 10.6622 20.6216C10.6622 21.0282 10.9918 21.3577 11.3983 21.3577ZM11.3983 20.3762C11.5338 20.3762 11.6437 20.4861 11.6437 20.6216C11.6437 20.7571 11.5338 20.867 11.3983 20.867C11.2628 20.867 11.1529 20.7571 11.1529 20.6216C11.1529 20.4861 11.2628 20.3762 11.3983 20.3762Z" fill="white"/>
<path d="M22.195 21.3577C22.6015 21.3577 22.9311 21.0281 22.9311 20.6216C22.9311 20.215 22.6015 19.8854 22.195 19.8854C21.7885 19.8854 21.4589 20.215 21.4589 20.6216C21.4589 21.0282 21.7885 21.3577 22.195 21.3577ZM22.195 20.3762C22.3305 20.3762 22.4404 20.4861 22.4404 20.6216C22.4404 20.7571 22.3305 20.867 22.195 20.867C22.0595 20.867 21.9496 20.7571 21.9496 20.6216C21.9496 20.4861 22.0595 20.3762 22.195 20.3762Z" fill="white"/>
<defs>
<linearGradient id="paint0_linear" x1="18" y1="-0.00012207" x2="18" y2="35.9999" gradientUnits="userSpaceOnUse">
<stop stop-color="#5181FF"/>
<stop offset="1" stop-color="white" stop-opacity="0"/>
</linearGradient>
</defs>
</svg>
