<svg width="36" height="36" viewBox="0 0 36 36" fill="none" xmlns="http://www.w3.org/2000/svg">
<circle cx="18" cy="18.0004" r="18" fill="#0047FF"/>
<circle cx="18" cy="18.0004" r="18" fill="url(#paint0_linear)"/>
<path d="M17.8152 18.6796C17.8382 18.6796 17.8611 18.6796 17.8887 18.6796C17.8979 18.6796 17.907 18.6796 17.9162 18.6796C17.93 18.6796 17.9484 18.6796 17.9621 18.6796C19.3073 18.6566 20.3954 18.1837 21.1988 17.2793C22.9663 15.2868 22.6725 11.8711 22.6404 11.5451C22.5256 9.09814 21.3687 7.92743 20.4137 7.3811C19.7021 6.9725 18.8712 6.75213 17.9438 6.73376H17.9116C17.907 6.73376 17.8979 6.73376 17.8933 6.73376H17.8657C17.3561 6.73376 16.3553 6.8164 15.3958 7.36273C14.4316 7.90906 13.2564 9.07977 13.1416 11.5451C13.1094 11.8711 12.8156 15.2868 14.5832 17.2793C15.382 18.1837 16.4701 18.6566 17.8152 18.6796ZM14.3674 11.6599C14.3674 11.6461 14.372 11.6324 14.372 11.6232C14.5235 8.33144 16.8603 7.97793 17.8611 7.97793H17.8795C17.8887 7.97793 17.9025 7.97793 17.9162 7.97793C19.1558 8.00547 21.2631 8.51049 21.4054 11.6232C21.4054 11.637 21.4054 11.6507 21.41 11.6599C21.4146 11.6921 21.7359 14.8139 20.276 16.4575C19.6975 17.1095 18.9263 17.4308 17.9116 17.44C17.9025 17.44 17.8979 17.44 17.8887 17.44C17.8795 17.44 17.8749 17.44 17.8657 17.44C16.8557 17.4308 16.0798 17.1095 15.5059 16.4575C14.0506 14.8231 14.3628 11.6875 14.3674 11.6599Z" fill="white"/>
<path d="M27.3232 24.3449C27.3232 24.3403 27.3232 24.3358 27.3232 24.3312C27.3232 24.2944 27.3186 24.2577 27.3186 24.2164C27.2911 23.3074 27.2314 21.1817 25.2389 20.5023C25.2251 20.4977 25.2068 20.4931 25.193 20.4885C23.1224 19.9605 21.4008 18.7669 21.3824 18.7531C21.1024 18.5557 20.7167 18.6245 20.5193 18.9046C20.3219 19.1846 20.3908 19.5703 20.6708 19.7677C20.7489 19.8228 22.5761 21.0945 24.8624 21.6821C25.9321 22.0632 26.0515 23.2064 26.0836 24.2531C26.0836 24.2944 26.0836 24.3312 26.0882 24.3679C26.0928 24.7811 26.0653 25.4192 25.9918 25.7865C25.2481 26.2089 22.3328 27.6688 17.8979 27.6688C13.4813 27.6688 10.5477 26.2043 9.79932 25.7819C9.72586 25.4146 9.69372 24.7765 9.70291 24.3633C9.70291 24.3266 9.7075 24.2898 9.7075 24.2485C9.73963 23.2018 9.859 22.0586 10.9287 21.6776C13.215 21.0899 15.0423 19.8136 15.1203 19.7631C15.4004 19.5657 15.4692 19.18 15.2718 18.9C15.0744 18.6199 14.6887 18.5511 14.4087 18.7485C14.3903 18.7623 12.6779 19.9559 10.5982 20.4839C10.5798 20.4885 10.566 20.4931 10.5522 20.4977C8.55974 21.1817 8.50006 23.3074 8.47252 24.2118C8.47252 24.2531 8.47252 24.2898 8.46792 24.3266C8.46792 24.3312 8.46792 24.3358 8.46792 24.3403C8.46333 24.5791 8.45874 25.8049 8.70207 26.4201C8.74798 26.5394 8.83061 26.6404 8.9408 26.7093C9.07853 26.8011 12.3795 28.9038 17.9025 28.9038C23.4254 28.9038 26.7264 26.7965 26.8641 26.7093C26.9697 26.6404 27.0569 26.5394 27.1028 26.4201C27.3324 25.8095 27.3278 24.5837 27.3232 24.3449Z" fill="white"/>
<defs>
<linearGradient id="paint0_linear" x1="18" y1="0.000366211" x2="18" y2="36.0004" gradientUnits="userSpaceOnUse">
<stop stop-color="#5181FF"/>
<stop offset="1" stop-color="white" stop-opacity="0"/>
</linearGradient>
</defs>
</svg>
