<svg width="36" height="36" viewBox="0 0 36 36" fill="none" xmlns="http://www.w3.org/2000/svg">
<circle cx="18" cy="17.9999" r="18" fill="#0047FF"/>
<circle cx="18" cy="17.9999" r="18" fill="url(#paint0_linear)"/>
<g clip-path="url(#clip0)">
<path d="M28.4227 23.9722L23.9698 21.0027C23.4047 20.6289 22.6473 20.7519 22.2295 21.2853L20.9324 22.953C20.7657 23.1728 20.4627 23.2366 20.2216 23.1026L19.9748 22.9666C19.1569 22.5208 18.1392 21.9658 16.0888 19.9146C14.0383 17.8634 13.4821 16.8449 13.0363 16.0285L12.901 15.7818C12.7652 15.5407 12.8278 15.2363 13.0477 15.0683L14.7143 13.7716C15.2475 13.3538 15.3707 12.5966 14.9973 12.0313L12.0277 7.57844C11.6451 7.00283 10.8773 6.83003 10.2849 7.18615L8.4229 8.30467C7.83784 8.64863 7.4086 9.20568 7.2252 9.85909C6.55468 12.3022 7.0591 16.5186 13.2703 22.7305C18.2111 27.6709 21.8893 28.9996 24.4175 28.9996C24.9993 29.0021 25.5789 28.9264 26.1406 28.7745C26.7941 28.5913 27.3513 28.162 27.695 27.5768L28.8146 25.7159C29.1713 25.1233 28.9986 24.3551 28.4227 23.9722ZM28.1829 25.3397L27.0659 27.2017C26.819 27.6241 26.4183 27.9347 25.9477 28.0684C23.6923 28.6876 19.7519 28.1747 13.789 22.2118C7.82602 16.2488 7.31318 12.3088 7.9324 10.0531C8.06627 9.58186 8.37723 9.18063 8.80015 8.93343L10.6622 7.81636C10.9192 7.6617 11.2524 7.73667 11.4185 7.98645L13.0316 10.4083L14.3855 12.4389C14.5477 12.6841 14.4944 13.0127 14.2631 13.1942L12.5961 14.4909C12.0888 14.8788 11.9439 15.5807 12.2563 16.1377L12.3886 16.3782C12.8572 17.2375 13.4397 18.3066 15.5664 20.4329C17.6931 22.5593 18.7618 23.1419 19.6208 23.6104L19.8616 23.7431C20.4186 24.0554 21.1206 23.9105 21.5085 23.4032L22.8052 21.7363C22.9866 21.5051 23.3151 21.4518 23.5604 21.6138L28.0129 24.5834C28.2628 24.7493 28.3378 25.0827 28.1829 25.3397Z" fill="white"/>
<path d="M19.466 10.6685C22.9064 10.6723 25.6945 13.4604 25.6984 16.9009C25.6984 17.1034 25.8625 17.2675 26.065 17.2675C26.2675 17.2675 26.4316 17.1034 26.4316 16.9009C26.4273 13.0556 23.3112 9.93948 19.466 9.93527C19.2635 9.93527 19.0994 10.0994 19.0994 10.3019C19.0994 10.5044 19.2635 10.6685 19.466 10.6685Z" fill="white"/>
<path d="M19.466 12.8681C21.6921 12.8707 23.4961 14.6747 23.4987 16.9008C23.4987 17.1033 23.6629 17.2674 23.8653 17.2674C24.0678 17.2674 24.2319 17.1033 24.2319 16.9008C24.2289 14.2699 22.0968 12.1379 19.466 12.1349C19.2635 12.1349 19.0994 12.299 19.0994 12.5015C19.0994 12.7039 19.2635 12.8681 19.466 12.8681Z" fill="white"/>
<path d="M19.466 15.0678C20.4778 15.069 21.2978 15.889 21.299 16.9009C21.299 17.1033 21.4632 17.2675 21.6656 17.2675C21.8681 17.2675 22.0322 17.1033 22.0322 16.9009C22.0306 15.4842 20.8826 14.3362 19.466 14.3346C19.2635 14.3346 19.0994 14.4987 19.0994 14.7012C19.0994 14.9037 19.2635 15.0678 19.466 15.0678Z" fill="white"/>
</g>
<defs>
<linearGradient id="paint0_linear" x1="18" y1="-0.00012207" x2="18" y2="35.9999" gradientUnits="userSpaceOnUse">
<stop stop-color="#5181FF"/>
<stop offset="1" stop-color="white" stop-opacity="0"/>
</linearGradient>
<clipPath id="clip0">
<rect width="22" height="22" fill="white" transform="translate(7 6.99988)"/>
</clipPath>
</defs>
</svg>
