<svg width="36" height="36" viewBox="0 0 36 36" fill="none" xmlns="http://www.w3.org/2000/svg">
<circle cx="18" cy="18" r="18" fill="#0047FF"/>
<circle cx="18" cy="18" r="18" fill="url(#paint0_linear)"/>
<g clip-path="url(#clip0)">
<path d="M17.3668 25.2717C17.2441 25.2717 17.1214 25.2248 17.0275 25.1318L10.8683 18.9726C10.6881 18.7924 10.6805 18.504 10.8491 18.3142L15.4654 13.1431C18.6921 9.36818 23.9467 6.92539 28.5285 7.00302C28.7844 7.00877 28.9904 7.21481 28.9961 7.47068C29.1025 12.0553 26.6319 17.307 22.8475 20.5404L17.6849 25.15C17.5949 25.2315 17.4799 25.2717 17.3668 25.2717ZM11.8659 18.6151L17.385 24.1342L22.2179 19.8198C25.6736 16.8662 27.9688 12.1588 28.0397 7.96039C23.8413 8.03035 19.1349 10.3256 16.1871 13.7736L11.8659 18.6151Z" fill="white"/>
<path d="M19.202 28.7792C19.156 28.7792 19.109 28.7725 19.0649 28.7581C18.8924 28.7006 18.7506 28.5683 18.7257 28.3882L18.0683 23.8006C18.0309 23.539 18.213 23.2965 18.4746 23.2582C18.7362 23.217 18.9787 23.402 19.017 23.6645L19.5307 27.2487C21.2097 25.241 22.1431 22.6957 22.1431 20.1005C22.1431 19.836 22.3578 19.6213 22.6223 19.6213C22.8868 19.6213 23.1015 19.836 23.1015 20.1005C23.1015 23.2755 21.8154 26.3833 19.5729 28.6249C19.477 28.7207 19.3371 28.7792 19.202 28.7792Z" fill="white"/>
<path d="M12.2685 17.9366C12.2464 17.9366 12.2234 17.9357 12.2004 17.9318L7.61287 17.2744C7.43271 17.2486 7.28225 17.123 7.22571 16.9496C7.16916 16.7771 7.21516 16.5863 7.34454 16.4589C9.61866 14.1848 12.7256 12.8987 15.9005 12.8987C16.165 12.8987 16.3797 13.1133 16.3797 13.3778C16.3797 13.6423 16.165 13.857 15.9005 13.857C13.2929 13.857 10.7342 14.7991 8.74754 16.4685L12.3365 16.9831C12.5981 17.0214 12.7802 17.2629 12.7428 17.5255C12.7074 17.7641 12.5023 17.9366 12.2685 17.9366Z" fill="white"/>
<path d="M22.4191 15.9758C21.8048 15.9758 21.1915 15.7419 20.7248 15.2752C19.7914 14.3409 19.7914 12.8209 20.7248 11.8866C21.6592 10.9522 23.1791 10.9522 24.1135 11.8866C25.0469 12.8209 25.0469 14.3409 24.1135 15.2752C23.6458 15.7429 23.0324 15.9758 22.4191 15.9758ZM22.4191 12.1444C22.0511 12.1444 21.6822 12.2843 21.4023 12.5641C20.8427 13.1247 20.8427 14.0371 21.4023 14.5977C21.963 15.1574 22.8753 15.1564 23.4359 14.5977C23.9956 14.0371 23.9956 13.1247 23.4359 12.5641C23.1551 12.2852 22.7871 12.1444 22.4191 12.1444ZM23.7742 14.9369H23.7838H23.7742Z" fill="white"/>
<path d="M6.47913 30.0001C6.35359 30.0001 6.23188 29.9512 6.13988 29.8602C6.0153 29.7356 5.9693 29.5525 6.02009 29.3839C6.17725 28.8597 7.58505 24.2271 8.61046 23.2017C9.76525 22.0469 11.6445 22.0459 12.7993 23.2017C13.9541 24.3565 13.9541 26.2357 12.7993 27.3905C11.7739 28.416 7.14134 29.8238 6.61713 29.9809C6.57113 29.9934 6.52513 30.0001 6.47913 30.0001ZM10.7054 23.2927C10.1917 23.2927 9.679 23.4882 9.288 23.8782C8.73505 24.4322 7.81505 26.9056 7.20746 28.7926C9.09346 28.185 11.5679 27.265 12.1208 26.712C12.9019 25.931 12.9019 24.6593 12.1208 23.8782C11.7308 23.4882 11.2181 23.2927 10.7054 23.2927Z" fill="white"/>
</g>
<defs>
<linearGradient id="paint0_linear" x1="18" y1="0" x2="18" y2="36" gradientUnits="userSpaceOnUse">
<stop stop-color="#5181FF"/>
<stop offset="1" stop-color="white" stop-opacity="0"/>
</linearGradient>
<clipPath id="clip0">
<rect width="23" height="23" fill="white" transform="translate(6 7)"/>
</clipPath>
</defs>
</svg>
