<svg width="36" height="36" viewBox="0 0 36 36" fill="none" xmlns="http://www.w3.org/2000/svg">
<circle cx="18" cy="17.9999" r="18" fill="#0047FF"/>
<circle cx="18" cy="17.9999" r="18" fill="url(#paint0_linear)"/>
<g clip-path="url(#clip0)">
<path d="M26.9668 11.0616L17.5707 6.0549C17.4314 5.98051 17.2643 5.98155 17.1259 6.05751L7.98984 11.0642C7.84 11.1465 7.74707 11.3036 7.74707 11.4746V18.0147C7.75255 23.3908 10.9377 28.2544 15.8636 30.4083L17.1317 30.9609C17.2502 31.0126 17.3851 31.0128 17.5039 30.9614L18.9328 30.3443C23.95 28.2372 27.214 23.3265 27.2146 17.8849V11.4746C27.2146 11.3018 27.1193 11.1428 26.9668 11.0616ZM26.279 17.8849C26.278 22.9514 23.2382 27.523 18.5666 29.4837L18.5635 29.4852L17.3191 30.0224L16.2379 29.5507C11.6527 27.546 8.68759 23.019 8.68237 18.0147V11.7516L17.3538 6.99908L26.279 11.7549V17.8849Z" fill="white"/>
<path d="M13.9026 17.7112C13.7348 17.5147 13.4396 17.4914 13.243 17.6593C13.0464 17.8269 13.0232 18.1224 13.1911 18.3187L15.662 21.2123C15.827 21.4054 16.116 21.4318 16.3128 21.2715L22.0677 16.5895C22.2681 16.4266 22.2984 16.1319 22.1353 15.9315C21.9724 15.7312 21.6777 15.7007 21.4772 15.8638L16.0768 20.2571L13.9026 17.7112Z" fill="white"/>
</g>
<defs>
<linearGradient id="paint0_linear" x1="18" y1="-0.00012207" x2="18" y2="35.9999" gradientUnits="userSpaceOnUse">
<stop stop-color="#5181FF"/>
<stop offset="1" stop-color="white" stop-opacity="0"/>
</linearGradient>
<clipPath id="clip0">
<rect width="25" height="25" fill="white" transform="translate(5 5.99988)"/>
</clipPath>
</defs>
</svg>
