<svg width="20" height="20" viewBox="0 0 20 20" fill="none" xmlns="http://www.w3.org/2000/svg">
<path d="M19 2.33301H1C0.447734 2.33301 0 2.7807 0 3.33301V16.6663C0 17.2186 0.447695 17.6663 1 17.6663H19C19.5523 17.6663 20 17.2186 20 16.6663V3.33301C20 2.78074 19.5523 2.33301 19 2.33301ZM19.3333 16.6664C19.3333 16.8505 19.1841 16.9997 19 16.9997H1C0.815898 16.9997 0.66668 16.8505 0.66668 16.6664V3.33301C0.66668 3.14891 0.815898 2.99969 1 2.99969H19C19.1841 2.99969 19.3333 3.14891 19.3333 3.33301V16.6664Z" fill="#6D6D6D"/>
<path d="M18.3623 3.6673C18.2742 3.65961 18.1867 3.68722 18.119 3.7441L10.4289 10.2041C10.1809 10.4125 9.81892 10.4125 9.57091 10.2041L1.88095 3.74406C1.78974 3.6675 1.66458 3.64539 1.55267 3.68609C1.44076 3.72679 1.35904 3.82414 1.33833 3.94144C1.31763 4.05875 1.36107 4.17816 1.45228 4.25472L9.14228 10.7144C9.63791 11.1317 10.362 11.1317 10.8576 10.7144L18.5476 4.25476C18.6153 4.19793 18.6577 4.11652 18.6654 4.02844C18.6731 3.94035 18.6454 3.85281 18.5886 3.78512C18.5318 3.71734 18.4504 3.675 18.3623 3.6673Z" fill="#6D6D6D"/>
<path d="M6.41109 10.6691C6.29308 10.6428 6.17012 10.6824 6.08965 10.7727L1.42297 15.7727C1.33851 15.8591 1.3075 15.9846 1.34195 16.1005C1.3764 16.2164 1.4709 16.3045 1.58886 16.3308C1.70687 16.3572 1.82984 16.3175 1.91031 16.2273L6.57699 11.2273C6.66144 11.1408 6.69246 11.0154 6.65801 10.8995C6.62355 10.7836 6.5291 10.6955 6.41109 10.6691Z" fill="#6D6D6D"/>
<path d="M13.9103 10.7727C13.8299 10.6824 13.7069 10.6428 13.5889 10.6691C13.4709 10.6955 13.3764 10.7836 13.342 10.8995C13.3075 11.0154 13.3385 11.1408 13.423 11.2273L18.0896 16.2273C18.2162 16.3569 18.4231 16.3618 18.5555 16.2382C18.688 16.1146 18.6975 15.9079 18.577 15.7726L13.9103 10.7727Z" fill="#6D6D6D"/>
</svg>
