<svg width="20" height="20" viewBox="0 0 20 20" fill="none" xmlns="http://www.w3.org/2000/svg">
<path d="M2.66285 17.4623C2.80605 17.5404 6.21387 19.3755 10 19.3755C14.1019 19.3755 17.2177 17.5343 17.3483 17.456C17.3946 17.4282 17.4329 17.3889 17.4594 17.342C17.486 17.295 17.5 17.242 17.5 17.188C17.5 14.6648 16.7263 12.356 15.3214 10.6863C14.3387 9.51838 13.1057 8.72228 11.7457 8.3558C12.5782 7.95963 13.2512 7.29209 13.654 6.46284C14.0569 5.63359 14.1658 4.69197 13.9627 3.79267C13.7597 2.89337 13.2567 2.08989 12.5366 1.51424C11.8165 0.938587 10.9219 0.625 10 0.625C9.07806 0.625 8.18354 0.938587 7.4634 1.51424C6.74327 2.08989 6.24035 2.89337 6.03728 3.79267C5.8342 4.69197 5.94306 5.63359 6.34595 6.46284C6.74885 7.29209 7.42182 7.95963 8.2543 8.3558C6.89434 8.72228 5.66129 9.5185 4.67855 10.6863C3.27371 12.356 2.5 14.6648 2.5 17.188C2.5 17.2441 2.51512 17.2992 2.54378 17.3475C2.57244 17.3958 2.61357 17.4354 2.66285 17.4623ZM6.5625 4.68799C6.5625 4.00811 6.76411 3.34351 7.14182 2.77821C7.51954 2.21292 8.0564 1.77233 8.68453 1.51215C9.31265 1.25198 10.0038 1.1839 10.6706 1.31654C11.3374 1.44918 11.9499 1.77657 12.4307 2.25731C12.9114 2.73805 13.2388 3.35056 13.3714 4.01736C13.5041 4.68417 13.436 5.37534 13.1758 6.00346C12.9157 6.63158 12.4751 7.16845 11.9098 7.54616C11.3445 7.92388 10.6799 8.12549 10 8.12549C9.08864 8.12445 8.21489 7.76196 7.57046 7.11753C6.92603 6.47309 6.56353 5.59935 6.5625 4.68799ZM5.15676 11.0887C6.42578 9.58088 8.14563 8.75049 10 8.75049C11.8544 8.75049 13.5742 9.58088 14.8432 11.0887C16.1198 12.6058 16.8376 14.7012 16.8736 17.0057C16.2049 17.3677 13.4261 18.7505 10 18.7505C6.83164 18.7505 3.84766 17.3595 3.12656 16.9983C3.16406 14.6967 3.88152 12.6042 5.15676 11.0887Z" fill="#6D6D6D"/>
</svg>
