<svg width="20" height="20" viewBox="0 0 20 20" fill="none" xmlns="http://www.w3.org/2000/svg">
<path d="M19.4752 15.4282L15.4271 12.7286C14.9134 12.3888 14.2248 12.5006 13.845 12.9856L12.6658 14.5017C12.5143 14.7015 12.2388 14.7595 12.0196 14.6377L11.7953 14.514C11.0517 14.1087 10.1266 13.6042 8.26251 11.7394C6.39845 9.87471 5.89286 8.94883 5.48757 8.20664L5.36458 7.98233C5.24112 7.76315 5.29799 7.48651 5.49788 7.33376L7.01297 6.15495C7.49774 5.77512 7.60972 5.08671 7.27028 4.57284L4.57068 0.524768C4.2228 0.00148647 3.52485 -0.1556 2.9863 0.168141L1.29355 1.18498C0.761671 1.49767 0.371456 2.00408 0.204723 2.59809C-0.404835 4.81909 0.0537292 8.65219 5.70024 14.2994C10.1919 18.7907 13.5358 19.9985 15.8341 19.9985C16.363 20.0008 16.8899 19.932 17.4005 19.7939C17.9947 19.6274 18.5011 19.2371 18.8136 18.7051L19.8315 17.0133C20.1557 16.4747 19.9987 15.7763 19.4752 15.4282ZM19.2572 16.6714L18.2417 18.3641C18.0173 18.7481 17.653 19.0305 17.2252 19.152C15.1748 19.7149 11.5927 19.2487 6.17181 13.8278C0.750931 8.40692 0.284711 4.82511 0.847635 2.77443C0.969336 2.34606 1.25203 1.98131 1.6365 1.75658L3.32926 0.741064C3.56294 0.60046 3.86586 0.668614 4.01681 0.89569L5.48328 3.09735L6.71411 4.94341C6.86151 5.16631 6.81308 5.46505 6.6028 5.62999L5.08736 6.8088C4.62618 7.16144 4.49448 7.79951 4.77842 8.30592L4.89875 8.52456C5.32471 9.30577 5.85427 10.2776 7.78766 12.2107C9.72104 14.1437 10.6926 14.6733 11.4734 15.0992L11.6924 15.2199C12.1988 15.5038 12.8369 15.3721 13.1895 14.911L14.3683 13.3955C14.5333 13.1853 14.8319 13.137 15.0549 13.2842L19.1026 15.9838C19.3299 16.1346 19.398 16.4377 19.2572 16.6714Z" fill="#6D6D6D"/>
<path d="M11.3328 3.33451C14.4605 3.33799 16.9951 5.87265 16.9986 9.00035C16.9986 9.18442 17.1478 9.33362 17.3319 9.33362C17.516 9.33362 17.6652 9.18442 17.6652 9.00035C17.6613 5.50466 14.8285 2.6718 11.3328 2.66797C11.1487 2.66797 10.9995 2.81717 10.9995 3.00124C10.9995 3.18531 11.1487 3.33451 11.3328 3.33451Z" fill="#6D6D6D"/>
<path d="M11.3328 5.33353C13.3565 5.33592 14.9965 6.97591 14.9989 8.99967C14.9989 9.18374 15.1482 9.33294 15.3322 9.33294C15.5163 9.33294 15.6655 9.18374 15.6655 8.99967C15.6627 6.60792 13.7245 4.66973 11.3328 4.66699C11.1487 4.66699 10.9995 4.81619 10.9995 5.00026C10.9995 5.18434 11.1487 5.33353 11.3328 5.33353Z" fill="#6D6D6D"/>
<path d="M11.3328 7.33353C12.2526 7.33463 12.9981 8.08006 12.9992 8.99997C12.9992 9.18404 13.1485 9.33324 13.3325 9.33324C13.5165 9.33324 13.6658 9.18404 13.6658 8.99997C13.6643 7.71211 12.6206 6.66844 11.3328 6.66699C11.1487 6.66699 10.9995 6.81619 10.9995 7.00026C10.9995 7.18434 11.1487 7.33353 11.3328 7.33353Z" fill="#6D6D6D"/>
</svg>
