<svg width="40" height="40" viewBox="0 0 40 40" fill="none" xmlns="http://www.w3.org/2000/svg">
<path d="M38.75 4.375C39.0956 4.375 39.375 4.095 39.375 3.75V1.25C39.375 0.905 39.0956 0.625 38.75 0.625H8.75C8.40438 0.625 8.125 0.905 8.125 1.25V3.75C8.125 4.095 8.40438 4.375 8.75 4.375H9.375V14.7031C7.19375 15.4781 5.625 17.5569 5.625 20C5.625 21.9544 6.6275 23.6775 8.14437 24.6856C8.13438 24.79 8.125 24.895 8.125 25H6.25C3.14813 25 0.625 27.5238 0.625 30.625V38.75C0.625 39.095 0.904375 39.375 1.25 39.375H18.125C18.4706 39.375 18.75 39.095 18.75 38.75V34.0531C18.75 33.2181 19.0756 32.4331 19.6656 31.8431L28.3844 23.125H38.75C39.0956 23.125 39.375 22.845 39.375 22.5V20C39.375 19.655 39.0956 19.375 38.75 19.375H38.125V4.375H38.75ZM9.375 1.875H38.125V3.125H9.375V1.875ZM11.25 15.625C11.5813 15.625 11.9031 15.665 12.2137 15.7356C11.1587 16.8494 9.6725 17.5 8.125 17.5H7.665C8.45625 16.3681 9.7675 15.625 11.25 15.625ZM22.8662 20.625L21.6162 21.875H16.5469C16.6887 21.4762 16.79 21.0588 16.8381 20.625H22.8662ZM27.6612 22.0806L27.5 22.2412L25.2588 20L25.42 19.8388C25.7194 19.54 26.1175 19.375 26.5406 19.375C27.4137 19.375 28.125 20.0863 28.125 20.96C28.125 21.3831 27.96 21.7812 27.6612 22.0806ZM11.25 25.625C11.8962 25.625 12.515 25.51 13.0938 25.3081C12.9456 26.195 12.1781 26.875 11.25 26.875C10.3219 26.875 9.55437 26.195 9.40625 25.3081C9.985 25.51 10.6038 25.625 11.25 25.625ZM14.3556 24.6856C14.9756 24.2738 15.5094 23.7425 15.9244 23.125H20.3669L19.4075 24.0844C18.8156 24.675 18.0312 25 17.1969 25H14.375C14.375 24.895 14.3656 24.79 14.3556 24.6856ZM13.44 16.2188C14.1656 16.6406 14.7587 17.2638 15.1431 18.0131C14.2831 17.8387 13.4706 17.4606 12.7781 16.9188C13.0138 16.7019 13.235 16.4688 13.44 16.2188ZM6.875 20C6.875 19.5656 6.94063 19.1462 7.05937 18.75H8.125C9.42125 18.75 10.68 18.3713 11.7606 17.6981C12.8287 18.6181 14.1681 19.1987 15.57 19.3406C15.6025 19.5562 15.625 19.775 15.625 20C15.625 22.4125 13.6619 24.375 11.25 24.375C8.83813 24.375 6.875 22.4125 6.875 20ZM18.7819 30.9594C17.9556 31.7856 17.5 32.8844 17.5 34.0531V38.125H6.875V31.25H5.625V38.125H1.875V30.625C1.875 28.2125 3.83812 26.25 6.25 26.25H8.39C8.87375 27.3519 9.97188 28.125 11.25 28.125C12.5281 28.125 13.6263 27.3519 14.11 26.25H17.1963C18.3644 26.25 19.4631 25.795 20.29 24.9688L24.375 20.8838L26.6162 23.125L18.7819 30.9594ZM38.125 21.875H29.2125C29.3125 21.5831 29.375 21.2775 29.375 20.96C29.375 20.8456 29.3544 20.7362 29.3412 20.625H38.125V21.875ZM36.875 19.375H28.8894C28.3794 18.6213 27.5169 18.125 26.5406 18.125C25.7838 18.125 25.0712 18.42 24.5362 18.9556L24.1162 19.375H16.8381C16.5262 16.5669 14.1406 14.375 11.25 14.375C11.0387 14.375 10.8306 14.3888 10.625 14.4119V4.375H36.875V19.375Z" fill="black"/>
<path d="M17.5 14.375C19.9119 14.375 21.875 12.4125 21.875 10C21.875 7.5875 19.9119 5.625 17.5 5.625C15.0881 5.625 13.125 7.5875 13.125 10C13.125 12.4125 15.0881 14.375 17.5 14.375ZM17.5 13.125C16.5906 13.125 15.7775 12.7275 15.2062 12.105L17.6731 10.625H20.5619C20.2712 12.0494 19.0087 13.125 17.5 13.125ZM20.5619 9.375H18.125V6.93812C19.3475 7.1875 20.3125 8.1525 20.5619 9.375ZM16.875 6.93812V9.64625L14.5644 11.0331C14.4494 10.7075 14.375 10.3637 14.375 10C14.375 8.49125 15.4506 7.22875 16.875 6.93812Z" fill="black"/>
<path d="M25 15H35C35.3456 15 35.625 14.72 35.625 14.375V11.875C35.625 11.53 35.3456 11.25 35 11.25H34.375V9.375H33.125V11.25H31.875V8.125H30.625V11.25H29.375V6.875H28.125V11.25H26.875V5.625H25.625V11.25H25C24.6544 11.25 24.375 11.53 24.375 11.875V14.375C24.375 14.72 24.6544 15 25 15ZM25.625 12.5H34.375V13.75H25.625V12.5Z" fill="black"/>
<path d="M29.375 16.25H35.625V17.5H29.375V16.25Z" fill="black"/>
<path d="M17.5 16.25H21.875V17.5H17.5V16.25Z" fill="black"/>
<path d="M16.25 29.375H12.5C12.1544 29.375 11.875 29.655 11.875 30V31.875C11.875 33.2538 12.9962 34.375 14.375 34.375C15.7538 34.375 16.875 33.2538 16.875 31.875V30C16.875 29.655 16.5956 29.375 16.25 29.375ZM15.625 31.875C15.625 32.5644 15.0644 33.125 14.375 33.125C13.6856 33.125 13.125 32.5644 13.125 31.875V30.625H15.625V31.875Z" fill="black"/>
</svg>
