<svg width="40" height="40" viewBox="0 0 40 40" fill="none" xmlns="http://www.w3.org/2000/svg">
<path d="M35.4414 11.8374C35.4377 11.7808 35.4265 11.7246 35.4077 11.6704C35.4009 11.6514 35.3957 11.6311 35.3872 11.6125C35.3574 11.5464 35.3169 11.4858 35.2664 11.4336L25.2664 1.43359C25.2141 1.38306 25.1531 1.3418 25.0864 1.3125C25.0676 1.30371 25.0478 1.29883 25.0283 1.29175C24.9746 1.27319 24.9185 1.26196 24.8613 1.2583C24.8481 1.25708 24.8369 1.25 24.8237 1.25H9.82373C9.47852 1.25 9.19873 1.52979 9.19873 1.875V20.4736L9.15454 20.4294C9.07422 20.3528 8.97412 20.2998 8.86572 20.2756C8.8418 20.1672 8.78906 20.0674 8.71265 19.9868L6.94507 18.2188C6.82788 18.1016 6.66895 18.0356 6.50293 18.0356C6.33716 18.0356 6.17822 18.1016 6.06055 18.2188L4.29272 19.9868C4.17529 20.104 4.10938 20.2632 4.10938 20.4292C4.10938 20.5952 4.17529 20.7542 4.29272 20.8713L6.06055 22.6389C6.1416 22.7148 6.24121 22.7681 6.34961 22.7917C6.37353 22.9004 6.42651 23.0002 6.50317 23.0808L9.19873 25.7764V38.125C9.19873 38.4702 9.47852 38.75 9.82373 38.75H34.8237C35.1692 38.75 35.4487 38.4702 35.4487 38.125V11.875C35.4487 11.8618 35.4421 11.8506 35.4414 11.8374ZM33.3164 11.25H25.4487V3.38379L33.3164 11.25ZM5.61816 20.4294L6.50317 19.5444L7.38623 20.4294L6.50317 21.3125L5.61816 20.4294ZM8.71265 21.7551L19.7615 32.803L18.8772 33.6875L7.82886 22.6389L8.71265 21.7551ZM20.54 34.4663L20.0347 34.2974L20.3713 33.9604L20.54 34.4663ZM34.1987 37.5H10.4487V27.0264L18.4353 35.0132C18.4414 35.0186 18.4502 35.0208 18.4563 35.0269C18.5039 35.0706 18.5579 35.1064 18.6165 35.1331C18.6299 35.1406 18.644 35.147 18.6582 35.1533C18.666 35.1562 18.6721 35.1611 18.6797 35.1638L21.3308 36.0474C21.3945 36.0691 21.4617 36.0801 21.5288 36.0801C21.73 36.0801 21.9185 35.9834 22.0361 35.8201C22.1533 35.657 22.1853 35.4473 22.1216 35.2568L21.2378 32.6055C21.2378 32.5981 21.23 32.5918 21.227 32.5842C21.2212 32.5703 21.2144 32.5564 21.207 32.543C21.1807 32.4841 21.1445 32.4297 21.1011 32.3826C21.0945 32.376 21.0928 32.3677 21.0869 32.3611L10.4487 21.7236V2.5H24.1987V11.875C24.1987 12.2202 24.4785 12.5 24.8237 12.5H34.1987V37.5Z" fill="black"/>
<path d="M11.6987 15H28.5737V16.25H11.6987V15Z" fill="black"/>
<path d="M29.1987 15H32.9487V16.25H29.1987V15Z" fill="black"/>
<path d="M11.6987 17.5H14.1987V18.75H11.6987V17.5Z" fill="black"/>
<path d="M14.8237 17.5H22.3237V18.75H14.8237V17.5Z" fill="black"/>
<path d="M22.9487 17.5H32.9487V18.75H22.9487V17.5Z" fill="black"/>
<path d="M11.6987 20H22.3237V21.25H11.6987V20Z" fill="black"/>
<path d="M22.9487 20H32.9487V21.25H22.9487V20Z" fill="black"/>
<path d="M12.9487 22.5H19.8237V23.75H12.9487V22.5Z" fill="black"/>
<path d="M20.4487 22.5H29.8237V23.75H20.4487V22.5Z" fill="black"/>
<path d="M30.4487 22.5H32.9487V23.75H30.4487V22.5Z" fill="black"/>
<path d="M11.6987 4.375H14.1987V5.625H11.6987V4.375Z" fill="black"/>
<path d="M14.8237 4.375H16.0737V5.625H14.8237V4.375Z" fill="black"/>
<path d="M30.4487 35H32.9487V36.25H30.4487V35Z" fill="black"/>
<path d="M28.5737 35H29.8237V36.25H28.5737V35Z" fill="black"/>
</svg>
