<svg width="40" height="40" viewBox="0 0 40 40" fill="none" xmlns="http://www.w3.org/2000/svg">
<path d="M18.75 20.625C18.9158 20.625 19.0747 20.5592 19.1919 20.4419C19.3092 20.3247 19.375 20.1658 19.375 20V16.25C19.375 16.0842 19.3092 15.9253 19.1919 15.8081C19.0747 15.6908 18.9158 15.625 18.75 15.625H14.375V16.875H18.125V19.375H15C14.8342 19.375 14.6753 19.4408 14.5581 19.5581C14.4408 19.6753 14.375 19.8342 14.375 20V23.75C14.375 23.9158 14.4408 24.0747 14.5581 24.1919C14.6753 24.3092 14.8342 24.375 15 24.375H19.375V23.125H15.625V20.625H18.75Z" fill="black"/>
<path d="M25 24.375V20.625H26.25V19.375H25V15.625H23.75V19.375H21.875V15.625H20.625V20C20.625 20.1658 20.6908 20.3247 20.8081 20.4419C20.9253 20.5592 21.0842 20.625 21.25 20.625H23.75V24.375H25Z" fill="black"/>
<path d="M38.75 19.375H37.4844C37.3214 14.9556 35.4928 10.7614 32.3657 7.6343C29.2386 4.50719 25.0444 2.67862 20.625 2.51562V1.25H19.375V2.51562C14.9556 2.67862 10.7614 4.50719 7.6343 7.6343C4.50719 10.7614 2.67862 14.9556 2.51562 19.375H1.25V20.625H2.51562C2.67862 25.0444 4.50719 29.2386 7.6343 32.3657C10.7614 35.4928 14.9556 37.3214 19.375 37.4844V38.75H20.625V37.4844C25.0444 37.3214 29.2386 35.4928 32.3657 32.3657C35.4928 29.2386 37.3214 25.0444 37.4844 20.625H38.75V19.375ZM20.625 36.2344V35H19.375V36.2344C15.287 36.0722 11.4102 34.3756 8.5173 31.4827C5.62438 28.5898 3.92778 24.713 3.76562 20.625H5V19.375H3.76562C3.92778 15.287 5.62438 11.4102 8.5173 8.5173C11.4102 5.62438 15.287 3.92778 19.375 3.76562V5H20.625V3.76562C24.713 3.92778 28.5898 5.62438 31.4827 8.5173C34.3756 11.4102 36.0722 15.287 36.2344 19.375H35V20.625H36.2344C36.0722 24.713 34.3756 28.5898 31.4827 31.4827C28.5898 34.3756 24.713 36.0722 20.625 36.2344Z" fill="black"/>
<path d="M20 8.125C18.0624 8.12376 16.1539 8.59667 14.4411 9.50247C12.7282 10.4083 11.2631 11.7194 10.1734 13.3216C9.08366 14.9237 8.40256 16.7682 8.18947 18.694C7.97637 20.6199 8.23777 22.5686 8.95085 24.3702C9.66393 26.1719 10.807 27.7716 12.2804 29.03C13.7538 30.2883 15.5127 31.167 17.4037 31.5894C19.2947 32.0118 21.2604 31.965 23.1292 31.4532C24.998 30.9414 26.7131 29.9801 28.125 28.6531V30.625H29.375V26.875C29.375 26.7092 29.3092 26.5503 29.192 26.4331C29.0748 26.3158 28.9158 26.25 28.75 26.25H24.375V27.5H27.5181C25.7814 29.2384 23.4955 30.3206 21.0501 30.5623C18.6047 30.804 16.1512 30.1902 14.1077 28.8254C12.0643 27.4606 10.5574 25.4294 9.84383 23.078C9.13029 20.7266 9.25432 18.2005 10.1948 15.9303C11.1352 13.6601 12.8338 11.7862 15.0012 10.6282C17.1685 9.47019 19.6703 9.09962 22.0803 9.57969C24.4902 10.0598 26.6591 11.3607 28.2172 13.2609C29.7754 15.161 30.6263 17.5427 30.625 20H31.875C31.8715 16.8516 30.6193 13.8332 28.3931 11.6069C26.1668 9.3807 23.1484 8.12848 20 8.125Z" fill="black"/>
</svg>
