<svg width="40" height="40" viewBox="0 0 40 40" fill="none" xmlns="http://www.w3.org/2000/svg">
<path d="M39.3333 0H0.666667C0.2985 0 0 0.2985 0 0.666667V39.3333C0 39.7015 0.2985 40 0.666667 40H39.3333C39.7015 40 40 39.7015 40 39.3333V0.666667C40 0.2985 39.7015 0 39.3333 0ZM38.6667 38.6667H1.33333V6.66667H38.6667V38.6667ZM38.6667 5.33333H1.33333V1.33333H38.6667V5.33333Z" fill="black"/>
<path d="M4 2H2.66667C2.2985 2 2 2.2985 2 2.66667V4C2 4.36817 2.2985 4.66667 2.66667 4.66667H4C4.36817 4.66667 4.66667 4.36817 4.66667 4V2.66667C4.66667 2.2985 4.36817 2 4 2Z" fill="black"/>
<path d="M7.33331 2H5.99998C5.63181 2 5.33331 2.2985 5.33331 2.66667V4C5.33331 4.36817 5.63181 4.66667 5.99998 4.66667H7.33331C7.70148 4.66667 7.99998 4.36817 7.99998 4V2.66667C7.99998 2.2985 7.70148 2 7.33331 2Z" fill="black"/>
<path d="M10.6667 2H9.33335C8.96519 2 8.66669 2.2985 8.66669 2.66667V4C8.66669 4.36817 8.96519 4.66667 9.33335 4.66667H10.6667C11.0349 4.66667 11.3334 4.36817 11.3334 4V2.66667C11.3334 2.2985 11.0349 2 10.6667 2Z" fill="black"/>
<path d="M38 2.66663H35.3333V3.99996H38V2.66663Z" fill="black"/>
<path d="M34.6666 2.66663H33.3333V3.99996H34.6666V2.66663Z" fill="black"/>
<path d="M37.6572 17.8858C37.6006 17.8292 37.5342 17.7831 37.4613 17.75L36.6666 17.3893V12.6667C36.6666 12.2985 36.3681 12 36 12H3.99998C3.63181 12 3.33331 12.2985 3.33331 12.6667V18C3.33331 18.3682 3.63181 18.6667 3.99998 18.6667H32.48L33.75 21.4613C33.9023 21.7966 34.2975 21.9448 34.6327 21.7925C34.7056 21.7593 34.7721 21.7133 34.8286 21.6567L37.6566 18.8287C37.9171 18.5685 37.9175 18.1464 37.6572 17.8858ZM27.3333 17.3333H4.66665V13.3333H27.3333V17.3333ZM32.276 15.3933C31.9407 15.2411 31.5456 15.3894 31.3933 15.7247C31.3137 15.8998 31.3137 16.1008 31.3933 16.276L31.874 17.3333H28.6666V13.3333H35.3333V16.7833L32.276 15.3933ZM34.566 20.034L33.3426 17.3427L36.034 18.566L34.566 20.034Z" fill="black"/>
<path d="M21.3333 32H18.6667C18.2985 32 18 32.2985 18 32.6667V35.3333C18 35.7015 18.2985 36 18.6667 36H21.3333C21.7015 36 22 35.7015 22 35.3333V32.6667C22 32.2985 21.7015 32 21.3333 32ZM20.6667 34.6667H19.3333V33.3333H20.6667V34.6667Z" fill="black"/>
<path d="M28 32H25.3334C24.9652 32 24.6667 32.2985 24.6667 32.6667V35.3333C24.6667 35.7015 24.9652 36 25.3334 36H28C28.3682 36 28.6667 35.7015 28.6667 35.3333V32.6667C28.6667 32.2985 28.3682 32 28 32ZM27.3334 34.6667H26V33.3333H27.3334V34.6667Z" fill="black"/>
<path d="M14.6666 32H12C11.6318 32 11.3333 32.2985 11.3333 32.6667V35.3333C11.3333 35.7015 11.6318 36 12 36H14.6666C15.0348 36 15.3333 35.7015 15.3333 35.3333V32.6667C15.3333 32.2985 15.0348 32 14.6666 32ZM14 34.6667H12.6666V33.3333H14V34.6667Z" fill="black"/>
<path d="M20 21.3334H9.33331V22.6667H20V21.3334Z" fill="black"/>
<path d="M7.99998 21.3334H5.33331V22.6667H7.99998V21.3334Z" fill="black"/>
<path d="M26.6666 21.3334H21.3333V22.6667H26.6666V21.3334Z" fill="black"/>
<path d="M32 21.3334H28V22.6667H32V21.3334Z" fill="black"/>
</svg>
