<svg width="38" height="40" viewBox="0 0 38 40" fill="none" xmlns="http://www.w3.org/2000/svg">
<g clip-path="url(#clip0)">
<path d="M25.239 14.1402C22.8935 15.5558 20.3472 16.4777 17.672 16.8814L17.1642 16.9583V24.7264C17.1642 30.3995 20.7515 35.3864 25.8877 36.8533L26.0422 36.8976L26.1967 36.8533C31.3329 35.3858 34.9202 30.3995 34.9202 24.7264V16.9583L34.4124 16.8814C31.7371 16.4777 29.1915 15.5558 26.846 14.1402L26.0422 13.6552L25.239 14.1402ZM33.7365 18.0358V24.7258C33.7365 29.7783 30.5806 34.2258 26.0422 35.6008C21.5038 34.2258 18.3479 29.7783 18.3479 24.7258V18.0358C20.9859 17.5733 23.4995 16.6289 25.8268 15.2252L26.0422 15.0952L26.2582 15.2252C28.5849 16.6289 31.0985 17.5733 33.7365 18.0358Z" fill="black"/>
<path d="M21.7257 25.8082L20.8888 26.692L23.6747 29.6339L32.3793 20.442L31.5424 19.5582L23.6747 27.8664L21.7257 25.8082Z" fill="black"/>
<path d="M4.73495 31.875C3.756 31.875 2.95935 32.7162 2.95935 33.75C2.95935 34.7838 3.756 35.625 4.73495 35.625C5.7139 35.625 6.51056 34.7838 6.51056 33.75C6.51056 32.7162 5.7139 31.875 4.73495 31.875ZM4.73495 34.375C4.40883 34.375 4.14309 34.095 4.14309 33.75C4.14309 33.405 4.40883 33.125 4.73495 33.125C5.06107 33.125 5.32682 33.405 5.32682 33.75C5.32682 34.095 5.06107 34.375 4.73495 34.375Z" fill="black"/>
<path d="M9.46994 31.875C8.49099 31.875 7.69434 32.7162 7.69434 33.75C7.69434 34.7838 8.49099 35.625 9.46994 35.625C10.4489 35.625 11.2455 34.7838 11.2455 33.75C11.2455 32.7162 10.4489 31.875 9.46994 31.875ZM9.46994 34.375C9.14382 34.375 8.87807 34.095 8.87807 33.75C8.87807 33.405 9.14382 33.125 9.46994 33.125C9.79606 33.125 10.0618 33.405 10.0618 33.75C10.0618 34.095 9.79606 34.375 9.46994 34.375Z" fill="black"/>
<path d="M14.2049 31.875C13.226 31.875 12.4293 32.7162 12.4293 33.75C12.4293 34.7838 13.226 35.625 14.2049 35.625C15.1839 35.625 15.9805 34.7838 15.9805 33.75C15.9805 32.7162 15.1839 31.875 14.2049 31.875ZM14.2049 34.375C13.8788 34.375 13.6131 34.095 13.6131 33.75C13.6131 33.405 13.8788 33.125 14.2049 33.125C14.531 33.125 14.7968 33.405 14.7968 33.75C14.7968 34.095 14.531 34.375 14.2049 34.375Z" fill="black"/>
<path d="M29.0016 5.625C28.418 5.625 27.8273 5.69375 27.2408 5.83063C25.5752 2.60688 22.4377 0.625 18.9398 0.625C15.4419 0.625 12.3044 2.60688 10.6389 5.83063C10.0523 5.69375 9.46165 5.625 8.87806 5.625C4.30885 5.625 0.591919 9.55 0.591919 14.375C0.591919 15.1081 0.683067 15.8331 0.852341 16.5369C0.690761 16.8194 0.591919 17.1462 0.591919 17.5V36.25C0.591919 37.2837 1.38857 38.125 2.36752 38.125H22.6195C23.6463 38.6644 24.7466 39.0863 25.9138 39.3606L26.0422 39.39L26.1707 39.36C32.7161 37.8244 37.2877 31.8063 37.2877 24.7256V14.375C37.2877 9.55 33.5708 5.625 29.0016 5.625ZM8.87806 6.875C9.51077 6.875 10.1541 6.97 10.791 7.15875L11.268 7.3L11.4835 6.82875C12.882 3.77312 15.739 1.875 18.9398 1.875C22.1406 1.875 24.9976 3.77312 26.3962 6.82875L26.6116 7.3L27.0886 7.15875C27.7255 6.97 28.3689 6.875 29.0016 6.875C32.8966 6.875 36.069 10.2031 36.104 14.3075C32.6599 13.8975 29.2957 12.66 26.3559 10.7206L26.0422 10.5125L25.7285 10.72C22.707 12.7131 19.2369 13.965 15.6916 14.3394L14.7967 14.435V15.625H2.36752C2.20121 15.625 2.04377 15.6569 1.89107 15.7025C1.81708 15.2656 1.77565 14.8225 1.77565 14.375C1.77565 10.2394 4.96168 6.875 8.87806 6.875ZM14.7967 20.625H13.613V18.125H12.4293V20.625H11.2455V18.125H10.0618V20.625H8.87806V16.875H14.7967V20.625ZM2.36752 36.875C2.0414 36.875 1.77565 36.595 1.77565 36.25V17.5C1.77565 17.155 2.0414 16.875 2.36752 16.875H7.69433V20.625C7.69433 21.3144 8.22523 21.875 8.87806 21.875H14.7967V24.7256C14.7967 29.6956 17.0547 34.135 20.661 36.875H2.36752ZM36.104 24.7256C36.104 31.17 31.9733 36.6537 26.0422 38.1094C20.1111 36.6537 15.9805 31.1694 15.9805 24.7256V15.5644C19.5234 15.1631 22.9911 13.9294 26.0422 11.9837C29.0939 13.9294 32.5611 15.1644 36.104 15.5644V24.7256Z" fill="black"/>
</g>
<defs>
<clipPath id="clip0">
<rect width="37.8795" height="40" fill="white"/>
</clipPath>
</defs>
</svg>
