<svg width="40" height="40" viewBox="0 0 40 40" fill="none" xmlns="http://www.w3.org/2000/svg">
<path d="M9.375 9.375H20.625C20.9706 9.375 21.25 9.095 21.25 8.75V5C21.25 4.655 20.9706 4.375 20.625 4.375H9.375C9.02938 4.375 8.75 4.655 8.75 5V8.75C8.75 9.095 9.02938 9.375 9.375 9.375ZM10 5.625H20V8.125H10V5.625Z" fill="black"/>
<path d="M6.25 16.875C7.97312 16.875 9.375 15.4731 9.375 13.75C9.375 12.0269 7.97312 10.625 6.25 10.625C4.52688 10.625 3.125 12.0269 3.125 13.75C3.125 15.4731 4.52688 16.875 6.25 16.875ZM6.25 11.875C7.28375 11.875 8.125 12.7162 8.125 13.75C8.125 14.7838 7.28375 15.625 6.25 15.625C5.21625 15.625 4.375 14.7838 4.375 13.75C4.375 12.7162 5.21625 11.875 6.25 11.875Z" fill="black"/>
<path d="M10.625 15.625H25.625V16.875H10.625V15.625Z" fill="black"/>
<path d="M10.625 13.125H25.625V14.375H10.625V13.125Z" fill="black"/>
<path d="M6.25 24.3752C7.97312 24.3752 9.375 22.9734 9.375 21.2502C9.375 20.779 9.2625 20.3359 9.07438 19.9346L10.4419 18.5671L9.55813 17.6833L8.31687 18.9246C7.76438 18.4333 7.04562 18.1252 6.25 18.1252C4.52688 18.1252 3.125 19.5271 3.125 21.2502C3.125 22.9734 4.52688 24.3752 6.25 24.3752ZM6.25 19.3752C6.70125 19.3752 7.11 19.5421 7.43375 19.8084L6.42187 20.8202L6.18438 20.3459L5.06625 20.9052L5.69125 22.1552C5.78125 22.3352 5.95188 22.4602 6.15 22.4927C6.18375 22.4977 6.21688 22.5002 6.25 22.5002C6.41438 22.5002 6.57437 22.4352 6.69187 22.3171L8.09125 20.9177C8.11063 21.0258 8.125 21.1365 8.125 21.2502C8.125 22.284 7.28375 23.1252 6.25 23.1252C5.21625 23.1252 4.375 22.284 4.375 21.2502C4.375 20.2165 5.21625 19.3752 6.25 19.3752Z" fill="black"/>
<path d="M10.625 20.625H24.375V21.875H10.625V20.625Z" fill="black"/>
<path d="M10.625 23.125H21.875V24.375H10.625V23.125Z" fill="black"/>
<path d="M39.375 14.8931C39.375 13.5731 38.3013 12.5 36.9825 12.5C36.3431 12.5 35.7425 12.7487 35.2906 13.2013L33.3081 15.1831L29.375 19.1163V1.25C29.375 0.905 29.0956 0.625 28.75 0.625H7.5C7.33375 0.625 7.175 0.690625 7.05813 0.808125L0.808125 7.05813C0.690625 7.175 0.625 7.33437 0.625 7.5V38.75C0.625 39.095 0.904375 39.375 1.25 39.375H28.75C29.0956 39.375 29.375 39.095 29.375 38.75V25.8838L36.6919 18.5669L37.3338 17.925C37.01 19.5375 36.2212 21.02 35.0319 22.2094L32.0581 25.1825L32.9419 26.0662L35.9156 23.0931C37.6825 21.3263 38.6725 18.995 38.7375 16.5069C39.145 16.065 39.375 15.4981 39.375 14.8931ZM36.1744 14.0844C36.3875 13.8719 36.6813 13.75 36.9825 13.75C37.6125 13.75 38.125 14.2625 38.125 14.8931C38.125 15.1981 38.0062 15.4856 37.7906 15.7013L36.25 17.2413L34.6338 15.625L36.1744 14.0844ZM33.75 16.5087L34.1162 16.875L26.25 24.7412L25.8838 24.375L33.75 16.5087ZM18.9119 32.4031L20.1244 30.3825L21.4925 31.7506L19.4725 32.9625L18.9119 32.4031ZM20.8838 29.375L25 25.2588L26.6162 26.875L22.5 30.9912L20.8838 29.375ZM6.875 2.75875V6.875H2.75875L6.875 2.75875ZM28.125 38.125H1.875V8.125H7.5C7.84562 8.125 8.125 7.845 8.125 7.5V1.875H28.125V20.3662L24.5581 23.9331L19.5581 28.9331C19.5206 28.9706 19.5 29.0162 19.4744 29.0594L19.4644 29.0531L17.5894 32.1781C17.4419 32.4244 17.4806 32.7388 17.6831 32.9419L17.8663 33.125L16.4331 34.5581L17.3169 35.4419L18.75 34.0088L18.9331 34.1919C19.0531 34.3125 19.2138 34.375 19.375 34.375C19.4856 34.375 19.5963 34.3456 19.6969 34.2856L22.8219 32.4106L22.8156 32.4006C22.8588 32.375 22.9044 32.3538 22.9419 32.3169L27.9419 27.3169L28.125 27.1338V38.125ZM27.5 25.9912L27.1338 25.625L35 17.7587L35.3662 18.125L27.5 25.9912Z" fill="black"/>
<path d="M3.125 34.375H15.625V35.625H3.125V34.375Z" fill="black"/>
<path d="M3.125 31.875H15.625V33.125H3.125V31.875Z" fill="black"/>
<path d="M3.125 29.375H15.625V30.625H3.125V29.375Z" fill="black"/>
<path d="M3.125 26.875H9.375V28.125H3.125V26.875Z" fill="black"/>
</svg>
