<svg width="40" height="40" viewBox="0 0 40 40" fill="none" xmlns="http://www.w3.org/2000/svg">
<path d="M36.875 8.75H32.5V3.125C32.4985 2.62818 32.3005 2.15212 31.9492 1.80081C31.5979 1.4495 31.1218 1.25148 30.625 1.25H9.375C8.87818 1.25148 8.40212 1.4495 8.05081 1.80081C7.6995 2.15212 7.50148 2.62818 7.5 3.125V8.75H3.125C2.62818 8.75148 2.15212 8.9495 1.80081 9.30081C1.4495 9.65212 1.25148 10.1282 1.25 10.625V30.625C1.25148 31.1218 1.4495 31.5979 1.80081 31.9492C2.15212 32.3005 2.62818 32.4985 3.125 32.5H15.5125L15.0938 35H13.125C13.0281 35.0007 12.9326 35.0236 12.8459 35.0669C12.7593 35.1102 12.6837 35.1729 12.625 35.25L10.75 37.75C10.6805 37.8433 10.6384 37.9542 10.6284 38.0701C10.6185 38.1861 10.6411 38.3025 10.6938 38.4062C10.7443 38.5104 10.8235 38.598 10.922 38.6589C11.0205 38.7197 11.1342 38.7513 11.25 38.75H28.75C28.8658 38.7513 28.9795 38.7197 29.078 38.6589C29.1765 38.598 29.2557 38.5104 29.3062 38.4062C29.3589 38.3025 29.3815 38.1861 29.3716 38.0701C29.3617 37.9542 29.3195 37.8433 29.25 37.75L27.375 35.25C27.3163 35.1729 27.2407 35.1102 27.1541 35.0669C27.0674 35.0236 26.9719 35.0007 26.875 35H24.9062L24.4875 32.5H36.875C37.3718 32.4985 37.8479 32.3005 38.1992 31.9492C38.5505 31.5979 38.7485 31.1218 38.75 30.625V10.625C38.7485 10.1282 38.5505 9.65212 38.1992 9.30081C37.8479 8.9495 37.3718 8.75148 36.875 8.75ZM8.75 3.125C8.75 2.95924 8.81585 2.80027 8.93306 2.68306C9.05027 2.56585 9.20924 2.5 9.375 2.5H30.625C30.7908 2.5 30.9497 2.56585 31.0669 2.68306C31.1842 2.80027 31.25 2.95924 31.25 3.125V6.25H8.75V3.125ZM8.75 7.5H31.25V21.875C31.25 22.0408 31.1842 22.1997 31.0669 22.3169C30.9497 22.4342 30.7908 22.5 30.625 22.5H9.375C9.20924 22.5 9.05027 22.4342 8.93306 22.3169C8.81585 22.1997 8.75 22.0408 8.75 21.875V7.5ZM26.5625 36.25L27.5 37.5H12.5L13.4375 36.25H26.5625ZM16.3625 35L16.7812 32.5H23.2188L23.6375 35H16.3625ZM37.5 30.625C37.5 30.7908 37.4342 30.9497 37.3169 31.0669C37.1997 31.1842 37.0408 31.25 36.875 31.25H3.125C2.95924 31.25 2.80027 31.1842 2.68306 31.0669C2.56585 30.9497 2.5 30.7908 2.5 30.625V28.75H37.5V30.625ZM37.5 27.5H2.5V10.625C2.5 10.4592 2.56585 10.3003 2.68306 10.1831C2.80027 10.0658 2.95924 10 3.125 10H7.5V21.875C7.50148 22.3718 7.6995 22.8479 8.05081 23.1992C8.40212 23.5505 8.87818 23.7485 9.375 23.75H11.875V25H7.5V26.25H12.5C12.6658 26.25 12.8247 26.1842 12.9419 26.0669C13.0592 25.9497 13.125 25.7908 13.125 25.625V23.75H16.875V26.25H18.125V23.75H21.875V26.25H23.125V23.75H26.875V25.625C26.875 25.7908 26.9408 25.9497 27.0581 26.0669C27.1753 26.1842 27.3342 26.25 27.5 26.25H32.5V25H28.125V23.75H30.625C31.1218 23.7485 31.5979 23.5505 31.9492 23.1992C32.3005 22.8479 32.4985 22.3718 32.5 21.875V10H36.875C37.0408 10 37.1997 10.0658 37.3169 10.1831C37.4342 10.3003 37.5 10.4592 37.5 10.625V27.5Z" fill="black"/>
<path d="M28.75 3.75H30V5H28.75V3.75Z" fill="black"/>
<path d="M26.25 3.75H27.5V5H26.25V3.75Z" fill="black"/>
<path d="M23.75 3.75H25V5H23.75V3.75Z" fill="black"/>
<path d="M16.4331 10.8083L12.6831 14.5583C12.5659 14.6756 12.5001 14.8345 12.5001 15.0002C12.5001 15.166 12.5659 15.3249 12.6831 15.4421L16.4331 19.1921L17.3169 18.3083L14.0087 15.0002L17.3169 11.6921L16.4331 10.8083Z" fill="black"/>
<path d="M23.5669 10.8083L22.6831 11.6921L25.9912 15.0002L22.6831 18.3083L23.5669 19.1921L27.3169 15.4421C27.434 15.3249 27.4998 15.166 27.4998 15.0002C27.4998 14.8345 27.434 14.6756 27.3169 14.5583L23.5669 10.8083Z" fill="black"/>
<path d="M17.5313 20.4164L21.2787 9.16243L22.4649 9.55743L18.7176 20.8114L17.5313 20.4164Z" fill="black"/>
</svg>
