<svg width="43" height="43" viewBox="0 0 43 43" fill="none" xmlns="http://www.w3.org/2000/svg">
<path d="M33.5672 31.5462L28.3016 27.2778C27.633 26.7399 26.6634 26.8059 26.0738 27.4294L24.242 29.3798C24.006 29.6373 23.6164 29.6821 23.328 29.4848L23.0329 29.2842C22.054 28.6258 20.836 27.8062 18.4917 24.9785C16.1475 22.1507 15.566 20.801 15.0999 19.7191L14.9583 19.3921C14.8154 19.0721 14.9301 18.6957 15.2272 18.5097L17.4813 17.0707C18.2028 16.6066 18.4472 15.6662 18.0429 14.9095L14.8222 8.94514C14.4074 8.17429 13.4597 7.86608 12.6708 8.24543L10.1912 9.4368C9.41296 9.80168 8.80617 10.4536 8.49802 11.256C7.36509 14.2578 7.50509 19.6339 14.6064 28.1977C20.2554 35.0088 24.7373 37.1169 27.9252 37.4143C28.6586 37.4859 29.3983 37.4587 30.1245 37.3332C30.9701 37.1791 31.7232 36.7034 32.2255 36.0058L33.8563 33.791C34.3757 33.0858 34.2483 32.0968 33.5672 31.5462ZM33.1039 33.2423L31.4763 35.4589C31.1153 35.9625 30.5735 36.307 29.9643 36.4202C27.0474 36.9356 22.1391 35.8253 15.3215 27.6046C8.5039 19.3839 8.32076 14.3554 9.36697 11.5838C9.59122 11.0053 10.0305 10.536 10.5929 10.274L13.0723 9.0845C13.4146 8.91972 13.826 9.05345 14.006 9.38796L15.7552 12.6316L17.2235 15.3515C17.3991 15.6798 17.2933 16.0879 16.9803 16.2894L14.7257 17.7284C14.0403 18.1579 13.7751 19.0259 14.1034 19.7651L14.242 20.0839C14.7317 21.2226 15.3405 22.6392 17.7721 25.5707C20.2037 28.5022 21.4827 29.3625 22.5107 30.0543L22.7988 30.25C23.4644 30.7094 24.3666 30.6093 24.9154 30.0153L26.7466 28.0658C27.0027 27.7956 27.4231 27.7671 27.7134 28.0002L32.9785 32.2686C33.2742 32.5073 33.3295 32.9365 33.1039 33.2423Z" fill="black"/>
<path d="M23.8379 13.7174C28.1758 14.127 31.3635 17.9708 30.9636 22.3096C30.9398 22.5649 31.1274 22.7912 31.3828 22.815C31.6381 22.8388 31.8643 22.6512 31.8882 22.3959C32.3352 17.5466 28.7725 13.2506 23.9242 12.7929C23.6689 12.7691 23.4426 12.9567 23.4188 13.212C23.395 13.4674 23.5826 13.6936 23.8379 13.7174Z" fill="black"/>
<path d="M23.5791 16.4911C26.3859 16.7563 28.4485 19.2434 28.1899 22.0508C28.1661 22.3061 28.3537 22.5323 28.609 22.5562C28.8643 22.58 29.0906 22.3923 29.1144 22.137C29.4201 18.8191 26.9825 15.8799 23.6654 15.5666C23.4101 15.5427 23.1838 15.7304 23.16 15.9857C23.1362 16.241 23.3238 16.4673 23.5791 16.4911Z" fill="black"/>
<path d="M23.3203 19.265C24.5961 19.3856 25.5336 20.516 25.4161 21.7922C25.3923 22.0475 25.58 22.2737 25.8353 22.2976C26.0906 22.3214 26.3169 22.1338 26.3407 21.8784C26.5053 20.0919 25.1928 18.5092 23.4066 18.3405C23.1513 18.3167 22.925 18.5043 22.9012 18.7596C22.8774 19.015 23.065 19.2412 23.3203 19.265Z" fill="black"/>
</svg>
