<svg width="38" height="38" viewBox="0 0 38 38" fill="none" xmlns="http://www.w3.org/2000/svg">
<g clip-path="url(#clip0)">
<path d="M31.5321 20.6277C30.9177 19.8519 31.0935 19.5067 31.5321 18.8132C31.54 18.8053 36.6114 11.7975 37.1339 9.42091L37.1371 9.41933C37.3967 8.55325 37.1371 7.91675 35.8815 7.91675H31.7268C30.6692 7.91675 30.1815 8.463 29.9202 9.07416C29.9202 9.07416 27.8049 14.1377 24.8124 17.4199C23.8466 18.3683 23.4001 18.6723 22.8728 18.6723C22.6132 18.6723 22.2094 18.3683 22.2094 17.5022V9.41933C22.2094 8.38066 21.9133 7.91675 21.0377 7.91675H14.5049C13.8415 7.91675 13.4472 8.40125 13.4472 8.8525C13.4472 9.83733 14.9435 10.0637 15.0987 12.8346V18.8465C15.0987 20.1638 14.8596 20.4061 14.3292 20.4061C12.9168 20.4061 9.48892 15.322 7.4575 9.50325C7.04742 8.37433 6.64683 7.91833 5.58125 7.91833H1.425C0.239083 7.91833 0 8.46458 0 9.07575C0 10.1556 1.41233 15.5247 6.56767 22.618C10.0035 27.4598 14.8422 30.0834 19.2438 30.0834C21.8896 30.0834 22.2126 29.5007 22.2126 28.4985C22.2126 23.872 21.9735 23.435 23.2987 23.435C23.9131 23.435 24.9707 23.739 27.4407 26.0744C30.2638 28.8437 30.7277 30.0834 32.3079 30.0834H36.4626C37.6469 30.0834 38.247 29.5007 37.9018 28.3512C37.1117 25.9335 31.7727 20.9602 31.5321 20.6277Z" fill="white"/>
</g>
<defs>
<clipPath id="clip0">
<rect width="38" height="38" fill="white"/>
</clipPath>
</defs>
</svg>
