<svg width="38" height="38" viewBox="0 0 38 38" fill="none" xmlns="http://www.w3.org/2000/svg">
<path d="M9.19066 35.2884C12.1266 37.0552 15.4836 37.9864 18.9327 37.9864C29.3845 37.9864 38 29.4576 38 18.993C38 8.54066 29.3967 0 18.9327 0C8.50066 0 0.0136261 8.52037 0.0136261 18.993C0.0136261 22.4883 0.945129 25.8707 2.71159 28.8091L0 38L9.19066 35.2884ZM2.23961 18.993C2.23961 9.74759 9.72816 2.22569 18.9327 2.22569C28.2191 2.22569 35.7743 9.74759 35.7743 18.993C35.7743 28.2388 28.2191 35.7604 18.9327 35.7604C15.7373 35.7604 12.632 34.8553 9.95343 33.1424L9.52551 32.869L3.29201 34.7083L5.13095 28.4745L4.85756 28.0469C3.14473 25.3677 2.23961 22.2372 2.23961 18.993Z" fill="white"/>
<path d="M9.24962 15.4934C9.61723 17.424 10.7085 21.1372 13.8857 24.3144C17.0629 27.4916 20.7761 28.5832 22.707 28.9508C24.9179 29.3717 28.1624 29.4352 29.7479 27.8497L30.6319 26.9657C31.0781 26.5195 31.3239 25.9261 31.3239 25.2949C31.3239 24.6638 31.0781 24.0706 30.6319 23.6244L27.0969 20.0895C26.6504 19.643 26.0573 19.3974 25.4261 19.3974C24.795 19.3974 24.2018 19.643 23.7553 20.0895L22.8717 20.9731C22.3318 21.513 21.3128 21.5153 20.7689 20.9798L17.2429 17.306C17.2377 17.3005 17.2325 17.295 17.227 17.2897C16.6863 16.749 16.6863 15.8691 17.227 15.3285L18.1106 14.4448C19.0343 13.5211 19.0343 12.0266 18.1106 11.1032L14.5757 7.56824C13.6546 6.64717 12.1557 6.64717 11.2344 7.56824L10.3507 8.4522V8.45191C9.08523 9.71769 8.6634 12.4157 9.24962 15.4934ZM11.9247 10.0262C12.8524 9.11959 12.8028 9.10219 12.9052 9.10219C12.9403 9.10219 12.9753 9.11553 13.002 9.1422C16.7269 12.8871 16.5773 12.667 16.5773 12.7743C16.5773 12.8117 16.5636 12.8444 16.5373 12.8711L15.6533 13.7548C14.2458 15.1623 14.2402 17.4408 15.6443 18.8547L19.1723 22.5309C19.1778 22.5361 19.183 22.5416 19.1886 22.5471C20.5958 23.9544 23.0337 23.959 24.4456 22.5471L25.3293 21.6634C25.3826 21.6101 25.4696 21.6101 25.523 21.6634C29.2478 25.408 29.0982 25.188 29.0982 25.2952C29.0982 25.3329 29.0846 25.3654 29.0582 25.3921L28.1742 26.2757C27.5686 26.8814 25.6395 27.2438 23.1233 26.7645C21.4441 26.4445 18.2153 25.4964 15.4596 22.7408C12.704 19.9851 11.7559 16.7563 11.4362 15.0771C10.9566 12.5609 11.319 10.6315 11.9247 10.0262Z" fill="white"/>
</svg>
