<svg width="64" height="64" viewBox="0 0 64 64" fill="none" xmlns="http://www.w3.org/2000/svg">
<path d="M32.0001 6.41815C26.8181 6.41815 22.603 10.6332 22.603 15.8152C22.603 18.9465 24.189 21.8836 26.7795 23.6199V26.2563H37.2206V23.6199C39.8111 21.8836 41.3971 18.9465 41.3971 15.8152C41.3971 10.6332 37.182 6.41815 32.0001 6.41815ZM32.0001 17.9034C30.8463 17.9034 29.9118 16.9689 29.9118 15.8152C29.9118 14.6614 30.8463 13.7269 32.0001 13.7269C33.1538 13.7269 34.0883 14.6614 34.0883 15.8152C34.0883 16.9689 33.1538 17.9034 32.0001 17.9034Z" fill="#6777D5"/>
<path d="M62.6708 31.7055L52.9961 39.4465L43.9415 29.4857L64 12.4342L62.6479 10.8441L41.9253 28.4562C40.6202 28.6305 39.3767 29.0398 38.2396 29.6642C38.2167 29.4262 38.1686 29.1964 38.0861 28.9814C38.8181 28.5178 39.3088 27.7075 39.3088 26.7783C39.3088 25.3384 38.1383 24.168 36.6985 24.168H33.0441V18.7553C34.2563 18.323 35.1323 17.1745 35.1323 15.8151C35.1323 14.0881 33.727 12.6827 32 12.6827C30.273 12.6827 28.8677 14.0881 28.8677 15.8151C28.8677 17.1745 29.7437 18.323 30.9559 18.7553V24.168H27.3015C25.8617 24.168 24.6912 25.3384 24.6912 26.7783C24.6912 27.7075 25.1819 28.5178 25.9139 28.9814C25.8324 29.1933 25.7844 29.4188 25.7614 29.6527C24.6223 29.0294 23.3767 28.6232 22.0705 28.453L1.35213 10.843L0 12.4332L20.0585 29.4846L11.0029 39.4455L1.32811 31.7044L0.0229705 33.3353L10.4119 41.6465C10.9601 43.8328 12.1785 45.7999 13.9076 47.244L15.8121 48.8373C15.4393 49.9138 15.5719 51.1322 16.2767 52.0584C16.8551 52.8185 17.6904 53.2936 18.6291 53.399C18.721 53.4095 18.8128 53.4157 18.9047 53.4188C18.9047 53.446 18.9047 53.4731 18.9047 53.4992C18.9204 54.5486 19.4049 55.5238 20.2349 56.1774C20.8155 56.6347 21.5181 56.8686 22.2334 56.8843C22.2323 56.9156 22.2323 56.9479 22.2334 56.9793C22.249 58.0286 22.7335 59.0038 23.5615 59.6564C24.143 60.1137 24.8457 60.3486 25.5609 60.3643C25.5609 60.3967 25.5609 60.429 25.5609 60.4614C25.5777 61.5097 26.0611 62.4849 26.8911 63.1385C27.4915 63.6115 28.2245 63.8464 28.9658 63.8464C29.7739 63.8464 30.5925 63.5655 31.2555 63.0101L31.3119 62.962C31.9196 63.4204 32.639 63.6626 33.3657 63.6626C34.2167 63.6626 35.0697 63.3484 35.7285 62.7219C36.3811 62.1006 36.7549 61.2393 36.7883 60.3392C36.8102 60.3392 36.8322 60.3455 36.8541 60.3455C37.7061 60.3455 38.5581 60.0312 39.2169 59.4058C39.8695 58.7835 40.2422 57.9211 40.2767 57.0221C40.2986 57.0221 40.3205 57.0283 40.3425 57.0283C41.1945 57.0283 42.0465 56.7141 42.7063 56.0886C43.3589 55.4674 43.7317 54.605 43.7651 53.706C43.787 53.706 43.8089 53.7122 43.8319 53.7122C44.6839 53.7122 45.5359 53.398 46.1947 52.7715C46.8849 52.1147 47.2764 51.1897 47.2681 50.2332C47.267 50.0568 47.2378 49.8835 47.2096 49.7102L50.1112 47.2471C51.8444 45.7968 53.0639 43.8224 53.609 41.6287L63.9729 33.3384L62.6708 31.7055ZM32 14.771C32.5764 14.771 33.0441 15.2387 33.0441 15.8151C33.0441 16.3914 32.5764 16.8592 32 16.8592C31.4236 16.8592 30.9559 16.3914 30.9559 15.8151C30.9559 15.2387 31.4236 14.771 32 14.771ZM29.5181 32.5209H34.5048L32.0115 34.606L29.5181 32.5209ZM28.3456 29.3886H35.6544C35.9415 29.3886 36.1765 29.6235 36.1765 29.9106C36.1765 30.1978 35.9415 30.4327 35.6544 30.4327H28.3456C28.0585 30.4327 27.8235 30.1978 27.8235 29.9106C27.8235 29.6235 28.0585 29.3886 28.3456 29.3886ZM27.3015 26.2562H36.6985C36.9856 26.2562 37.2206 26.4911 37.2206 26.7783C37.2206 27.0654 36.9856 27.3003 36.6985 27.3003H35.6544H28.3456H27.3015C27.0144 27.3003 26.7794 27.0654 26.7794 26.7783C26.7794 26.4911 27.0144 26.2562 27.3015 26.2562ZM12.402 41.0137L17.7541 35.1249L21.9285 30.5329C23.4811 30.7605 24.9251 31.4048 26.131 32.4134L37.467 41.8908C37.7645 42.1403 37.941 42.4932 37.964 42.8848C37.9859 43.2763 37.8491 43.648 37.5787 43.9299C37.0859 44.4457 36.2955 44.4979 35.74 44.05L30.6071 39.9132C30.1561 39.5488 29.4993 39.623 29.1391 40.0698C29.137 40.073 29.136 40.0761 29.1339 40.0792L29.1287 40.0751C28.3446 41.0659 27.1762 41.635 25.9222 41.635C23.6638 41.635 21.8262 39.7806 21.8262 37.5013H19.7379C19.7379 39.6251 20.8019 41.5003 22.4203 42.6238L17.0285 47.1322L15.2472 45.6423C13.8251 44.4541 12.8269 42.8242 12.402 41.0137ZM28.1848 61.4982C27.8476 61.233 27.6575 60.854 27.6513 60.4311C27.646 60.0417 27.8058 59.6773 28.0846 59.4131C28.2673 59.9696 28.5732 60.4833 29.0107 60.8863L29.7134 61.5326C29.2174 61.8281 28.6108 61.8334 28.1848 61.4982ZM34.2918 61.21C33.7844 61.6966 32.9804 61.7018 32.4625 61.2257L30.4244 59.3505C30.1415 59.0905 29.9849 58.7355 29.9817 58.3502C29.9786 57.9649 30.131 57.6068 30.4077 57.3426C30.6646 57.0983 30.9966 56.9751 31.3307 56.9751C31.6565 56.9751 31.9812 57.092 32.237 57.328L32.4949 57.565C32.496 57.5661 32.496 57.5661 32.497 57.5671C32.498 57.5671 32.498 57.5682 32.498 57.5682L34.2772 59.2053C34.5581 59.4643 34.7147 59.8182 34.7178 60.2035C34.721 60.5888 34.5706 60.9459 34.2918 61.21ZM37.7802 57.8929C37.2717 58.3773 36.4678 58.3826 35.9509 57.9075L35.693 57.6705C35.692 57.6694 35.692 57.6694 35.6909 57.6684C35.6899 57.6684 35.6899 57.6673 35.6899 57.6673L33.9107 56.0302C33.6299 55.7712 33.4732 55.4173 33.4701 55.032C33.467 54.6467 33.6194 54.2886 33.8961 54.0244C34.4035 53.541 35.2075 53.5327 35.7254 54.0098L37.7635 55.885C38.0465 56.145 38.2031 56.5 38.2062 56.8853C38.2093 57.2706 38.0579 57.6287 37.7802 57.8929ZM41.2707 54.5736C40.7601 55.0581 39.9582 55.0654 39.4403 54.5893L37.4012 52.713C37.1193 52.4541 36.9627 52.0991 36.9585 51.7138C36.9554 51.3285 37.1068 50.9714 37.3845 50.7073C37.6413 50.463 37.9734 50.3387 38.3075 50.3387C38.6333 50.3387 38.958 50.4557 39.2138 50.6916L40.3717 51.7566L41.254 52.5679C41.5359 52.8279 41.6925 53.1818 41.6956 53.5681C41.6977 53.9534 41.5474 54.3116 41.2707 54.5736ZM44.758 51.2565C44.2506 51.741 43.4456 51.7472 42.9298 51.2732L42.6688 51.033C42.6677 51.032 42.6677 51.031 42.6667 51.0299L41.7207 50.1591L40.8896 49.3938C40.6077 49.1348 40.4511 48.7809 40.4479 48.3956C40.4448 48.0093 40.5962 47.6522 40.8729 47.388C41.1297 47.1437 41.4628 47.0205 41.7959 47.0205C42.1216 47.0205 42.4464 47.1364 42.7011 47.3713L44.7413 49.2497C45.0232 49.5086 45.1798 49.8636 45.184 50.2479C45.1872 50.6352 45.0358 50.9923 44.758 51.2565ZM48.7685 45.6475L46.2323 47.8005C46.2052 47.7733 46.1843 47.7399 46.1561 47.7138L44.1159 45.8354C42.792 44.6201 40.7361 44.6389 39.4341 45.8751C38.7815 46.4964 38.4077 47.3599 38.3754 48.2599C37.5014 48.2432 36.6223 48.5501 35.9468 49.1933C35.2942 49.8146 34.9204 50.678 34.888 51.5781C34.0141 51.5614 33.1349 51.8673 32.4594 52.5105C31.8068 53.1328 31.433 53.9962 31.3996 54.8963C30.5257 54.8796 29.6476 55.1865 28.971 55.8287C28.7873 56.0041 28.6286 56.2004 28.4886 56.4092C28.4145 56.4457 28.3372 56.4718 28.2704 56.5272L26.8055 57.7519C26.8045 57.753 26.8034 57.753 26.8024 57.753C26.7993 57.7551 26.7961 57.7582 26.793 57.7603L26.5925 57.9284C26.0747 58.3627 25.3459 58.4003 24.8572 58.0161C24.52 57.7509 24.331 57.3719 24.3247 56.949C24.3185 56.5324 24.496 56.1408 24.8144 55.8756L32.0564 49.8208L30.7168 48.2181L23.4748 54.2729C23.4727 54.275 23.4706 54.2771 23.4675 54.2792L23.2639 54.4504C22.7471 54.8827 22.0172 54.9213 21.5296 54.5371C21.1924 54.2719 21.0023 53.8929 20.9961 53.47C20.9898 53.0534 21.1684 52.6619 21.4858 52.3967L28.828 46.2562L27.4884 44.6535L20.1441 50.7929L19.8716 51.0195C19.5886 51.2575 19.2336 51.3588 18.864 51.3243C18.4965 51.2826 18.1686 51.0946 17.94 50.7939C17.5035 50.2207 17.6424 49.3416 18.249 48.8352L24.5534 43.5635C24.995 43.6647 25.4524 43.7222 25.9233 43.7222C27.4644 43.7222 28.9126 43.1479 30.0381 42.1341L34.4307 45.6736C35.8371 46.8065 37.8397 46.6791 39.0895 45.3719C39.7536 44.6775 40.1044 43.7295 40.0501 42.7678C39.9969 41.8073 39.5458 40.9031 38.8097 40.287L33.6413 35.9654L37.8919 32.4113C39.0916 31.4079 40.5283 30.7647 42.0757 30.535L42.1509 30.6175L51.6168 41.0315C51.1887 42.8357 50.1916 44.4583 48.7685 45.6475Z" fill="#333333"/>
<path d="M51.8381 33.5653C51.8381 35.2923 53.2435 36.6977 54.9705 36.6977C56.6974 36.6977 58.1028 35.2923 58.1028 33.5653C58.1028 31.8384 56.6974 30.433 54.9705 30.433C53.2435 30.433 51.8381 31.8384 51.8381 33.5653ZM56.0146 33.5653C56.0146 34.1417 55.5468 34.6094 54.9705 34.6094C54.3941 34.6094 53.9264 34.1417 53.9264 33.5653C53.9264 32.989 54.3941 32.5212 54.9705 32.5212C55.5468 32.5212 56.0146 32.989 56.0146 33.5653Z" fill="#333333"/>
<path d="M12.1619 33.5653C12.1619 31.8384 10.7565 30.433 9.02956 30.433C7.30259 30.433 5.89722 31.8384 5.89722 33.5653C5.89722 35.2923 7.30259 36.6977 9.02956 36.6977C10.7565 36.6977 12.1619 35.2923 12.1619 33.5653ZM7.98544 33.5653C7.98544 32.989 8.45321 32.5212 9.02956 32.5212C9.60591 32.5212 10.0737 32.989 10.0737 33.5653C10.0737 34.1417 9.60591 34.6094 9.02956 34.6094C8.45321 34.6094 7.98544 34.1417 7.98544 33.5653Z" fill="#333333"/>
<path d="M33.044 0.153442H30.9558V4.3299H33.044V0.153442Z" fill="#333333"/>
<path d="M25.3537 6.3914L27.1621 5.34729L25.0739 1.73059L23.2655 2.77471L25.3537 6.3914Z" fill="#333333"/>
<path d="M21.5311 10.9736L22.5752 9.16522L18.9585 7.07706L17.9144 8.88546L21.5311 10.9736Z" fill="#333333"/>
<path d="M20.5148 14.7711H16.3384V16.8593H20.5148V14.7711Z" fill="#333333"/>
<path d="M47.6618 14.7711H43.4854V16.8593H47.6618V14.7711Z" fill="#333333"/>
<path d="M42.4699 10.9752L46.0872 8.88739L45.0433 7.07878L41.426 9.16659L42.4699 10.9752Z" fill="#333333"/>
<path d="M38.6461 6.39512L40.7339 2.77789L38.9253 1.73399L36.8375 5.35122L38.6461 6.39512Z" fill="#333333"/>
</svg>
