<svg width="20" height="20" viewBox="0 0 20 20" fill="none" xmlns="http://www.w3.org/2000/svg">
<g clip-path="url(#clip0)">
<path d="M16.9872 12.746V17.3147H3.01226V12.746H0.326294V18.6577C0.326294 19.3989 0.926734 20 1.67128 20H18.3282C19.072 20 19.6731 19.3996 19.6731 18.6577V12.746H16.9872Z" fill="#0F0F0F"/>
<path d="M9.75385 12.293L5.90836 7.64627C5.90836 7.64627 5.32327 7.09387 5.95773 7.09387C6.5922 7.09387 8.12466 7.09387 8.12466 7.09387C8.12466 7.09387 8.12466 6.72226 8.12466 6.14918C8.12466 4.51531 8.12466 1.5418 8.12466 0.329575C8.12466 0.329575 8.03859 0 8.53496 0C9.03532 0 11.2269 0 11.5852 0C11.9428 0 11.9348 0.277537 11.9348 0.277537C11.9348 1.45307 11.9348 4.52932 11.9348 6.10981C11.9348 6.62219 11.9348 6.95443 11.9348 6.95443C11.9348 6.95443 13.1637 6.95443 13.9349 6.95443C14.7048 6.95443 14.1251 7.53286 14.1251 7.53286C14.1251 7.53286 10.8533 11.876 10.397 12.3317C10.0687 12.662 9.75385 12.293 9.75385 12.293Z" fill="#0F0F0F"/>
</g>
<defs>
<clipPath id="clip0">
<rect width="20" height="20" fill="white"/>
</clipPath>
</defs>
</svg>
