<svg width="64" height="64" viewBox="0 0 64 64" fill="none" xmlns="http://www.w3.org/2000/svg">
<path d="M21.6774 35.0968V38.1936H20.6452C17.7992 38.1936 15.4839 40.5089 15.4839 43.3549C15.4839 46.2008 17.7992 48.5162 20.6452 48.5162H24.7742C26.4816 48.5162 27.871 49.9056 27.871 51.6129C27.871 53.3203 26.4816 54.7097 24.7742 54.7097H20.6452C18.9378 54.7097 17.5484 53.3203 17.5484 51.6129V50.5807H15.4839V51.6129C15.4839 54.4589 17.7992 56.7742 20.6452 56.7742H21.6774V59.871H23.742V56.7742H24.7742C27.6201 56.7742 29.9355 54.4589 29.9355 51.6129C29.9355 48.767 27.6201 46.4516 24.7742 46.4516H20.6452C18.9378 46.4516 17.5484 45.0622 17.5484 43.3549C17.5484 41.6475 18.9378 40.2581 20.6452 40.2581H24.7742C26.4816 40.2581 27.871 41.6475 27.871 43.3549V44.3871H29.9355V43.3549C29.9355 40.5089 27.6201 38.1936 24.7742 38.1936H23.742V35.0968H21.6774Z" fill="#333333"/>
<path d="M56.7742 41.2904H39.4529C38.1223 36.9828 35.1638 33.2945 31.2134 31.1051L29.4173 30.0728L28.3891 31.8628L30.1997 32.9033C33.5112 34.7376 36.0351 37.7508 37.2913 41.2904H34.0645V48.5162H36.129V51.6129H32V58.8047C29.3326 60.8279 26.1182 61.9355 22.7096 61.9355C14.1718 61.9355 7.22577 54.9895 7.22577 46.4517C7.22577 40.8269 10.2895 35.6346 15.234 32.895L17.0302 31.8628L16.002 30.0728L14.2193 31.0968C8.63171 34.1936 5.16125 40.0764 5.16125 46.4517C5.16125 56.128 13.0333 64 22.7096 64C26.9295 64 30.8955 62.5229 34.0645 59.8122V64H56.7742V56.7742H54.7096V53.6775H58.8387V46.4517H56.7742V41.2904ZM54.7096 46.4517H51.6129V43.3549H54.7096V46.4517ZM48.5161 51.6129V48.5162H51.6129V51.6129H48.5161ZM42.3225 53.6775V56.7742H39.2258V53.6775H42.3225ZM46.4516 46.4517V43.3549H49.5484V46.4517H46.4516ZM44.3871 46.4517H41.2903V43.3549H44.3871V46.4517ZM46.4516 48.5162V51.6129H43.3548V48.5162H46.4516ZM44.3871 58.8388V61.9355H41.2903V58.8388H44.3871ZM46.4516 58.8388H49.5484V61.9355H46.4516V58.8388ZM44.3871 56.7742V53.6775H47.4838V56.7742H44.3871ZM36.129 43.3549H39.2258V46.4517H36.129V43.3549ZM38.1935 48.5162H41.2903V51.6129H38.1935V48.5162ZM34.0645 53.6775H36.129H37.1613V56.7742H34.0645V53.6775ZM36.129 58.8388H39.2258V61.9355H36.129V58.8388ZM54.7096 61.9355H51.6129V58.8388H54.7096V61.9355ZM52.6451 56.7742H49.5484V53.6775H52.6451V56.7742ZM56.7742 51.6129H54.7096H53.6774V48.5162H56.7742V51.6129Z" fill="#333333"/>
<path d="M60.9032 0C59.1959 0 57.8064 1.38942 57.8064 3.09677C57.8064 3.44052 57.8756 3.76568 57.9799 4.07432L41.9004 13.9004C41.4235 13.6 40.863 13.4194 40.2581 13.4194C39.6232 13.4194 39.0317 13.6124 38.5404 13.9417L26.7654 7.60155C26.463 6.20903 25.2243 5.16129 23.7419 5.16129C22.0346 5.16129 20.6452 6.55071 20.6452 8.25806C20.6452 8.62452 20.7205 8.97135 20.8382 9.29755L4.68542 20.0661C4.21987 19.7843 3.68 19.6129 3.09677 19.6129C1.38942 19.6129 0 21.0023 0 22.7097C0 24.417 1.38942 25.8064 3.09677 25.8064C4.80413 25.8064 6.19355 24.417 6.19355 22.7097C6.19355 22.3432 6.11819 21.9964 6.00155 21.6702L11.3548 18.1006V19.6129C11.3548 23.0369 12.8578 26.1997 15.4983 28.3685L15.4839 29.9252L17.5484 29.9458L17.5721 27.3579L17.1541 27.0441C14.7799 25.2676 13.4194 22.559 13.4194 19.6129V17.5484C13.4194 16.9786 13.8818 16.5161 14.4516 16.5161C15.0214 16.5161 15.4839 16.9786 15.4839 17.5484C15.4839 19.2557 16.8733 20.6452 18.5806 20.6452C20.288 20.6452 21.6774 19.2557 21.6774 17.5484C21.6774 16.9786 22.1399 16.5161 22.7097 16.5161C23.2795 16.5161 23.7419 16.9786 23.7419 17.5484C23.7419 19.2557 25.1314 20.6452 26.8387 20.6452C28.5461 20.6452 29.9355 19.2557 29.9355 17.5484C29.9355 16.9786 30.3979 16.5161 30.9677 16.5161C31.5375 16.5161 32 16.9786 32 17.5484V19.6129C32 22.559 30.6395 25.2676 28.2653 27.0441L27.8472 27.3579L27.871 29.9458L29.9355 29.9252L29.921 28.3685C32.5615 26.1997 34.0645 23.0369 34.0645 19.6129V17.5484C34.0645 15.841 32.6751 14.4516 30.9677 14.4516C29.2604 14.4516 27.871 15.841 27.871 17.5484C27.871 18.1182 27.4085 18.5806 26.8387 18.5806C26.2689 18.5806 25.8064 18.1182 25.8064 17.5484C25.8064 15.841 24.417 14.4516 22.7097 14.4516C21.0023 14.4516 19.6129 15.841 19.6129 17.5484C19.6129 18.1182 19.1505 18.5806 18.5806 18.5806C18.0108 18.5806 17.5484 18.1182 17.5484 17.5484C17.5484 16.448 16.9672 15.4859 16.1001 14.9368L22.1523 10.9017C22.6188 11.1835 23.1587 11.3548 23.7419 11.3548C24.8991 11.3548 25.8983 10.7097 26.4299 9.76619L37.3079 15.6232C37.2212 15.9081 37.1613 16.2034 37.1613 16.5161C37.1613 18.2235 38.5507 19.6129 40.2581 19.6129C41.9654 19.6129 43.3548 18.2235 43.3548 16.5161C43.3548 16.1724 43.2857 15.8472 43.1814 15.5386L59.2609 5.71252C59.7378 6.0129 60.2983 6.19355 60.9032 6.19355C62.6106 6.19355 64 4.80413 64 3.09677C64 1.38942 62.6106 0 60.9032 0ZM3.09677 23.7419C2.52697 23.7419 2.06452 23.2795 2.06452 22.7097C2.06452 22.1399 2.52697 21.6774 3.09677 21.6774C3.66658 21.6774 4.12903 22.1399 4.12903 22.7097C4.12903 23.2795 3.66658 23.7419 3.09677 23.7419ZM23.7419 9.29032C23.1721 9.29032 22.7097 8.82787 22.7097 8.25806C22.7097 7.68826 23.1721 7.22581 23.7419 7.22581C24.3117 7.22581 24.7742 7.68826 24.7742 8.25806C24.7742 8.82787 24.3117 9.29032 23.7419 9.29032ZM40.2581 17.5484C39.6883 17.5484 39.2258 17.0859 39.2258 16.5161C39.2258 15.9463 39.6883 15.4839 40.2581 15.4839C40.8279 15.4839 41.2903 15.9463 41.2903 16.5161C41.2903 17.0859 40.8279 17.5484 40.2581 17.5484ZM60.9032 4.12903C60.3334 4.12903 59.871 3.66658 59.871 3.09677C59.871 2.52697 60.3334 2.06452 60.9032 2.06452C61.473 2.06452 61.9355 2.52697 61.9355 3.09677C61.9355 3.66658 61.473 4.12903 60.9032 4.12903Z" fill="#333333"/>
<path d="M55.7419 23.7419H53.6774V26.8387H55.7419V23.7419Z" fill="#333333"/>
<path d="M55.7419 36.129H53.6774V39.2258H55.7419V36.129Z" fill="#333333"/>
<path d="M55.7419 17.5484H53.6774V20.6452H55.7419V17.5484Z" fill="#333333"/>
<path d="M55.7419 29.9355H53.6774V33.0323H55.7419V29.9355Z" fill="#333333"/>
<path d="M49.0167 16.6639L50.0799 18.4331L54.7096 15.6553L59.3393 18.4331L60.4025 16.6639L54.7096 13.2481L49.0167 16.6639Z" fill="#333333"/>
<path d="M30.9677 32H14.4516C13.311 32 12.3871 31.0761 12.3871 29.9355C12.3871 28.7948 13.311 27.871 14.4516 27.871H30.9677C32.1084 27.871 33.0322 28.7948 33.0322 29.9355C33.0322 31.0761 32.1084 32 30.9677 32Z" fill="#6777D5"/>
</svg>
