<svg width="64" height="64" viewBox="0 0 64 64" fill="none" xmlns="http://www.w3.org/2000/svg">
<path d="M44 5H40V7H44C45.654 7 47 8.346 47 10V13H45V15H47V28.28H49V10C49 7.243 46.757 5 44 5Z" fill="black"/>
<path d="M41 13H43V15H41V13Z" fill="black"/>
<path d="M33 21H41V23H33V21Z" fill="black"/>
<path d="M28.293 21.293L26.437 23.149C25.008 21.82 23.1 21 21 21C16.589 21 13 24.589 13 29C13 33.411 16.589 37 21 37C25.411 37 29 33.411 29 29C29 27.411 28.529 25.933 27.727 24.687L29.707 22.707L28.293 21.293ZM27 29C27 32.309 24.309 35 21 35C17.691 35 15 32.309 15 29C15 25.691 17.691 23 21 23C22.549 23 23.958 23.595 25.024 24.562L19 30.586L17.707 29.293L16.293 30.707L19 33.414L26.274 26.14C26.737 26.991 27 27.965 27 29Z" fill="black"/>
<path d="M33 25H35V27H33V25Z" fill="black"/>
<path d="M37 25H39V27H37V25Z" fill="black"/>
<path d="M3 40V15H39V13H3V10C3 8.346 4.346 7 6 7H10V5H6C3.243 5 1 7.243 1 10V40C1 42.757 3.243 45 6 45H28.051V43H6C4.346 43 3 41.654 3 40Z" fill="black"/>
<path d="M43 17H7C5.897 17 5 17.897 5 19V39C5 40.103 5.897 41 7 41H28.75V39H7V19H43V28.05H45V19C45 17.897 44.103 17 43 17Z" fill="black"/>
<path d="M9 35H11V37H9V35Z" fill="black"/>
<path d="M9 31H11V33H9V31Z" fill="black"/>
<path d="M9 27H11V29H9V27Z" fill="black"/>
<path d="M45 63C35.075 63 27 54.925 27 45C27 35.075 35.075 27 45 27C54.925 27 63 35.075 63 45C63 54.925 54.925 63 45 63ZM45 32C37.832 32 32 37.832 32 45C32 52.168 37.832 58 45 58C52.168 58 58 52.168 58 45C58 37.832 52.168 32 45 32Z" fill="#6777D5"/>
<path d="M45 31C37.28 31 31 37.28 31 45C31 52.72 37.28 59 45 59C52.72 59 59 52.72 59 45C59 37.28 52.72 31 45 31ZM56.949 46C56.736 48.558 55.723 50.889 54.154 52.741L51.363 49.95L49.949 51.364L52.74 54.155C50.888 55.724 48.557 56.737 45.999 56.95V53H43.999V56.949C41.441 56.736 39.11 55.723 37.258 54.154L40.049 51.363L38.635 49.949L35.844 52.74C34.275 50.888 33.262 48.557 33.049 45.999H37V43.999H33.051C33.264 41.441 34.277 39.11 35.846 37.258L38.637 40.049L40.051 38.635L37.26 35.844C39.112 34.275 41.443 33.262 44.001 33.049V37H46.001V33.051C48.559 33.264 50.89 34.277 52.742 35.846L49.951 38.637L51.365 40.051L54.156 37.26C55.725 39.112 56.738 41.443 56.951 44.001H53V46.001H56.949V46Z" fill="black"/>
<path d="M44 44.586L40.293 48.293L41.707 49.707L46 45.414V41H44V44.586Z" fill="black"/>
<path d="M28 5H34V7H28V5Z" fill="black"/>
<path d="M16 5H22V7H16V5Z" fill="black"/>
<path d="M39 11H35C33.897 11 33 10.103 33 9V3C33 1.897 33.897 1 35 1H39C40.103 1 41 1.897 41 3V9C41 10.103 40.103 11 39 11Z" fill="#6777D5"/>
<path d="M27 11H23C21.897 11 21 10.103 21 9V3C21 1.897 21.897 1 23 1H27C28.103 1 29 1.897 29 3V9C29 10.103 28.103 11 27 11Z" fill="#6777D5"/>
<path d="M15 11H11C9.897 11 9 10.103 9 9V3C9 1.897 9.897 1 11 1H15C16.103 1 17 1.897 17 3V9C17 10.103 16.103 11 15 11Z" fill="#6777D5"/>
</svg>
