<svg width="14" height="14" viewBox="0 0 14 14" fill="none" xmlns="http://www.w3.org/2000/svg">
<g clip-path="url(#clip0)">
<path d="M13.4526 11.0395C13.378 11.0489 13.303 11.0605 13.2279 11.0609C12.492 11.0623 11.7561 11.0605 11.0207 11.0632C10.9184 11.0636 10.8317 11.0256 10.7558 10.9644C10.6021 10.8389 10.4439 10.7151 10.3023 10.5757C9.9341 10.2107 9.57532 9.83536 9.20984 9.46675C9.0959 9.35192 8.97437 9.24603 8.85463 9.13746C8.79253 9.07893 8.71478 9.06642 8.63436 9.06776C8.52668 9.07044 8.43777 9.11914 8.39532 9.21877C8.35645 9.30903 8.32428 9.40688 8.314 9.50338C8.29613 9.67808 8.29524 9.85367 8.29166 10.0284C8.28764 10.2241 8.28183 10.4211 8.22688 10.6114C8.2023 10.6954 8.16745 10.7808 8.12411 10.8567C8.04816 10.9872 7.92842 11.0582 7.77606 11.0614C7.13356 11.0761 6.49062 11.0855 5.84901 11.0435C5.73017 11.0346 5.6207 10.997 5.51481 10.9448C4.9161 10.6508 4.39022 10.2603 3.93314 9.77325C3.37688 9.18124 2.87199 8.54634 2.36711 7.91144C1.68753 7.05537 1.09999 6.13944 0.571871 5.18418C0.378854 4.83612 0.192539 4.48315 0.0540309 4.10829C-0.0143293 3.92331 -0.0143293 3.73789 0.0370526 3.55158C0.0517969 3.49617 0.0781581 3.44211 0.10854 3.39341C0.15188 3.32192 0.219347 3.28216 0.305579 3.28037C0.335961 3.27992 0.367684 3.27903 0.398066 3.27903C1.06558 3.27903 1.73221 3.28171 2.39928 3.27679C2.53108 3.2759 2.63206 3.32013 2.72053 3.40949C2.88495 3.57392 3.01273 3.76559 3.12756 3.96486C3.25267 4.18201 3.37777 4.40049 3.48813 4.62568C3.73074 5.12118 4.02831 5.58317 4.3433 6.03354C4.497 6.25292 4.66321 6.46381 4.82272 6.67872C4.89689 6.7788 4.99965 6.81678 5.11805 6.81991C5.23333 6.82393 5.28024 6.77702 5.28471 6.66174C5.28605 6.63404 5.2856 6.60679 5.2856 6.57909C5.2856 5.82578 5.2856 5.07337 5.28471 4.32052C5.28471 4.26199 5.28471 4.20301 5.2789 4.14492C5.26549 4.01044 5.19445 3.9318 5.06131 3.90589C5.00099 3.89427 4.93933 3.88891 4.87812 3.88087C4.69046 3.85629 4.61272 3.77676 4.59306 3.58821C4.56402 3.3036 4.70029 3.08154 4.96703 2.98191C5.08186 2.93901 5.20071 2.92963 5.32224 2.93008C5.91693 2.93097 6.51162 2.93008 7.10631 2.93052C7.22694 2.93052 7.34758 2.92427 7.46732 2.93499C7.59287 2.94706 7.71976 2.96359 7.84174 2.99933C8.10178 3.07439 8.25235 3.25133 8.28183 3.52387C8.28943 3.58911 8.29122 3.65434 8.29122 3.71957C8.29211 4.17665 8.29211 4.63372 8.29211 5.0908C8.29211 5.57557 8.29166 6.06035 8.293 6.54513C8.293 6.59249 8.29703 6.64208 8.30998 6.68721C8.35243 6.83421 8.51238 6.88291 8.64687 6.79042C9.04318 6.51743 9.30322 6.1372 9.50338 5.71408C9.68836 5.32313 9.84787 4.92012 10.0217 4.52381C10.1606 4.20971 10.3032 3.8974 10.4484 3.58598C10.4837 3.50868 10.5359 3.43854 10.5846 3.36794C10.6289 3.3045 10.687 3.27679 10.7687 3.27679C11.6324 3.27947 12.4943 3.27903 13.3575 3.27813C13.5688 3.27813 13.7364 3.36392 13.8682 3.52432C13.9146 3.58151 13.9338 3.64853 13.9459 3.72225C13.9973 4.06227 13.8807 4.35849 13.718 4.644C13.5639 4.91387 13.3807 5.16273 13.1814 5.39909C12.7686 5.88789 12.3638 6.38249 12.0099 6.91642C11.9188 7.05359 11.841 7.19969 11.7579 7.34132C11.6967 7.44498 11.7048 7.54462 11.7816 7.6371C11.9375 7.82476 12.0886 8.01778 12.2525 8.19694C12.6421 8.62408 13.0416 9.04095 13.4334 9.46585C13.559 9.60257 13.6725 9.74912 13.7891 9.89389C13.8275 9.94169 13.8561 9.99754 13.8936 10.0462C14.1863 10.4242 13.8217 10.9908 13.4526 11.0395Z" fill="white"/>
</g>
<defs>
<clipPath id="clip0">
<rect width="14" height="14" fill="white" transform="translate(0 0.000488281)"/>
</clipPath>
</defs>
</svg>
