<svg width="64" height="64" viewBox="0 0 64 64" fill="none" xmlns="http://www.w3.org/2000/svg">
<path d="M59.8706 10.3225H4.12903V18.5805H59.8706V10.3225Z" fill="#6777D5"/>
<path d="M60.9029 6.19348H3.09686C1.38933 6.19348 0 7.58303 0 9.29034V47.4837C0 49.1911 1.38933 50.5806 3.09686 50.5806H20.645V55.742H15.4839V57.8065H37.1613H48.5161H60.9031C62.6105 57.8065 64 56.4171 64 54.7096V23.7419V21.6774V9.29034C63.9996 7.58303 62.6102 6.19348 60.9029 6.19348ZM3.09686 8.25798H60.9029C61.4726 8.25798 61.9353 8.72153 61.9353 9.29034V18.7705C61.6111 18.6549 61.2663 18.5807 60.9029 18.5807H59.8706H37.161H4.129V39.2257H34.0644V41.2902H2.0645V9.29034C2.0645 8.72153 2.52695 8.25798 3.09686 8.25798ZM34.0644 22.7095H31.9999V24.774H34.0644V27.8709H31.9999V29.9354H34.0644V33.032H31.9999V35.0965H34.0644V37.161H6.19351V20.645H34.2542C34.1386 20.9691 34.0642 21.3138 34.0642 21.6774V22.7095H34.0644ZM2.0645 47.4835V43.3545H34.0644V48.5159H3.09686C2.52695 48.5159 2.0645 48.0523 2.0645 47.4835ZM22.7095 50.5804H34.0644V54.7094C34.0644 55.0727 34.1386 55.4176 34.2544 55.7417H22.7097V50.5804H22.7095ZM61.9351 54.7094C61.9351 55.2782 61.4726 55.7417 60.9027 55.7417H49.548H48.5157H37.161C36.5913 55.7417 36.1287 55.2782 36.1287 54.7094V50.5804V48.5159V43.3545V41.29V39.2255V37.161V35.0965V33.032V29.9351V27.8706V24.774V22.7095V21.6771C36.1287 21.1083 36.5911 20.6448 37.161 20.6448H57.8061V22.7093H38.1932V53.677H49.548H59.8706V25.3305V22.7095V20.645H60.9029C61.4726 20.645 61.9353 21.1085 61.9353 21.6774V23.7419L61.9351 54.7094ZM57.8061 25.3305V51.6125H40.2577V24.774H57.8061V25.3305Z" fill="#333333"/>
<path d="M9.29042 15.4838C9.86057 15.4838 10.3228 15.0216 10.3228 14.4515C10.3228 13.8813 9.86057 13.4191 9.29042 13.4191C8.72026 13.4191 8.25806 13.8813 8.25806 14.4515C8.25806 15.0216 8.72026 15.4838 9.29042 15.4838Z" fill="#333333"/>
<path d="M12.387 15.4838C12.9571 15.4838 13.4193 15.0216 13.4193 14.4515C13.4193 13.8813 12.9571 13.4191 12.387 13.4191C11.8168 13.4191 11.3546 13.8813 11.3546 14.4515C11.3546 15.0216 11.8168 15.4838 12.387 15.4838Z" fill="#333333"/>
<path d="M15.4839 15.4838C16.0541 15.4838 16.5163 15.0216 16.5163 14.4515C16.5163 13.8813 16.0541 13.4191 15.4839 13.4191C14.9137 13.4191 14.4515 13.8813 14.4515 14.4515C14.4515 15.0216 14.9137 15.4838 15.4839 15.4838Z" fill="#333333"/>
<path d="M8.25806 35.0965H29.9354V22.7095H8.25806V35.0965ZM10.3226 24.774H27.8709V33.032H10.3226V24.774Z" fill="#333333"/>
<path d="M49.548 55.7417C50.1181 55.7417 50.5803 55.2795 50.5803 54.7094C50.5803 54.1392 50.1181 53.677 49.548 53.677C48.9778 53.677 48.5156 54.1392 48.5156 54.7094C48.5156 55.2795 48.9778 55.7417 49.548 55.7417Z" fill="#333333"/>
<path d="M55.7415 26.8385H42.3221V37.161H55.7415V26.8385ZM53.677 35.0965H44.3866V28.903H53.677V35.0965Z" fill="#333333"/>
<path d="M55.7418 39.2255H42.3224V41.29H55.7418V39.2255Z" fill="#333333"/>
<path d="M55.7418 43.3545H42.3224V45.419H55.7418V43.3545Z" fill="#333333"/>
<path d="M55.7418 47.4835H42.3224V49.548H55.7418V47.4835Z" fill="#333333"/>
</svg>
