<svg width="14" height="14" viewBox="0 0 14 14" fill="none" xmlns="http://www.w3.org/2000/svg">
<path d="M14 6.8199C14 10.5862 10.9231 13.6394 7.12668 13.6394C5.92194 13.6394 4.79023 13.3312 3.80507 12.7916L0 14L1.24036 10.3401C0.614928 9.31294 0.254736 8.10682 0.254736 6.81945C0.255193 3.05318 3.3312 0 7.1276 0C10.9235 0.000913034 14 3.05364 14 6.8199ZM7.12623 1.08742C3.9402 1.08742 1.34855 3.65944 1.34855 6.82127C1.34855 8.07578 1.75759 9.23716 2.44921 10.1822L1.72792 12.3109L3.9475 11.6056C4.86053 12.2045 5.95298 12.5533 7.12623 12.5533C10.3123 12.5533 12.9048 9.98174 12.9048 6.8199C12.9057 3.65944 10.3127 1.08742 7.12623 1.08742ZM10.5976 8.39078C10.5547 8.32184 10.4424 8.27984 10.2744 8.19585C10.1068 8.11185 9.27733 7.70783 9.12349 7.65305C8.96827 7.5969 8.85597 7.56859 8.74367 7.73613C8.63273 7.90367 8.30952 8.27984 8.21045 8.39215C8.1123 8.50399 8.01415 8.51815 7.8457 8.43552C7.67724 8.35061 7.13399 8.1753 6.4903 7.60603C5.9895 7.16229 5.65122 6.61584 5.55353 6.4483C5.45446 6.28121 5.54348 6.19082 5.62703 6.10774C5.70235 6.03241 5.79548 5.91235 5.87994 5.8142C5.96439 5.71696 5.99224 5.64803 6.04839 5.53618C6.10363 5.42433 6.07578 5.32709 6.03424 5.24264C5.99224 5.15864 5.65579 4.33691 5.51472 4.00228C5.37457 3.66811 5.23442 3.72335 5.13581 3.72335C5.03766 3.72335 4.92536 3.70966 4.81306 3.70966C4.70075 3.70966 4.51815 3.75029 4.3643 3.91783C4.21045 4.08537 3.77494 4.48939 3.77494 5.31203C3.77494 6.13559 4.378 6.92947 4.46245 7.04086C4.54736 7.15179 5.6284 8.89523 7.34079 9.56448C9.0541 10.2333 9.0541 10.01 9.3627 9.98174C9.67222 9.95343 10.3597 9.57772 10.4994 9.18786C10.64 8.79616 10.64 8.46062 10.5976 8.39078Z" fill="white"/>
</svg>
