<svg width="151" height="87" viewBox="0 0 151 87" fill="none" xmlns="http://www.w3.org/2000/svg">
<path fill-rule="evenodd" clip-rule="evenodd" d="M1.99219 30H25.5219V86.0492H9.41016V45.3383H1.99219V30ZM4.79219 42.5383V32.8H22.7219V83.2492H12.2102V42.5383H4.79219ZM51.6189 48.8787C49.6045 51.1593 48.4311 54.3912 48.4311 58.0422C48.4311 65.3193 53.2446 70.9219 60.3967 70.9219C64.3159 70.9219 67.2201 69.444 69.177 67.2129C71.1719 64.9385 72.3272 61.707 72.3272 58.0422C72.3272 50.1547 67.1026 45.1625 60.3967 45.1625C56.5166 45.1625 53.598 46.638 51.6189 48.8787ZM60.3967 86.0492C43.5569 86.0492 31.8975 73.334 31.8975 58.0422C31.8975 42.1216 44.5378 30.0352 60.3967 30.0352C77.3195 30.0352 88.8959 42.8687 88.8959 58.0422C88.8959 74.6232 75.9092 86.0492 60.3967 86.0492ZM113.094 48.8787C111.08 51.1593 109.907 54.3912 109.907 58.0422C109.907 65.3193 114.72 70.9219 121.872 70.9219C125.791 70.9219 128.696 69.444 130.653 67.2129C132.648 64.9385 133.803 61.707 133.803 58.0422C133.803 50.1547 128.578 45.1625 121.872 45.1625C117.992 45.1625 115.074 46.638 113.094 48.8787ZM121.872 86.0492C105.033 86.0492 93.3731 73.334 93.3731 58.0422C93.3731 42.1216 106.013 30.0352 121.872 30.0352C138.795 30.0352 150.372 42.8687 150.372 58.0422C150.372 74.6232 137.385 86.0492 121.872 86.0492ZM60.3967 42.3625C51.0803 42.3625 45.6311 49.5695 45.6311 58.0422C45.6311 66.5852 51.4319 73.7219 60.3967 73.7219C69.7834 73.7219 75.1272 66.5148 75.1272 58.0422C75.1272 48.7258 68.7639 42.3625 60.3967 42.3625ZM60.3967 83.2492C45.1389 83.2492 34.6975 71.8234 34.6975 58.0422C34.6975 43.7336 46.0178 32.8352 60.3967 32.8352C75.7248 32.8352 86.0959 44.3664 86.0959 58.0422C86.0959 72.9484 74.4944 83.2492 60.3967 83.2492ZM121.872 42.3625C112.556 42.3625 107.107 49.5695 107.107 58.0422C107.107 66.5852 112.908 73.7219 121.872 73.7219C131.259 73.7219 136.603 66.5148 136.603 58.0422C136.603 48.7258 130.24 42.3625 121.872 42.3625ZM121.872 83.2492C106.615 83.2492 96.1731 71.8234 96.1731 58.0422C96.1731 43.7336 107.493 32.8352 121.872 32.8352C137.2 32.8352 147.572 44.3664 147.572 58.0422C147.572 72.9484 135.97 83.2492 121.872 83.2492Z" fill="#0047FF"/>
<path d="M6.534 18V8.244H10.026V5.994H0.45V8.244H3.96V18H6.534ZM17.7231 18.216C21.3591 18.216 24.0051 15.624 24.0051 12.006C24.0051 8.388 21.3591 5.796 17.7231 5.796C14.1051 5.796 11.4591 8.388 11.4591 12.006C11.4591 15.624 14.1051 18.216 17.7231 18.216ZM17.7231 15.948C15.5091 15.948 14.0871 14.238 14.0871 12.006C14.0871 9.756 15.5091 8.064 17.7231 8.064C19.9371 8.064 21.3771 9.756 21.3771 12.006C21.3771 14.238 19.9371 15.948 17.7231 15.948ZM37.4088 18V5.994H26.6088V18H29.1648V8.244H34.8348V18H37.4088Z" fill="#0047FF"/>
</svg>
