<svg width="64" height="64" viewBox="0 0 64 64" fill="none" xmlns="http://www.w3.org/2000/svg">
<path d="M26 14C19.383 14 14 19.383 14 26C14 32.617 19.383 38 26 38C32.617 38 38 32.617 38 26C38 19.383 32.617 14 26 14ZM26 36C20.486 36 16 31.514 16 26C16 20.486 20.486 16 26 16C31.514 16 36 20.486 36 26C36 31.514 31.514 36 26 36Z" fill="black"/>
<path d="M61.879 56.464L51 45.586V6C51 5.448 50.553 5 50 5H47V2C47 1.448 46.553 1 46 1H12C11.734 1 11.48 1.105 11.293 1.293L1.293 11.293C1.105 11.48 1 11.735 1 12V58C1 58.552 1.447 59 2 59H5V62C5 62.552 5.447 63 6 63H50C50.553 63 51 62.552 51 62V56.413L56.465 61.878C57.188 62.602 58.148 63 59.172 63C61.282 63 63 61.283 63 59.171C63 58.149 62.602 57.188 61.879 56.464ZM49 7V43.586L47 41.586V7H49ZM11 4.414V11H4.414L11 4.414ZM3 13H12C12.553 13 13 12.552 13 12V3H45V39.586L43.345 37.931C43.744 37.176 43.635 36.221 43 35.586L40.381 32.967C41.407 30.857 42 28.499 42 26C42 17.178 34.822 10 26 10C17.178 10 10 17.178 10 26C10 34.822 17.178 42 26 42C28.499 42 30.857 41.407 32.967 40.381L35.586 43C35.976 43.39 36.488 43.585 37 43.585C37.321 43.585 37.64 43.499 37.931 43.345L45 50.414V57H3V13ZM37 41.586L34.777 39.363C36.6 38.162 38.162 36.6 39.363 34.777L41.586 37L37 41.586ZM26 40C18.28 40 12 33.72 12 26C12 18.28 18.28 12 26 12C33.72 12 40 18.28 40 26C40 33.72 33.72 40 26 40ZM49 61H7V59H46C46.553 59 47 58.552 47 58V52.414L49 54.414V61ZM59.172 61C58.691 61 58.22 60.805 57.879 60.464L39.414 42L42 39.414L60.465 57.878C60.81 58.224 61 58.683 61 59.171C61 60.18 60.18 61 59.172 61Z" fill="black"/>
<path d="M17 7H41V9H17V7Z" fill="black"/>
<path d="M7 51H41V53H7V51Z" fill="black"/>
<path d="M7 47H41V49H7V47Z" fill="black"/>
<path d="M7 43H33V45H7V43Z" fill="black"/>
<path d="M28.793 24.855C29.536 24.128 30 23.119 30 22C30 19.794 28.206 18 26 18C23.794 18 22 19.794 22 22C22 23.119 22.464 24.128 23.207 24.855C21.876 25.755 21 27.277 21 29V32C21 32.552 21.447 33 22 33H30C30.553 33 31 32.552 31 32V29C31 27.277 30.124 25.755 28.793 24.855ZM24 22C24 20.897 24.897 20 26 20C27.103 20 28 20.897 28 22C28 23.103 27.103 24 26 24C24.897 24 24 23.103 24 22ZM29 31H23V29C23 27.346 24.346 26 26 26C27.654 26 29 27.346 29 29V31Z" fill="black"/>
</svg>
