<svg width="19" height="35" viewBox="0 0 19 35" fill="none" xmlns="http://www.w3.org/2000/svg">
<path d="M17.932 32.356L17.932 32.356L17.9289 32.3529L3.40048 17.5057L17.9287 2.65887C17.9288 2.65886 17.9288 2.65885 17.9288 2.65883C18.1355 2.44806 18.2505 2.16288 18.25 1.86678L18 1.86721C17.9991 1.38742 17.6179 0.999107 17.1485 1L17.1485 0.750004C17.1483 0.750004 17.1482 0.750004 17.148 0.750004C16.8552 0.750134 16.5755 0.868939 16.3699 1.0786L16.3698 1.07878L1.07016 16.7158L1.07012 16.7159C0.643303 17.1523 0.643273 17.8575 1.07014 18.2939L1.07016 18.2939L16.3698 33.931L16.3697 33.931L16.3728 33.9341C16.7995 34.3553 17.4782 34.3553 17.905 33.9341L17.905 33.9341C18.3395 33.5051 18.3514 32.7998 17.932 32.356Z" fill="#0047FF" stroke="#0047FF" stroke-width="0.5"/>
</svg>
