<svg width="19" height="35" viewBox="0 0 19 35" fill="none" xmlns="http://www.w3.org/2000/svg">
<path d="M1.06805 2.64397L1.06802 2.644L1.07105 2.64709L15.5995 17.4943L1.07126 32.3411C1.07125 32.3411 1.07123 32.3412 1.07122 32.3412C0.8645 32.5519 0.749492 32.8371 0.750002 33.1332L1 33.1328C1.00088 33.6126 1.38209 34.0009 1.85152 34V34.25C1.85168 34.25 1.85184 34.25 1.852 34.25C2.14483 34.2499 2.42452 34.1311 2.63007 33.9214L2.63024 33.9212L17.9298 18.2842L17.9299 18.2841C18.3567 17.8477 18.3567 17.1425 17.9299 16.7061L17.9298 16.7061L2.63024 1.069L2.63027 1.06898L2.62718 1.06593C2.20047 0.644679 1.52177 0.644709 1.095 1.06591L1.09497 1.06594C0.660515 1.49488 0.648595 2.20018 1.06805 2.64397Z" fill="#0047FF" stroke="#0047FF" stroke-width="0.5"/>
</svg>
