<svg width="73" height="73" viewBox="0 0 73 73" fill="none" xmlns="http://www.w3.org/2000/svg">
<path d="M23.139 59.9934C22.5483 59.9934 22.0696 60.4722 22.0696 61.0627C22.0696 61.6533 22.5483 62.1321 23.139 62.1321H49.8646C50.4553 62.1321 50.9339 61.6533 50.9339 61.0627C50.9339 60.4722 50.4553 59.9934 49.8646 59.9934H23.139Z" fill="#0047FF"/>
<path d="M67.639 6.04788H60.8745C61.1917 5.46673 61.3722 4.80075 61.3722 4.09328C61.3722 1.83626 59.536 0 57.2791 0H15.7213C13.4641 0 11.628 1.83626 11.628 4.09328C11.628 4.80075 11.8085 5.46673 12.1257 6.04788H5.36112C1.85626 6.04788 -0.705726 9.35583 0.174409 12.7505L3.11394 24.0907C4.94735 31.1642 10.8159 35.9961 16.3557 37.1332L27.159 39.3293C28.2813 40.2371 29.4761 41.0669 30.7233 41.8009C29.2767 47.5355 24.9572 52.1089 19.2752 53.8686H16.2474C14.392 53.8686 12.8824 55.3782 12.8824 57.2337V65.6116H11.8896C9.89638 65.6116 8.27484 67.2331 8.27484 69.2264C8.27484 71.2196 9.89638 72.8413 11.8896 72.8413H61.1104C63.1037 72.8413 64.7254 71.2196 64.7254 69.2264C64.7254 67.2331 63.1037 65.6116 61.1104 65.6116H60.1178V63.5505C60.1178 62.9599 59.6392 62.4812 59.0485 62.4812C58.4578 62.4812 57.9791 62.9599 57.9791 63.5505V65.6116H15.0209V57.2337C15.0209 56.5575 15.571 56.0073 16.2472 56.0073H19.437C19.4381 56.0073 19.4393 56.0075 19.4404 56.0075C19.4417 56.0075 19.443 56.0073 19.4443 56.0073H53.5518C53.5531 56.0073 53.5545 56.0075 53.5558 56.0075C53.5569 56.0075 53.5581 56.0073 53.5592 56.0073H56.7528C57.4291 56.0073 57.9791 56.5575 57.9791 57.2337V58.4831C57.9791 59.0737 58.4578 59.5525 59.0485 59.5525C59.639 59.5525 60.1178 59.0737 60.1178 58.4831V57.2337C60.1178 55.3782 58.6082 53.8686 56.7528 53.8686H53.7064L52.4434 53.5044C47.0317 51.9438 43.001 47.4558 41.9996 41.96C43.3465 41.1873 44.636 40.3043 45.8409 39.3295C57.2908 37.0003 56.6533 37.1353 56.8124 37.095C63.2185 35.471 68.2281 30.4882 69.8863 24.091L72.8258 12.7506C73.7049 9.35812 71.1458 6.04788 67.639 6.04788ZM62.5867 69.2262C62.5867 70.0402 61.9246 70.7025 61.1104 70.7025H11.8896C11.0756 70.7025 10.4135 70.0402 10.4135 69.2262C10.4135 68.4123 11.0756 67.75 11.8896 67.75H61.1104C61.9246 67.75 62.5867 68.4123 62.5867 69.2262ZM13.7665 4.09328C13.7665 3.01553 14.6434 2.13867 15.7213 2.13867H57.2791C58.3568 2.13867 59.2337 3.01553 59.2337 4.09328C59.2337 5.17102 58.357 6.04788 57.2791 6.04788C56.3632 6.04788 29.6174 6.04788 28.1564 6.04788C27.5658 6.04788 27.087 6.52666 27.087 7.11722C27.087 7.70777 27.5657 8.18655 28.1564 8.18655H54.5363V12.2054V16.627C54.5363 21.887 53.0183 26.997 50.1463 31.405C48.6456 33.7082 46.8107 35.7617 44.6927 37.5085C43.4359 38.5451 42.0754 39.4739 40.6493 40.2689C38.0513 41.7172 34.9491 41.7174 32.351 40.2689C30.9275 39.4752 29.5696 38.5484 28.3149 37.5143C28.3138 37.5134 28.3128 37.5126 28.3116 37.5116C28.3104 37.5105 28.3089 37.5095 28.3075 37.5083C22.1675 32.4445 18.4639 24.8334 18.4639 16.6269V12.2054V8.18655H23.1033C23.694 8.18655 24.1726 7.70777 24.1726 7.11722C24.1726 6.52666 23.694 6.04788 23.1033 6.04788C21.606 6.04788 17.2558 6.04788 15.7213 6.04788C14.6434 6.04788 13.7665 5.17102 13.7665 4.09328ZM53.1918 30.4605C56.5169 24.2929 56.651 20.098 56.6748 13.2747H65.2243L62.8907 22.2775C60.9207 29.8775 53.2987 30.4069 53.1918 30.4605ZM19.8083 30.4605C19.7478 30.4302 12.069 29.8375 10.1094 22.2775L7.77582 13.2746H16.3252C16.3823 18.2915 15.9575 23.3045 19.8083 30.4605ZM5.18403 23.5542L2.2445 12.2138C1.71611 10.1757 3.25367 8.18655 5.36112 8.18655H16.3252V11.1361H6.39409C5.6956 11.1361 5.18332 11.7968 5.35898 12.4737L8.03916 22.8142C9.22456 27.388 12.8026 30.9643 17.3769 32.1472C17.4278 32.1604 17.157 32.1035 21.312 32.9487C22.1692 34.221 23.1221 35.4204 24.1635 36.5382L16.7843 35.0382C11.8205 34.0039 6.76223 29.6423 5.18403 23.5542ZM47.9308 53.8684H24.3796C28.399 51.3631 31.3841 47.4283 32.6785 42.7784C33.9124 43.2558 35.2061 43.4957 36.5002 43.4957C37.6841 43.4957 38.8677 43.2947 40.0055 42.8952C41.0109 47.5341 43.9132 51.4952 47.9308 53.8684ZM70.7557 12.2138L67.8162 23.5542C66.205 29.7689 61.0376 34.0388 56.2183 35.0374L48.8365 36.5379C49.8779 35.4203 50.8307 34.2207 51.6879 32.9484C55.812 32.1095 55.5711 32.1604 55.6229 32.1469C60.1972 30.964 63.7754 27.3877 64.9608 22.8139L67.6411 12.4734C67.8166 11.7973 67.3053 11.1358 66.606 11.1358H56.6748V8.18655H57.2789H67.639C69.7451 8.18655 71.2841 10.1747 70.7557 12.2138Z" fill="#0047FF"/>
<path d="M27.4573 22.0711L31.0264 24.8649L29.7812 29.2233C29.5535 30.0201 29.8398 30.8498 30.5102 31.3368C31.1808 31.8239 32.058 31.8396 32.7456 31.3769L36.5056 28.846L40.2656 31.377C40.9524 31.8396 41.8301 31.8245 42.501 31.337C43.1714 30.8499 43.4577 30.0201 43.23 29.2233L41.9847 24.8649L45.5539 22.0711C46.2064 21.5603 46.4626 20.7209 46.2066 19.9327C45.9504 19.1446 45.2497 18.616 44.4215 18.5862L39.8918 18.4237L38.3377 14.166C38.0535 13.3875 37.3344 12.8845 36.5057 12.8845C35.677 12.8845 34.9579 13.3875 34.6737 14.1662L33.1195 18.424L28.5896 18.5865C27.7615 18.6163 27.0609 19.1448 26.8047 19.933C26.5485 20.7209 26.8047 21.5603 27.4573 22.0711ZM36.3288 14.8993L36.3291 14.9001C36.3289 14.9 36.3289 14.8997 36.3288 14.8993ZM33.3225 20.5565C34.1195 20.5279 34.8112 20.0253 35.0846 19.2762L36.5056 15.3839L37.9265 19.2762C38.2 20.0253 38.8916 20.5279 39.6888 20.5565L43.8295 20.7051L40.5666 23.2594C39.9387 23.7511 39.6745 24.5644 39.8936 25.3307L41.032 29.3149L37.5946 27.0012C36.9329 26.5558 36.078 26.5559 35.4164 27.0012L31.979 29.3149L33.1172 25.331C33.3365 24.5644 33.0724 23.7511 32.4442 23.2592L29.1815 20.7051L33.3225 20.5565Z" fill="#0047FF"/>
</svg>
