<svg width="64" height="64" viewBox="0 0 64 64" fill="none" xmlns="http://www.w3.org/2000/svg">
<path d="M62 50.905H61V18.905C61 16.699 59.206 14.905 57 14.905H49V1.905C49 1.353 48.552 0.904999 48 0.904999H2C1.448 0.904999 1 1.353 1 1.905V39.905C1 40.458 1.448 40.905 2 40.905H3V50.905H2C1.448 50.905 1 51.352 1 51.905V57.905C1 60.662 3.243 62.905 6 62.905H58C60.757 62.905 63 60.662 63 57.905V51.905C63 51.353 62.552 50.905 62 50.905ZM3 38.905V10.905H47V33.061L43.287 31.947C42.937 31.842 42.553 31.938 42.293 32.198C42.033 32.458 41.937 32.84 42.042 33.192L43.756 38.905H3ZM44.492 34.396L49.97 36.04L47.629 36.977C47.375 37.079 47.174 37.28 47.072 37.535L46.135 39.876L44.492 34.396ZM9 40.905H44.356L45.042 43.192C45.165 43.599 45.531 43.885 45.956 43.904C45.971 43.905 45.986 43.905 46.001 43.905C46.408 43.905 46.777 43.657 46.929 43.276L48.77 38.674L53.372 36.833C53.767 36.675 54.018 36.284 53.999 35.859C53.98 35.434 53.695 35.068 53.287 34.946L49 33.661V20.905H55V46.905H9V40.905ZM47 8.905H19V2.905H47V8.905ZM17 2.905V8.905H3V2.905H17ZM5 40.905H7V47.905C7 48.458 7.448 48.905 8 48.905H56C56.552 48.905 57 48.458 57 47.905V19.905C57 19.353 56.552 18.905 56 18.905H49V16.905H57C58.103 16.905 59 17.802 59 18.905V50.905H5V40.905ZM61 57.905C61 59.559 59.654 60.905 58 60.905H6C4.346 60.905 3 59.559 3 57.905V52.905H61V57.905Z" fill="black"/>
<path d="M55 55.905H57V57.905H55V55.905Z" fill="black"/>
<path d="M51 55.905H53V57.905H51V55.905Z" fill="black"/>
<path d="M5 4.905H7V6.905H5V4.905Z" fill="black"/>
<path d="M9 4.905H11V6.905H9V4.905Z" fill="black"/>
<path d="M13 4.905H15V6.905H13V4.905Z" fill="black"/>
<path d="M21 4.905H45V6.905H21V4.905Z" fill="black"/>
<path d="M6 28.905H27C27.552 28.905 28 28.457 28 27.905V13.905C28 13.353 27.552 12.905 27 12.905H6C5.448 12.905 5 13.353 5 13.905V27.905C5 28.458 5.448 28.905 6 28.905ZM16.414 24.905L20 21.319L25.586 26.905H18.414L16.414 24.905ZM15.586 26.905H8.414L12 23.319L15.586 26.905ZM26 14.905V24.491L20.707 19.198C20.316 18.807 19.684 18.807 19.293 19.198L15 23.491L12.707 21.198C12.316 20.807 11.684 20.807 11.293 21.198L7 25.491V19.905C9.757 19.905 12 17.662 12 14.905H26ZM7 14.905H10C10 16.559 8.654 17.905 7 17.905V14.905Z" fill="black"/>
<path d="M40 30.905H6C5.448 30.905 5 31.353 5 31.905V35.905C5 36.458 5.448 36.905 6 36.905H40C40.552 36.905 41 36.458 41 35.905V31.905C41 31.353 40.552 30.905 40 30.905ZM39 34.905H7V32.905H39V34.905Z" fill="black"/>
<path d="M31 20.905H44C44.552 20.905 45 20.457 45 19.905V13.905C45 13.353 44.552 12.905 44 12.905H31C30.448 12.905 30 13.353 30 13.905V19.905C30 20.458 30.448 20.905 31 20.905ZM32 14.905H43V18.905H32V14.905Z" fill="black"/>
<path d="M30 26.905H45V28.905H30V26.905Z" fill="black"/>
<path d="M30 22.905H45V24.905H30V22.905Z" fill="black"/>
</svg>
