<?xml version="1.0"?>
<svg xmlns="http://www.w3.org/2000/svg" viewBox="0 0 512 512" width="512" height="512"><g id="Out_line" data-name="Out line"><path d="M456,80H120a40.04018,40.04018,0,0,0-40,40v88H96V120a24.03189,24.03189,0,0,1,24-24H456a24.03189,24.03189,0,0,1,24,24V312H464V128a16.02116,16.02116,0,0,0-16-16H128a16.02116,16.02116,0,0,0-16,16v80h16V128H448V312H224v16H480v8a24.03189,24.03189,0,0,1-24,24H224v16h24v24a24.03189,24.03189,0,0,1-24,24,8,8,0,0,0,0,16H352a8,8,0,0,0,0-16,24.03189,24.03189,0,0,1-24-24V376H456a40.04018,40.04018,0,0,0,40-40V120A40.04018,40.04018,0,0,0,456,80ZM255.98,424A39.80743,39.80743,0,0,0,264,400V376h48v24a39.80743,39.80743,0,0,0,8.02,24Z"/><circle cx="288" cy="344" r="8"/><path d="M359.89,206.67993l-4.37-26.21a40.20911,40.20911,0,0,0-31.61011-32.6499l-18.33984-3.66016A7.99194,7.99194,0,0,0,296,152a8,8,0,0,1-16,0,7.99194,7.99194,0,0,0-9.57007-7.84009l-18.33984,3.66016A40.20911,40.20911,0,0,0,220.48,180.47l-4.37,26.21A8.00665,8.00665,0,0,0,224,216h24v24a7.9979,7.9979,0,0,0,8,8h64a7.9979,7.9979,0,0,0,8-8V216h24a8.00665,8.00665,0,0,0,7.89-9.32007ZM328,200v-8H312v40H264V192H248v8H233.43994L236.26,183.1001A24.13987,24.13987,0,0,1,255.23,163.51l10.67993-2.13013a23.99843,23.99843,0,0,0,44.18018,0L320.77,163.51a24.13987,24.13987,0,0,1,18.97,19.59009L342.56006,200Z"/><path d="M384,232a7.9995,7.9995,0,0,1-8-8V176a8.00029,8.00029,0,0,1,12.11621-6.86035l40,24a8.001,8.001,0,0,1,0,13.7207l-40,24A8.00059,8.00059,0,0,1,384,232Zm8-41.87012v19.74024L408.45068,200Z"/><path d="M192,232a8.00189,8.00189,0,0,1-4.11621-1.13965l-40-24a8.001,8.001,0,0,1,0-13.7207l40-24A8.00029,8.00029,0,0,1,200,176v48a7.9995,7.9995,0,0,1-8,8Zm-24.45068-32L184,209.87012V190.12988Z"/><path d="M272,304H224a8.00008,8.00008,0,0,1-8-8V264a8.00008,8.00008,0,0,1,8-8h48a8.00008,8.00008,0,0,1,8,8v32A8.00008,8.00008,0,0,1,272,304Zm-40-16h32V272H232Z"/><path d="M352,304H304a8.00008,8.00008,0,0,1-8-8V264a8.00008,8.00008,0,0,1,8-8h48a8.00008,8.00008,0,0,1,8,8v32A8.00008,8.00008,0,0,1,352,304Zm-40-16h32V272H312Z"/><path d="M200,264H168v-8a31.99022,31.99022,0,0,0-56-21.1499A31.99022,31.99022,0,0,0,56,256v8H24a7.9979,7.9979,0,0,0-8,8V432a7.9979,7.9979,0,0,0,8,8H200a7.9979,7.9979,0,0,0,8-8V272A7.9979,7.9979,0,0,0,200,264Zm-80-8a16,16,0,0,1,32,0v8H120Zm-48,0a16,16,0,0,1,32,0v8H72ZM32,280H56v16H72V280h32v16h16V280h24V424H32ZM192,424H160V280h32Z"/></g></svg>
