<svg width="24" height="17" viewBox="0 0 24 17" fill="none" xmlns="http://www.w3.org/2000/svg">
<path d="M0.233276 16.7667C0.237854 16.7715 0.24408 16.7728 0.24884 16.7772C0.39679 16.9198 0.59436 16.9998 0.799988 17H23.2C23.4056 16.9998 23.6032 16.9198 23.7512 16.7772C23.7559 16.7728 23.7621 16.7715 23.7667 16.7667C23.7715 16.7621 23.7728 16.7559 23.7772 16.7512C23.9198 16.6032 23.9998 16.4056 24 16.2V1.39996C23.9995 0.958313 23.6417 0.600525 23.2 0.599976H0.799988C0.358337 0.600525 0.000549319 0.958313 0 1.39996V16.2C0.000183105 16.4056 0.0802002 16.6032 0.222839 16.7512C0.227234 16.7559 0.228516 16.7621 0.233276 16.7667ZM11.5309 9.5542C11.8109 9.75708 12.1895 9.75708 12.4695 9.5542L14.5106 8.07635L22.6344 16.2H1.3656L9.48944 8.07617L11.5309 9.5542ZM23.2004 15.6348L15.1668 7.6012L23.2 1.78485L23.2004 15.6348ZM12 8.90601L1.6322 1.39996H22.3678L12 8.90601ZM8.83319 7.6012L0.799988 15.6344V1.78485L8.83319 7.6012Z" fill="#C1C1C1"/>
<path d="M6.51605 14.884C6.55432 14.9201 6.59918 14.9487 6.64807 14.9681C6.74493 15.0107 6.85516 15.0107 6.95203 14.9681C7.00037 14.9476 7.04505 14.9192 7.08405 14.884C7.23987 14.7269 7.23932 14.4735 7.08295 14.3171C6.92658 14.1608 6.67316 14.1602 6.51605 14.316C6.4798 14.3541 6.45142 14.399 6.43201 14.4481C6.4115 14.496 6.4007 14.5477 6.40015 14.6C6.40143 14.7059 6.44299 14.8073 6.51605 14.884Z" fill="#C1C1C1"/>
<path d="M8.3999 14.9999H17.2C17.4208 14.9999 17.5999 14.8209 17.5999 14.6C17.5999 14.379 17.4208 14.2 17.2 14.2H8.3999C8.17908 14.2 8 14.379 8 14.6C8 14.8209 8.17908 14.9999 8.3999 14.9999Z" fill="#C1C1C1"/>
</svg>
