<svg width="62" height="62" viewBox="0 0 62 62" fill="none" xmlns="http://www.w3.org/2000/svg">
<path d="M31 0C24.8688 0 18.8752 1.81812 13.7773 5.22444C8.6794 8.63077 4.70605 13.4723 2.35973 19.1368C0.0134165 24.8013 -0.600487 31.0344 0.595655 37.0478C1.7918 43.0612 4.74426 48.5849 9.07969 52.9203C13.4151 57.2557 18.9388 60.2082 24.9522 61.4043C30.9656 62.6005 37.1987 61.9866 42.8632 59.6403C48.5277 57.2939 53.3692 53.3206 56.7756 48.2227C60.1819 43.1248 62 37.1312 62 31C62 22.7783 58.7339 14.8933 52.9203 9.07969C47.1067 3.26606 39.2217 0 31 0ZM31 60C23.4789 60.0045 16.2502 57.0868 10.8395 51.8626C5.42881 46.6385 2.25935 39.5166 2 32H6V30H2C2.22869 23.0063 4.99401 16.3347 9.78 11.23L12.26 13.71L13.68 12.29L11.2 9.81C16.3079 5.00635 22.9919 2.22965 30 2V5H32V2C38.9937 2.22869 45.6653 4.99401 50.77 9.78L48.29 12.26L49.71 13.68L52.19 11.2C56.9937 16.3079 59.7704 22.9919 60 30H57V32H60C59.7407 39.5166 56.5712 46.6385 51.1605 51.8626C45.7498 57.0868 38.5211 60.0045 31 60Z" fill="black"/>
<path d="M7.09 30H13.09C13.3372 30.0015 13.5762 29.9114 13.7609 29.747C13.9456 29.5827 14.0628 29.3557 14.09 29.11C14.4402 25.9603 15.6705 22.9729 17.64 20.49C17.7924 20.2972 17.8685 20.0551 17.8538 19.8098C17.839 19.5644 17.7344 19.3331 17.56 19.16L13.3 14.89C13.2016 14.7928 13.0841 14.7171 12.955 14.6676C12.8258 14.6181 12.6878 14.596 12.5496 14.6025C12.4115 14.6091 12.2762 14.6443 12.1523 14.7058C12.0285 14.7673 11.9187 14.8539 11.83 14.96C8.50558 18.9152 6.4989 23.8095 6.09 28.96C6.07251 29.2378 6.16603 29.5112 6.35 29.72C6.44781 29.8146 6.56389 29.8882 6.69113 29.9363C6.81837 29.9845 6.95409 30.0061 7.09 30ZM12.68 17.1L15.55 20C13.8457 22.3764 12.713 25.1142 12.24 28H8.24C8.73963 24.0405 10.2707 20.2817 12.68 17.1Z" fill="black"/>
<path d="M54.91 32H48.91C48.6628 31.9985 48.4238 32.0886 48.2391 32.253C48.0545 32.4173 47.9372 32.6443 47.91 32.89C47.553 36.038 46.3235 39.0236 44.36 41.51C44.2076 41.7028 44.1315 41.9449 44.1462 42.1903C44.161 42.4356 44.2656 42.6669 44.44 42.84L48.72 47.11C48.9063 47.2947 49.1577 47.3989 49.42 47.4H49.47C49.6084 47.3932 49.7439 47.3576 49.8678 47.2956C49.9918 47.2337 50.1015 47.1466 50.19 47.04C53.5144 43.0849 55.5211 38.1905 55.93 33.04C55.9475 32.7622 55.854 32.4889 55.67 32.28C55.5699 32.1829 55.4505 32.1078 55.3196 32.0596C55.1888 32.0114 55.0492 31.9911 54.91 32ZM49.32 44.9L46.45 42C48.1543 39.6236 49.287 36.8859 49.76 34H53.76C53.2604 37.9595 51.7293 41.7183 49.32 44.9Z" fill="black"/>
<path d="M17.66 41.51C15.6966 39.0236 14.467 36.038 14.11 32.89C14.0828 32.6443 13.9656 32.4173 13.7809 32.253C13.5962 32.0886 13.3572 31.9985 13.11 32H7.11C6.9712 31.9991 6.83373 32.027 6.70632 32.0821C6.57892 32.1372 6.46438 32.2182 6.37 32.32C6.18603 32.5289 6.09251 32.8022 6.11 33.08C6.5189 38.2305 8.52559 43.1249 11.85 47.08C11.9385 47.1866 12.0482 47.2737 12.1722 47.3356C12.2961 47.3976 12.4316 47.4331 12.57 47.44C12.8323 47.4389 13.0837 47.3347 13.27 47.15L17.55 42.88C17.74 42.709 17.8572 42.4717 17.8777 42.2169C17.8981 41.9621 17.8202 41.7091 17.66 41.51ZM12.66 44.9C10.2436 41.7204 8.70552 37.9615 8.2 34H12.2C12.673 36.8859 13.8057 39.6236 15.51 42L12.66 44.9Z" fill="black"/>
<path d="M32.89 14.11C36.0397 14.4602 39.0271 15.6905 41.51 17.66C41.6873 17.7976 41.9056 17.8716 42.13 17.87C42.2616 17.8708 42.3921 17.8456 42.5139 17.7958C42.6357 17.746 42.7466 17.6727 42.84 17.58L47.11 13.31C47.2089 13.2107 47.2858 13.0918 47.3358 12.9608C47.3857 12.8299 47.4076 12.6899 47.4 12.55C47.3932 12.4116 47.3576 12.2761 47.2956 12.1522C47.2337 12.0282 47.1466 11.9185 47.04 11.83C43.0849 8.5056 38.1905 6.49892 33.04 6.09002C32.9022 6.07846 32.7636 6.0956 32.6327 6.14035C32.5019 6.1851 32.3818 6.25649 32.28 6.35001C32.1782 6.4444 32.0972 6.55894 32.0421 6.68634C31.987 6.81374 31.9591 6.95121 31.96 7.09002V13.09C31.9542 13.347 32.0476 13.5963 32.2208 13.7862C32.394 13.9761 32.6336 14.0921 32.89 14.11ZM34 8.20001C37.9634 8.71141 41.7225 10.2564 44.9 12.68L42 15.55C39.6254 13.8425 36.8869 12.7095 34 12.24V8.20001Z" fill="black"/>
<path d="M19.16 17.58C19.2534 17.6727 19.3642 17.746 19.4861 17.7958C19.6079 17.8455 19.7384 17.8708 19.87 17.87C20.0944 17.8715 20.3127 17.7976 20.49 17.66C22.9728 15.6905 25.9603 14.4602 29.11 14.11C29.3557 14.0828 29.5827 13.9656 29.747 13.7809C29.9114 13.5962 30.0015 13.3572 30 13.11V7.11C30.0009 6.9712 29.973 6.83373 29.9179 6.70633C29.8628 6.57892 29.7818 6.46439 29.68 6.37C29.5782 6.27648 29.4581 6.20509 29.3272 6.16034C29.1964 6.11559 29.0578 6.09845 28.92 6.11C23.7695 6.5189 18.8751 8.52559 14.92 11.85C14.8134 11.9385 14.7263 12.0482 14.6643 12.1722C14.6024 12.2961 14.5668 12.4316 14.56 12.57C14.5524 12.7099 14.5743 12.8499 14.6242 12.9808C14.6742 13.1117 14.7511 13.2307 14.85 13.33L19.16 17.58ZM28 8.2V12.2C25.1131 12.6695 22.3746 13.8025 20 15.51L17.1 12.68C20.2775 10.2564 24.0366 8.7114 28 8.2Z" fill="black"/>
<path d="M49.45 14.6C49.3117 14.5938 49.1737 14.6164 49.0446 14.6663C48.9155 14.7162 48.7982 14.7924 48.7 14.89L44.42 19.16C44.2456 19.3331 44.141 19.5644 44.1262 19.8097C44.1115 20.0551 44.1876 20.2972 44.34 20.49C46.3095 22.9729 47.5398 25.9603 47.89 29.11C47.9172 29.3557 48.0345 29.5827 48.2191 29.747C48.4038 29.9114 48.6428 30.0015 48.89 30H54.89C55.0288 30.0009 55.1663 29.973 55.2937 29.9179C55.4211 29.8628 55.5356 29.7818 55.63 29.68C55.814 29.4711 55.9075 29.1978 55.89 28.92C55.4811 23.7695 53.4744 18.8751 50.15 14.92C50.0603 14.8231 49.9522 14.7449 49.832 14.69C49.7119 14.635 49.5821 14.6045 49.45 14.6ZM49.76 28C49.287 25.1141 48.1543 22.3764 46.45 20L49.32 17.14C51.7372 20.3061 53.2819 24.0506 53.8 28H49.76Z" fill="black"/>
<path d="M45 47H17C16.7348 47 16.4804 47.1054 16.2929 47.2929C16.1054 47.4804 16 47.7348 16 48V52C16 52.2652 16.1054 52.5196 16.2929 52.7071C16.4804 52.8946 16.7348 53 17 53H45C45.2652 53 45.5196 52.8946 45.7071 52.7071C45.8946 52.5196 46 52.2652 46 52V48C46 47.7348 45.8946 47.4804 45.7071 47.2929C45.5196 47.1054 45.2652 47 45 47ZM44 51H18V49H44V51Z" fill="black"/>
<path d="M28.06 43.61C28.4164 44.0452 28.865 44.3959 29.3735 44.6367C29.8819 44.8775 30.4374 45.0024 31 45.0024C31.5626 45.0024 32.1181 44.8775 32.6265 44.6367C33.1349 44.3959 33.5836 44.0452 33.94 43.61C34.3643 43.1002 34.6733 42.5048 34.8459 41.8644C35.0185 41.224 35.0506 40.5539 34.94 39.9L32 21.84C32 21.5748 31.8946 21.3204 31.7071 21.1329C31.5196 20.9454 31.2652 20.84 31 20.84C30.7348 20.84 30.4804 20.9454 30.2929 21.1329C30.1054 21.3204 30 21.5748 30 21.84L27 39.9C26.8975 40.5583 26.9392 41.2309 27.1222 41.8715C27.3052 42.5121 27.6252 43.1052 28.06 43.61ZM29.06 40.23L31.06 28.23L33.06 40.23C33.1241 40.5951 33.1091 40.9698 33.0159 41.3286C32.9227 41.6875 32.7536 42.0221 32.52 42.31C32.3474 42.5195 32.1305 42.6882 31.885 42.804C31.6395 42.9198 31.3714 42.9799 31.1 42.9799C30.8285 42.9799 30.5605 42.9198 30.315 42.804C30.0695 42.6882 29.8526 42.5195 29.68 42.31C29.4217 42.0339 29.227 41.7047 29.1095 41.3453C28.9921 40.986 28.9547 40.6053 29 40.23H29.06Z" fill="black"/>
</svg>
