<svg xmlns="http://www.w3.org/2000/svg" xmlns:xlink="http://www.w3.org/1999/xlink" viewBox="0 0 841.9 882.3"><defs><style>.cls-1,.cls-4{fill:none;}.cls-2{isolation:isolate;}.cls-3{clip-path:url(#clip-path);}.cls-4{stroke:#fff;stroke-miterlimit:10;mix-blend-mode:soft-light;}</style><clipPath id="clip-path" transform="translate(118.13 298.27)"><rect class="cls-1" width="544.66" height="363.1"/></clipPath></defs><title>Ресурс 6</title><g class="cls-2"><g id="Слой_2" data-name="Слой 2"><g id="OBJECTS"><g class="cls-3"><path class="cls-4" d="M125.07-234.1s67.3,153.71-29.61,346.86,41.15,335.91,226.7,337.05" transform="translate(118.13 298.27)"/><path class="cls-4" d="M170-187.43S238.91-85.6,177.7,33.21s-152.24,251,97.73,370.32" transform="translate(118.13 298.27)"/><path class="cls-4" d="M203.67,583.68c-2.57-2.57-257.12-87.35-186.2-267.44s16.82-261.31-135.33-360" transform="translate(118.13 298.27)"/><path class="cls-4" d="M680.91-298.25S686-130.54,524.05,12.53s-87.13,327,84.61,397.28" transform="translate(118.13 298.27)"/><path class="cls-4" d="M720.29-213.91s26,120.2-75.16,207.6-234.88,176.08-47.47,380" transform="translate(118.13 298.27)"/><path class="cls-4" d="M518.22,400.64C516.8,397.3,268.5,239.34,401.49,98.71s113.08-236.17,8.72-384.46" transform="translate(118.13 298.27)"/></g></g></g></g></svg>