<svg width="210" height="39" viewBox="0 0 210 39" fill="none" xmlns="http://www.w3.org/2000/svg">
<path d="M63.84 18L60.64 13.5C60.28 13.54 59.9067 13.56 59.52 13.56H55.76V18H54.28V4H59.52C61.3067 4 62.7067 4.42667 63.72 5.28C64.7333 6.13333 65.24 7.30667 65.24 8.8C65.24 9.89333 64.96 10.82 64.4 11.58C63.8533 12.3267 63.0667 12.8667 62.04 13.2L65.46 18H63.84ZM59.48 12.3C60.8667 12.3 61.9267 11.9933 62.66 11.38C63.3933 10.7667 63.76 9.90667 63.76 8.8C63.76 7.66667 63.3933 6.8 62.66 6.2C61.9267 5.58667 60.8667 5.28 59.48 5.28H55.76V12.3H59.48ZM68.7331 4H70.2131V18H68.7331V4ZM80.8483 18.12C79.4616 18.12 78.2083 17.8133 77.0883 17.2C75.9816 16.5867 75.1083 15.74 74.4683 14.66C73.8416 13.5667 73.5283 12.3467 73.5283 11C73.5283 9.65333 73.8416 8.44 74.4683 7.36C75.1083 6.26667 75.9883 5.41333 77.1083 4.8C78.2283 4.18667 79.4816 3.88 80.8683 3.88C81.9083 3.88 82.8683 4.05333 83.7483 4.4C84.6283 4.74667 85.3749 5.25333 85.9883 5.92L85.0483 6.86C83.9549 5.75333 82.5749 5.2 80.9083 5.2C79.8016 5.2 78.7949 5.45333 77.8883 5.96C76.9816 6.46667 76.2683 7.16 75.7483 8.04C75.2416 8.92 74.9883 9.90667 74.9883 11C74.9883 12.0933 75.2416 13.08 75.7483 13.96C76.2683 14.84 76.9816 15.5333 77.8883 16.04C78.7949 16.5467 79.8016 16.8 80.9083 16.8C82.5883 16.8 83.9683 16.24 85.0483 15.12L85.9883 16.06C85.3749 16.7267 84.6216 17.24 83.7283 17.6C82.8483 17.9467 81.8883 18.12 80.8483 18.12ZM100.843 4V18H99.3833V11.54H90.6233V18H89.1433V4H90.6233V10.24H99.3833V4H100.843ZM114.233 10.78C115.153 10.98 115.859 11.38 116.353 11.98C116.859 12.5667 117.113 13.3267 117.113 14.26C117.113 15.46 116.666 16.3867 115.773 17.04C114.893 17.68 113.586 18 111.853 18H105.413V4H111.453C113.013 4 114.219 4.31333 115.073 4.94C115.939 5.56667 116.373 6.45333 116.373 7.6C116.373 8.37333 116.179 9.03333 115.793 9.58C115.419 10.1133 114.899 10.5133 114.233 10.78ZM106.893 5.22V10.3H111.353C112.486 10.3 113.359 10.0867 113.973 9.66C114.586 9.22 114.893 8.58667 114.893 7.76C114.893 6.93333 114.586 6.30667 113.973 5.88C113.359 5.44 112.486 5.22 111.353 5.22H106.893ZM111.833 16.78C113.086 16.78 114.033 16.5667 114.673 16.14C115.313 15.7133 115.633 15.0467 115.633 14.14C115.633 12.3933 114.366 11.52 111.833 11.52H106.893V16.78H111.833ZM130.391 16.72V18H120.491V4H130.091V5.28H121.971V10.26H129.211V11.52H121.971V16.72H130.391ZM143.77 16.72V18H133.87V4H143.47V5.28H135.35V10.26H142.59V11.52H135.35V16.72H143.77Z" fill="#010614"/>
<path d="M32.5 0H6.5C4.77609 0 3.12279 0.684819 1.90381 1.90381C0.684819 3.12279 0 4.77609 0 6.5L0 32.5C0 34.2239 0.684819 35.8772 1.90381 37.0962C3.12279 38.3152 4.77609 39 6.5 39H32.5C34.2239 39 35.8772 38.3152 37.0962 37.0962C38.3152 35.8772 39 34.2239 39 32.5V6.5C39 4.77609 38.3152 3.12279 37.0962 1.90381C35.8772 0.684819 34.2239 0 32.5 0V0ZM16.016 26.065L10.816 16.965H16.666L21.866 26.065H16.016ZM28.6 32.5L19.5 16.9H25.35C26.2451 16.9191 27.1248 16.6652 27.872 16.172C28.3642 15.6733 28.6402 15.0007 28.6402 14.3C28.6402 13.5993 28.3642 12.9267 27.872 12.428C27.6238 12.1886 27.3305 12.0009 27.0091 11.8759C26.6878 11.7509 26.3447 11.6911 26 11.7H7.8L4.55 6.5H26C27.5417 6.50136 29.0484 6.95955 30.3299 7.81672C31.6113 8.67389 32.61 9.89158 33.1998 11.316C33.7896 12.7404 33.944 14.3077 33.6436 15.8198C33.3432 17.332 32.6015 18.7212 31.512 19.812C30.5927 20.7386 29.4515 21.4144 28.197 21.775L34.45 32.5H28.6Z" fill="#010614"/>
<path d="M57.823 29.162C58.4557 29.162 59.0277 29.3093 59.539 29.604C60.0503 29.8987 60.449 30.306 60.735 30.826C61.0297 31.346 61.177 31.9397 61.177 32.607C61.177 33.2743 61.0297 33.8723 60.735 34.401C60.449 34.921 60.0503 35.3283 59.539 35.623C59.0277 35.909 58.4557 36.052 57.823 36.052C57.225 36.052 56.6833 35.9133 56.198 35.636C55.7127 35.35 55.3357 34.9557 55.067 34.453V38.522H54.417V29.214H55.041V30.813C55.3097 30.293 55.6867 29.89 56.172 29.604C56.666 29.3093 57.2163 29.162 57.823 29.162ZM57.784 35.467C58.304 35.467 58.772 35.3457 59.188 35.103C59.604 34.8603 59.929 34.5223 60.163 34.089C60.4057 33.6557 60.527 33.1617 60.527 32.607C60.527 32.0523 60.4057 31.5583 60.163 31.125C59.929 30.6917 59.604 30.3537 59.188 30.111C58.772 29.8683 58.304 29.747 57.784 29.747C57.264 29.747 56.796 29.8683 56.38 30.111C55.9727 30.3537 55.6477 30.6917 55.405 31.125C55.171 31.5583 55.054 32.0523 55.054 32.607C55.054 33.1617 55.171 33.6557 55.405 34.089C55.6477 34.5223 55.9727 34.8603 56.38 35.103C56.796 35.3457 57.264 35.467 57.784 35.467ZM65.5143 29.162C66.355 29.162 67.0007 29.3787 67.4513 29.812C67.902 30.2367 68.1273 30.865 68.1273 31.697V36H67.5033V34.791C67.2867 35.1897 66.9703 35.5017 66.5543 35.727C66.1383 35.9437 65.64 36.052 65.0593 36.052C64.3053 36.052 63.7073 35.8743 63.2653 35.519C62.832 35.1637 62.6153 34.6957 62.6153 34.115C62.6153 33.5517 62.8147 33.0967 63.2133 32.75C63.6207 32.3947 64.2663 32.217 65.1503 32.217H67.4773V31.671C67.4773 31.0383 67.304 30.5573 66.9573 30.228C66.6193 29.8987 66.121 29.734 65.4623 29.734C65.0117 29.734 64.5783 29.812 64.1623 29.968C63.755 30.124 63.4083 30.332 63.1223 30.592L62.7973 30.124C63.1353 29.8207 63.5427 29.5867 64.0193 29.422C64.496 29.2487 64.9943 29.162 65.5143 29.162ZM65.1503 35.519C65.7137 35.519 66.1903 35.389 66.5803 35.129C66.979 34.869 67.278 34.492 67.4773 33.998V32.724H65.1633C64.496 32.724 64.0107 32.8453 63.7073 33.088C63.4127 33.3307 63.2653 33.6643 63.2653 34.089C63.2653 34.531 63.43 34.882 63.7593 35.142C64.0887 35.3933 64.5523 35.519 65.1503 35.519ZM73.6062 32.464C74.1089 32.5593 74.4946 32.75 74.7632 33.036C75.0406 33.3133 75.1792 33.6557 75.1792 34.063C75.1792 34.4617 75.0449 34.8127 74.7762 35.116C74.5162 35.4193 74.1609 35.6533 73.7102 35.818C73.2596 35.9827 72.7699 36.065 72.2412 36.065C71.7559 36.065 71.2792 35.9913 70.8112 35.844C70.3519 35.688 69.9489 35.467 69.6022 35.181L69.8622 34.7C70.1656 34.96 70.5252 35.1593 70.9412 35.298C71.3659 35.4367 71.7949 35.506 72.2282 35.506C72.8696 35.506 73.4112 35.3717 73.8532 35.103C74.2952 34.8257 74.5162 34.4617 74.5162 34.011C74.5162 33.6123 74.3299 33.3003 73.9572 33.075C73.5932 32.841 73.0992 32.724 72.4752 32.724H71.3832V32.23H72.4492C72.9952 32.23 73.4416 32.1217 73.7882 31.905C74.1436 31.6883 74.3212 31.398 74.3212 31.034C74.3212 30.6093 74.1262 30.2843 73.7362 30.059C73.3549 29.825 72.8652 29.708 72.2672 29.708C71.5046 29.708 70.7852 29.903 70.1092 30.293L69.9142 29.773C70.6769 29.3483 71.4872 29.136 72.3452 29.136C73.0992 29.136 73.7276 29.3007 74.2302 29.63C74.7329 29.9507 74.9842 30.3883 74.9842 30.943C74.9842 31.2983 74.8586 31.6103 74.6072 31.879C74.3559 32.1477 74.0222 32.3427 73.6062 32.464ZM80.865 29.162C81.4977 29.162 82.0697 29.3093 82.581 29.604C83.0923 29.8987 83.491 30.306 83.777 30.826C84.0717 31.346 84.219 31.9397 84.219 32.607C84.219 33.2743 84.0717 33.8723 83.777 34.401C83.491 34.921 83.0923 35.3283 82.581 35.623C82.0697 35.909 81.4977 36.052 80.865 36.052C80.267 36.052 79.7253 35.9133 79.24 35.636C78.7547 35.35 78.3777 34.9557 78.109 34.453V38.522H77.459V29.214H78.083V30.813C78.3517 30.293 78.7287 29.89 79.214 29.604C79.708 29.3093 80.2583 29.162 80.865 29.162ZM80.826 35.467C81.346 35.467 81.814 35.3457 82.23 35.103C82.646 34.8603 82.971 34.5223 83.205 34.089C83.4477 33.6557 83.569 33.1617 83.569 32.607C83.569 32.0523 83.4477 31.5583 83.205 31.125C82.971 30.6917 82.646 30.3537 82.23 30.111C81.814 29.8683 81.346 29.747 80.826 29.747C80.306 29.747 79.838 29.8683 79.422 30.111C79.0147 30.3537 78.6897 30.6917 78.447 31.125C78.213 31.5583 78.096 32.0523 78.096 32.607C78.096 33.1617 78.213 33.6557 78.447 34.089C78.6897 34.5223 79.0147 34.8603 79.422 35.103C79.838 35.3457 80.306 35.467 80.826 35.467ZM88.5563 29.162C89.397 29.162 90.0427 29.3787 90.4933 29.812C90.944 30.2367 91.1693 30.865 91.1693 31.697V36H90.5453V34.791C90.3287 35.1897 90.0123 35.5017 89.5963 35.727C89.1803 35.9437 88.682 36.052 88.1013 36.052C87.3473 36.052 86.7493 35.8743 86.3073 35.519C85.874 35.1637 85.6573 34.6957 85.6573 34.115C85.6573 33.5517 85.8567 33.0967 86.2553 32.75C86.6627 32.3947 87.3083 32.217 88.1923 32.217H90.5193V31.671C90.5193 31.0383 90.346 30.5573 89.9993 30.228C89.6613 29.8987 89.163 29.734 88.5043 29.734C88.0537 29.734 87.6203 29.812 87.2043 29.968C86.797 30.124 86.4503 30.332 86.1643 30.592L85.8393 30.124C86.1773 29.8207 86.5847 29.5867 87.0613 29.422C87.538 29.2487 88.0363 29.162 88.5563 29.162ZM88.1923 35.519C88.7557 35.519 89.2323 35.389 89.6223 35.129C90.021 34.869 90.32 34.492 90.5193 33.998V32.724H88.2053C87.538 32.724 87.0527 32.8453 86.7493 33.088C86.4547 33.3307 86.3073 33.6643 86.3073 34.089C86.3073 34.531 86.472 34.882 86.8013 35.142C87.1307 35.3933 87.5943 35.519 88.1923 35.519ZM96.9563 29.318C97.5889 29.318 98.1479 29.461 98.6333 29.747C99.1273 30.0243 99.5129 30.4143 99.7903 30.917C100.068 31.4197 100.206 32.0003 100.206 32.659C100.206 33.3177 100.063 33.907 99.7773 34.427C99.4999 34.9383 99.1056 35.3413 98.5943 35.636C98.0916 35.922 97.5153 36.065 96.8653 36.065C96.1199 36.065 95.4829 35.883 94.9543 35.519C94.4343 35.155 94.0356 34.6393 93.7583 33.972C93.4896 33.3047 93.3553 32.5247 93.3553 31.632C93.3553 30.618 93.4766 29.7773 93.7193 29.11C93.9706 28.4427 94.3433 27.9183 94.8373 27.537C95.3399 27.147 95.9813 26.8567 96.7613 26.666L99.7643 25.938L99.8683 26.549L97.0083 27.225C96.3063 27.3897 95.7343 27.6323 95.2923 27.953C94.8589 28.265 94.5339 28.694 94.3172 29.24C94.1006 29.786 93.9879 30.4837 93.9793 31.333C94.2046 30.709 94.5816 30.2193 95.1103 29.864C95.6389 29.5 96.2543 29.318 96.9563 29.318ZM96.8783 35.506C97.3896 35.506 97.8489 35.3847 98.2563 35.142C98.6636 34.8993 98.9799 34.5657 99.2053 34.141C99.4306 33.7077 99.5433 33.218 99.5433 32.672C99.5433 32.126 99.4306 31.645 99.2053 31.229C98.9799 30.8043 98.6636 30.4793 98.2563 30.254C97.8576 30.02 97.3983 29.903 96.8783 29.903C96.3583 29.903 95.8946 30.02 95.4873 30.254C95.0799 30.4793 94.7636 30.8043 94.5383 31.229C94.3129 31.645 94.2003 32.126 94.2003 32.672C94.2003 33.218 94.3129 33.7077 94.5383 34.141C94.7636 34.5657 95.0799 34.8993 95.4873 35.142C95.8946 35.3847 96.3583 35.506 96.8783 35.506ZM105.046 36.052C104.404 36.052 103.824 35.9047 103.304 35.61C102.792 35.3153 102.389 34.908 102.095 34.388C101.8 33.8593 101.653 33.2657 101.653 32.607C101.653 31.9483 101.8 31.359 102.095 30.839C102.389 30.3103 102.792 29.8987 103.304 29.604C103.824 29.3093 104.404 29.162 105.046 29.162C105.687 29.162 106.263 29.3093 106.775 29.604C107.295 29.8987 107.702 30.3103 107.997 30.839C108.291 31.359 108.439 31.9483 108.439 32.607C108.439 33.2657 108.291 33.8593 107.997 34.388C107.702 34.908 107.295 35.3153 106.775 35.61C106.263 35.9047 105.687 36.052 105.046 36.052ZM105.046 35.467C105.566 35.467 106.029 35.3457 106.437 35.103C106.853 34.8603 107.178 34.5223 107.412 34.089C107.654 33.6557 107.776 33.1617 107.776 32.607C107.776 32.0523 107.654 31.5583 107.412 31.125C107.178 30.6917 106.853 30.3537 106.437 30.111C106.029 29.8683 105.566 29.747 105.046 29.747C104.526 29.747 104.058 29.8683 103.642 30.111C103.234 30.3537 102.909 30.6917 102.667 31.125C102.433 31.5583 102.316 32.0523 102.316 32.607C102.316 33.1617 102.433 33.6557 102.667 34.089C102.909 34.5223 103.234 34.8603 103.642 35.103C104.058 35.3457 104.526 35.467 105.046 35.467ZM114.838 29.799H112.186V36H111.536V29.799H108.884V29.214H114.838V29.799ZM118.531 32.854H116.88V36H116.23V29.214H116.88V32.295H118.531L121.092 29.214H121.807L119.051 32.503L122.015 36H121.235L118.531 32.854ZM125.741 29.162C126.582 29.162 127.227 29.3787 127.678 29.812C128.129 30.2367 128.354 30.865 128.354 31.697V36H127.73V34.791C127.513 35.1897 127.197 35.5017 126.781 35.727C126.365 35.9437 125.867 36.052 125.286 36.052C124.532 36.052 123.934 35.8743 123.492 35.519C123.059 35.1637 122.842 34.6957 122.842 34.115C122.842 33.5517 123.041 33.0967 123.44 32.75C123.847 32.3947 124.493 32.217 125.377 32.217H127.704V31.671C127.704 31.0383 127.531 30.5573 127.184 30.228C126.846 29.8987 126.348 29.734 125.689 29.734C125.238 29.734 124.805 29.812 124.389 29.968C123.982 30.124 123.635 30.332 123.349 30.592L123.024 30.124C123.362 29.8207 123.769 29.5867 124.246 29.422C124.723 29.2487 125.221 29.162 125.741 29.162ZM125.377 35.519C125.94 35.519 126.417 35.389 126.807 35.129C127.206 34.869 127.505 34.492 127.704 33.998V32.724H125.39C124.723 32.724 124.237 32.8453 123.934 33.088C123.639 33.3307 123.492 33.6643 123.492 34.089C123.492 34.531 123.657 34.882 123.986 35.142C124.315 35.3933 124.779 35.519 125.377 35.519ZM134.308 29.214H134.958V36H134.308V29.214ZM134.633 27.563C134.485 27.563 134.36 27.5153 134.256 27.42C134.152 27.316 134.1 27.1903 134.1 27.043C134.1 26.8957 134.152 26.77 134.256 26.666C134.36 26.562 134.485 26.51 134.633 26.51C134.78 26.51 134.906 26.562 135.01 26.666C135.114 26.7613 135.166 26.8827 135.166 27.03C135.166 27.1773 135.114 27.303 135.01 27.407C134.906 27.511 134.78 27.563 134.633 27.563ZM141.064 35.571C140.9 35.727 140.692 35.8483 140.44 35.935C140.198 36.013 139.942 36.052 139.673 36.052C139.084 36.052 138.629 35.8917 138.308 35.571C137.988 35.2417 137.827 34.7867 137.827 34.206V29.773H136.579V29.214H137.827V27.732H138.477V29.214H140.635V29.773H138.477V34.141C138.477 34.583 138.581 34.921 138.789 35.155C139.006 35.3803 139.322 35.493 139.738 35.493C140.163 35.493 140.514 35.3673 140.791 35.116L141.064 35.571ZM142.178 32.217H145.519V32.802H142.178V32.217ZM151.146 29.162C151.779 29.162 152.351 29.3093 152.862 29.604C153.374 29.8987 153.772 30.306 154.058 30.826C154.353 31.346 154.5 31.9397 154.5 32.607C154.5 33.2743 154.353 33.8723 154.058 34.401C153.772 34.921 153.374 35.3283 152.862 35.623C152.351 35.909 151.779 36.052 151.146 36.052C150.548 36.052 150.007 35.9133 149.521 35.636C149.036 35.35 148.659 34.9557 148.39 34.453V38.522H147.74V29.214H148.364V30.813C148.633 30.293 149.01 29.89 149.495 29.604C149.989 29.3093 150.54 29.162 151.146 29.162ZM151.107 35.467C151.627 35.467 152.095 35.3457 152.511 35.103C152.927 34.8603 153.252 34.5223 153.486 34.089C153.729 33.6557 153.85 33.1617 153.85 32.607C153.85 32.0523 153.729 31.5583 153.486 31.125C153.252 30.6917 152.927 30.3537 152.511 30.111C152.095 29.8683 151.627 29.747 151.107 29.747C150.587 29.747 150.119 29.8683 149.703 30.111C149.296 30.3537 148.971 30.6917 148.728 31.125C148.494 31.5583 148.377 32.0523 148.377 32.607C148.377 33.1617 148.494 33.6557 148.728 34.089C148.971 34.5223 149.296 34.8603 149.703 35.103C150.119 35.3457 150.587 35.467 151.107 35.467ZM162.399 32.763H156.562C156.579 33.2917 156.714 33.764 156.965 34.18C157.216 34.5873 157.554 34.9037 157.979 35.129C158.412 35.3543 158.898 35.467 159.435 35.467C159.877 35.467 160.284 35.389 160.657 35.233C161.038 35.0683 161.355 34.83 161.606 34.518L161.983 34.947C161.688 35.3023 161.316 35.5753 160.865 35.766C160.423 35.9567 159.942 36.052 159.422 36.052C158.746 36.052 158.144 35.9047 157.615 35.61C157.086 35.3153 156.67 34.908 156.367 34.388C156.072 33.868 155.925 33.2743 155.925 32.607C155.925 31.9483 156.064 31.359 156.341 30.839C156.627 30.3103 157.017 29.8987 157.511 29.604C158.005 29.3093 158.56 29.162 159.175 29.162C159.79 29.162 160.341 29.3093 160.826 29.604C161.32 29.89 161.706 30.293 161.983 30.813C162.269 31.333 162.412 31.9223 162.412 32.581L162.399 32.763ZM159.175 29.734C158.698 29.734 158.269 29.8423 157.888 30.059C157.507 30.267 157.199 30.566 156.965 30.956C156.74 31.3373 156.61 31.7707 156.575 32.256H161.775C161.749 31.7707 161.619 31.3373 161.385 30.956C161.151 30.5747 160.843 30.2757 160.462 30.059C160.081 29.8423 159.652 29.734 159.175 29.734ZM173.662 29.214V36H164.536V29.214H165.186V35.428H168.787V29.214H169.437V35.428H173.012V29.214H173.662ZM182.254 32.763H176.417C176.435 33.2917 176.569 33.764 176.82 34.18C177.072 34.5873 177.41 34.9037 177.834 35.129C178.268 35.3543 178.753 35.467 179.29 35.467C179.732 35.467 180.14 35.389 180.512 35.233C180.894 35.0683 181.21 34.83 181.461 34.518L181.838 34.947C181.544 35.3023 181.171 35.5753 180.72 35.766C180.278 35.9567 179.797 36.052 179.277 36.052C178.601 36.052 177.999 35.9047 177.47 35.61C176.942 35.3153 176.526 34.908 176.222 34.388C175.928 33.868 175.78 33.2743 175.78 32.607C175.78 31.9483 175.919 31.359 176.196 30.839C176.482 30.3103 176.872 29.8987 177.366 29.604C177.86 29.3093 178.415 29.162 179.03 29.162C179.646 29.162 180.196 29.3093 180.681 29.604C181.175 29.89 181.561 30.293 181.838 30.813C182.124 31.333 182.267 31.9223 182.267 32.581L182.254 32.763ZM179.03 29.734C178.554 29.734 178.125 29.8423 177.743 30.059C177.362 30.267 177.054 30.566 176.82 30.956C176.595 31.3373 176.465 31.7707 176.43 32.256H181.63C181.604 31.7707 181.474 31.3373 181.24 30.956C181.006 30.5747 180.699 30.2757 180.317 30.059C179.936 29.8423 179.507 29.734 179.03 29.734ZM184.391 29.214H185.041V32.308H189.643V29.214H190.293V36H189.643V32.88H185.041V36H184.391V29.214ZM193.1 29.214H193.75V34.999L198.586 29.214H199.158V36H198.508V30.215L193.672 36H193.1V29.214ZM201.962 29.214H202.612V34.999L207.448 29.214H208.02V36H207.37V30.215L202.534 36H201.962V29.214ZM204.965 28.174C204.419 28.174 203.977 28.0353 203.639 27.758C203.301 27.472 203.127 27.0777 203.119 26.575H203.6C203.608 26.9303 203.738 27.212 203.99 27.42C204.25 27.628 204.575 27.732 204.965 27.732C205.355 27.732 205.675 27.628 205.927 27.42C206.178 27.212 206.308 26.9303 206.317 26.575H206.811C206.802 27.0777 206.629 27.472 206.291 27.758C205.953 28.0353 205.511 28.174 204.965 28.174Z" fill="black"/>
</svg>
