<svg width="124" height="30" viewBox="0 0 124 30" fill="none" xmlns="http://www.w3.org/2000/svg">
<path d="M50.656 21L47.776 16.95C47.452 16.986 47.116 17.004 46.768 17.004H43.384V21H42.052V8.4H46.768C48.376 8.4 49.636 8.784 50.548 9.552C51.46 10.32 51.916 11.376 51.916 12.72C51.916 13.704 51.664 14.538 51.16 15.222C50.668 15.894 49.96 16.38 49.036 16.68L52.114 21H50.656ZM46.732 15.87C47.98 15.87 48.934 15.594 49.594 15.042C50.254 14.49 50.584 13.716 50.584 12.72C50.584 11.7 50.254 10.92 49.594 10.38C48.934 9.828 47.98 9.552 46.732 9.552H43.384V15.87H46.732ZM55.0598 8.4H56.3918V21H55.0598V8.4ZM65.9635 21.108C64.7155 21.108 63.5875 20.832 62.5795 20.28C61.5835 19.728 60.7975 18.966 60.2215 17.994C59.6575 17.01 59.3755 15.912 59.3755 14.7C59.3755 13.488 59.6575 12.396 60.2215 11.424C60.7975 10.44 61.5895 9.672 62.5975 9.12C63.6055 8.568 64.7335 8.292 65.9815 8.292C66.9175 8.292 67.7815 8.448 68.5735 8.76C69.3655 9.072 70.0375 9.528 70.5895 10.128L69.7435 10.974C68.7595 9.978 67.5175 9.48 66.0175 9.48C65.0215 9.48 64.1155 9.708 63.2995 10.164C62.4835 10.62 61.8415 11.244 61.3735 12.036C60.9175 12.828 60.6895 13.716 60.6895 14.7C60.6895 15.684 60.9175 16.572 61.3735 17.364C61.8415 18.156 62.4835 18.78 63.2995 19.236C64.1155 19.692 65.0215 19.92 66.0175 19.92C67.5295 19.92 68.7715 19.416 69.7435 18.408L70.5895 19.254C70.0375 19.854 69.3595 20.316 68.5555 20.64C67.7635 20.952 66.8995 21.108 65.9635 21.108ZM83.959 8.4V21H82.645V15.186H74.761V21H73.429V8.4H74.761V14.016H82.645V8.4H83.959ZM96.0095 14.502C96.8375 14.682 97.4735 15.042 97.9175 15.582C98.3735 16.11 98.6015 16.794 98.6015 17.634C98.6015 18.714 98.1995 19.548 97.3955 20.136C96.6035 20.712 95.4275 21 93.8675 21H88.0715V8.4H93.5075C94.9115 8.4 95.9975 8.682 96.7655 9.246C97.5455 9.81 97.9355 10.608 97.9355 11.64C97.9355 12.336 97.7615 12.93 97.4135 13.422C97.0775 13.902 96.6095 14.262 96.0095 14.502ZM89.4035 9.498V14.07H93.4175C94.4375 14.07 95.2235 13.878 95.7755 13.494C96.3275 13.098 96.6035 12.528 96.6035 11.784C96.6035 11.04 96.3275 10.476 95.7755 10.092C95.2235 9.696 94.4375 9.498 93.4175 9.498H89.4035ZM93.8495 19.902C94.9775 19.902 95.8295 19.71 96.4055 19.326C96.9815 18.942 97.2695 18.342 97.2695 17.526C97.2695 15.954 96.1295 15.168 93.8495 15.168H89.4035V19.902H93.8495ZM110.552 19.848V21H101.642V8.4H110.282V9.552H102.974V14.034H109.49V15.168H102.974V19.848H110.552ZM122.593 19.848V21H113.683V8.4H122.323V9.552H115.015V14.034H121.531V15.168H115.015V19.848H122.593Z" fill="#F4F7FB"/>
<path d="M25 0H5C3.67392 0 2.40215 0.526784 1.46447 1.46447C0.526784 2.40215 0 3.67392 0 5L0 25C0 26.3261 0.526784 27.5979 1.46447 28.5355C2.40215 29.4732 3.67392 30 5 30H25C26.3261 30 27.5979 29.4732 28.5355 28.5355C29.4732 27.5979 30 26.3261 30 25V5C30 3.67392 29.4732 2.40215 28.5355 1.46447C27.5979 0.526784 26.3261 0 25 0V0ZM12.32 20.05L8.32 13.05H12.82L16.82 20.05H12.32ZM22 25L15 13H19.5C20.1885 13.0147 20.8652 12.8194 21.44 12.44C21.8186 12.0564 22.0309 11.539 22.0309 11C22.0309 10.461 21.8186 9.94365 21.44 9.56C21.2491 9.37583 21.0235 9.23147 20.7763 9.13533C20.529 9.03919 20.2652 8.99319 20 9H6L3.5 5H20C21.1859 5.00104 22.3449 5.3535 23.3307 6.01286C24.3164 6.67222 25.0846 7.60891 25.5383 8.70461C25.992 9.80032 26.1108 11.0059 25.8797 12.1691C25.6486 13.3323 25.0781 14.4009 24.24 15.24C23.5329 15.9528 22.655 16.4726 21.69 16.75L26.5 25H22Z" fill="white"/>
</svg>
