<svg width="64" height="64" viewBox="0 0 64 64" fill="none" xmlns="http://www.w3.org/2000/svg">
<path d="M38.705 27H40C41.654 27 43 25.654 43 24C43 23.117 42.609 22.33 42 21.78V19C42 17.14 40.723 15.571 39 15.127V15C39 12.794 37.206 11 35 11H26C23.794 11 22 12.794 22 15V21.78C21.391 22.329 21 23.117 21 24C21 25.654 22.346 27 24 27H25.295C25.752 28.53 26.72 29.841 28 30.736V32.133L25.293 32.52C22.846 32.869 21 34.997 21 37.469V41.586L17.293 45.293L18.707 46.707L21.07 44.344C21.211 44.726 21.57 45 22 45H42C42.552 45 43 44.553 43 44V37.469C43 34.997 41.154 32.869 38.708 32.52L36 32.133V30.736C37.28 29.841 38.248 28.53 38.705 27ZM40 25H39V23H40C40.551 23 41 23.448 41 24C41 24.552 40.551 25 40 25ZM24 25C23.449 25 23 24.552 23 24C23 23.448 23.449 23 24 23H25V25H24ZM25 20V21H24V15C24 13.897 24.897 13 26 13H35C36.103 13 37 13.897 37 15V16C37 16.553 37.448 17 38 17C39.103 17 40 17.897 40 19V21H39V20C39 19.447 38.552 19 38 19H37C35.897 19 35 18.103 35 17C35 16.447 34.552 16 34 16C33.448 16 33 16.447 33 17C33 18.103 32.103 19 31 19H26C25.448 19 25 19.447 25 20ZM27 25V21H31C32.193 21 33.267 20.475 34 19.643C34.733 20.475 35.807 21 37 21V25C37 27.757 34.757 30 32 30C29.243 30 27 27.757 27 25ZM28.268 34.115L30.691 43H29.618L28.118 40L28.894 38.447C29.049 38.137 29.032 37.769 28.85 37.474C28.668 37.179 28.347 37 28 37H27V34.296L28.268 34.115ZM23 37.469C23 36.188 23.828 35.064 25 34.646V38C25 38.553 25.448 39 26 39H26.382L26.106 39.553C25.965 39.834 25.965 40.166 26.106 40.448L27.382 43H23V37.469ZM41 37.469V43H36.618L37.894 40.447C38.035 40.166 38.035 39.834 37.894 39.552L37.618 39H38C38.552 39 39 38.553 39 38V34.646C40.171 35.063 41 36.187 41 37.469ZM37 34.296V37H36C35.653 37 35.332 37.18 35.149 37.475C34.966 37.77 34.95 38.138 35.105 38.448L35.882 40L34.382 43H33.309L35.732 34.115L37 34.296ZM34 32.866L32 40.199L30 32.866V31.705C30.634 31.895 31.305 32 32 32C32.695 32 33.366 31.895 34 31.705V32.866Z" fill="black"/>
<path d="M18 47H16.444C16.788 46.409 17 45.732 17 45C17 42.794 15.206 41 13 41C11.8 41 10.734 41.542 10 42.382C9.266 41.542 8.2 41 7 41C4.794 41 3 42.794 3 45C3 45.732 3.212 46.409 3.556 47H2C1.448 47 1 47.447 1 48V52C1 52.553 1.448 53 2 53H3V62C3 62.553 3.448 63 4 63H16C16.552 63 17 62.553 17 62V53H18C18.552 53 19 52.553 19 52V48C19 47.447 18.552 47 18 47ZM13 43C14.103 43 15 43.897 15 45C15 46.103 14.103 47 13 47H11V45C11 43.897 11.897 43 13 43ZM5 45C5 43.897 5.897 43 7 43C8.103 43 9 43.897 9 45V47H7C5.897 47 5 46.103 5 45ZM15 61H5V53H15V61ZM17 51H3V49H7H10H13H17V51Z" fill="black"/>
<path d="M9.00001 15H11V13H12C12.404 13 12.769 12.757 12.924 12.383C13.079 12.009 12.993 11.579 12.707 11.293L10.414 9H13V7H11V5H9.00001V7H8.00001C7.59601 7 7.23101 7.243 7.07601 7.617C6.92101 7.991 7.00701 8.421 7.29301 8.707L9.58601 11H7.00001V13H9.00001V15Z" fill="black"/>
<path d="M10 19C12.122 19 14.071 18.258 15.611 17.025L18.293 19.707L19.707 18.293L17.025 15.611C18.258 14.071 19 12.122 19 10C19 5.037 14.962 1 10 1C5.038 1 1 5.037 1 10C1 14.963 5.038 19 10 19ZM10 3C13.86 3 17 6.141 17 10C17 13.859 13.86 17 10 17C6.14 17 3 13.859 3 10C3 6.141 6.14 3 10 3Z" fill="black"/>
<path d="M55 49H53V51H52C51.596 51 51.231 51.243 51.076 51.617C50.921 51.991 51.007 52.421 51.293 52.707L53.586 55H51V57H53V59H55V57H56C56.404 57 56.769 56.757 56.924 56.383C57.079 56.009 56.993 55.579 56.707 55.293L54.414 53H57V51H55V49Z" fill="black"/>
<path d="M54 45C51.878 45 49.929 45.742 48.389 46.975L45.707 44.293L44.293 45.707L46.975 48.389C45.742 49.929 45 51.878 45 54C45 58.963 49.038 63 54 63C58.962 63 63 58.963 63 54C63 49.037 58.962 45 54 45ZM54 61C50.14 61 47 57.859 47 54C47 50.141 50.14 47 54 47C57.86 47 61 50.141 61 54C61 57.859 57.86 61 54 61Z" fill="black"/>
<path d="M45.707 19.707L47.237 18.177L47.002 21.937C46.985 22.212 47.082 22.483 47.271 22.684C47.46 22.885 47.724 23 48 23H62C62.276 23 62.54 22.886 62.729 22.685C62.918 22.484 63.015 22.213 62.998 21.938L61.998 5.938C61.965 5.41 61.528 5 61 5H59C59 2.794 57.206 1 55 1C52.794 1 51 2.794 51 5H49C48.472 5 48.035 5.41 48.002 5.938L47.426 15.161L44.293 18.294L45.707 19.707ZM55 3C56.103 3 57 3.897 57 5H53C53 3.897 53.897 3 55 3ZM51 7V11H53V7H57V11H59V7H60.061L60.936 21H49.064L49.939 7H51Z" fill="black"/>
</svg>
