<svg width="549" height="433" viewBox="0 0 549 433" fill="none" xmlns="http://www.w3.org/2000/svg">
<g opacity="0.67">
<path opacity="0.67" d="M257.3 432.997L0 284.611L257.292 136.232L514.592 284.616L257.3 432.997Z" fill="#060D2E"/>
</g>
<g opacity="0.67">
<path opacity="0.67" d="M257.3 409.984L39.9032 284.613L257.294 159.243L474.689 284.616L257.3 409.984Z" fill="#07133D"/>
</g>
<g opacity="0.9">
<path opacity="0.9" d="M257.298 383.246L86.2681 284.613L257.294 185.982L428.325 284.616L257.298 383.246Z" fill="#080344"/>
</g>
<path d="M292.493 386.437C290.876 386.449 289.283 386.047 287.866 385.27L83.6862 267.519C83.078 267.243 82.5533 266.811 82.1648 266.268C81.7763 265.725 81.5376 265.089 81.4727 264.425C81.4971 263.893 81.6653 263.378 81.9595 262.934C82.2538 262.49 82.663 262.134 83.1436 261.903L204.985 191.637C206.291 191.029 207.723 190.74 209.163 190.795C210.603 190.849 212.009 191.245 213.265 191.95L417.446 309.701C418.054 309.978 418.579 310.409 418.967 310.952C419.356 311.495 419.595 312.13 419.659 312.794C419.635 313.326 419.467 313.842 419.172 314.286C418.878 314.73 418.469 315.086 417.988 315.316L296.146 385.582C295.022 386.175 293.764 386.469 292.493 386.437V386.437ZM84.4142 266.259L288.596 384.009C289.632 384.581 290.787 384.906 291.97 384.96C293.153 385.015 294.332 384.796 295.417 384.321L417.26 314.055C417.512 313.944 417.732 313.769 417.897 313.548C418.062 313.328 418.167 313.068 418.202 312.794C418.202 312.183 417.647 311.498 416.718 310.962L212.537 193.211C211.5 192.639 210.345 192.314 209.162 192.26C207.979 192.206 206.8 192.424 205.715 192.898L83.8715 263.164C83.6192 263.276 83.3999 263.45 83.2348 263.671C83.0698 263.892 82.9645 264.152 82.9291 264.425C82.9291 265.038 83.4845 265.723 84.4142 266.259V266.259Z" fill="white"/>
<path d="M213.189 155.87L239 2.91243L236.925 2.03951L240.043 0.253757L240.038 0.271868C240.413 0.0684394 240.838 -0.0240209 241.264 0.00532011C241.689 0.0346612 242.098 0.184592 242.441 0.437536L448.72 119.398C449.591 119.955 450.298 120.733 450.769 121.652C451.24 122.572 451.457 123.601 451.398 124.632L425.382 278.805C425.352 279.138 425.237 279.458 425.046 279.733C424.856 280.008 424.597 280.229 424.295 280.374L424.299 280.376L421.247 282.136L420.723 279.291L420.897 279.344L215.868 161.104C214.996 160.547 214.289 159.769 213.818 158.849C213.347 157.93 213.13 156.901 213.189 155.87V155.87Z" fill="url(#paint0_linear)"/>
<path d="M447.57 123.581L450.961 122.082C451.345 122.874 451.496 123.758 451.398 124.632L425.382 278.805C425.352 279.138 425.237 279.458 425.046 279.733C424.856 280.008 424.597 280.229 424.295 280.375L424.299 280.376L421.247 282.137L420.723 279.291L420.897 279.344L410.522 273.361L447.57 123.581Z" fill="url(#paint1_linear)"/>
<path d="M212.631 162.958L418.91 281.919C420.503 282.837 421.866 282.307 422.146 280.66L448.162 126.487C448.221 125.455 448.004 124.427 447.533 123.507C447.062 122.587 446.355 121.809 445.483 121.253L239.205 2.29209C237.612 1.37363 236.249 1.90411 235.969 3.55115L209.953 157.724C209.894 158.756 210.111 159.784 210.582 160.704C211.053 161.624 211.76 162.402 212.631 162.958V162.958Z" fill="#24126A"/>
<g opacity="0.51">
<path opacity="0.51" d="M238.512 5.15967L445.759 124.624L419.586 279.191L212.473 159.802L238.512 5.15967Z" fill="black"/>
</g>
<path d="M82.9648 235.95L94.2221 241.822L207.102 176.724C208.269 176.196 209.543 175.948 210.823 176.001C212.102 176.054 213.352 176.406 214.47 177.029L409.157 289.305C411.021 288.264 419.515 284.184 419.515 284.184L415.394 290.874L415.378 290.861C415.161 291.411 414.751 291.865 414.226 292.138L295.34 360.699C294.173 361.227 292.899 361.475 291.62 361.422C290.34 361.369 289.091 361.017 287.972 360.394L88.7455 245.5C87.9967 245.123 87.4048 244.495 87.0742 243.725L87.0588 243.735L82.9648 235.95Z" fill="url(#paint2_linear)"/>
<path d="M84.7051 237.798L288.886 355.549C290.032 356.187 291.313 356.548 292.624 356.602C293.936 356.656 295.241 356.403 296.437 355.861L418.279 285.595C420.215 284.479 419.972 282.529 417.737 281.24L213.556 163.49C212.41 162.852 211.13 162.491 209.818 162.436C208.507 162.382 207.201 162.636 206.005 163.177L84.1631 233.443C82.2276 234.56 82.4702 236.509 84.7051 237.798Z" fill="url(#paint3_linear)"/>
<path d="M84.7053 236.885L288.886 354.636C290.032 355.274 291.313 355.635 292.624 355.689C293.936 355.743 295.242 355.489 296.437 354.948L418.279 284.682C418.568 284.536 418.824 284.336 419.035 284.091C419.246 283.846 419.406 283.563 419.507 283.256C419.605 283.728 419.536 284.218 419.312 284.645C419.088 285.072 418.723 285.407 418.279 285.595L296.437 355.862C295.242 356.403 293.936 356.657 292.624 356.602C291.313 356.548 290.032 356.187 288.886 355.549L84.7053 237.798C83.257 236.963 82.6602 235.853 82.9357 234.869C83.0811 235.306 83.3127 235.71 83.6166 236.056C83.9205 236.402 84.2907 236.684 84.7053 236.885Z" fill="white"/>
<g opacity="0.15">
<g opacity="0.15">
<path opacity="0.15" d="M212.379 161.966L223.636 167.838L336.516 102.74C337.683 102.212 338.957 101.964 340.237 102.017C341.516 102.07 342.766 102.422 343.885 103.045L538.572 215.321C540.435 214.28 548.929 210.2 548.929 210.2L544.808 216.89L544.792 216.877C544.575 217.427 544.165 217.881 543.64 218.153L424.754 286.714C423.588 287.243 422.313 287.49 421.034 287.437C419.754 287.385 418.505 287.032 417.386 286.41L218.16 171.516C217.411 171.139 216.819 170.511 216.488 169.741L216.473 169.751L212.379 161.966Z" fill="url(#paint4_linear)"/>
<path opacity="0.15" d="M214.119 163.813L418.3 281.564C419.446 282.202 420.727 282.563 422.038 282.617C423.35 282.672 424.656 282.418 425.851 281.877L547.693 211.61C549.629 210.494 549.386 208.545 547.151 207.256L342.971 89.5048C341.824 88.8666 340.544 88.5058 339.232 88.4515C337.921 88.3972 336.615 88.651 335.419 89.1923L213.577 159.459C211.642 160.575 211.884 162.524 214.119 163.813Z" fill="url(#paint5_linear)"/>
<path opacity="0.15" d="M547.151 207.256L342.971 89.5056C341.426 88.6753 339.671 88.3188 337.925 88.4807C339.166 88.5604 340.375 88.9102 341.466 89.5056L545.647 207.256C547.882 208.545 548.125 210.495 546.189 211.611L424.347 281.877C423.572 282.291 422.718 282.533 421.841 282.59C423.219 282.746 424.612 282.498 425.851 281.877L547.693 211.611C549.629 210.495 549.386 208.545 547.151 207.256Z" fill="white"/>
<g opacity="0.5">
<path opacity="0.5" d="M321.07 143.543L314.525 139.769C314.213 139.621 313.87 139.549 313.525 139.558C313.18 139.568 312.842 139.659 312.539 139.824L305.265 144.069C304.693 144.402 304.656 144.918 305.182 145.221L311.727 148.996C312.039 149.144 312.381 149.216 312.726 149.206C313.071 149.197 313.409 149.106 313.713 148.941L320.987 144.696C321.558 144.362 321.595 143.846 321.07 143.543Z" fill="#24126A"/>
<path opacity="0.5" d="M331.177 149.372L324.632 145.598C324.32 145.45 323.978 145.378 323.632 145.387C323.287 145.397 322.949 145.488 322.646 145.653L315.372 149.898C314.801 150.231 314.764 150.747 315.289 151.05L321.834 154.825C322.146 154.973 322.488 155.045 322.833 155.035C323.179 155.026 323.517 154.935 323.82 154.77L331.094 150.525C331.665 150.191 331.703 149.675 331.177 149.372Z" fill="#24126A"/>
<path opacity="0.5" d="M341.284 155.201L334.739 151.427C334.427 151.279 334.085 151.206 333.74 151.216C333.395 151.226 333.057 151.317 332.753 151.482L325.479 155.726C324.908 156.06 324.871 156.576 325.396 156.879L331.941 160.653C332.253 160.801 332.596 160.874 332.941 160.864C333.286 160.855 333.624 160.763 333.927 160.598L341.201 156.353C341.773 156.02 341.81 155.504 341.284 155.201Z" fill="#24126A"/>
<path opacity="0.5" d="M333.589 162.959L327.044 159.184C326.733 159.036 326.39 158.964 326.045 158.974C325.7 158.983 325.362 159.074 325.058 159.239L318.952 162.803C318.381 163.136 318.344 163.652 318.869 163.955L325.414 167.73C325.726 167.878 326.069 167.95 326.414 167.94C326.759 167.931 327.097 167.84 327.4 167.675L333.506 164.111C334.078 163.778 334.115 163.262 333.589 162.959Z" fill="#24126A"/>
<path opacity="0.5" d="M343.697 168.788L337.152 165.013C336.84 164.865 336.497 164.793 336.152 164.803C335.807 164.812 335.469 164.903 335.166 165.068L329.06 168.632C328.488 168.965 328.451 169.481 328.976 169.784L335.521 173.559C335.833 173.707 336.176 173.779 336.521 173.769C336.866 173.76 337.204 173.669 337.507 173.504L343.614 169.94C344.185 169.607 344.222 169.091 343.697 168.788Z" fill="#24126A"/>
<path opacity="0.5" d="M353.804 174.617L347.259 170.842C346.947 170.694 346.605 170.622 346.259 170.632C345.914 170.641 345.576 170.732 345.273 170.897L339.167 174.461C338.595 174.794 338.558 175.31 339.084 175.613L345.629 179.388C345.941 179.536 346.283 179.608 346.628 179.598C346.974 179.589 347.312 179.498 347.615 179.333L353.721 175.769C354.292 175.436 354.329 174.92 353.804 174.617Z" fill="#24126A"/>
<path opacity="0.5" d="M363.911 180.446L357.366 176.671C357.055 176.523 356.712 176.451 356.367 176.461C356.022 176.47 355.684 176.561 355.38 176.726L349.274 180.29C348.703 180.623 348.666 181.139 349.191 181.442L355.736 185.216C356.048 185.364 356.39 185.437 356.736 185.427C357.081 185.418 357.419 185.327 357.722 185.161L363.828 181.598C364.4 181.265 364.437 180.749 363.911 180.446Z" fill="#24126A"/>
<path opacity="0.5" d="M374.018 186.274L367.474 182.5C367.162 182.352 366.819 182.28 366.474 182.289C366.129 182.299 365.791 182.39 365.488 182.555L359.381 186.118C358.81 186.452 358.773 186.968 359.298 187.271L365.843 191.045C366.155 191.193 366.498 191.266 366.843 191.256C367.188 191.246 367.526 191.155 367.829 190.99L373.936 187.427C374.507 187.093 374.544 186.577 374.018 186.274Z" fill="#24126A"/>
<path opacity="0.5" d="M384.126 192.103L377.581 188.329C377.269 188.181 376.927 188.109 376.581 188.118C376.236 188.128 375.898 188.219 375.595 188.384L369.489 191.947C368.917 192.281 368.88 192.797 369.406 193.1L375.951 196.874C376.263 197.022 376.605 197.094 376.95 197.085C377.295 197.075 377.634 196.984 377.937 196.819L384.043 193.256C384.614 192.922 384.651 192.406 384.126 192.103Z" fill="#24126A"/>
<path opacity="0.5" d="M394.233 197.932L387.688 194.158C387.376 194.01 387.034 193.938 386.689 193.947C386.344 193.957 386.006 194.048 385.702 194.213L379.596 197.776C379.025 198.11 378.988 198.625 379.513 198.929L386.058 202.703C386.37 202.851 386.712 202.923 387.058 202.914C387.403 202.904 387.741 202.813 388.044 202.648L394.15 199.085C394.721 198.751 394.759 198.235 394.233 197.932Z" fill="#24126A"/>
<path opacity="0.5" d="M404.34 203.761L397.796 199.987C397.484 199.839 397.141 199.766 396.796 199.776C396.451 199.786 396.113 199.877 395.809 200.042L389.703 203.605C389.132 203.938 389.095 204.454 389.62 204.757L396.165 208.532C396.477 208.68 396.82 208.752 397.165 208.743C397.51 208.733 397.848 208.642 398.151 208.477L404.258 204.914C404.829 204.58 404.866 204.064 404.34 203.761Z" fill="#24126A"/>
<path opacity="0.5" d="M414.448 209.59L407.903 205.816C407.591 205.667 407.249 205.595 406.903 205.605C406.558 205.614 406.22 205.705 405.917 205.87L399.811 209.434C399.239 209.767 399.202 210.283 399.728 210.586L406.273 214.361C406.585 214.509 406.927 214.581 407.272 214.571C407.617 214.562 407.956 214.471 408.259 214.306L414.365 210.742C414.936 210.409 414.973 209.893 414.448 209.59Z" fill="#24126A"/>
<path opacity="0.5" d="M424.555 215.419L418.01 211.644C417.698 211.496 417.356 211.424 417.011 211.434C416.665 211.443 416.327 211.534 416.024 211.699L409.918 215.263C409.347 215.596 409.309 216.112 409.835 216.415L416.38 220.19C416.692 220.338 417.034 220.41 417.38 220.4C417.725 220.391 418.063 220.3 418.366 220.135L424.472 216.571C425.043 216.238 425.081 215.722 424.555 215.419Z" fill="#24126A"/>
<path opacity="0.5" d="M329.379 171.28L322.834 167.506C322.522 167.357 322.179 167.285 321.834 167.295C321.489 167.304 321.151 167.395 320.848 167.56L314.742 171.124C314.17 171.457 314.133 171.973 314.659 172.276L321.204 176.051C321.515 176.199 321.858 176.271 322.203 176.261C322.548 176.252 322.886 176.161 323.19 175.996L329.296 172.432C329.867 172.099 329.904 171.583 329.379 171.28Z" fill="#24126A"/>
<path opacity="0.5" d="M319.121 165.364L312.576 161.589C312.264 161.441 311.921 161.369 311.576 161.379C311.231 161.388 310.893 161.479 310.59 161.644L304.483 165.208C303.912 165.541 303.875 166.057 304.4 166.36L310.945 170.135C311.257 170.283 311.6 170.355 311.945 170.345C312.29 170.336 312.628 170.245 312.931 170.08L319.038 166.516C319.609 166.183 319.646 165.667 319.121 165.364Z" fill="#24126A"/>
<path opacity="0.5" d="M308.846 159.438L294.75 151.309C294.438 151.161 294.095 151.089 293.75 151.098C293.405 151.108 293.067 151.199 292.764 151.364L286.657 154.928C286.086 155.261 286.049 155.777 286.574 156.08L300.67 164.209C300.982 164.357 301.325 164.429 301.67 164.42C302.015 164.41 302.353 164.319 302.657 164.154L308.763 160.591C309.334 160.257 309.371 159.741 308.846 159.438Z" fill="#24126A"/>
<path opacity="0.5" d="M296.925 163.312L285.485 156.715C285.174 156.567 284.831 156.495 284.486 156.505C284.141 156.514 283.803 156.605 283.499 156.77L277.393 160.334C276.822 160.667 276.785 161.183 277.31 161.486L288.75 168.083C289.061 168.231 289.404 168.303 289.749 168.294C290.094 168.284 290.432 168.193 290.736 168.028L296.842 164.465C297.413 164.131 297.45 163.616 296.925 163.312Z" fill="#24126A"/>
<path opacity="0.5" d="M339.486 177.109L332.941 173.334C332.629 173.186 332.287 173.114 331.942 173.124C331.596 173.133 331.258 173.224 330.955 173.389L324.849 176.953C324.278 177.286 324.24 177.802 324.766 178.105L331.311 181.88C331.623 182.028 331.965 182.1 332.311 182.09C332.656 182.081 332.994 181.99 333.297 181.824L339.403 178.261C339.974 177.928 340.012 177.412 339.486 177.109Z" fill="#24126A"/>
<path opacity="0.5" d="M349.593 182.938L343.049 179.163C342.737 179.015 342.394 178.943 342.049 178.952C341.704 178.962 341.366 179.053 341.062 179.218L334.956 182.781C334.385 183.115 334.348 183.631 334.873 183.934L341.418 187.708C341.73 187.856 342.073 187.929 342.418 187.919C342.763 187.91 343.101 187.819 343.404 187.653L349.51 184.09C350.082 183.757 350.119 183.241 349.593 182.938Z" fill="#24126A"/>
<path opacity="0.5" d="M359.701 188.767L353.156 184.992C352.844 184.844 352.501 184.772 352.156 184.781C351.811 184.791 351.473 184.882 351.17 185.047L345.064 188.61C344.492 188.944 344.455 189.46 344.98 189.763L351.525 193.537C351.837 193.685 352.18 193.757 352.525 193.748C352.87 193.738 353.208 193.647 353.511 193.482L359.618 189.919C360.189 189.586 360.226 189.07 359.701 188.767Z" fill="#24126A"/>
<path opacity="0.5" d="M369.808 194.595L363.263 190.821C362.951 190.673 362.609 190.601 362.263 190.61C361.918 190.62 361.58 190.711 361.277 190.876L355.171 194.439C354.6 194.773 354.562 195.289 355.088 195.592L361.633 199.366C361.945 199.514 362.287 199.586 362.632 199.577C362.978 199.567 363.316 199.476 363.619 199.311L369.725 195.748C370.296 195.414 370.334 194.898 369.808 194.595Z" fill="#24126A"/>
<path opacity="0.5" d="M379.915 200.424L373.37 196.65C373.058 196.502 372.716 196.43 372.371 196.439C372.026 196.449 371.688 196.54 371.384 196.705L365.278 200.268C364.707 200.601 364.67 201.118 365.195 201.421L371.74 205.195C372.052 205.343 372.395 205.415 372.74 205.406C373.085 205.396 373.423 205.305 373.726 205.14L379.832 201.577C380.404 201.243 380.441 200.727 379.915 200.424Z" fill="#24126A"/>
<path opacity="0.5" d="M390.023 206.253L383.478 202.479C383.166 202.331 382.823 202.258 382.478 202.268C382.133 202.277 381.795 202.368 381.492 202.534L375.386 206.097C374.814 206.43 374.777 206.946 375.303 207.249L381.847 211.024C382.159 211.172 382.502 211.244 382.847 211.234C383.192 211.225 383.53 211.134 383.833 210.969L389.94 207.405C390.511 207.072 390.548 206.556 390.023 206.253Z" fill="#24126A"/>
<path opacity="0.5" d="M400.13 212.082L393.585 208.308C393.273 208.159 392.931 208.087 392.585 208.097C392.24 208.106 391.902 208.197 391.599 208.362L385.493 211.926C384.921 212.259 384.884 212.775 385.41 213.078L391.955 216.853C392.267 217.001 392.609 217.073 392.954 217.063C393.299 217.054 393.637 216.963 393.941 216.798L400.047 213.234C400.618 212.901 400.655 212.385 400.13 212.082Z" fill="#24126A"/>
<path opacity="0.5" d="M410.237 217.911L403.692 214.136C403.38 213.988 403.038 213.916 402.693 213.926C402.348 213.935 402.01 214.026 401.706 214.191L395.6 217.755C395.029 218.088 394.992 218.604 395.517 218.907L402.062 222.682C402.374 222.83 402.717 222.902 403.062 222.892C403.407 222.883 403.745 222.792 404.048 222.627L410.154 219.063C410.726 218.73 410.763 218.214 410.237 217.911Z" fill="#24126A"/>
<path opacity="0.5" d="M420.345 223.74L413.8 219.965C413.488 219.817 413.145 219.745 412.8 219.755C412.455 219.764 412.117 219.855 411.814 220.02L405.707 223.583C405.136 223.917 405.099 224.433 405.624 224.736L412.169 228.51C412.481 228.658 412.824 228.731 413.169 228.721C413.514 228.711 413.852 228.62 414.155 228.455L420.261 224.892C420.833 224.559 420.87 224.043 420.345 223.74Z" fill="#24126A"/>
<path opacity="0.5" d="M438.313 234.102L424.033 225.867C423.721 225.719 423.378 225.647 423.033 225.656C422.688 225.666 422.35 225.757 422.047 225.922L415.941 229.485C415.369 229.819 415.332 230.335 415.857 230.638L430.138 238.873C430.45 239.021 430.792 239.093 431.138 239.084C431.483 239.074 431.821 238.983 432.124 238.818L438.23 235.255C438.802 234.921 438.839 234.405 438.313 234.102Z" fill="#24126A"/>
<path opacity="0.5" d="M419.785 244.915L407.732 237.964C407.42 237.816 407.077 237.743 406.732 237.753C406.387 237.763 406.049 237.854 405.745 238.019L399.639 241.582C399.068 241.916 399.031 242.431 399.556 242.735L411.61 249.686C411.921 249.834 412.264 249.906 412.609 249.896C412.954 249.887 413.292 249.796 413.595 249.631L419.702 246.067C420.273 245.734 420.31 245.218 419.785 244.915Z" fill="#24126A"/>
<path opacity="0.5" d="M338.083 187.049L331.538 183.274C331.226 183.126 330.884 183.054 330.539 183.064C330.193 183.073 329.855 183.164 329.552 183.329L323.446 186.893C322.875 187.226 322.837 187.742 323.363 188.045L329.908 191.819C330.22 191.967 330.562 192.04 330.907 192.03C331.253 192.021 331.591 191.93 331.894 191.764L338 188.201C338.571 187.868 338.609 187.352 338.083 187.049Z" fill="#24126A"/>
<path opacity="0.5" d="M327.724 181.075L321.179 177.3C320.868 177.152 320.525 177.08 320.18 177.09C319.835 177.099 319.497 177.19 319.193 177.355L313.087 180.919C312.516 181.252 312.479 181.768 313.004 182.071L319.549 185.846C319.861 185.994 320.204 186.066 320.549 186.056C320.894 186.047 321.232 185.956 321.535 185.791L327.641 182.227C328.213 181.894 328.25 181.378 327.724 181.075Z" fill="#24126A"/>
<path opacity="0.5" d="M317.366 175.101L310.821 171.327C310.509 171.178 310.166 171.106 309.821 171.116C309.476 171.125 309.138 171.216 308.835 171.382L302.728 174.945C302.157 175.278 302.12 175.794 302.646 176.097L309.19 179.872C309.502 180.02 309.845 180.092 310.19 180.082C310.535 180.073 310.873 179.982 311.176 179.817L317.283 176.253C317.854 175.92 317.891 175.404 317.366 175.101Z" fill="#24126A"/>
<path opacity="0.5" d="M307.007 169.127L300.462 165.353C300.15 165.205 299.808 165.132 299.462 165.142C299.117 165.152 298.779 165.243 298.476 165.408L292.37 168.971C291.799 169.304 291.761 169.82 292.287 170.123L298.832 173.898C299.144 174.046 299.486 174.118 299.831 174.109C300.176 174.099 300.514 174.008 300.818 173.843L306.924 170.279C307.495 169.946 307.532 169.43 307.007 169.127Z" fill="#24126A"/>
<path opacity="0.5" d="M348.19 192.878L341.646 189.103C341.334 188.955 340.991 188.883 340.646 188.892C340.301 188.902 339.963 188.993 339.659 189.158L333.553 192.721C332.982 193.055 332.945 193.571 333.47 193.874L340.015 197.648C340.327 197.796 340.67 197.869 341.015 197.859C341.36 197.849 341.698 197.758 342.001 197.593L348.107 194.03C348.679 193.697 348.716 193.181 348.19 192.878Z" fill="#24126A"/>
<path opacity="0.5" d="M358.298 198.706L351.753 194.932C351.441 194.784 351.098 194.712 350.753 194.721C350.408 194.731 350.07 194.822 349.767 194.987L343.661 198.55C343.089 198.884 343.052 199.4 343.578 199.703L350.123 203.477C350.434 203.625 350.777 203.697 351.122 203.688C351.467 203.678 351.805 203.587 352.109 203.422L358.215 199.859C358.786 199.525 358.823 199.009 358.298 198.706Z" fill="#24126A"/>
<path opacity="0.5" d="M368.405 204.535L361.86 200.761C361.548 200.613 361.206 200.541 360.861 200.55C360.515 200.56 360.177 200.651 359.874 200.816L353.768 204.379C353.196 204.713 353.159 205.229 353.685 205.532L360.23 209.306C360.542 209.454 360.884 209.526 361.229 209.517C361.575 209.507 361.913 209.416 362.216 209.251L368.322 205.688C368.893 205.354 368.93 204.838 368.405 204.535Z" fill="#24126A"/>
<path opacity="0.5" d="M378.512 210.364L371.967 206.59C371.656 206.442 371.313 206.369 370.968 206.379C370.623 206.389 370.285 206.48 369.981 206.645L363.875 210.208C363.304 210.541 363.267 211.057 363.792 211.36L370.337 215.135C370.649 215.283 370.992 215.355 371.337 215.346C371.682 215.336 372.02 215.245 372.323 215.08L378.429 211.517C379.001 211.183 379.038 210.667 378.512 210.364Z" fill="#24126A"/>
<path opacity="0.5" d="M388.62 216.193L382.075 212.419C381.763 212.271 381.42 212.198 381.075 212.208C380.73 212.217 380.392 212.308 380.089 212.473L373.983 216.037C373.411 216.37 373.374 216.886 373.9 217.189L380.444 220.964C380.756 221.112 381.099 221.184 381.444 221.174C381.789 221.165 382.127 221.074 382.431 220.909L388.537 217.345C389.108 217.012 389.145 216.496 388.62 216.193Z" fill="#24126A"/>
<path opacity="0.5" d="M398.727 222.022L392.182 218.247C391.87 218.099 391.528 218.027 391.182 218.037C390.837 218.046 390.499 218.137 390.196 218.302L384.09 221.866C383.518 222.199 383.481 222.715 384.007 223.018L390.552 226.793C390.864 226.941 391.206 227.013 391.551 227.003C391.897 226.994 392.235 226.903 392.538 226.738L398.644 223.174C399.215 222.841 399.252 222.325 398.727 222.022Z" fill="#24126A"/>
<path opacity="0.5" d="M408.834 227.851L402.289 224.076C401.978 223.928 401.635 223.856 401.29 223.866C400.945 223.875 400.607 223.966 400.303 224.131L394.197 227.695C393.626 228.028 393.589 228.544 394.114 228.847L400.659 232.621C400.971 232.77 401.314 232.842 401.659 232.832C402.004 232.823 402.342 232.732 402.645 232.567L408.751 229.003C409.323 228.67 409.36 228.154 408.834 227.851Z" fill="#24126A"/>
<path opacity="0.5" d="M418.942 233.68L412.397 229.905C412.085 229.757 411.742 229.685 411.397 229.694C411.052 229.704 410.714 229.795 410.411 229.96L404.304 233.524C403.733 233.857 403.696 234.373 404.221 234.676L410.766 238.45C411.078 238.598 411.421 238.671 411.766 238.661C412.111 238.651 412.449 238.56 412.752 238.395L418.859 234.832C419.43 234.499 419.467 233.983 418.942 233.68Z" fill="#24126A"/>
<path opacity="0.5" d="M429.049 239.508L422.504 235.734C422.192 235.586 421.85 235.514 421.504 235.523C421.159 235.533 420.821 235.624 420.518 235.789L414.412 239.352C413.84 239.686 413.803 240.202 414.329 240.505L420.874 244.279C421.186 244.427 421.528 244.499 421.873 244.49C422.219 244.48 422.557 244.389 422.86 244.224L428.966 240.661C429.537 240.327 429.574 239.812 429.049 239.508Z" fill="#24126A"/>
<path opacity="0.5" d="M313.658 183.712L307.113 179.937C306.801 179.789 306.459 179.717 306.113 179.726C305.768 179.736 305.43 179.827 305.127 179.992L299.021 183.555C298.449 183.889 298.412 184.405 298.938 184.708L305.483 188.482C305.795 188.63 306.137 188.703 306.482 188.693C306.828 188.683 307.166 188.592 307.469 188.427L313.575 184.864C314.146 184.531 314.183 184.015 313.658 183.712Z" fill="#24126A"/>
<path opacity="0.5" d="M303.601 177.912L297.056 174.137C296.744 173.989 296.402 173.917 296.056 173.927C295.711 173.936 295.373 174.027 295.07 174.192L288.964 177.756C288.392 178.089 288.355 178.605 288.881 178.908L295.426 182.683C295.738 182.831 296.08 182.903 296.425 182.893C296.77 182.884 297.108 182.793 297.412 182.627L303.518 179.064C304.089 178.731 304.126 178.215 303.601 177.912Z" fill="#24126A"/>
<path opacity="0.5" d="M293.544 172.112L286.999 168.337C286.687 168.189 286.344 168.117 285.999 168.127C285.654 168.136 285.316 168.227 285.013 168.392L278.907 171.956C278.335 172.289 278.298 172.805 278.824 173.108L285.369 176.883C285.681 177.031 286.023 177.103 286.368 177.093C286.713 177.084 287.051 176.993 287.355 176.828L293.461 173.264C294.032 172.931 294.069 172.415 293.544 172.112Z" fill="#24126A"/>
<path opacity="0.5" d="M283.487 166.312L276.942 162.537C276.63 162.389 276.287 162.317 275.942 162.327C275.597 162.336 275.259 162.427 274.956 162.592L268.85 166.156C268.278 166.489 268.241 167.005 268.767 167.308L275.312 171.083C275.624 171.231 275.966 171.303 276.311 171.293C276.656 171.284 276.994 171.193 277.298 171.028L283.404 167.464C283.975 167.131 284.012 166.615 283.487 166.312Z" fill="#24126A"/>
<path opacity="0.5" d="M273.749 171.995L267.204 168.22C266.892 168.072 266.55 168 266.205 168.01C265.859 168.019 265.521 168.11 265.218 168.275L263.2 169.453C262.628 169.787 262.591 170.303 263.117 170.606L269.662 174.38C269.973 174.528 270.316 174.6 270.661 174.591C271.006 174.581 271.344 174.49 271.648 174.325L273.666 173.147C274.237 172.814 274.275 172.298 273.749 171.995Z" fill="#24126A"/>
<path opacity="0.5" d="M286.874 179.563L280.329 175.789C280.017 175.641 279.674 175.569 279.329 175.578C278.984 175.588 278.646 175.679 278.343 175.844L276.324 177.022C275.753 177.355 275.716 177.871 276.241 178.174L282.786 181.949C283.098 182.097 283.44 182.169 283.786 182.159C284.131 182.15 284.469 182.059 284.772 181.894L286.79 180.716C287.362 180.382 287.399 179.866 286.874 179.563Z" fill="#24126A"/>
<path opacity="0.5" d="M296.889 185.339L290.344 181.565C290.032 181.416 289.689 181.344 289.344 181.354C288.999 181.363 288.661 181.454 288.358 181.619L286.339 182.798C285.768 183.131 285.731 183.647 286.256 183.95L292.801 187.724C293.113 187.872 293.456 187.945 293.801 187.935C294.146 187.926 294.484 187.834 294.787 187.669L296.806 186.491C297.377 186.158 297.414 185.642 296.889 185.339Z" fill="#24126A"/>
<path opacity="0.5" d="M306.904 191.115L300.359 187.34C300.047 187.192 299.705 187.12 299.359 187.13C299.014 187.139 298.676 187.23 298.373 187.395L296.354 188.573C295.783 188.907 295.746 189.423 296.271 189.726L302.816 193.5C303.128 193.648 303.471 193.72 303.816 193.711C304.161 193.701 304.499 193.61 304.802 193.445L306.821 192.267C307.392 191.934 307.429 191.418 306.904 191.115Z" fill="#24126A"/>
<path opacity="0.5" d="M316.919 196.891L310.374 193.116C310.062 192.968 309.72 192.896 309.374 192.906C309.029 192.915 308.691 193.006 308.388 193.171L306.369 194.349C305.798 194.683 305.761 195.199 306.287 195.502L312.831 199.276C313.143 199.424 313.486 199.496 313.831 199.487C314.176 199.477 314.514 199.386 314.817 199.221L316.836 198.043C317.407 197.71 317.445 197.194 316.919 196.891Z" fill="#24126A"/>
<path opacity="0.5" d="M372.832 229.135L366.287 225.361C365.975 225.213 365.632 225.141 365.287 225.15C364.942 225.16 364.604 225.251 364.301 225.416L362.282 226.594C361.711 226.927 361.674 227.443 362.199 227.746L368.744 231.521C369.056 231.669 369.399 231.741 369.744 231.731C370.089 231.722 370.427 231.631 370.73 231.466L372.749 230.288C373.32 229.954 373.357 229.438 372.832 229.135Z" fill="#24126A"/>
<path opacity="0.5" d="M382.847 234.911L376.302 231.137C375.99 230.989 375.648 230.917 375.302 230.926C374.957 230.936 374.619 231.027 374.316 231.192L372.297 232.37C371.726 232.703 371.689 233.219 372.214 233.522L378.759 237.297C379.071 237.445 379.414 237.517 379.759 237.507C380.104 237.498 380.442 237.407 380.745 237.242L382.764 236.064C383.335 235.73 383.372 235.214 382.847 234.911Z" fill="#24126A"/>
<path opacity="0.5" d="M392.862 240.687L386.317 236.912C386.005 236.764 385.663 236.692 385.318 236.702C384.972 236.711 384.634 236.802 384.331 236.967L382.313 238.145C381.741 238.479 381.704 238.995 382.23 239.298L388.774 243.072C389.086 243.22 389.429 243.292 389.774 243.283C390.119 243.273 390.457 243.182 390.761 243.017L392.779 241.839C393.35 241.506 393.388 240.99 392.862 240.687Z" fill="#24126A"/>
<path opacity="0.5" d="M402.877 246.463L396.332 242.688C396.02 242.54 395.678 242.468 395.333 242.478C394.987 242.487 394.649 242.578 394.346 242.743L392.328 243.921C391.756 244.255 391.719 244.771 392.245 245.074L398.79 248.848C399.102 248.996 399.444 249.068 399.789 249.059C400.134 249.049 400.472 248.958 400.776 248.793L402.794 247.615C403.365 247.282 403.403 246.766 402.877 246.463Z" fill="#24126A"/>
<path opacity="0.5" d="M323.765 189.54L317.22 185.766C316.908 185.618 316.566 185.546 316.221 185.555C315.876 185.565 315.537 185.656 315.234 185.821L309.128 189.384C308.557 189.718 308.52 190.234 309.045 190.537L315.59 194.311C315.902 194.459 316.244 194.531 316.59 194.522C316.935 194.512 317.273 194.421 317.576 194.256L323.682 190.693C324.253 190.359 324.291 189.843 323.765 189.54Z" fill="#24126A"/>
<path opacity="0.5" d="M333.872 195.369L327.328 191.595C327.016 191.447 326.673 191.375 326.328 191.384C325.983 191.394 325.645 191.485 325.342 191.65L319.235 195.213C318.664 195.547 318.627 196.063 319.152 196.366L325.697 200.14C326.009 200.288 326.352 200.36 326.697 200.351C327.042 200.341 327.38 200.25 327.683 200.085L333.79 196.522C334.361 196.188 334.398 195.672 333.872 195.369Z" fill="#24126A"/>
<path opacity="0.5" d="M343.98 201.198L337.435 197.424C337.123 197.276 336.781 197.203 336.435 197.213C336.09 197.223 335.752 197.314 335.449 197.479L329.343 201.042C328.771 201.375 328.734 201.891 329.26 202.194L335.805 205.969C336.117 206.117 336.459 206.189 336.804 206.18C337.149 206.17 337.487 206.079 337.791 205.914L343.897 202.351C344.468 202.017 344.505 201.501 343.98 201.198Z" fill="#24126A"/>
<path opacity="0.5" d="M354.087 207.027L347.542 203.253C347.23 203.105 346.888 203.032 346.543 203.042C346.197 203.051 345.859 203.142 345.556 203.308L339.45 206.871C338.879 207.204 338.842 207.72 339.367 208.023L345.912 211.798C346.224 211.946 346.566 212.018 346.912 212.008C347.257 211.999 347.595 211.908 347.898 211.743L354.004 208.179C354.575 207.846 354.613 207.33 354.087 207.027Z" fill="#24126A"/>
<path opacity="0.5" d="M364.194 212.856L357.65 209.081C357.338 208.933 356.995 208.861 356.65 208.871C356.305 208.88 355.967 208.971 355.663 209.136L349.557 212.7C348.986 213.033 348.949 213.549 349.474 213.852L356.019 217.627C356.331 217.775 356.674 217.847 357.019 217.837C357.364 217.828 357.702 217.737 358.005 217.572L364.111 214.008C364.683 213.675 364.72 213.159 364.194 212.856Z" fill="#24126A"/>
<path opacity="0.5" d="M374.302 218.685L367.757 214.91C367.445 214.762 367.102 214.69 366.757 214.7C366.412 214.709 366.074 214.8 365.771 214.966L359.665 218.529C359.093 218.862 359.056 219.378 359.582 219.681L366.127 223.456C366.438 223.604 366.781 223.676 367.126 223.666C367.471 223.657 367.809 223.566 368.112 223.401L374.219 219.837C374.79 219.504 374.827 218.988 374.302 218.685Z" fill="#24126A"/>
<path opacity="0.5" d="M384.409 224.514L377.864 220.739C377.552 220.591 377.21 220.519 376.865 220.529C376.519 220.538 376.181 220.629 375.878 220.794L369.772 224.358C369.201 224.691 369.163 225.207 369.689 225.51L376.234 229.285C376.546 229.433 376.888 229.505 377.234 229.495C377.579 229.486 377.917 229.395 378.22 229.23L384.326 225.666C384.897 225.333 384.935 224.817 384.409 224.514Z" fill="#24126A"/>
<path opacity="0.5" d="M394.516 230.343L387.972 226.568C387.66 226.42 387.317 226.348 386.972 226.358C386.627 226.367 386.289 226.458 385.985 226.623L379.879 230.187C379.308 230.52 379.271 231.036 379.796 231.339L386.341 235.113C386.653 235.261 386.996 235.334 387.341 235.324C387.686 235.315 388.024 235.224 388.327 235.059L394.433 231.495C395.005 231.162 395.042 230.646 394.516 230.343Z" fill="#24126A"/>
<path opacity="0.5" d="M404.624 236.172L398.079 232.397C397.767 232.249 397.424 232.177 397.079 232.186C396.734 232.196 396.396 232.287 396.093 232.452L389.987 236.015C389.415 236.349 389.378 236.865 389.904 237.168L396.449 240.942C396.76 241.09 397.103 241.163 397.448 241.153C397.793 241.143 398.131 241.052 398.435 240.887L404.541 237.324C405.112 236.99 405.149 236.475 404.624 236.172Z" fill="#24126A"/>
<path opacity="0.5" d="M323.289 157.019L304.014 145.903C303.702 145.755 303.359 145.683 303.014 145.692C302.669 145.702 302.331 145.793 302.028 145.958L295.922 149.521C295.35 149.855 295.313 150.371 295.839 150.674L315.114 161.79C315.426 161.938 315.768 162.01 316.114 162C316.459 161.991 316.797 161.9 317.1 161.735L323.206 158.171C323.778 157.838 323.815 157.322 323.289 157.019Z" fill="#24126A"/>
<path opacity="0.5" d="M447.46 228.628L428.185 217.512C427.873 217.364 427.53 217.292 427.185 217.301C426.84 217.311 426.502 217.402 426.199 217.567L420.092 221.13C419.521 221.464 419.484 221.98 420.009 222.283L439.285 233.399C439.597 233.547 439.939 233.619 440.284 233.61C440.63 233.6 440.968 233.509 441.271 233.344L447.377 229.781C447.948 229.447 447.986 228.931 447.46 228.628Z" fill="#24126A"/>
<path opacity="0.5" d="M428.713 205.622L422.169 201.847C421.857 201.699 421.514 201.627 421.169 201.636C420.824 201.646 420.486 201.737 420.183 201.902L412.908 206.147C412.337 206.48 412.3 206.996 412.825 207.299L419.37 211.074C419.682 211.222 420.025 211.294 420.37 211.285C420.715 211.275 421.053 211.184 421.356 211.019L428.63 206.774C429.202 206.441 429.239 205.925 428.713 205.622Z" fill="#24126A"/>
<path opacity="0.5" d="M355.314 163.292L344.847 157.255C344.535 157.107 344.192 157.035 343.847 157.045C343.502 157.054 343.164 157.145 342.861 157.31L335.587 161.555C335.015 161.889 334.978 162.405 335.504 162.708L345.971 168.744C346.283 168.892 346.625 168.964 346.97 168.955C347.316 168.945 347.654 168.854 347.957 168.689L355.231 164.444C355.802 164.111 355.839 163.595 355.314 163.292Z" fill="#24126A"/>
<path opacity="0.5" d="M418.975 200.005L408.508 193.969C408.196 193.821 407.853 193.749 407.508 193.758C407.163 193.768 406.825 193.859 406.522 194.024L399.248 198.269C398.676 198.602 398.639 199.118 399.165 199.421L409.632 205.458C409.944 205.606 410.286 205.678 410.631 205.668C410.977 205.659 411.315 205.568 411.618 205.403L418.892 201.158C419.463 200.824 419.5 200.308 418.975 200.005Z" fill="#24126A"/>
<path opacity="0.5" d="M369.897 171.702L359.43 165.665C359.118 165.517 358.775 165.445 358.43 165.455C358.085 165.464 357.747 165.555 357.443 165.72L350.169 169.965C349.598 170.299 349.561 170.815 350.086 171.118L360.554 177.154C360.865 177.302 361.208 177.374 361.553 177.365C361.898 177.355 362.236 177.264 362.539 177.099L369.814 172.854C370.385 172.521 370.422 172.005 369.897 171.702Z" fill="#24126A"/>
<path opacity="0.5" d="M350.157 171.159L395.665 197.403C395.97 197.564 396.309 197.65 396.655 197.655C397 197.66 397.341 197.583 397.65 197.431L405.068 193.102C405.6 192.792 405.573 192.276 405.008 191.951L359.5 165.706L350.157 171.159Z" fill="#24126A"/>
<path opacity="0.5" d="M447.329 221.777L454.619 225.981C454.875 226.103 455.156 226.162 455.439 226.154C455.721 226.146 455.999 226.072 456.247 225.936L459.223 224.2C459.691 223.926 459.722 223.503 459.291 223.255L452 219.051C451.745 218.929 451.464 218.87 451.181 218.878C450.898 218.886 450.621 218.961 450.372 219.096L447.397 220.832C446.929 221.106 446.898 221.529 447.329 221.777Z" fill="#24126A"/>
<path opacity="0.5" d="M437.138 215.9L444.428 220.104C444.684 220.225 444.964 220.285 445.247 220.277C445.53 220.269 445.807 220.194 446.056 220.059L449.032 218.323C449.5 218.049 449.53 217.626 449.1 217.378L441.809 213.174C441.554 213.052 441.273 212.993 440.99 213.001C440.707 213.009 440.43 213.083 440.181 213.219L437.206 214.955C436.737 215.228 436.707 215.651 437.138 215.9Z" fill="#24126A"/>
<path opacity="0.5" d="M427.03 210.071L434.321 214.275C434.577 214.397 434.857 214.456 435.14 214.448C435.423 214.44 435.7 214.366 435.949 214.23L438.924 212.494C439.393 212.22 439.423 211.797 438.992 211.549L431.702 207.345C431.446 207.223 431.166 207.164 430.883 207.172C430.6 207.18 430.323 207.255 430.074 207.39L427.099 209.126C426.63 209.4 426.6 209.823 427.03 210.071Z" fill="#24126A"/>
<path opacity="0.5" d="M431.882 218.967L439.173 223.171C439.428 223.293 439.709 223.352 439.992 223.344C440.275 223.336 440.552 223.261 440.8 223.126L443.776 221.39C444.244 221.116 444.275 220.693 443.844 220.445L436.554 216.241C436.298 216.119 436.017 216.06 435.734 216.068C435.452 216.076 435.175 216.151 434.926 216.286L431.95 218.022C431.482 218.296 431.451 218.718 431.882 218.967Z" fill="#24126A"/>
</g>
</g>
</g>
<g opacity="0.8">
<path opacity="0.8" d="M178.626 224.758L172.144 221.02C171.624 220.72 171.689 220.196 172.29 219.849L179.941 215.437C180.249 215.266 180.593 215.169 180.946 215.154C181.299 215.139 181.65 215.208 181.971 215.353L188.453 219.091C188.974 219.391 188.908 219.916 188.307 220.262L180.656 224.674C180.348 224.846 180.004 224.943 179.651 224.958C179.299 224.972 178.948 224.904 178.626 224.758V224.758Z" fill="#24126A"/>
<path opacity="0.8" d="M188.636 230.531L182.154 226.793C181.634 226.493 181.699 225.969 182.3 225.622L189.951 221.21C190.259 221.038 190.603 220.941 190.956 220.927C191.309 220.912 191.66 220.98 191.981 221.126L198.463 224.864C198.983 225.164 198.918 225.688 198.317 226.035L190.666 230.447C190.358 230.619 190.014 230.716 189.661 230.73C189.309 230.745 188.957 230.677 188.636 230.531Z" fill="#24126A"/>
<path opacity="0.8" d="M198.646 236.304L192.164 232.566C191.644 232.266 191.709 231.742 192.31 231.395L199.961 226.983C200.269 226.811 200.613 226.714 200.966 226.699C201.318 226.685 201.67 226.753 201.991 226.899L208.473 230.637C208.993 230.937 208.928 231.461 208.327 231.808L200.676 236.22C200.368 236.392 200.024 236.489 199.671 236.503C199.319 236.518 198.967 236.45 198.646 236.304Z" fill="#24126A"/>
<path opacity="0.8" d="M212.49 231.536L206.008 227.798C205.488 227.498 205.553 226.974 206.154 226.627L212.576 222.924C212.885 222.752 213.229 222.655 213.582 222.64C213.934 222.626 214.285 222.694 214.607 222.84L221.089 226.578C221.609 226.878 221.544 227.402 220.943 227.749L214.521 231.452C214.212 231.624 213.868 231.721 213.515 231.736C213.163 231.75 212.812 231.682 212.49 231.536V231.536Z" fill="#24126A"/>
<path opacity="0.8" d="M222.5 237.309L216.018 233.571C215.498 233.271 215.563 232.747 216.164 232.4L222.586 228.696C222.895 228.525 223.239 228.428 223.592 228.413C223.944 228.398 224.295 228.467 224.617 228.612L231.099 232.35C231.619 232.65 231.554 233.175 230.953 233.521L224.53 237.225C224.222 237.397 223.878 237.494 223.525 237.508C223.173 237.523 222.821 237.455 222.5 237.309V237.309Z" fill="#24126A"/>
<path opacity="0.8" d="M232.51 243.082L226.028 239.344C225.508 239.044 225.573 238.519 226.174 238.173L232.596 234.469C232.904 234.297 233.249 234.2 233.601 234.186C233.954 234.171 234.305 234.239 234.627 234.385L241.108 238.123C241.629 238.423 241.564 238.947 240.963 239.294L234.54 242.998C234.232 243.169 233.888 243.266 233.535 243.281C233.182 243.296 232.831 243.227 232.51 243.082V243.082Z" fill="#24126A"/>
<path opacity="0.8" d="M242.52 248.855L236.038 245.117C235.517 244.816 235.583 244.292 236.184 243.945L242.606 240.242C242.914 240.07 243.259 239.973 243.611 239.958C243.964 239.944 244.315 240.012 244.636 240.158L251.118 243.896C251.639 244.196 251.574 244.72 250.972 245.067L244.55 248.77C244.242 248.942 243.898 249.039 243.545 249.054C243.192 249.068 242.841 249 242.52 248.855V248.855Z" fill="#24126A"/>
<path opacity="0.8" d="M252.53 254.627L246.048 250.889C245.527 250.589 245.593 250.065 246.194 249.718L252.616 246.014C252.924 245.843 253.268 245.746 253.621 245.731C253.974 245.717 254.325 245.785 254.646 245.93L261.128 249.668C261.649 249.969 261.583 250.493 260.982 250.839L254.56 254.543C254.252 254.715 253.907 254.812 253.555 254.826C253.202 254.841 252.851 254.773 252.53 254.627V254.627Z" fill="#24126A"/>
<path opacity="0.8" d="M262.54 260.4L256.058 256.662C255.537 256.362 255.602 255.837 256.204 255.491L262.626 251.787C262.934 251.615 263.278 251.518 263.631 251.504C263.984 251.489 264.335 251.557 264.656 251.703L271.138 255.441C271.658 255.741 271.593 256.265 270.992 256.612L264.57 260.316C264.262 260.487 263.917 260.584 263.565 260.599C263.212 260.614 262.861 260.545 262.54 260.4V260.4Z" fill="#24126A"/>
<path opacity="0.8" d="M272.549 266.173L266.068 262.435C265.547 262.134 265.612 261.61 266.213 261.264L272.636 257.56C272.944 257.388 273.288 257.291 273.641 257.277C273.994 257.262 274.345 257.33 274.666 257.476L281.148 261.214C281.668 261.514 281.603 262.038 281.002 262.385L274.58 266.089C274.271 266.26 273.927 266.357 273.575 266.372C273.222 266.386 272.871 266.318 272.549 266.173V266.173Z" fill="#24126A"/>
<path opacity="0.8" d="M282.559 271.945L276.077 268.207C275.557 267.907 275.622 267.383 276.223 267.036L282.646 263.333C282.954 263.161 283.298 263.064 283.651 263.049C284.003 263.035 284.355 263.103 284.676 263.248L291.158 266.987C291.678 267.287 291.613 267.811 291.012 268.157L284.59 271.861C284.281 272.033 283.937 272.13 283.584 272.145C283.232 272.159 282.881 272.091 282.559 271.945Z" fill="#24126A"/>
<path opacity="0.8" d="M292.569 277.718L286.087 273.98C285.567 273.68 285.632 273.156 286.233 272.809L292.655 269.105C292.964 268.934 293.308 268.837 293.661 268.822C294.013 268.807 294.364 268.876 294.686 269.021L301.168 272.759C301.688 273.059 301.623 273.584 301.022 273.93L294.599 277.634C294.291 277.806 293.947 277.903 293.594 277.917C293.242 277.932 292.89 277.864 292.569 277.718V277.718Z" fill="#24126A"/>
<path opacity="0.8" d="M302.579 283.491L296.097 279.753C295.577 279.453 295.642 278.928 296.243 278.582L302.665 274.878C302.974 274.706 303.318 274.609 303.671 274.595C304.023 274.58 304.374 274.648 304.696 274.794L311.178 278.532C311.698 278.832 311.633 279.356 311.032 279.703L304.609 283.407C304.301 283.578 303.957 283.675 303.604 283.69C303.252 283.704 302.9 283.636 302.579 283.491V283.491Z" fill="#24126A"/>
<path opacity="0.8" d="M227.239 228.804L220.757 225.065C220.237 224.765 220.302 224.241 220.903 223.895L227.325 220.191C227.634 220.019 227.978 219.922 228.331 219.907C228.683 219.893 229.034 219.961 229.356 220.107L235.838 223.845C236.358 224.145 236.293 224.669 235.692 225.016L229.269 228.719C228.961 228.891 228.617 228.988 228.264 229.003C227.912 229.017 227.56 228.949 227.239 228.804V228.804Z" fill="#24126A"/>
<path opacity="0.8" d="M217.08 222.945L210.598 219.207C210.077 218.906 210.143 218.382 210.744 218.036L217.166 214.332C217.474 214.16 217.819 214.063 218.171 214.049C218.524 214.034 218.875 214.102 219.196 214.248L225.678 217.986C226.199 218.286 226.133 218.81 225.533 219.157L219.11 222.861C218.802 223.032 218.458 223.129 218.105 223.144C217.752 223.158 217.401 223.09 217.08 222.945V222.945Z" fill="#24126A"/>
<path opacity="0.8" d="M206.904 217.076L192.944 209.025C192.423 208.725 192.488 208.201 193.089 207.854L199.512 204.151C199.82 203.979 200.164 203.882 200.517 203.867C200.87 203.853 201.221 203.921 201.542 204.067L215.502 212.117C216.023 212.417 215.958 212.942 215.357 213.288L208.934 216.992C208.626 217.164 208.282 217.261 207.929 217.275C207.576 217.29 207.225 217.222 206.904 217.076V217.076Z" fill="#24126A"/>
<path opacity="0.8" d="M214.017 209.939L202.688 203.406C202.167 203.106 202.232 202.582 202.833 202.235L209.256 198.531C209.564 198.36 209.908 198.263 210.261 198.248C210.614 198.233 210.965 198.302 211.286 198.447L222.615 204.981C223.136 205.281 223.07 205.805 222.47 206.152L216.047 209.855C215.739 210.027 215.395 210.124 215.042 210.139C214.689 210.153 214.338 210.085 214.017 209.939V209.939Z" fill="#24126A"/>
<path opacity="0.8" d="M237.249 234.576L230.767 230.838C230.247 230.538 230.312 230.014 230.913 229.667L237.335 225.963C237.644 225.792 237.988 225.695 238.34 225.68C238.693 225.666 239.044 225.734 239.366 225.879L245.847 229.617C246.368 229.918 246.303 230.442 245.702 230.788L239.279 234.492C238.971 234.664 238.627 234.761 238.274 234.775C237.921 234.79 237.57 234.722 237.249 234.576V234.576Z" fill="#24126A"/>
<path opacity="0.8" d="M247.259 240.349L240.777 236.611C240.256 236.311 240.322 235.786 240.923 235.44L247.345 231.736C247.653 231.564 247.998 231.467 248.35 231.453C248.703 231.438 249.054 231.506 249.375 231.652L255.857 235.39C256.378 235.69 256.313 236.214 255.711 236.561L249.289 240.265C248.981 240.436 248.637 240.533 248.284 240.548C247.931 240.563 247.58 240.494 247.259 240.349V240.349Z" fill="#24126A"/>
<path opacity="0.8" d="M257.269 246.122L250.787 242.384C250.266 242.083 250.332 241.559 250.932 241.213L257.355 237.509C257.663 237.337 258.008 237.24 258.36 237.226C258.713 237.211 259.064 237.279 259.385 237.425L265.867 241.163C266.388 241.463 266.322 241.987 265.721 242.334L259.299 246.038C258.991 246.209 258.647 246.306 258.294 246.321C257.941 246.335 257.59 246.267 257.269 246.122Z" fill="#24126A"/>
<path opacity="0.8" d="M267.279 251.894L260.797 248.156C260.276 247.856 260.341 247.332 260.943 246.985L267.365 243.281C267.673 243.11 268.017 243.013 268.37 242.998C268.723 242.984 269.074 243.052 269.395 243.197L275.877 246.936C276.398 247.236 276.332 247.76 275.731 248.106L269.309 251.81C269.001 251.982 268.656 252.079 268.304 252.093C267.951 252.108 267.6 252.04 267.279 251.894V251.894Z" fill="#24126A"/>
<path opacity="0.8" d="M277.288 257.667L270.807 253.929C270.286 253.629 270.351 253.104 270.952 252.758L277.375 249.054C277.683 248.882 278.027 248.785 278.38 248.771C278.733 248.756 279.084 248.824 279.405 248.97L285.887 252.708C286.407 253.008 286.342 253.532 285.741 253.879L279.319 257.583C279.011 257.754 278.666 257.851 278.314 257.866C277.961 257.881 277.61 257.812 277.288 257.667V257.667Z" fill="#24126A"/>
<path opacity="0.8" d="M287.298 263.44L280.816 259.702C280.296 259.402 280.361 258.877 280.962 258.531L287.385 254.827C287.693 254.655 288.037 254.558 288.39 254.544C288.743 254.529 289.094 254.597 289.415 254.743L295.897 258.481C296.417 258.781 296.352 259.305 295.751 259.652L289.329 263.356C289.02 263.527 288.676 263.624 288.323 263.639C287.971 263.654 287.62 263.585 287.298 263.44V263.44Z" fill="#24126A"/>
<path opacity="0.8" d="M297.308 269.212L290.826 265.474C290.306 265.174 290.371 264.65 290.972 264.303L297.395 260.599C297.703 260.428 298.047 260.331 298.4 260.316C298.752 260.302 299.104 260.37 299.425 260.515L305.907 264.253C306.427 264.554 306.362 265.078 305.761 265.424L299.339 269.128C299.03 269.3 298.686 269.397 298.333 269.411C297.981 269.426 297.63 269.358 297.308 269.212V269.212Z" fill="#24126A"/>
<path opacity="0.8" d="M307.318 274.985L300.836 271.247C300.316 270.947 300.381 270.423 300.982 270.076L307.404 266.372C307.713 266.201 308.057 266.104 308.41 266.089C308.762 266.074 309.113 266.143 309.435 266.288L315.917 270.026C316.437 270.326 316.372 270.851 315.771 271.197L309.348 274.901C309.04 275.073 308.696 275.17 308.343 275.184C307.991 275.199 307.639 275.131 307.318 274.985Z" fill="#24126A"/>
<path opacity="0.8" d="M317.328 280.758L310.846 277.02C310.326 276.719 310.391 276.195 310.992 275.849L317.414 272.145C317.723 271.973 318.067 271.876 318.419 271.862C318.772 271.847 319.123 271.915 319.445 272.061L325.927 275.799C326.447 276.099 326.382 276.623 325.781 276.97L319.358 280.673C319.05 280.845 318.706 280.942 318.353 280.957C318.001 280.971 317.649 280.903 317.328 280.758V280.758Z" fill="#24126A"/>
<path opacity="0.8" d="M335.123 291.02L320.981 282.864C320.46 282.564 320.525 282.04 321.126 281.693L327.549 277.989C327.857 277.818 328.201 277.721 328.554 277.706C328.906 277.691 329.258 277.76 329.579 277.905L343.722 286.061C344.242 286.361 344.177 286.886 343.576 287.232L337.154 290.936C336.845 291.108 336.501 291.205 336.148 291.219C335.796 291.234 335.445 291.166 335.123 291.02V291.02Z" fill="#24126A"/>
<path opacity="0.8" d="M354.611 279.782L342.674 272.897C342.154 272.597 342.219 272.073 342.82 271.727L349.242 268.023C349.551 267.851 349.895 267.754 350.248 267.739C350.6 267.725 350.951 267.793 351.273 267.939L363.21 274.823C363.73 275.123 363.665 275.647 363.064 275.994L356.642 279.698C356.333 279.869 355.989 279.966 355.636 279.981C355.284 279.995 354.933 279.927 354.611 279.782Z" fill="#24126A"/>
<path opacity="0.8" d="M254.778 233.447L248.296 229.709C247.776 229.409 247.841 228.884 248.442 228.538L254.865 224.834C255.173 224.662 255.517 224.565 255.87 224.551C256.222 224.536 256.574 224.604 256.895 224.75L263.377 228.488C263.897 228.788 263.832 229.312 263.231 229.659L256.809 233.363C256.501 233.534 256.156 233.631 255.804 233.646C255.451 233.661 255.1 233.592 254.778 233.447V233.447Z" fill="#24126A"/>
<path opacity="0.8" d="M244.519 227.531L238.038 223.792C237.517 223.492 237.582 222.968 238.183 222.622L244.606 218.918C244.914 218.746 245.258 218.649 245.611 218.635C245.964 218.62 246.315 218.688 246.636 218.834L253.118 222.572C253.638 222.872 253.573 223.396 252.972 223.743L246.55 227.446C246.242 227.618 245.897 227.715 245.545 227.73C245.192 227.744 244.841 227.676 244.519 227.531V227.531Z" fill="#24126A"/>
<path opacity="0.8" d="M234.261 221.614L227.779 217.876C227.258 217.576 227.324 217.052 227.924 216.705L234.347 213.001C234.655 212.83 234.999 212.733 235.352 212.718C235.705 212.704 236.056 212.772 236.377 212.917L242.859 216.655C243.38 216.956 243.314 217.48 242.713 217.826L236.291 221.53C235.983 221.702 235.638 221.799 235.286 221.813C234.933 221.828 234.582 221.76 234.261 221.614V221.614Z" fill="#24126A"/>
<path opacity="0.8" d="M224.002 215.698L217.52 211.96C216.999 211.66 217.065 211.135 217.666 210.789L224.088 207.085C224.396 206.913 224.741 206.816 225.093 206.802C225.446 206.787 225.797 206.855 226.118 207.001L232.6 210.739C233.121 211.039 233.055 211.563 232.455 211.91L226.032 215.614C225.724 215.785 225.38 215.882 225.027 215.897C224.674 215.912 224.323 215.843 224.002 215.698Z" fill="#24126A"/>
<path opacity="0.8" d="M264.788 239.22L258.306 235.481C257.786 235.181 257.851 234.657 258.452 234.311L264.875 230.607C265.183 230.435 265.527 230.338 265.88 230.323C266.232 230.309 266.584 230.377 266.905 230.523L273.387 234.261C273.907 234.561 273.842 235.085 273.241 235.432L266.819 239.135C266.51 239.307 266.166 239.404 265.813 239.419C265.461 239.433 265.11 239.365 264.788 239.22V239.22Z" fill="#24126A"/>
<path opacity="0.8" d="M274.798 244.992L268.316 241.254C267.796 240.954 267.861 240.43 268.462 240.083L274.884 236.38C275.193 236.208 275.537 236.111 275.89 236.096C276.242 236.082 276.593 236.15 276.915 236.295L283.397 240.033C283.917 240.334 283.852 240.858 283.251 241.204L276.828 244.908C276.52 245.08 276.176 245.177 275.823 245.191C275.471 245.206 275.119 245.138 274.798 244.992V244.992Z" fill="#24126A"/>
<path opacity="0.8" d="M284.808 250.765L278.326 247.027C277.806 246.727 277.871 246.202 278.472 245.856L284.894 242.152C285.203 241.98 285.547 241.883 285.9 241.869C286.252 241.854 286.603 241.923 286.925 242.068L293.407 245.806C293.927 246.106 293.862 246.631 293.261 246.977L286.838 250.681C286.53 250.853 286.186 250.95 285.833 250.964C285.48 250.979 285.129 250.91 284.808 250.765V250.765Z" fill="#24126A"/>
<path opacity="0.8" d="M294.818 256.537L288.336 252.799C287.816 252.499 287.881 251.975 288.482 251.628L294.904 247.925C295.213 247.753 295.557 247.656 295.909 247.641C296.262 247.627 296.613 247.695 296.935 247.841L303.417 251.579C303.937 251.879 303.872 252.403 303.271 252.75L296.848 256.453C296.54 256.625 296.196 256.722 295.843 256.737C295.491 256.751 295.139 256.683 294.818 256.537V256.537Z" fill="#24126A"/>
<path opacity="0.8" d="M304.828 262.31L298.346 258.572C297.825 258.272 297.891 257.748 298.492 257.401L304.914 253.698C305.222 253.526 305.567 253.429 305.919 253.414C306.272 253.4 306.623 253.468 306.944 253.613L313.426 257.351C313.947 257.652 313.882 258.176 313.281 258.522L306.858 262.226C306.55 262.398 306.206 262.495 305.853 262.509C305.5 262.524 305.149 262.456 304.828 262.31V262.31Z" fill="#24126A"/>
<path opacity="0.8" d="M314.838 268.083L308.356 264.345C307.835 264.045 307.901 263.52 308.502 263.174L314.924 259.47C315.232 259.298 315.576 259.201 315.929 259.187C316.282 259.172 316.633 259.24 316.954 259.386L323.436 263.124C323.957 263.424 323.891 263.948 323.291 264.295L316.868 267.999C316.56 268.17 316.216 268.267 315.863 268.282C315.51 268.297 315.159 268.228 314.838 268.083V268.083Z" fill="#24126A"/>
<path opacity="0.8" d="M324.847 273.855L318.366 270.117C317.845 269.817 317.91 269.293 318.511 268.946L324.934 265.243C325.242 265.071 325.586 264.974 325.939 264.959C326.292 264.945 326.643 265.013 326.964 265.159L333.446 268.897C333.967 269.197 333.901 269.721 333.3 270.068L326.878 273.771C326.57 273.943 326.225 274.04 325.873 274.055C325.52 274.069 325.169 274.001 324.847 273.855V273.855Z" fill="#24126A"/>
<path opacity="0.8" d="M334.857 279.628L328.376 275.89C327.855 275.59 327.92 275.066 328.521 274.719L334.944 271.015C335.252 270.844 335.596 270.747 335.949 270.732C336.302 270.718 336.653 270.786 336.974 270.931L343.456 274.669C343.976 274.97 343.911 275.494 343.31 275.84L336.888 279.544C336.58 279.716 336.235 279.813 335.883 279.827C335.53 279.842 335.179 279.774 334.857 279.628V279.628Z" fill="#24126A"/>
<path opacity="0.8" d="M344.867 285.401L338.386 281.663C337.865 281.362 337.93 280.838 338.531 280.492L344.954 276.788C345.262 276.616 345.606 276.519 345.959 276.505C346.312 276.49 346.663 276.558 346.984 276.704L353.466 280.442C353.986 280.742 353.921 281.266 353.32 281.613L346.898 285.317C346.589 285.488 346.245 285.585 345.893 285.6C345.54 285.614 345.189 285.546 344.867 285.401V285.401Z" fill="#24126A"/>
<path opacity="0.8" d="M249.508 219.168L243.026 215.43C242.505 215.13 242.57 214.606 243.171 214.259L249.594 210.555C249.902 210.384 250.246 210.287 250.599 210.272C250.952 210.258 251.303 210.326 251.624 210.471L258.106 214.209C258.627 214.51 258.561 215.034 257.96 215.38L251.538 219.084C251.23 219.256 250.885 219.353 250.533 219.367C250.18 219.382 249.829 219.314 249.508 219.168V219.168Z" fill="#24126A"/>
<path opacity="0.8" d="M239.547 213.424L233.066 209.686C232.545 209.386 232.61 208.862 233.211 208.515L239.634 204.812C239.942 204.64 240.286 204.543 240.639 204.528C240.992 204.514 241.343 204.582 241.664 204.727L248.146 208.466C248.666 208.766 248.601 209.29 248 209.636L241.578 213.34C241.27 213.512 240.925 213.609 240.573 213.624C240.22 213.638 239.869 213.57 239.547 213.424V213.424Z" fill="#24126A"/>
<path opacity="0.8" d="M229.587 207.68L223.106 203.943C222.585 203.642 222.65 203.118 223.251 202.771L229.674 199.068C229.982 198.896 230.326 198.799 230.679 198.784C231.032 198.77 231.383 198.838 231.704 198.984L238.186 202.722C238.706 203.022 238.641 203.546 238.04 203.893L231.618 207.596C231.31 207.768 230.965 207.865 230.613 207.88C230.26 207.894 229.909 207.826 229.587 207.68V207.68Z" fill="#24126A"/>
<path opacity="0.8" d="M219.627 201.936L213.145 198.198C212.625 197.898 212.69 197.374 213.291 197.027L219.714 193.324C220.022 193.152 220.366 193.055 220.719 193.04C221.071 193.026 221.423 193.094 221.744 193.239L228.226 196.977C228.746 197.278 228.681 197.802 228.08 198.148L221.658 201.852C221.349 202.024 221.005 202.121 220.652 202.136C220.3 202.15 219.949 202.082 219.627 201.936V201.936Z" fill="#24126A"/>
<path opacity="0.8" d="M229.869 196.03L223.387 192.292C222.867 191.992 222.932 191.467 223.533 191.121L225.656 189.896C225.965 189.725 226.309 189.628 226.661 189.613C227.014 189.599 227.365 189.667 227.687 189.812L234.169 193.551C234.689 193.851 234.624 194.375 234.023 194.721L231.9 195.946C231.591 196.117 231.247 196.214 230.894 196.229C230.542 196.244 230.191 196.175 229.869 196.03V196.03Z" fill="#24126A"/>
<path opacity="0.8" d="M242.867 203.526L236.385 199.788C235.865 199.488 235.93 198.963 236.531 198.617L238.654 197.392C238.963 197.221 239.307 197.124 239.659 197.109C240.012 197.095 240.363 197.163 240.685 197.308L247.166 201.046C247.687 201.346 247.622 201.871 247.021 202.217L244.898 203.442C244.589 203.613 244.245 203.71 243.892 203.725C243.54 203.74 243.189 203.671 242.867 203.526V203.526Z" fill="#24126A"/>
<path opacity="0.8" d="M252.786 209.246L246.304 205.508C245.783 205.208 245.849 204.683 246.45 204.337L248.573 203.113C248.881 202.941 249.225 202.844 249.578 202.829C249.931 202.815 250.282 202.883 250.603 203.028L257.085 206.767C257.605 207.067 257.54 207.591 256.939 207.937L254.816 209.162C254.508 209.333 254.164 209.43 253.811 209.445C253.458 209.46 253.107 209.391 252.786 209.246Z" fill="#24126A"/>
<path opacity="0.8" d="M262.704 214.966L256.223 211.228C255.702 210.928 255.767 210.403 256.368 210.057L258.491 208.832C258.8 208.661 259.144 208.564 259.497 208.549C259.849 208.534 260.2 208.603 260.522 208.748L267.004 212.486C267.524 212.786 267.459 213.311 266.858 213.657L264.735 214.882C264.426 215.053 264.082 215.15 263.73 215.165C263.377 215.18 263.026 215.111 262.704 214.966Z" fill="#24126A"/>
<path opacity="0.8" d="M272.623 220.686L266.141 216.948C265.621 216.648 265.686 216.123 266.287 215.777L268.41 214.552C268.718 214.381 269.062 214.284 269.415 214.269C269.768 214.255 270.119 214.323 270.44 214.468L276.922 218.207C277.443 218.507 277.377 219.031 276.776 219.377L274.653 220.602C274.345 220.773 274.001 220.87 273.648 220.885C273.295 220.9 272.944 220.831 272.623 220.686V220.686Z" fill="#24126A"/>
<path opacity="0.8" d="M327.997 252.62L321.515 248.882C320.994 248.582 321.06 248.058 321.661 247.711L323.784 246.487C324.092 246.315 324.436 246.218 324.789 246.203C325.142 246.189 325.493 246.257 325.814 246.403L332.296 250.141C332.817 250.441 332.751 250.965 332.15 251.311L330.027 252.536C329.719 252.708 329.375 252.805 329.022 252.819C328.669 252.834 328.318 252.766 327.997 252.62V252.62Z" fill="#24126A"/>
<path opacity="0.8" d="M337.915 258.34L331.434 254.602C330.913 254.302 330.978 253.778 331.579 253.431L333.702 252.207C334.011 252.035 334.355 251.938 334.708 251.924C335.06 251.909 335.411 251.977 335.733 252.123L342.215 255.861C342.735 256.161 342.67 256.685 342.069 257.032L339.946 258.256C339.638 258.428 339.293 258.525 338.941 258.539C338.588 258.554 338.237 258.486 337.915 258.34V258.34Z" fill="#24126A"/>
<path opacity="0.8" d="M347.834 264.06L341.352 260.322C340.832 260.022 340.897 259.498 341.498 259.151L343.621 257.927C343.929 257.755 344.274 257.658 344.626 257.643C344.979 257.629 345.33 257.697 345.651 257.842L352.133 261.581C352.654 261.881 352.588 262.405 351.987 262.751L349.864 263.976C349.556 264.148 349.212 264.245 348.859 264.259C348.507 264.274 348.155 264.206 347.834 264.06V264.06Z" fill="#24126A"/>
<path opacity="0.8" d="M357.753 269.78L351.271 266.042C350.75 265.742 350.816 265.218 351.417 264.871L353.54 263.647C353.848 263.475 354.192 263.378 354.545 263.364C354.897 263.349 355.249 263.417 355.57 263.563L362.052 267.301C362.572 267.601 362.507 268.125 361.906 268.472L359.783 269.696C359.475 269.868 359.13 269.965 358.778 269.979C358.425 269.994 358.074 269.926 357.753 269.78V269.78Z" fill="#24126A"/>
<path opacity="0.8" d="M259.517 224.941L253.036 221.203C252.515 220.903 252.58 220.379 253.181 220.032L259.604 216.328C259.912 216.157 260.256 216.059 260.609 216.045C260.962 216.03 261.313 216.099 261.634 216.244L268.116 219.982C268.636 220.282 268.571 220.807 267.97 221.153L261.548 224.857C261.24 225.029 260.895 225.126 260.543 225.14C260.19 225.155 259.839 225.087 259.517 224.941V224.941Z" fill="#24126A"/>
<path opacity="0.8" d="M269.527 230.714L263.045 226.976C262.525 226.675 262.59 226.151 263.191 225.805L269.614 222.101C269.922 221.929 270.266 221.832 270.619 221.818C270.971 221.803 271.323 221.871 271.644 222.017L278.126 225.755C278.646 226.055 278.581 226.579 277.98 226.926L271.558 230.629C271.249 230.801 270.905 230.898 270.553 230.913C270.2 230.927 269.849 230.859 269.527 230.714V230.714Z" fill="#24126A"/>
<path opacity="0.8" d="M279.537 236.486L273.055 232.748C272.535 232.448 272.6 231.924 273.201 231.577L279.624 227.874C279.932 227.702 280.276 227.605 280.629 227.59C280.981 227.576 281.333 227.644 281.654 227.789L288.136 231.528C288.656 231.828 288.591 232.352 287.99 232.699L281.568 236.402C281.259 236.574 280.915 236.671 280.562 236.686C280.21 236.7 279.859 236.632 279.537 236.486V236.486Z" fill="#24126A"/>
<path opacity="0.8" d="M289.547 242.259L283.065 238.521C282.545 238.221 282.61 237.697 283.211 237.35L289.633 233.646C289.942 233.475 290.286 233.378 290.639 233.363C290.991 233.348 291.342 233.417 291.664 233.562L298.146 237.3C298.666 237.6 298.601 238.125 298 238.471L291.577 242.175C291.269 242.347 290.925 242.444 290.572 242.458C290.22 242.473 289.868 242.405 289.547 242.259V242.259Z" fill="#24126A"/>
<path opacity="0.8" d="M299.557 248.032L293.075 244.294C292.555 243.994 292.62 243.469 293.221 243.123L299.643 239.419C299.952 239.247 300.296 239.15 300.649 239.136C301.001 239.121 301.352 239.189 301.674 239.335L308.155 243.073C308.676 243.373 308.611 243.897 308.01 244.244L301.587 247.948C301.279 248.119 300.935 248.216 300.582 248.231C300.229 248.246 299.878 248.177 299.557 248.032V248.032Z" fill="#24126A"/>
<path opacity="0.8" d="M309.567 253.804L303.085 250.066C302.565 249.766 302.63 249.242 303.231 248.895L309.653 245.192C309.961 245.02 310.306 244.923 310.658 244.908C311.011 244.894 311.362 244.962 311.684 245.108L318.166 248.846C318.686 249.146 318.621 249.67 318.02 250.017L311.597 253.72C311.289 253.892 310.945 253.989 310.592 254.004C310.239 254.018 309.888 253.95 309.567 253.804Z" fill="#24126A"/>
<path opacity="0.8" d="M319.577 259.577L313.095 255.839C312.574 255.539 312.64 255.015 313.241 254.668L319.663 250.964C319.971 250.793 320.316 250.696 320.668 250.681C321.021 250.667 321.372 250.735 321.693 250.88L328.175 254.618C328.696 254.918 328.631 255.443 328.029 255.789L321.607 259.493C321.299 259.665 320.955 259.762 320.602 259.776C320.249 259.791 319.898 259.723 319.577 259.577V259.577Z" fill="#24126A"/>
<path opacity="0.8" d="M329.587 265.35L323.105 261.612C322.584 261.312 322.65 260.787 323.25 260.441L329.673 256.737C329.981 256.565 330.325 256.468 330.678 256.454C331.031 256.439 331.382 256.507 331.703 256.653L338.185 260.391C338.706 260.691 338.64 261.215 338.039 261.562L331.617 265.266C331.309 265.437 330.964 265.534 330.612 265.549C330.259 265.564 329.908 265.495 329.587 265.35V265.35Z" fill="#24126A"/>
<path opacity="0.8" d="M339.596 271.123L333.115 267.384C332.594 267.084 332.659 266.56 333.26 266.214L339.683 262.51C339.991 262.338 340.335 262.241 340.688 262.227C341.041 262.212 341.392 262.28 341.713 262.426L348.195 266.164C348.715 266.464 348.65 266.988 348.049 267.335L341.627 271.039C341.319 271.21 340.974 271.307 340.622 271.322C340.269 271.336 339.918 271.268 339.596 271.123Z" fill="#24126A"/>
<path opacity="0.8" d="M202.289 225.654L183.2 214.645C182.679 214.345 182.744 213.82 183.345 213.474L189.768 209.77C190.076 209.598 190.42 209.501 190.773 209.487C191.126 209.472 191.477 209.54 191.798 209.686L210.888 220.695C211.408 220.995 211.343 221.519 210.742 221.866L204.32 225.57C204.011 225.741 203.667 225.838 203.315 225.853C202.962 225.868 202.611 225.799 202.289 225.654V225.654Z" fill="#24126A"/>
<path opacity="0.8" d="M325.263 296.572L306.173 285.564C305.653 285.263 305.718 284.739 306.319 284.393L312.742 280.689C313.05 280.517 313.394 280.42 313.747 280.405C314.1 280.391 314.451 280.459 314.772 280.605L333.862 291.614C334.382 291.914 334.317 292.438 333.716 292.785L327.294 296.488C326.985 296.66 326.641 296.757 326.288 296.772C325.936 296.786 325.585 296.718 325.263 296.572V296.572Z" fill="#24126A"/>
<path opacity="0.8" d="M285.232 286.238L278.75 282.5C278.23 282.2 278.295 281.676 278.896 281.329L286.547 276.917C286.855 276.745 287.199 276.648 287.552 276.634C287.905 276.619 288.256 276.687 288.577 276.833L295.059 280.571C295.58 280.871 295.514 281.395 294.913 281.742L287.263 286.154C286.954 286.326 286.61 286.423 286.257 286.437C285.905 286.452 285.554 286.384 285.232 286.238Z" fill="#24126A"/>
<path opacity="0.8" d="M212.54 244.317L202.174 238.338C201.653 238.038 201.719 237.514 202.32 237.168L209.971 232.755C210.279 232.584 210.623 232.487 210.976 232.472C211.328 232.458 211.679 232.526 212.001 232.671L222.367 238.65C222.888 238.95 222.822 239.474 222.221 239.82L214.571 244.233C214.262 244.404 213.918 244.501 213.565 244.516C213.213 244.53 212.862 244.462 212.54 244.317V244.317Z" fill="#24126A"/>
<path opacity="0.8" d="M275.588 280.676L265.221 274.698C264.701 274.398 264.766 273.873 265.367 273.527L273.018 269.114C273.326 268.943 273.67 268.846 274.023 268.831C274.376 268.817 274.727 268.885 275.048 269.03L285.414 275.009C285.935 275.309 285.87 275.833 285.269 276.18L277.618 280.592C277.31 280.763 276.965 280.86 276.613 280.875C276.26 280.89 275.909 280.821 275.588 280.676V280.676Z" fill="#24126A"/>
<path opacity="0.8" d="M226.982 252.645L216.616 246.667C216.096 246.367 216.161 245.843 216.762 245.496L224.413 241.084C224.721 240.912 225.065 240.815 225.418 240.801C225.77 240.786 226.122 240.854 226.443 241L236.809 246.978C237.33 247.278 237.264 247.802 236.663 248.149L229.013 252.561C228.704 252.733 228.36 252.83 228.007 252.845C227.655 252.859 227.304 252.791 226.982 252.645V252.645Z" fill="#24126A"/>
<path opacity="0.8" d="M226.513 241.04L271.583 267.032C271.705 267.073 271.811 267.152 271.886 267.256C271.962 267.361 272.002 267.487 272.002 267.616C272.002 267.745 271.962 267.87 271.886 267.975C271.811 268.08 271.705 268.158 271.583 268.2L263.781 272.699C263.467 272.858 263.12 272.941 262.768 272.941C262.416 272.941 262.069 272.858 261.756 272.699L216.686 246.708L226.513 241.04Z" fill="#24126A"/>
<path opacity="0.8" d="M313.208 296.705L320.428 300.868C320.855 301.114 320.801 301.544 320.309 301.828L317.179 303.633C316.926 303.774 316.644 303.853 316.355 303.865C316.066 303.877 315.778 303.821 315.515 303.702L308.295 299.538C307.868 299.292 307.922 298.862 308.414 298.579L311.544 296.774C311.797 296.633 312.079 296.553 312.368 296.541C312.657 296.529 312.945 296.585 313.208 296.705V296.705Z" fill="#24126A"/>
<path opacity="0.8" d="M303.115 290.884L310.335 295.048C310.762 295.294 310.708 295.724 310.216 296.008L307.086 297.813C306.833 297.953 306.551 298.033 306.262 298.045C305.973 298.057 305.685 298.001 305.422 297.881L298.202 293.718C297.775 293.472 297.829 293.042 298.321 292.758L301.451 290.953C301.704 290.812 301.986 290.733 302.275 290.721C302.564 290.709 302.852 290.765 303.115 290.884Z" fill="#24126A"/>
<path opacity="0.8" d="M293.106 285.111L300.325 289.275C300.752 289.521 300.699 289.951 300.206 290.235L297.076 292.04C296.824 292.18 296.541 292.26 296.252 292.272C295.963 292.284 295.675 292.228 295.412 292.109L288.192 287.945C287.765 287.699 287.819 287.269 288.311 286.985L291.441 285.18C291.694 285.039 291.976 284.96 292.265 284.948C292.554 284.936 292.842 284.992 293.106 285.111V285.111Z" fill="#24126A"/>
<path opacity="0.8" d="M308.643 287.696L315.863 291.86C316.29 292.106 316.236 292.536 315.744 292.82L312.614 294.625C312.361 294.765 312.079 294.845 311.79 294.857C311.501 294.869 311.213 294.813 310.95 294.694L303.729 290.53C303.303 290.284 303.356 289.854 303.849 289.57L306.979 287.765C307.231 287.624 307.514 287.545 307.803 287.533C308.092 287.521 308.379 287.577 308.643 287.696V287.696Z" fill="#24126A"/>
</g>
<path d="M410.763 132.129C410.23 132.12 409.709 131.97 409.252 131.697C408.495 131.248 407.889 130.584 407.512 129.789C407.136 128.994 407.005 128.105 407.137 127.236C407.204 126.886 407.355 126.557 407.575 126.277C407.796 125.997 408.081 125.773 408.405 125.626C408.798 125.476 409.219 125.422 409.637 125.466C410.054 125.51 410.455 125.651 410.808 125.878C411.565 126.328 412.17 126.992 412.547 127.787C412.924 128.582 413.055 129.471 412.923 130.341C412.834 130.846 412.568 131.304 412.172 131.632C411.777 131.959 411.277 132.136 410.763 132.129V132.129ZM409.3 126.138C409.088 126.136 408.877 126.178 408.682 126.262C408.458 126.368 408.261 126.526 408.11 126.722C407.959 126.919 407.857 127.149 407.813 127.393C407.708 128.118 407.823 128.858 408.141 129.517C408.46 130.177 408.968 130.726 409.601 131.096C409.859 131.268 410.155 131.378 410.463 131.416C410.772 131.454 411.085 131.419 411.378 131.315C411.603 131.209 411.799 131.051 411.95 130.854C412.102 130.657 412.204 130.427 412.248 130.183C412.352 129.458 412.237 128.718 411.919 128.059C411.601 127.399 411.092 126.849 410.46 126.479C410.109 126.267 409.71 126.149 409.3 126.138V126.138Z" fill="white"/>
<path d="M419.016 136.889C418.483 136.879 417.963 136.73 417.505 136.457C416.748 136.008 416.142 135.344 415.765 134.549C415.389 133.754 415.258 132.865 415.39 131.996C415.457 131.646 415.608 131.317 415.828 131.037C416.049 130.756 416.334 130.533 416.658 130.385C417.051 130.236 417.472 130.181 417.89 130.225C418.307 130.269 418.708 130.411 419.061 130.638C419.818 131.088 420.423 131.752 420.8 132.547C421.177 133.342 421.308 134.231 421.176 135.1C421.087 135.606 420.821 136.064 420.425 136.391C420.03 136.719 419.53 136.895 419.016 136.889V136.889ZM417.553 130.898C417.341 130.896 417.13 130.938 416.935 131.022C416.711 131.127 416.514 131.285 416.363 131.482C416.212 131.679 416.11 131.909 416.066 132.153C415.961 132.878 416.076 133.618 416.394 134.277C416.713 134.937 417.221 135.486 417.854 135.856C418.112 136.028 418.408 136.137 418.716 136.175C419.025 136.213 419.338 136.179 419.631 136.074C419.856 135.969 420.052 135.811 420.203 135.614C420.355 135.417 420.456 135.187 420.5 134.943C420.605 134.218 420.49 133.478 420.172 132.819C419.853 132.159 419.345 131.609 418.713 131.239C418.362 131.026 417.963 130.909 417.553 130.898V130.898Z" fill="white"/>
<path d="M429.093 139.781C429.023 140.109 428.87 140.415 428.649 140.668C428.428 140.921 428.146 141.114 427.83 141.228C427.513 141.341 427.173 141.372 426.841 141.318C426.509 141.263 426.197 141.125 425.934 140.916C425.238 140.507 424.681 139.9 424.333 139.173C423.985 138.445 423.863 137.631 423.982 136.833C424.052 136.505 424.204 136.199 424.425 135.946C424.646 135.693 424.928 135.5 425.245 135.387C425.561 135.273 425.902 135.242 426.233 135.296C426.565 135.351 426.878 135.489 427.141 135.698C427.837 136.107 428.394 136.714 428.742 137.442C429.089 138.169 429.212 138.984 429.093 139.781Z" fill="white"/>
<path d="M270.841 48.8137L266.426 46.2678L266.768 44.229L271.182 46.7749L270.841 48.8137Z" fill="white"/>
<path d="M277.257 52.5139L272.844 49.968L273.185 47.9292L277.6 50.4751L277.257 52.5139Z" fill="white"/>
<path d="M264.49 45.1504L254.809 39.5684L255.152 37.5295L264.832 43.1131L264.49 45.1504Z" fill="white"/>
<path d="M265.708 83.6198L258.321 79.3595L258.608 77.6526L265.995 81.9145L265.708 83.6198Z" fill="white"/>
<path d="M272.013 87.256L268.319 85.1258L268.606 83.4189L272.299 85.5506L272.013 87.256Z" fill="white"/>
<path d="M267.217 88.8761L264.069 87.0611L264.356 85.3557L267.504 87.1707L267.217 88.8761Z" fill="white"/>
<path d="M272.49 91.9166L268.797 89.7864L269.082 88.0811L272.777 90.2112L272.49 91.9166Z" fill="white"/>
<path d="M277.915 99.4323L263.399 91.0608L263.685 89.3555L278.202 97.7269L277.915 99.4323Z" fill="white"/>
<path d="M265.332 132.917L250.814 124.545L251.1 122.838L265.617 131.211L265.332 132.917Z" fill="white"/>
<path d="M270.914 136.136L267.22 134.005L267.505 132.3L271.2 134.43L270.914 136.136Z" fill="white"/>
<path d="M265.874 96.8758L262.727 95.0608L263.013 93.3555L266.161 95.1705L265.874 96.8758Z" fill="white"/>
<path d="M271.147 99.9166L267.454 97.7864L267.74 96.0811L271.434 98.2112L271.147 99.9166Z" fill="white"/>
<path d="M270.036 103.662L262.056 99.0611L262.342 97.3557L270.322 101.957L270.036 103.662Z" fill="white"/>
<path d="M275.377 106.744L271.684 104.614L271.97 102.907L275.664 105.037L275.377 106.744Z" fill="white"/>
<path d="M280.747 109.841L277.054 107.71L277.341 106.004L281.034 108.134L280.747 109.841Z" fill="white"/>
<path d="M289.413 114.838L282.424 110.806L282.709 109.101L289.7 113.132L289.413 114.838Z" fill="white"/>
<path d="M283.882 120.422L280.187 118.292L280.473 116.585L284.168 118.715L283.882 120.422Z" fill="white"/>
<path d="M292.548 125.419L285.557 121.387L285.843 119.682L292.833 123.714L292.548 125.419Z" fill="white"/>
<path d="M264.406 109.191L260.713 107.061L260.999 105.354L264.693 107.484L264.406 109.191Z" fill="white"/>
<path d="M269.777 112.286L266.082 110.156L266.368 108.451L270.063 110.581L269.777 112.286Z" fill="white"/>
<path d="M278.443 117.285L271.452 113.253L271.738 111.548L278.728 115.579L278.443 117.285Z" fill="white"/>
<path d="M289.798 119.446L286.104 117.316L286.389 115.611L290.084 117.741L289.798 119.446Z" fill="white"/>
<path d="M295.166 122.543L291.473 120.413L291.759 118.708L295.453 120.838L295.166 122.543Z" fill="white"/>
<path d="M303.832 127.54L296.843 123.51L297.13 121.803L304.119 125.835L303.832 127.54Z" fill="white"/>
<path d="M276.693 139.469L272.999 137.339L273.286 135.633L276.979 137.763L276.693 139.469Z" fill="white"/>
<path d="M285.359 144.466L278.369 140.436L278.654 138.73L285.645 142.761L285.359 144.466Z" fill="white"/>
<path d="M263.063 117.19L259.37 115.059L259.656 113.354L263.35 115.484L263.063 117.19Z" fill="white"/>
<path d="M271.729 122.188L264.74 118.156L265.025 116.451L272.016 120.481L271.729 122.188Z" fill="white"/>
<path d="M280.717 146.176L277.023 144.046L277.309 142.34L281.004 144.471L280.717 146.176Z" fill="white"/>
<path d="M289.383 151.173L282.392 147.143L282.679 145.438L289.668 149.468L289.383 151.173Z" fill="white"/>
<path d="M288.958 105.802L285.264 103.671L285.551 101.965L289.244 104.096L288.958 105.802Z" fill="white"/>
<path d="M283.372 102.58L279.679 100.449L279.965 98.7441L283.659 100.874L283.372 102.58Z" fill="white"/>
<path d="M297.624 110.799L290.633 106.767L290.92 105.062L297.91 109.093L297.624 110.799Z" fill="white"/>
<path d="M264.717 104.982L261.384 103.061L261.67 101.354L265.004 103.277L264.717 104.982Z" fill="white"/>
<path d="M274.6 110.682L266.499 106.01L266.786 104.305L274.886 108.976L274.6 110.682Z" fill="white"/>
<path d="M284.484 116.382L276.382 111.71L276.668 110.004L284.769 114.676L284.484 116.382Z" fill="white"/>
<path d="M302.758 113.759L299.424 111.837L299.711 110.132L303.044 112.054L302.758 113.759Z" fill="white"/>
<path d="M312.64 119.46L304.54 114.787L304.826 113.081L312.927 117.753L312.64 119.46Z" fill="white"/>
<path d="M322.524 125.159L314.422 120.487L314.709 118.781L322.809 123.452L322.524 125.159Z" fill="white"/>
<path d="M268.214 115.773L260.112 111.102L260.399 109.395L268.501 114.068L268.214 115.773Z" fill="white"/>
<path d="M272.484 118.235L269.996 116.801L270.283 115.096L272.77 116.53L272.484 118.235Z" fill="white"/>
<path d="M276.764 120.704L274.275 119.269L274.562 117.562L277.051 118.998L276.764 120.704Z" fill="white"/>
<path d="M284.676 125.267L278.555 121.738L278.842 120.031L284.962 123.562L284.676 125.267Z" fill="white"/>
<path d="M293.544 117.22L291.057 115.786L291.343 114.08L293.831 115.515L293.544 117.22Z" fill="white"/>
<path d="M301.457 121.783L295.336 118.254L295.622 116.548L301.744 120.078L301.457 121.783Z" fill="white"/>
<path d="M303.121 122.742L297 119.213L297.285 117.508L303.407 121.037L303.121 122.742Z" fill="white"/>
<path d="M270.534 144.691L262.554 140.088L262.839 138.383L270.821 142.986L270.534 144.691Z" fill="white"/>
<path d="M275.876 147.772L272.182 145.641L272.469 143.936L276.162 146.066L275.876 147.772Z" fill="white"/>
<path d="M281.246 150.869L277.552 148.739L277.837 147.032L281.533 149.163L281.246 150.869Z" fill="white"/>
<path d="M289.912 155.866L282.921 151.836L283.208 150.129L290.198 154.161L289.912 155.866Z" fill="white"/>
<path d="M295.455 159.064L291.761 156.932L292.048 155.227L295.741 157.357L295.455 159.064Z" fill="white"/>
<path d="M304.12 164.061L297.13 160.029L297.416 158.324L304.407 162.354L304.12 164.061Z" fill="white"/>
<path d="M277.537 157.505L273.844 155.373L274.129 153.667L277.824 155.798L277.537 157.505Z" fill="white"/>
<path d="M286.203 162.502L279.212 158.47L279.499 156.764L286.49 160.795L286.203 162.502Z" fill="white"/>
<path d="M258.243 146.377L254.55 144.247L254.835 142.542L258.53 144.672L258.243 146.377Z" fill="white"/>
<path d="M263.612 149.474L259.919 147.344L260.205 145.637L263.899 147.767L263.612 149.474Z" fill="white"/>
<path d="M272.278 154.471L265.289 150.439L265.576 148.734L272.565 152.766L272.278 154.471Z" fill="white"/>
<path d="M265.214 146.01L261.882 144.088L262.169 142.383L265.501 144.305L265.214 146.01Z" fill="white"/>
<path d="M275.098 151.711L266.998 147.038L267.283 145.333L275.385 150.004L275.098 151.711Z" fill="white"/>
<path d="M284.981 157.41L276.88 152.739L277.167 151.032L285.267 155.705L284.981 157.41Z" fill="white"/>
<path d="M255.516 149.191L247.416 144.519L247.702 142.814L255.803 147.485L255.516 149.191Z" fill="white"/>
<path d="M259.786 151.654L257.298 150.219L257.585 148.513L260.073 149.948L259.786 151.654Z" fill="white"/>
<path d="M264.066 154.123L261.579 152.687L261.864 150.981L264.353 152.416L264.066 154.123Z" fill="white"/>
<path d="M271.978 158.684L265.858 155.155L266.144 153.449L272.264 156.979L271.978 158.684Z" fill="white"/>
<path d="M273.641 159.644L267.521 156.114L267.807 154.409L273.927 157.938L273.641 159.644Z" fill="white"/>
<path d="M259.166 133.748L256.676 132.312L256.963 130.607L259.451 132.041L259.166 133.748Z" fill="white"/>
<path d="M267.077 138.31L260.957 134.781L261.243 133.075L267.364 136.605L267.077 138.31Z" fill="white"/>
<path d="M275.161 142.972L269.04 139.443L269.325 137.736L275.447 141.267L275.161 142.972Z" fill="white"/>
<path d="M306.311 169.712L302.617 167.581L302.904 165.875L306.598 168.005L306.311 169.712Z" fill="white"/>
<path d="M314.977 174.709L307.988 170.677L308.273 168.971L315.264 173.003L314.977 174.709Z" fill="white"/>
<path d="M292.673 161.845L286.551 158.314L286.837 156.609L292.958 160.139L292.673 161.845Z" fill="white"/>
<path d="M300.756 166.506L294.634 162.977L294.921 161.271L301.041 164.801L300.756 166.506Z" fill="white"/>
<path d="M254.838 116.833L252.35 115.399L252.635 113.692L255.125 115.128L254.838 116.833Z" fill="white"/>
<path d="M262.749 121.397L256.629 117.866L256.916 116.16L263.036 119.69L262.749 121.397Z" fill="white"/>
<path d="M270.833 126.057L264.713 122.528L264.999 120.823L271.12 124.352L270.833 126.057Z" fill="white"/>
<path d="M392.959 188.237C392.355 188.225 391.765 188.054 391.247 187.742L341.774 159.211C340.722 158.499 339.891 157.505 339.376 156.343C338.861 155.182 338.683 153.9 338.862 152.642L342.027 133.787C342.088 133.223 342.284 132.681 342.601 132.209C342.917 131.737 343.343 131.348 343.842 131.077C344.302 130.878 344.803 130.796 345.303 130.838C345.802 130.88 346.283 131.044 346.703 131.316L396.178 159.848C397.23 160.561 398.06 161.554 398.575 162.715C399.089 163.876 399.267 165.159 399.088 166.416L395.923 185.27C395.863 185.835 395.667 186.377 395.351 186.849C395.034 187.321 394.608 187.71 394.109 187.981C393.749 188.151 393.357 188.238 392.959 188.237V188.237ZM344.99 131.517C344.695 131.515 344.404 131.579 344.138 131.704C343.741 131.929 343.404 132.247 343.156 132.63C342.907 133.012 342.755 133.449 342.712 133.903L339.547 152.758C339.385 153.877 339.54 155.018 339.995 156.053C340.451 157.088 341.188 157.974 342.122 158.611L391.596 187.141C391.919 187.356 392.29 187.489 392.677 187.526C393.064 187.563 393.454 187.505 393.812 187.355C394.21 187.13 394.547 186.812 394.795 186.429C395.043 186.046 395.195 185.609 395.238 185.154L398.403 166.3C398.566 165.182 398.411 164.04 397.956 163.006C397.501 161.971 396.764 161.085 395.829 160.449L346.355 131.917C345.943 131.666 345.472 131.528 344.99 131.517V131.517Z" fill="white"/>
<path d="M387.52 220.637C386.916 220.626 386.325 220.456 385.808 220.144L336.335 191.612C335.283 190.899 334.452 189.906 333.937 188.745C333.422 187.583 333.244 186.301 333.423 185.044L336.589 166.188C336.649 165.624 336.845 165.082 337.161 164.61C337.477 164.139 337.902 163.75 338.401 163.479C338.861 163.279 339.363 163.196 339.863 163.238C340.363 163.28 340.844 163.444 341.265 163.717L390.738 192.248C391.79 192.961 392.621 193.955 393.135 195.116C393.65 196.277 393.828 197.559 393.649 198.816L390.484 217.671C390.423 218.236 390.227 218.777 389.911 219.249C389.595 219.722 389.169 220.11 388.669 220.381C388.31 220.551 387.917 220.638 387.52 220.637V220.637ZM386.156 219.543C386.48 219.758 386.851 219.89 387.238 219.927C387.624 219.964 388.014 219.905 388.373 219.756C388.77 219.53 389.107 219.213 389.356 218.83C389.604 218.447 389.756 218.009 389.799 217.555L392.964 198.7C393.126 197.582 392.971 196.441 392.516 195.406C392.061 194.372 391.324 193.486 390.39 192.849L340.917 164.317C340.593 164.103 340.221 163.971 339.834 163.934C339.446 163.897 339.056 163.956 338.697 164.105C338.301 164.33 337.964 164.647 337.716 165.03C337.469 165.412 337.317 165.849 337.274 166.302L334.108 185.159C333.946 186.277 334.101 187.419 334.556 188.453C335.012 189.488 335.748 190.374 336.683 191.011L386.156 219.543Z" fill="white"/>
<path style="mix-blend-mode:lighten" opacity="0.5" d="M346.219 157.179C347.095 157.684 347.876 157.495 348.165 156.707L353.933 140.962C354.592 139.163 357.285 140.789 357.854 143.329L361.406 159.176C361.671 160.342 362.379 161.36 363.381 162.015L364.23 162.504C365.054 162.98 365.799 162.843 366.124 162.156L367.299 159.668C368.027 158.126 370.455 159.581 371.117 161.956C371.414 163.04 372.098 163.978 373.041 164.592L373.782 165.019C374.681 165.537 375.476 165.324 375.747 164.492L376.818 161.204C377.422 159.349 380.122 160.894 380.742 163.45L384.296 178.119C384.575 179.271 385.288 180.271 386.287 180.909L346.219 157.179Z" fill="url(#paint6_linear)"/>
<path d="M380.026 213.182C378.942 212.497 378.167 211.417 377.866 210.171L374.311 195.5C373.935 193.941 372.665 192.738 371.783 192.704C371.613 192.695 371.445 192.749 371.311 192.855C371.177 192.961 371.086 193.112 371.056 193.28L369.985 196.568C369.926 196.782 369.818 196.979 369.67 197.144C369.522 197.309 369.338 197.438 369.132 197.521C368.863 197.606 368.577 197.629 368.297 197.589C368.017 197.548 367.75 197.445 367.516 197.288L366.776 196.861C365.753 196.203 365.01 195.189 364.69 194.017C364.557 193.396 364.261 192.821 363.832 192.353C363.403 191.885 362.856 191.539 362.249 191.352C362.096 191.329 361.94 191.36 361.807 191.439C361.675 191.519 361.574 191.641 361.521 191.786L360.346 194.272C360.268 194.452 360.152 194.613 360.006 194.745C359.86 194.876 359.688 194.975 359.501 195.035C359.24 195.101 358.969 195.112 358.704 195.067C358.439 195.022 358.187 194.922 357.963 194.773L357.115 194.284C356.028 193.582 355.26 192.482 354.975 191.221L351.422 175.375C351.309 174.712 351.014 174.095 350.57 173.59C350.126 173.086 349.551 172.714 348.908 172.517C348.741 172.504 348.576 172.551 348.441 172.648C348.305 172.746 348.209 172.888 348.168 173.049L342.398 188.796C342.332 188.999 342.222 189.185 342.074 189.34C341.927 189.495 341.746 189.615 341.546 189.691C341.279 189.77 340.998 189.789 340.723 189.747C340.448 189.705 340.185 189.603 339.954 189.449L340.302 188.848C340.446 188.95 340.611 189.02 340.785 189.053C340.959 189.086 341.138 189.081 341.31 189.038C341.414 188.996 341.508 188.931 341.583 188.848C341.659 188.765 341.714 188.666 341.746 188.558L347.516 172.811C347.604 172.506 347.795 172.241 348.057 172.061C348.319 171.881 348.636 171.798 348.952 171.825C349.751 172.025 350.474 172.453 351.033 173.056C351.592 173.659 351.963 174.412 352.101 175.223L355.654 191.069C355.898 192.141 356.546 193.077 357.463 193.683L358.311 194.173C358.453 194.269 358.613 194.337 358.782 194.372C358.95 194.406 359.124 194.407 359.292 194.373C359.388 194.342 359.475 194.29 359.549 194.221C359.622 194.153 359.68 194.069 359.718 193.976L360.893 191.49C361.006 191.217 361.206 190.989 361.461 190.839C361.716 190.689 362.013 190.627 362.307 190.66C363.06 190.855 363.744 191.254 364.283 191.814C364.822 192.373 365.195 193.072 365.36 193.831C365.632 194.828 366.259 195.691 367.123 196.26L367.864 196.687C368.01 196.79 368.177 196.86 368.353 196.892C368.529 196.924 368.71 196.918 368.884 196.874C368.992 196.827 369.089 196.756 369.165 196.666C369.242 196.575 369.296 196.469 369.324 196.354L370.395 193.066C370.469 192.764 370.642 192.496 370.887 192.305C371.132 192.113 371.435 192.009 371.746 192.011H371.81C372.607 192.194 373.333 192.607 373.898 193.198C374.462 193.79 374.841 194.533 374.987 195.337L378.542 210.007C378.799 211.065 379.451 211.984 380.365 212.575L380.026 213.182Z" fill="white"/>
<path d="M360.175 115.462C359.412 115.451 358.664 115.239 358.009 114.847L319.329 92.5409C318.124 91.7685 317.19 90.6403 316.657 89.3131C316.124 87.9859 316.018 86.5258 316.354 85.1358C316.498 84.5128 316.785 83.9318 317.193 83.4388C317.601 82.9458 318.118 82.5544 318.703 82.2956C319.28 82.0739 319.9 81.9897 320.515 82.0499C321.13 82.11 321.722 82.3129 322.245 82.6422L360.925 104.948C362.131 105.72 363.065 106.848 363.598 108.176C364.131 109.503 364.237 110.963 363.9 112.353C363.756 112.976 363.469 113.557 363.061 114.05C362.653 114.543 362.136 114.934 361.551 115.193C361.114 115.372 360.647 115.463 360.175 115.462V115.462ZM320.077 82.7209C319.697 82.7197 319.319 82.7935 318.967 82.9381C318.48 83.1573 318.051 83.4866 317.714 83.9001C317.377 84.3136 317.141 84.7998 317.024 85.3202C316.722 86.5622 316.816 87.8672 317.291 89.0537C317.767 90.2402 318.601 91.2491 319.677 91.94L358.358 114.246C358.788 114.522 359.277 114.693 359.786 114.746C360.295 114.799 360.809 114.732 361.287 114.551C361.774 114.332 362.203 114.002 362.54 113.589C362.877 113.175 363.113 112.689 363.23 112.169C363.532 110.927 363.439 109.621 362.964 108.435C362.488 107.248 361.654 106.239 360.577 105.549L321.897 83.2429C321.347 82.9119 320.719 82.7318 320.077 82.7209V82.7209Z" fill="white"/>
<defs>
<linearGradient id="paint0_linear" x1="451.441" y1="141.066" x2="213.146" y2="141.066" gradientUnits="userSpaceOnUse">
<stop stop-color="#C0BFF6"/>
<stop offset="0.29376" stop-color="#C5C4F7"/>
<stop offset="0.63992" stop-color="#D3D2F9"/>
<stop offset="1" stop-color="#E9E9FD"/>
</linearGradient>
<linearGradient id="paint1_linear" x1="451.439" y1="202.109" x2="410.522" y2="202.109" gradientUnits="userSpaceOnUse">
<stop stop-color="#5761D7"/>
<stop offset="0.17789" stop-color="#5C66D9"/>
<stop offset="0.3876" stop-color="#6A73DF"/>
<stop offset="0.6134" stop-color="#8289E8"/>
<stop offset="0.84896" stop-color="#A3A7F5"/>
<stop offset="1" stop-color="#BCBEFF"/>
</linearGradient>
<linearGradient id="paint2_linear" x1="17126.1" y1="48207.4" x2="91430.1" y2="48207.4" gradientUnits="userSpaceOnUse">
<stop stop-color="#5761D7"/>
<stop offset="0.17789" stop-color="#5C66D9"/>
<stop offset="0.3876" stop-color="#6A73DF"/>
<stop offset="0.6134" stop-color="#8289E8"/>
<stop offset="0.84896" stop-color="#A3A7F5"/>
<stop offset="1" stop-color="#BCBEFF"/>
</linearGradient>
<linearGradient id="paint3_linear" x1="-15892.8" y1="49287" x2="93655" y2="49287" gradientUnits="userSpaceOnUse">
<stop stop-color="#C0BFF6"/>
<stop offset="0.29376" stop-color="#C5C4F7"/>
<stop offset="0.63992" stop-color="#D3D2F9"/>
<stop offset="1" stop-color="#E9E9FD"/>
</linearGradient>
<linearGradient id="paint4_linear" x1="-11316.7" y1="39123.3" x2="62987.3" y2="39123.3" gradientUnits="userSpaceOnUse">
<stop stop-color="#5761D7"/>
<stop offset="0.17789" stop-color="#5C66D9"/>
<stop offset="0.3876" stop-color="#6A73DF"/>
<stop offset="0.6134" stop-color="#8289E8"/>
<stop offset="0.84896" stop-color="#A3A7F5"/>
<stop offset="1" stop-color="#BCBEFF"/>
</linearGradient>
<linearGradient id="paint5_linear" x1="13656.8" y1="39777.9" x2="88040" y2="39777.9" gradientUnits="userSpaceOnUse">
<stop stop-color="#C0BFF6"/>
<stop offset="0.29376" stop-color="#C5C4F7"/>
<stop offset="0.63992" stop-color="#D3D2F9"/>
<stop offset="1" stop-color="#E9E9FD"/>
</linearGradient>
<linearGradient id="paint6_linear" x1="350.017" y1="151.687" x2="421.076" y2="182.121" gradientUnits="userSpaceOnUse">
<stop stop-color="white"/>
<stop offset="0.03366" stop-color="#EDEDF2"/>
<stop offset="0.14105" stop-color="#BAB7CB"/>
<stop offset="0.25256" stop-color="#8C87A9"/>
<stop offset="0.36589" stop-color="#665F8D"/>
<stop offset="0.48151" stop-color="#463F75"/>
<stop offset="0.60002" stop-color="#2E2563"/>
<stop offset="0.72274" stop-color="#1D1356"/>
<stop offset="0.85228" stop-color="#12084E"/>
<stop offset="1" stop-color="#0F054C"/>
</linearGradient>
</defs>
</svg>
