<svg width="85" height="62" viewBox="0 0 85 62" fill="none" xmlns="http://www.w3.org/2000/svg">
<path d="M78.7744 0H74.4147C73.7269 0 73.1696 0.557314 73.1696 1.24512C73.1696 1.93292 73.7269 2.49023 74.4147 2.49023H78.7744C80.834 2.49023 82.5098 4.166 82.5098 6.22559V11.9531H2.49023V6.22559C2.49023 4.166 4.16583 2.49023 6.22559 2.49023H68.9478C69.6356 2.49023 70.1929 1.93292 70.1929 1.24512C70.1929 0.557314 69.6356 0 68.9478 0H6.22559C2.79271 0 0 2.79271 0 6.22559V19.9519C0 20.6397 0.55748 21.197 1.24512 21.197C1.93275 21.197 2.49023 20.6397 2.49023 19.9519V14.4434H82.5098V46.5451C82.5098 47.2329 83.0671 47.7903 83.7549 47.7903C84.4427 47.7903 85 47.2329 85 46.5451V6.22559C85 2.79271 82.2073 0 78.7744 0Z" fill="#0047FF"/>
<path d="M83.7549 50.5506C83.0671 50.5506 82.5098 51.1079 82.5098 51.7957V55.034C82.5098 57.0936 80.834 58.7694 78.7744 58.7694H6.22559C4.16583 58.7694 2.49023 57.0936 2.49023 55.034V25.2952C2.49023 24.6074 1.93275 24.05 1.24512 24.05C0.55748 24.05 0 24.6074 0 25.2952V55.034C0 58.4669 2.79271 61.2596 6.22559 61.2596H78.7744C82.2073 61.2596 85 58.4669 85 55.034V51.7957C85 51.1081 84.4427 50.5506 83.7549 50.5506Z" fill="#0047FF"/>
<path d="M18.0099 27.0535C17.5237 26.5674 16.7353 26.5674 16.2492 27.0535L8.76684 34.5359C8.53325 34.7694 8.4021 35.086 8.4021 35.4164C8.4021 35.7468 8.53325 36.0632 8.76684 36.297L16.1502 43.6803C16.3933 43.9234 16.712 44.0449 17.0306 44.0449C17.3492 44.0449 17.6679 43.9234 17.911 43.6803C18.3972 43.1939 18.3972 42.4057 17.911 41.9194L11.408 35.4166L18.0099 28.8146C18.4963 28.3282 18.4963 27.54 18.0099 27.0535Z" fill="#0047FF"/>
<path d="M34.7551 43.6803C34.9982 43.9234 35.3169 44.0449 35.6355 44.0449C35.9541 44.0449 36.2729 43.9234 36.5159 43.6803L43.8994 36.297C44.1329 36.0634 44.264 35.7468 44.264 35.4164C44.264 35.086 44.1329 34.7696 43.8994 34.5359L36.417 27.0535C35.9307 26.5674 35.1423 26.5674 34.6562 27.0535C34.1699 27.54 34.1699 28.3282 34.6562 28.8145L41.2583 35.4164L34.7553 41.9192C34.2689 42.4058 34.2689 43.1941 34.7551 43.6803Z" fill="#0047FF"/>
<path d="M21.9134 48.2665C22.4156 48.2665 22.8889 47.9603 23.0776 47.4628L31.9253 24.1545C32.1693 23.5115 31.8459 22.7925 31.2031 22.5485C30.5603 22.3043 29.8411 22.6278 29.5972 23.2707L20.7496 46.5793C20.5055 47.2221 20.8289 47.9411 21.4718 48.1851C21.6172 48.2404 21.7664 48.2665 21.9134 48.2665Z" fill="#0047FF"/>
<path d="M5.479 7.2832C5.479 9.34279 7.1546 11.0186 9.21436 11.0186C11.2741 11.0186 12.9497 9.34279 12.9497 7.2832C12.9497 5.22361 11.2741 3.54785 9.21436 3.54785C7.1546 3.54785 5.479 5.22361 5.479 7.2832ZM10.4595 7.2832C10.4595 7.96984 9.901 8.52832 9.21436 8.52832C8.52771 8.52832 7.96924 7.96984 7.96924 7.2832C7.96924 6.59656 8.52771 6.03809 9.21436 6.03809C9.901 6.03809 10.4595 6.59656 10.4595 7.2832Z" fill="#0047FF"/>
<path d="M15.1357 7.2832C15.1357 9.34279 16.8113 11.0186 18.8711 11.0186C20.9309 11.0186 22.6064 9.34279 22.6064 7.2832C22.6064 5.22361 20.9309 3.54785 18.8711 3.54785C16.8113 3.54785 15.1357 5.22361 15.1357 7.2832ZM20.1162 7.2832C20.1162 7.96984 19.5577 8.52832 18.8711 8.52832C18.1845 8.52832 17.626 7.96984 17.626 7.2832C17.626 6.59656 18.1845 6.03809 18.8711 6.03809C19.5577 6.03809 20.1162 6.59656 20.1162 7.2832Z" fill="#0047FF"/>
<path d="M24.7903 7.2832C24.7903 9.34279 26.4659 11.0186 28.5256 11.0186C30.5854 11.0186 32.261 9.34279 32.261 7.2832C32.261 5.22361 30.5854 3.54785 28.5256 3.54785C26.4659 3.54785 24.7903 5.22361 24.7903 7.2832ZM29.7707 7.2832C29.7707 7.96984 29.2123 8.52832 28.5256 8.52832C27.839 8.52832 27.2805 7.96984 27.2805 7.2832C27.2805 6.59656 27.839 6.03809 28.5256 6.03809C29.2123 6.03809 29.7707 6.59656 29.7707 7.2832Z" fill="#0047FF"/>
<path d="M55.699 28.3668H63.5017C65.5613 28.3668 67.2371 26.6911 67.2371 24.6315C67.2371 22.5719 65.5613 20.8961 63.5017 20.8961H55.699C53.6394 20.8961 51.9636 22.5719 51.9636 24.6315C51.9636 26.6911 53.6394 28.3668 55.699 28.3668ZM55.699 23.3864H63.5017C64.1883 23.3864 64.7468 23.9448 64.7468 24.6315C64.7468 25.3181 64.1883 25.8766 63.5017 25.8766H55.699C55.0123 25.8766 54.4539 25.3181 54.4539 24.6315C54.4539 23.9448 55.0123 23.3864 55.699 23.3864Z" fill="#0047FF"/>
<path d="M55.699 38.3278H76.2849C78.3445 38.3278 80.0203 36.652 80.0203 34.5924C80.0203 32.5328 78.3445 30.8571 76.2849 30.8571H55.699C53.6394 30.8571 51.9636 32.5328 51.9636 34.5924C51.9636 36.652 53.6394 38.3278 55.699 38.3278ZM55.699 33.3473H76.2849C76.9716 33.3473 77.53 33.9058 77.53 34.5924C77.53 35.279 76.9716 35.8375 76.2849 35.8375H55.699C55.0123 35.8375 54.4539 35.279 54.4539 34.5924C54.4539 33.9058 55.0123 33.3473 55.699 33.3473Z" fill="#0047FF"/>
<path d="M55.699 48.2887H70.1697C72.2293 48.2887 73.9051 46.6129 73.9051 44.5533C73.9051 42.4938 72.2293 40.818 70.1697 40.818H55.699C53.6394 40.818 51.9636 42.4938 51.9636 44.5533C51.9636 46.6129 53.6394 48.2887 55.699 48.2887ZM55.699 43.3082H70.1697C70.8564 43.3082 71.4149 43.8667 71.4149 44.5533C71.4149 45.24 70.8564 45.7985 70.1697 45.7985H55.699C55.0123 45.7985 54.4539 45.24 54.4539 44.5533C54.4539 43.8667 55.0123 43.3082 55.699 43.3082Z" fill="#0047FF"/>
</svg>
