<svg width="20" height="20" viewBox="0 0 20 20" fill="none" xmlns="http://www.w3.org/2000/svg">
<g clip-path="url(#clip0)">
<path d="M19.4752 15.4292L15.4271 12.7296C14.9134 12.3898 14.2248 12.5016 13.845 12.9866L12.6659 14.5027C12.5143 14.7025 12.2389 14.7604 12.0196 14.6386L11.7953 14.515C11.0518 14.1097 10.1266 13.6051 8.26254 11.7404C6.39848 9.87569 5.89289 8.94981 5.4876 8.20761L5.36461 7.98331C5.24115 7.76412 5.29802 7.48748 5.49791 7.33473L7.013 6.15592C7.49777 5.7761 7.60974 5.08768 7.2703 4.57382L4.5707 0.525745C4.22283 0.00246303 3.52488 -0.154623 2.98633 0.169118L1.29357 1.18596C0.761698 1.49865 0.371483 2.00506 0.204749 2.59907C-0.404809 4.82007 0.0537559 8.65317 5.70026 14.3003C10.1919 18.7917 13.5358 19.9995 15.8341 19.9995C16.3631 20.0018 16.8899 19.9329 17.4006 19.7949C17.9947 19.6283 18.5012 19.2381 18.8137 18.7061L19.8315 17.0143C20.1557 16.4756 19.9987 15.7773 19.4752 15.4292ZM19.2572 16.6723L18.2417 18.3651C18.0173 18.7491 17.6531 19.0314 17.2252 19.153C15.1748 19.7159 11.5927 19.2496 6.17183 13.8288C0.750958 8.4079 0.284738 4.82608 0.847662 2.77541C0.969362 2.34704 1.25205 1.98229 1.63653 1.75755L3.32929 0.742041C3.56296 0.601437 3.86589 0.669591 4.01684 0.896666L5.4833 3.09833L6.71413 4.94439C6.86153 5.16728 6.8131 5.46603 6.60282 5.63096L5.08738 6.80977C4.6262 7.16242 4.4945 7.80049 4.77845 8.30689L4.89878 8.52553C5.32473 9.30675 5.8543 10.2786 7.78769 12.2117C9.72107 14.1447 10.6926 14.6743 11.4735 15.1002L11.6924 15.2209C12.1988 15.5048 12.8369 15.3731 13.1895 14.9119L14.3684 13.3965C14.5333 13.1863 14.832 13.1379 15.0549 13.2852L19.1026 15.9848C19.3299 16.1356 19.398 16.4387 19.2572 16.6723Z" fill="#6D6D6D"/>
<path d="M11.3327 3.335C14.4604 3.33847 16.9951 5.87314 16.9986 9.00084C16.9986 9.18491 17.1478 9.33411 17.3319 9.33411C17.5159 9.33411 17.6651 9.18491 17.6651 9.00084C17.6613 5.50515 14.8284 2.67228 11.3327 2.66846C11.1487 2.66846 10.9995 2.81765 10.9995 3.00173C10.9995 3.1858 11.1487 3.335 11.3327 3.335Z" fill="#6D6D6D"/>
<path d="M11.3327 5.335C13.3565 5.33738 14.9965 6.97737 14.9989 9.00113C14.9989 9.18521 15.1481 9.33441 15.3322 9.33441C15.5162 9.33441 15.6654 9.18521 15.6654 9.00113C15.6627 6.60938 13.7245 4.67119 11.3327 4.66846C11.1487 4.66846 10.9995 4.81765 10.9995 5.00173C10.9995 5.1858 11.1487 5.335 11.3327 5.335Z" fill="#6D6D6D"/>
<path d="M11.3327 7.33451C12.2526 7.3356 12.998 8.08104 12.9992 9.00094C12.9992 9.18502 13.1484 9.33421 13.3324 9.33421C13.5165 9.33421 13.6657 9.18502 13.6657 9.00094C13.6642 7.71309 12.6206 6.66941 11.3327 6.66797C11.1487 6.66797 10.9995 6.81717 10.9995 7.00124C10.9995 7.18531 11.1487 7.33451 11.3327 7.33451Z" fill="#6D6D6D"/>
</g>
<defs>
<clipPath id="clip0">
<rect width="20" height="20" fill="white"/>
</clipPath>
</defs>
</svg>
