<svg width="24" height="24" viewBox="0 0 24 24" fill="none" xmlns="http://www.w3.org/2000/svg">
<path d="M12 24C18.6275 24 24 18.6275 24 12C24 5.3725 18.6275 0 12 0C5.3725 0 0 5.3725 0 12C0.00750731 18.6244 5.37561 23.9925 12 24ZM12 0.799988C18.1857 0.799988 23.2 5.81433 23.2 12C23.2 18.1857 18.1857 23.2 12 23.2C5.81433 23.2 0.799988 18.1857 0.799988 12C0.806946 5.81726 5.81726 0.806946 12 0.799988Z" fill="#C1C1C1"/>
<path d="M12 21.9999C17.5228 21.9999 21.9999 17.5228 21.9999 12C21.9999 6.47717 17.5228 2.00006 12 2.00006C6.47717 2.00006 2.00006 6.47717 2.00006 12C2.0061 17.5203 6.47974 21.9939 12 21.9999ZM12 2.80005C17.081 2.80005 21.2 6.91901 21.2 12C21.2 17.081 17.081 21.2 12 21.2C6.91901 21.2 2.80005 17.081 2.80005 12C2.80573 6.92139 6.92139 2.80573 12 2.80005Z" fill="#C1C1C1"/>
<path d="M9.89026 19.5848C9.92615 19.5948 9.96313 19.6 10.0005 19.6C10.2001 19.6 10.3691 19.4529 10.3965 19.2552C10.4242 19.0576 10.3017 18.8698 10.1098 18.8152C4.88196 17.322 4.80084 12.9827 4.79993 12.7993C4.79974 12.5782 4.62048 12.3994 4.39966 12.3995C4.17865 12.3999 3.99976 12.5792 3.99994 12.8C4.04626 13.7686 4.29932 14.7162 4.74225 15.579C5.41681 16.9279 6.85748 18.718 9.89026 19.5848Z" fill="#C1C1C1"/>
<path d="M4.79993 11.2C4.79993 11.4208 4.62085 11.5999 4.40002 11.5999C4.17902 11.5999 3.99994 11.4208 3.99994 11.2C3.99994 10.979 4.17902 10.7999 4.40002 10.7999C4.62085 10.7999 4.79993 10.979 4.79993 11.2Z" fill="#C1C1C1"/>
<path d="M10.9893 13.7161L12.5229 17.4142C12.7705 18.0114 13.3535 18.4006 14.0001 18.4001C14.5347 18.4006 15.0342 18.1337 15.331 17.6891C15.628 17.2443 15.6828 16.6807 15.4773 16.1871L13.9391 12.4675C14.0872 11.8929 13.9622 11.2822 13.6 10.8124V6C13.6 5.11633 12.8837 4.40002 12 4.40002C11.1163 4.40002 10.4 5.11633 10.4 6V10.8124C10.058 11.2645 9.92669 11.8416 10.0395 12.3972C10.1521 12.9527 10.498 13.433 10.9893 13.7161ZM12 10.7999C12.6627 10.7999 13.2001 11.3373 13.2001 12C13.2001 12.6627 12.6627 13.2001 12 13.2001C11.3373 13.2001 10.7999 12.6627 10.7999 12C10.8007 11.3375 11.3375 10.8007 12 10.7999ZM14.7387 16.4941C14.8204 16.6902 14.8207 16.9107 14.7393 17.1068C14.658 17.3029 14.5016 17.4586 14.3051 17.5391C13.8977 17.6975 13.4377 17.5071 13.2618 17.107L11.9736 13.9973C11.9826 13.9973 11.991 14.0001 12 14.0001C12.5484 13.9991 13.0723 13.7719 13.4476 13.372L14.7387 16.4941ZM12 5.20001C12.4415 5.20093 12.7991 5.55853 12.8 6V10.1695C12.2906 9.94354 11.7094 9.94354 11.2 10.1695V6C11.2006 5.55835 11.5583 5.20056 12 5.20001Z" fill="#C1C1C1"/>
</svg>
