<?xml version="1.0" encoding="iso-8859-1"?>
<!-- Generator: Adobe Illustrator 19.0.0, SVG Export Plug-In . SVG Version: 6.00 Build 0)  -->
<svg version="1.1" id="Capa_1" xmlns="http://www.w3.org/2000/svg" xmlns:xlink="http://www.w3.org/1999/xlink" x="0px" y="0px"
	 viewBox="0 0 480 480" style="enable-background:new 0 0 480 480;" xml:space="preserve">
<g>
	<g>
		<g>
			<path d="M472,0H8C3.582,0,0,3.582,0,8v464c0,4.418,3.582,8,8,8h464c4.418,0,8-3.582,8-8V8C480,3.582,476.418,0,472,0z M464,464
				H16V80h448V464z M464,64H16V16h448V64z"/>
			<path d="M32,56h16c4.418,0,8-3.582,8-8V32c0-4.418-3.582-8-8-8H32c-4.418,0-8,3.582-8,8v16C24,52.418,27.582,56,32,56z"/>
			<path d="M72,56h16c4.418,0,8-3.582,8-8V32c0-4.418-3.582-8-8-8H72c-4.418,0-8,3.582-8,8v16C64,52.418,67.582,56,72,56z"/>
			<path d="M112,56h16c4.418,0,8-3.582,8-8V32c0-4.418-3.582-8-8-8h-16c-4.418,0-8,3.582-8,8v16C104,52.418,107.582,56,112,56z"/>
			<rect x="424" y="32" width="32" height="16"/>
			<rect x="400" y="32" width="16" height="16"/>
			<path d="M56,432h96c4.418,0,8-3.582,8-8V120c0-4.418-3.582-8-8-8H56c-4.418,0-8,3.582-8,8v304C48,428.418,51.582,432,56,432z
				 M64,128h80v288H64V128z"/>
			<path d="M200,304h224c4.418,0,8-3.582,8-8V120c0-4.418-3.582-8-8-8H200c-4.418,0-8,3.582-8,8v176
				C192,300.418,195.582,304,200,304z M208,128h208v160H208V128z"/>
			<path d="M200,432h224c4.418,0,8-3.582,8-8v-96c0-4.418-3.582-8-8-8H200c-4.418,0-8,3.582-8,8v96C192,428.418,195.582,432,200,432
				z M208,336h208v80H208V336z"/>
			<rect x="72" y="136" width="16" height="16"/>
			<rect x="96" y="136" width="32" height="16"/>
			<rect x="216" y="136" width="16" height="16"/>
			<rect x="248" y="136" width="32" height="16"/>
			<rect x="216" y="344" width="16" height="16"/>
			<rect x="248" y="344" width="32" height="16"/>
		</g>
	</g>
</g>
<g>
</g>
<g>
</g>
<g>
</g>
<g>
</g>
<g>
</g>
<g>
</g>
<g>
</g>
<g>
</g>
<g>
</g>
<g>
</g>
<g>
</g>
<g>
</g>
<g>
</g>
<g>
</g>
<g>
</g>
</svg>
