<svg width="20" height="22" viewBox="0 0 20 22" fill="none" xmlns="http://www.w3.org/2000/svg">
<path d="M19 2.96851H1C0.447734 2.96851 0 3.43752 0 4.01612V17.9844C0 18.5629 0.447695 19.032 1 19.032H19C19.5523 19.032 20 18.563 20 17.9844V4.01612C20 3.43756 19.5523 2.96851 19 2.96851ZM19.3333 17.9844C19.3333 18.1773 19.1841 18.3336 19 18.3336H1C0.815898 18.3336 0.66668 18.1773 0.66668 17.9844V4.01612C0.66668 3.82326 0.815898 3.66693 1 3.66693H19C19.1841 3.66693 19.3333 3.82326 19.3333 4.01612V17.9844Z" fill="#828282"/>
<path d="M18.3623 4.3667C18.2742 4.35864 18.1867 4.38758 18.119 4.44716L10.4289 11.2147C10.1809 11.4331 9.81892 11.4331 9.57091 11.2147L1.88095 4.44712C1.78974 4.36691 1.66458 4.34375 1.55267 4.38639C1.44076 4.42903 1.35904 4.53101 1.33833 4.6539C1.31763 4.77679 1.36107 4.90189 1.45228 4.9821L9.14228 11.7494C9.63791 12.1865 10.362 12.1865 10.8576 11.7494L18.5476 4.98214C18.6153 4.9226 18.6577 4.83732 18.6654 4.74503C18.6731 4.65275 18.6454 4.56105 18.5886 4.49013C18.5318 4.41913 18.4504 4.37477 18.3623 4.3667Z" fill="#828282"/>
<path d="M6.41109 11.7013C6.29308 11.6737 6.17012 11.7152 6.08965 11.8097L1.42297 17.0478C1.33851 17.1384 1.3075 17.2699 1.34195 17.3912C1.3764 17.5126 1.4709 17.605 1.58886 17.6325C1.70687 17.6601 1.82984 17.6186 1.91031 17.5241L6.57699 12.286C6.66144 12.1954 6.69246 12.064 6.65801 11.9426C6.62355 11.8212 6.5291 11.7288 6.41109 11.7013Z" fill="#828282"/>
<path d="M13.9103 11.8097C13.8299 11.7152 13.7069 11.6737 13.5889 11.7013C13.4709 11.7288 13.3764 11.8212 13.342 11.9426C13.3075 12.064 13.3385 12.1954 13.423 12.286L18.0896 17.5241C18.2162 17.6599 18.4231 17.665 18.5555 17.5355C18.688 17.406 18.6975 17.1894 18.577 17.0478L13.9103 11.8097Z" fill="#828282"/>
</svg>
