<svg width="20" height="20" viewBox="0 0 20 20" fill="none" xmlns="http://www.w3.org/2000/svg">
<path d="M2.66285 17.4621C2.80605 17.5402 6.21387 19.3752 10 19.3752C14.1019 19.3752 17.2177 17.5341 17.3483 17.4557C17.3946 17.4279 17.4329 17.3887 17.4594 17.3417C17.486 17.2948 17.5 17.2417 17.5 17.1877C17.5 14.6646 16.7263 12.3557 15.3214 10.6861C14.3387 9.51814 13.1057 8.72204 11.7457 8.35556C12.5782 7.95939 13.2512 7.29184 13.654 6.4626C14.0569 5.63335 14.1658 4.69172 13.9627 3.79243C13.7597 2.89313 13.2567 2.08965 12.5366 1.514C11.8165 0.938343 10.9219 0.624756 10 0.624756C9.07806 0.624756 8.18354 0.938343 7.4634 1.514C6.74327 2.08965 6.24035 2.89313 6.03728 3.79243C5.8342 4.69172 5.94306 5.63335 6.34595 6.4626C6.74885 7.29184 7.42182 7.95939 8.2543 8.35556C6.89434 8.72204 5.66129 9.51825 4.67855 10.6861C3.27371 12.3557 2.5 14.6646 2.5 17.1877C2.5 17.2439 2.51512 17.299 2.54378 17.3473C2.57244 17.3955 2.61357 17.4352 2.66285 17.4621ZM6.5625 4.68774C6.5625 4.00787 6.76411 3.34326 7.14182 2.77797C7.51954 2.21268 8.0564 1.77208 8.68453 1.51191C9.31265 1.25173 10.0038 1.18366 10.6706 1.31629C11.3374 1.44893 11.9499 1.77632 12.4307 2.25706C12.9114 2.73781 13.2388 3.35031 13.3714 4.01712C13.5041 4.68393 13.436 5.3751 13.1758 6.00322C12.9157 6.63134 12.4751 7.1682 11.9098 7.54592C11.3445 7.92364 10.6799 8.12524 10 8.12524C9.08864 8.12421 8.21489 7.76171 7.57046 7.11728C6.92603 6.47285 6.56353 5.59911 6.5625 4.68774ZM5.15676 11.0885C6.42578 9.58063 8.14563 8.75024 10 8.75024C11.8544 8.75024 13.5742 9.58063 14.8432 11.0885C16.1198 12.6056 16.8376 14.701 16.8736 17.0054C16.2049 17.3674 13.4261 18.7502 10 18.7502C6.83164 18.7502 3.84766 17.3593 3.12656 16.9981C3.16406 14.6965 3.88152 12.604 5.15676 11.0885Z" fill="#828282"/>
</svg>
