<svg width="1104" height="364" viewBox="0 0 1104 364" fill="none" xmlns="http://www.w3.org/2000/svg">
<path opacity="0.05" d="M180.257 309.557C94.3152 304.629 3.08535 248.305 7.87278 164.818C114.674 117.415 7.87279 164.818 114.674 117.414C197.707 86.318 295.388 37.9292 290.601 121.416C285.814 204.902 266.199 314.485 180.257 309.557Z" fill="#5D8BFF"/>
<path opacity="0.05" d="M769.781 125.257C842.768 79.6142 1017.91 76.492 1062.25 147.393C1002.48 247.799 1039.81 176.23 980.039 276.636C930.244 349.998 871.341 336.613 827.002 265.711C782.663 194.81 696.795 170.9 769.781 125.257Z" fill="#5D8BFF"/>
<circle opacity="0.05" cx="450.123" cy="104.778" r="30.653" fill="#5D8BFF"/>
<path opacity="0.05" d="M649.423 289.563C640.168 313.54 651.599 331.306 627.622 322.051C603.645 312.795 591.711 285.855 600.967 261.877C610.222 237.9 637.163 225.966 661.14 235.222C685.117 244.477 658.679 265.585 649.423 289.563Z" fill="#5D8BFF"/>
</svg>
