<svg width="48" height="49" viewBox="0 0 48 49" fill="none" xmlns="http://www.w3.org/2000/svg">
<g opacity="0.8">
<path d="M1.68 25.7C0.752163 25.7 0 24.9478 0 24.02V24.02C0 23.0921 0.752162 22.34 1.68 22.34L46.32 22.34C47.2478 22.34 48 23.0921 48 24.02V24.02C48 24.9478 47.2478 25.7 46.32 25.7L1.68 25.7Z" fill="#0047FF"/>
<path d="M1.68 25.7C0.752163 25.7 0 24.9478 0 24.02V24.02C0 23.0921 0.752162 22.34 1.68 22.34L46.32 22.34C47.2478 22.34 48 23.0921 48 24.02V24.02C48 24.9478 47.2478 25.7 46.32 25.7L1.68 25.7Z" fill="url(#paint0_radial)" fill-opacity="0.5"/>
<path d="M22.5601 2.18C22.5601 1.25216 23.3122 0.5 24.2401 0.5V0.5C25.1679 0.5 25.9201 1.25216 25.9201 2.18V46.82C25.9201 47.7478 25.1679 48.5 24.2401 48.5V48.5C23.3122 48.5 22.5601 47.7478 22.5601 46.82V2.18Z" fill="#0047FF"/>
<path d="M22.5601 2.18C22.5601 1.25216 23.3122 0.5 24.2401 0.5V0.5C25.1679 0.5 25.9201 1.25216 25.9201 2.18V46.82C25.9201 47.7478 25.1679 48.5 24.2401 48.5V48.5C23.3122 48.5 22.5601 47.7478 22.5601 46.82V2.18Z" fill="url(#paint1_radial)" fill-opacity="0.5"/>
</g>
<defs>
<radialGradient id="paint0_radial" cx="0" cy="0" r="1" gradientUnits="userSpaceOnUse" gradientTransform="translate(24 24.02) scale(24 1.68)">
<stop stop-color="#5181FF"/>
<stop offset="1" stop-color="white" stop-opacity="0"/>
</radialGradient>
<radialGradient id="paint1_radial" cx="0" cy="0" r="1" gradientUnits="userSpaceOnUse" gradientTransform="translate(24.2401 24.5) rotate(90) scale(24 1.68)">
<stop stop-color="#5181FF"/>
<stop offset="1" stop-color="white" stop-opacity="0"/>
</radialGradient>
</defs>
</svg>
