<svg width="21" height="22" viewBox="0 0 21 22" fill="none" xmlns="http://www.w3.org/2000/svg">
<g clip-path="url(#clip0)">
<path d="M17.4256 11.8992C17.0861 11.48 17.1833 11.2935 17.4256 10.9189C17.43 10.9146 20.2326 7.12834 20.5214 5.8443L20.5231 5.84344C20.6666 5.37551 20.5231 5.03162 19.8292 5.03162H17.5332C16.9487 5.03162 16.6792 5.32675 16.5349 5.65695C16.5349 5.65695 15.3659 8.3927 13.7121 10.1661C13.1784 10.6785 12.9316 10.8427 12.6402 10.8427C12.4967 10.8427 12.2736 10.6785 12.2736 10.2105V5.84344C12.2736 5.28226 12.11 5.03162 11.6261 5.03162H8.01587C7.64925 5.03162 7.43137 5.29339 7.43137 5.53719C7.43137 6.06928 8.25825 6.19161 8.344 7.68866V10.9368C8.344 11.6486 8.21187 11.7794 7.91875 11.7794C7.13825 11.7794 5.24387 9.03258 4.12125 5.88878C3.89462 5.27884 3.67325 5.03247 3.08437 5.03247H0.7875C0.132125 5.03247 0 5.3276 0 5.65781C0 6.24123 0.7805 9.14208 3.6295 12.9745C5.52825 15.5905 8.20225 17.008 10.6347 17.008C12.0969 17.008 12.2754 16.6932 12.2754 16.1517C12.2754 13.652 12.1432 13.4159 12.8756 13.4159C13.2151 13.4159 13.7996 13.5802 15.1646 14.842C16.7247 16.3382 16.9811 17.008 17.8544 17.008H20.1504C20.8049 17.008 21.1365 16.6932 20.9457 16.0721C20.5091 14.7658 17.5586 12.0789 17.4256 11.8992Z" fill="white"/>
</g>
<defs>
<clipPath id="clip0">
<rect width="21" height="20.5309" fill="white" transform="translate(0 0.754272)"/>
</clipPath>
</defs>
</svg>
