<svg width="15" height="15" viewBox="0 0 15 15" fill="none" xmlns="http://www.w3.org/2000/svg">
<g clip-path="url(#clip0)">
<path d="M14.09 7.54739C14.1329 7.44351 14.109 7.32398 14.0294 7.24461L9.02944 2.2446C8.9191 2.13802 8.74324 2.14109 8.63665 2.25143C8.53269 2.35908 8.53269 2.52973 8.63665 2.63736L13.1628 7.16349H1.05556C0.902146 7.16351 0.777771 7.28789 0.777771 7.4413C0.777771 7.59471 0.902146 7.71909 1.05556 7.71909H13.1628L8.63722 12.2446C8.52689 12.3512 8.52381 12.5271 8.6304 12.6374C8.73699 12.7478 8.91282 12.7508 9.02319 12.6442C9.02551 12.642 9.02777 12.6397 9.03001 12.6374L14.03 7.63742C14.0557 7.61161 14.0761 7.58104 14.09 7.54739Z" fill="#2196F3"/>
<path d="M8.83334 12.7191C8.67992 12.7194 8.55534 12.5952 8.55505 12.4418C8.55492 12.3678 8.5843 12.2969 8.63667 12.2446L13.4406 7.44132L8.63667 2.63799C8.53008 2.52765 8.53315 2.35179 8.64349 2.24521C8.75115 2.14125 8.9218 2.14125 9.02943 2.24521L14.0294 7.2452C14.1379 7.35367 14.1379 7.5295 14.0294 7.63799L9.02943 12.638C8.9774 12.6899 8.90688 12.7191 8.83334 12.7191Z" fill="black"/>
<path d="M13.8333 7.71906H1.05556C0.902146 7.71906 0.777771 7.59471 0.777771 7.4413C0.777771 7.28789 0.902146 7.16351 1.05556 7.16351H13.8333C13.9868 7.16351 14.1111 7.28789 14.1111 7.4413C14.1111 7.59471 13.9867 7.71906 13.8333 7.71906Z" fill="black"/>
</g>
<defs>
<clipPath id="clip0">
<rect width="13.3333" height="13.3333" fill="white" transform="translate(0.777771 0.777771)"/>
</clipPath>
</defs>
</svg>
