<svg width="51" height="51" viewBox="0 0 51 51" fill="none" xmlns="http://www.w3.org/2000/svg">
<path d="M34.1632 31.7452C34.5759 31.7452 34.9103 31.4108 34.9103 30.9981C34.9103 30.5854 34.5759 30.251 34.1632 30.251H24.9705C24.5579 30.251 24.2234 30.5854 24.2234 30.9981C24.2234 31.4108 24.5579 31.7452 24.9705 31.7452H34.1632Z" fill="#0047FF"/>
<path d="M21.3377 30.9981C21.3377 30.5854 21.0032 30.251 20.5907 30.251H20.585C20.1724 30.251 19.8407 30.5854 19.8407 30.9981C19.8407 31.4108 20.178 31.7452 20.5906 31.7452C21.0031 31.7452 21.3377 31.4108 21.3377 30.9981Z" fill="#0047FF"/>
<path d="M16.2391 30.251C15.8265 30.251 15.4948 30.5854 15.4948 30.9981C15.4948 31.4108 15.8321 31.7452 16.2447 31.7452C16.6573 31.7452 16.9917 31.4108 16.9917 30.9981C16.9917 30.5854 16.6573 30.251 16.2447 30.251H16.2391Z" fill="#0047FF"/>
<path d="M34.1632 21.2443H24.9705C24.5579 21.2443 24.2234 21.5787 24.2234 21.9914C24.2234 22.4041 24.5579 22.7385 24.9705 22.7385H34.1632C34.5759 22.7385 34.9103 22.4041 34.9103 21.9914C34.9103 21.5787 34.5758 21.2443 34.1632 21.2443Z" fill="#0047FF"/>
<path d="M20.5907 21.2443H20.585C20.1724 21.2443 19.8407 21.5787 19.8407 21.9914C19.8407 22.4041 20.178 22.7385 20.5906 22.7385C21.0031 22.7385 21.3376 22.4041 21.3376 21.9914C21.3376 21.5787 21.0032 21.2443 20.5907 21.2443Z" fill="#0047FF"/>
<path d="M16.2448 21.2443H16.2391C15.8265 21.2443 15.4948 21.5787 15.4948 21.9914C15.4948 22.4041 15.8321 22.7385 16.2447 22.7385C16.6573 22.7385 16.9917 22.4041 16.9917 21.9914C16.9917 21.5787 16.6574 21.2443 16.2448 21.2443Z" fill="#0047FF"/>
<path d="M47.195 44.5803C45.6835 44.5803 44.4137 45.6325 44.0763 47.0431H33.6503V45.9849C33.6503 45.2104 33.0193 44.5803 32.2437 44.5803H28.41V42.1021C28.41 41.3214 27.7751 40.6861 26.9947 40.6861H25.9496V36.2939H37.7163C38.5435 36.2939 39.2165 35.6193 39.2165 34.7901V31.0395H40.4626C44.4416 31.0395 47.6788 27.7993 47.6788 23.8165C47.6788 21.289 46.3308 18.9284 44.1952 17.6314C44.4312 16.8312 44.5504 15.9992 44.5504 15.1498C44.5504 10.3201 40.6262 6.39074 35.8025 6.39074C35.4155 6.39074 35.0291 6.41644 34.6474 6.46744C33.9592 4.68931 32.7932 3.15533 31.247 2.00265C29.4898 0.692484 27.3996 0 25.2026 0C23.0044 0 20.9133 0.692484 19.1557 2.00255C17.6092 3.15533 16.4429 4.68971 15.7546 6.46803C13.3723 6.14978 10.9738 6.82045 9.08617 8.35235C7.03073 10.0205 5.85195 12.4981 5.85195 15.1498C5.85195 15.9992 5.97118 16.8312 6.20706 17.6314C4.07153 18.9284 2.72342 21.289 2.72342 23.8165C2.72342 27.7992 5.96063 31.0395 9.93972 31.0395H11.1857V34.7901C11.1857 35.6192 11.8587 36.2939 12.686 36.2939H16.2419C16.6545 36.2939 16.989 35.9595 16.989 35.5468C16.989 35.1341 16.6545 34.7997 16.2419 34.7997L12.6871 34.8C12.687 34.8 12.68 34.7958 12.68 34.7901V27.2871H37.7223V34.7901C37.7223 34.7955 37.716 34.7995 37.7162 34.7997H19.6989C19.2863 34.7997 18.9518 35.1341 18.9518 35.5468C18.9518 35.9595 19.2863 36.2939 19.6989 36.2939H24.4555V40.6861H23.4076C22.6273 40.6861 21.9924 41.3214 21.9924 42.1021V44.5803H18.1586C17.3829 44.5803 16.7518 45.2103 16.7518 45.9849V47.0431H6.32609C5.98872 45.6325 4.71889 44.5803 3.20732 44.5803C1.43876 44.5803 0 46.0202 0 47.7901C0 49.5599 1.43876 51 3.20732 51C4.71879 51 5.98862 49.9478 6.32609 48.5372H16.752V49.5926C16.752 50.3687 17.383 51 18.1588 51H32.2438C33.0194 51 33.6504 50.3687 33.6504 49.5926V48.5372H44.0764C44.4137 49.9478 45.6835 51 47.1951 51C48.9636 51 50.4023 49.56 50.4023 47.7901C50.4023 46.0201 48.9636 44.5803 47.195 44.5803ZM12.68 25.793V18.2901C12.68 18.2846 12.6862 18.2806 12.6861 18.2804H16.242C16.6546 18.2804 16.9891 17.946 16.9891 17.5333C16.9891 17.1207 16.6546 16.7863 16.242 16.7863H12.6861C11.8589 16.7863 11.1858 17.4608 11.1858 18.2901V29.5453H9.93982C6.78459 29.5453 4.21766 26.9754 4.21766 23.8165C4.21766 21.6014 5.45272 19.625 7.44092 18.6586C7.78856 18.4897 7.94992 18.0835 7.81286 17.722C7.50318 16.9049 7.34609 16.0395 7.34609 15.1499C7.34609 12.9504 8.32356 10.8958 10.0278 9.5126C11.7362 8.12603 13.9482 7.58994 16.0967 8.04186C16.473 8.12065 16.8473 7.90181 16.9629 7.53545C18.1026 3.92192 21.4139 1.49414 25.2026 1.49414C28.9896 1.49414 32.2997 3.92202 33.4395 7.53545C33.5552 7.90261 33.9306 8.12085 34.3076 8.04146C34.7951 7.93757 35.2981 7.88498 35.8025 7.88498C39.8022 7.88498 43.0563 11.144 43.0563 15.1499C43.0563 16.0395 42.8992 16.9048 42.5894 17.722C42.4523 18.0834 42.6137 18.4897 42.9613 18.6586C44.9494 19.625 46.1845 21.6014 46.1845 23.8165C46.1845 26.9754 43.6175 29.5453 40.4624 29.5453H39.2163V18.2901C39.2163 17.4609 38.5434 16.7863 37.7161 16.7863H19.6989C19.2863 16.7863 18.9518 17.1207 18.9518 17.5333C18.9518 17.946 19.2863 18.2804 19.6989 18.2804L37.7152 18.2801C37.7152 18.2801 37.7223 18.2843 37.7223 18.2901V25.793H12.68ZM3.20732 49.5059C2.26263 49.5059 1.49414 48.7362 1.49414 47.7901C1.49414 46.844 2.26263 46.0743 3.20732 46.0743C4.15202 46.0743 4.9205 46.844 4.9205 47.7901C4.9205 48.7362 4.15202 49.5059 3.20732 49.5059ZM32.1562 49.5059H18.246V46.0744H22.7394C23.152 46.0744 23.4865 45.74 23.4865 45.3273V42.1803H26.9157V45.3273C26.9157 45.74 27.2501 46.0744 27.6628 46.0744H32.1561V49.5059H32.1562ZM47.195 49.5059C46.2504 49.5059 45.4818 48.7362 45.4818 47.7901C45.4818 46.844 46.2504 46.0743 47.195 46.0743C48.1396 46.0743 48.9082 46.844 48.9082 47.7901C48.9082 48.7362 48.1396 49.5059 47.195 49.5059Z" fill="#0047FF"/>
</svg>
