<svg width="50" height="50" viewBox="0 0 50 50" fill="none" xmlns="http://www.w3.org/2000/svg">
<path d="M19.2061 3.65527H11.5593C11.1547 3.65527 10.8269 3.9832 10.8269 4.3877C10.8269 4.79219 11.1547 5.12012 11.5593 5.12012H19.2061C19.6107 5.12012 19.9385 4.79219 19.9385 4.3877C19.9385 3.9832 19.6107 3.65527 19.2061 3.65527Z" fill="#0047FF"/>
<path d="M5.55725 5.12012H7.78587C8.19046 5.12012 8.51829 4.79219 8.51829 4.3877C8.51829 3.9832 8.19046 3.65527 7.78587 3.65527H5.55725C5.15266 3.65527 4.82483 3.9832 4.82483 4.3877C4.82483 4.79219 5.15276 5.12012 5.55725 5.12012Z" fill="#0047FF"/>
<path d="M5.55725 8.63123H13.2039C13.6085 8.63123 13.9364 8.3033 13.9364 7.8988C13.9364 7.49431 13.6085 7.16638 13.2039 7.16638H5.55725C5.15266 7.16638 4.82483 7.49431 4.82483 7.8988C4.82483 8.3033 5.15276 8.63123 5.55725 8.63123Z" fill="#0047FF"/>
<path d="M19.2061 7.16638H16.9774C16.5728 7.16638 16.245 7.49431 16.245 7.8988C16.245 8.3033 16.5728 8.63123 16.9774 8.63123H19.2061C19.6107 8.63123 19.9385 8.3033 19.9385 7.8988C19.9385 7.49431 19.6107 7.16638 19.2061 7.16638Z" fill="#0047FF"/>
<path d="M44.9951 15.904C43.3295 15.904 41.9343 17.0827 41.5972 18.6503H37.5963C37.556 18.2437 37.4831 17.8371 37.3749 17.4338C37.0928 16.3786 36.5953 15.4188 35.9221 14.5998L40.9524 9.56465C41.8766 10.473 43.0966 10.9735 44.3943 10.9735C45.7088 10.9735 46.944 10.4608 47.8715 9.53086C48.8013 8.60176 49.3134 7.36563 49.3134 6.05029C49.3134 4.73496 48.8013 3.49893 47.8719 2.57021C46.9435 1.64092 45.7086 1.1292 44.3943 1.1292C43.08 1.1292 41.8451 1.64102 40.9167 2.57021C39.9871 3.49932 39.4752 4.73525 39.4752 6.05029C39.4752 6.8791 39.6789 7.67627 40.0618 8.38496C40.057 8.38945 40.0519 8.39336 40.0473 8.39805L34.8852 13.5651C34.5684 13.3057 34.2296 13.0688 33.8678 12.86C32.1283 11.8557 30.1025 11.5895 28.164 12.1101C27.0934 12.3966 26.1389 12.9021 25.3349 13.5651L23.0152 11.2433C23.2681 10.8557 23.4159 10.3933 23.4159 9.89668V2.46992C23.4158 1.10801 22.3086 0 20.9475 0H4.32518C2.96424 0 1.85692 1.10801 1.85692 2.46992V9.89678C1.85692 11.2587 2.96424 12.3667 4.32518 12.3667H10.0975C10.5021 12.3667 10.83 12.0388 10.83 11.6343C10.83 11.2298 10.5021 10.9019 10.0975 10.9019H4.32518C3.77186 10.9019 3.32176 10.451 3.32176 9.89678V2.46992C3.32176 1.91572 3.77186 1.46484 4.32518 1.46484H20.9475C21.5009 1.46484 21.951 1.91572 21.951 2.46992V9.89678C21.951 10.451 21.5009 10.9019 20.9475 10.9019H13.4807C13.0761 10.9019 12.7483 11.2298 12.7483 11.6343C12.7483 12.0388 13.0761 12.3667 13.4807 12.3667H20.9475C21.2784 12.3667 21.5939 12.3008 21.8825 12.1821L24.3018 14.6038C22.9302 16.2793 22.294 18.5228 22.7185 20.7742L13.9419 25.8484C13.9412 25.8488 13.9407 25.8493 13.94 25.8496C12.9068 24.6051 11.5197 23.7098 9.92556 23.2825C7.8909 22.7371 5.7657 23.0176 3.94197 24.0721C0.175861 26.2498 -1.11926 31.0868 1.05486 34.854C2.10701 36.6814 3.8074 37.9883 5.84275 38.5342C6.52215 38.7164 7.21141 38.8065 7.89637 38.8065C9.26355 38.8065 10.6133 38.4473 11.8291 37.7443C15.5634 35.5876 16.8667 30.8165 14.7703 27.0617L23.142 22.2217C23.9261 24.1582 25.465 25.6691 27.43 26.416V33.1613V33.5493C27.43 33.9186 27.4095 34.1892 27.3832 34.3846C25.8928 32.2265 24.5206 30.6316 21.8833 31.0905C21.0186 31.2433 20.3641 31.742 20.0879 32.459C19.8061 33.19 19.9678 34.0297 20.5315 34.7663L26.6874 43.8045C27.8653 45.5371 28.064 46.5926 28.064 48.3032C28.064 49.2389 28.826 50 29.7627 50H41.3019C42.2386 50 43.0007 49.2389 43.0007 48.3032V45.3159C43.0007 44.2296 43.2273 43.788 43.5411 43.177C43.8754 42.5259 44.2915 41.7156 44.4693 40.0624C44.472 40.0363 44.4735 40.0103 44.4735 39.9841V37.4761C44.4735 37.0716 44.1457 36.7437 43.7411 36.7437C43.3365 36.7437 43.0087 37.0716 43.0087 37.4761V39.9441C42.8582 41.2999 42.5428 41.914 42.238 42.5078C41.8927 43.1802 41.5358 43.8754 41.5358 45.3158V48.3031C41.5358 48.4289 41.4287 48.5351 41.3019 48.5351H29.7626C29.6358 48.5351 29.5288 48.4288 29.5288 48.3031C29.5288 46.3635 29.2766 45.0077 27.8984 42.9803L21.7302 33.9239C21.7216 33.9114 21.7126 33.899 21.7033 33.887C21.4502 33.561 21.3595 33.2325 21.4547 32.9856C21.542 32.7593 21.791 32.5942 22.1362 32.5332C23.8271 32.2388 24.7326 33.1127 26.2464 35.3163C26.2566 35.3313 26.2676 35.346 26.279 35.3603C26.8315 36.0481 27.3844 36.301 27.9221 36.1118C28.5949 35.8751 28.8948 35.0848 28.8948 33.5492V33.1612V19.5546C28.8948 18.5733 29.5494 18.2252 30.1099 18.2252C30.6706 18.2252 31.3252 18.5733 31.3252 19.5546V32.1858C31.3252 32.5903 31.653 32.9183 32.0576 32.9183C32.4622 32.9183 32.79 32.5903 32.79 32.1858V26.3247C32.79 25.3435 33.4447 24.9953 34.0052 24.9953C34.1403 24.9953 34.2807 25.0161 34.4162 25.0605C34.4382 25.0699 34.4604 25.0782 34.483 25.0854C34.8816 25.2422 35.2205 25.6191 35.2205 26.3247V33.1641C35.2205 33.5686 35.5483 33.8965 35.9529 33.8965C36.3575 33.8965 36.6853 33.5686 36.6853 33.1641V27.9847C36.6853 27.0034 37.3399 26.6553 37.9006 26.6553C38.4611 26.6553 39.1157 27.0034 39.1157 27.9847V34.1423C39.1157 34.5468 39.4435 34.8747 39.8481 34.8747C40.2527 34.8747 40.5805 34.5468 40.5805 34.1423V29.6446C40.5805 28.6626 41.2341 28.3142 41.7937 28.3142C42.1116 28.3142 42.4165 28.4296 42.63 28.6308C42.881 28.8671 43.0083 29.2082 43.0083 29.6445V34.0923C43.0083 34.4968 43.3361 34.8247 43.7407 34.8247C44.1453 34.8247 44.4731 34.4968 44.4731 34.0923V29.6445C44.4731 27.8094 43.1252 26.8492 41.7936 26.8492C41.3411 26.8492 40.8869 26.9605 40.4841 27.1792C40.1535 25.8703 39.0213 25.1903 37.9004 25.1903C37.4472 25.1903 36.9924 25.3017 36.5891 25.5205C36.4558 24.992 36.192 24.566 35.8508 24.2459C36.8502 23.0651 37.4512 21.6229 37.5977 20.1151H41.597C41.9343 21.6812 43.3294 22.8587 44.9948 22.8587C46.9099 22.8587 48.468 21.2994 48.468 19.3827C48.4683 17.4646 46.9102 15.904 44.9951 15.904ZM41.9525 3.60605C41.9526 3.60596 41.9528 3.60576 41.9529 3.60566C42.6046 2.95342 43.4716 2.59414 44.3943 2.59414C45.317 2.59414 46.184 2.95342 46.8361 3.60605C47.489 4.2585 47.8486 5.12656 47.8486 6.05039C47.8486 6.97422 47.4889 7.84238 46.8352 8.49561C46.1837 9.14893 45.3168 9.50879 44.3943 9.50879C43.4718 9.50879 42.6049 9.14902 41.9525 8.49482C41.2996 7.84238 40.94 6.97432 40.94 6.05049C40.94 5.12666 41.2996 4.2584 41.9525 3.60605ZM11.0963 36.476C11.0961 36.4761 11.096 36.4761 11.0959 36.4762C9.60994 37.3354 7.87898 37.5638 6.22225 37.1193C4.56522 36.675 3.18094 35.6109 2.32391 34.1226C0.552912 31.0537 1.6077 27.114 4.67518 25.3402C5.66453 24.7683 6.76258 24.476 7.87547 24.476C8.43269 24.476 8.99373 24.5493 9.54646 24.6975C11.2044 25.1418 12.5896 26.2059 13.4471 27.6938C15.2193 30.7646 14.1646 34.7042 11.0963 36.476ZM36.1679 19.3942C36.1668 20.9351 35.5767 22.432 34.4882 23.5729C34.3286 23.5448 34.1669 23.5305 34.0053 23.5305C33.5879 23.5305 33.1687 23.6249 32.7901 23.8108V19.5546C32.7901 17.7201 31.4419 16.7604 30.11 16.7604C28.7782 16.7604 27.43 17.7201 27.43 19.5546V24.8207C25.8741 24.057 24.7181 22.6658 24.2576 20.9505C23.394 17.7197 25.3164 14.3888 28.5435 13.525C30.1042 13.1059 31.7351 13.32 33.1355 14.1287C34.5383 14.9386 35.5414 16.2467 35.96 17.8128C36.098 18.3271 36.1664 18.8482 36.1684 19.3648C36.1683 19.3708 36.1675 19.3767 36.1675 19.3827C36.1674 19.3866 36.1679 19.3903 36.1679 19.3942ZM44.9951 21.3938C43.8861 21.3938 42.9839 20.4917 42.9839 19.3827C42.9839 18.2723 43.886 17.3688 44.9951 17.3688C46.1026 17.3688 47.0035 18.2723 47.0035 19.3827C47.0035 20.4916 46.1026 21.3938 44.9951 21.3938Z" fill="#0047FF"/>
<path d="M8.84574 27.3229C7.8892 27.0664 6.88929 27.1979 6.02943 27.6942C4.25882 28.7182 3.65072 30.9931 4.67377 32.7653C5.16927 33.6238 5.96908 34.2377 6.92572 34.4939C7.24496 34.5794 7.56879 34.6218 7.89076 34.6218C8.53382 34.6218 9.16888 34.4529 9.74125 34.1225C9.74134 34.1224 9.74154 34.1223 9.74173 34.1222C11.5117 33.0987 12.1199 30.825 11.0978 29.0545C10.6023 28.1946 9.80257 27.5798 8.84574 27.3229ZM9.00834 32.8542C8.48851 33.1542 7.88343 33.2342 7.30482 33.079C6.72611 32.924 6.24232 32.5524 5.94242 32.033C5.32289 30.9597 5.69095 29.5822 6.76234 28.9626C7.10892 28.7625 7.4931 28.6603 7.88216 28.6603C8.07699 28.6603 8.27308 28.6859 8.46605 28.7378C9.04466 28.893 9.52855 29.2652 9.82875 29.7863C10.4476 30.8584 10.0796 32.2347 9.00834 32.8542Z" fill="#0047FF"/>
</svg>
