<svg width="48" height="48" viewBox="0 0 48 48" fill="none" xmlns="http://www.w3.org/2000/svg">
<path d="M40.9705 7.02938C36.4375 2.49647 30.4106 0 24 0C17.5893 0 11.5623 2.49647 7.02938 7.02938C2.49638 11.5624 0 17.5894 0 24C0 30.4106 2.49638 36.4375 7.02938 40.9705C11.5624 45.5035 17.5893 48 24 48C30.4106 48 36.4375 45.5035 40.9705 40.9705C45.5035 36.4375 48 30.4106 48 24C48 17.5894 45.5035 11.5625 40.9705 7.02938ZM24 45.1875C12.3172 45.1875 2.8125 35.6828 2.8125 24C2.8125 12.3172 12.3172 2.8125 24 2.8125C35.6828 2.8125 45.1875 12.3172 45.1875 24C45.1875 35.6828 35.6828 45.1875 24 45.1875Z" fill="#0047FF"/>
<path d="M35.4662 16.2992C34.9171 15.7502 34.0267 15.7502 33.4776 16.2993L21.0596 28.7174L14.5227 22.1805C13.9736 21.6314 13.0831 21.6314 12.534 22.1805C11.9848 22.7295 11.9848 23.62 12.534 24.1692L20.0652 31.7004C20.3398 31.975 20.6997 32.1122 21.0595 32.1122C21.4193 32.1122 21.7793 31.9749 22.0538 31.7004L35.4662 18.288C36.0154 17.7389 36.0154 16.8484 35.4662 16.2992Z" fill="#0047FF"/>
</svg>
