<svg width="79" height="80" viewBox="0 0 79 80" fill="none" xmlns="http://www.w3.org/2000/svg">
<circle cx="39.5" cy="39.5049" r="39.5" fill="#0047FF"/>
<circle cx="39.5" cy="39.5049" r="39.5" fill="url(#paint0_linear)"/>
<path d="M27.6374 40.1099C27.2734 40.1099 26.9467 40.0539 26.6574 39.9419C26.3681 39.8299 26.1231 39.6665 25.9224 39.4519C25.7217 39.2325 25.5677 38.9665 25.4604 38.6539C25.3531 38.3412 25.2994 37.9819 25.2994 37.5759C25.2994 37.1699 25.3601 36.8105 25.4814 36.4979C25.6074 36.1852 25.7777 35.9215 25.9924 35.7069C26.2071 35.4875 26.4591 35.3219 26.7484 35.2099C27.0377 35.0979 27.3481 35.0419 27.6794 35.0419C27.8801 35.0419 28.0621 35.0582 28.2254 35.0909C28.3887 35.1189 28.5311 35.1515 28.6524 35.1889C28.7737 35.2262 28.8741 35.2659 28.9534 35.3079C29.0327 35.3499 29.0887 35.3802 29.1214 35.3989L28.8624 36.1199C28.7504 36.0499 28.5894 35.9845 28.3794 35.9239C28.1741 35.8585 27.9501 35.8259 27.7074 35.8259C27.4974 35.8259 27.3014 35.8632 27.1194 35.9379C26.9374 36.0079 26.7787 36.1152 26.6434 36.2599C26.5127 36.4045 26.4101 36.5865 26.3354 36.8059C26.2607 37.0252 26.2234 37.2795 26.2234 37.5689C26.2234 37.8255 26.2514 38.0612 26.3074 38.2759C26.3681 38.4905 26.4591 38.6772 26.5804 38.8359C26.7017 38.9899 26.8557 39.1112 27.0424 39.1999C27.2291 39.2839 27.4531 39.3259 27.7144 39.3259C28.0271 39.3259 28.2814 39.2955 28.4774 39.2349C28.6734 39.1695 28.8251 39.1089 28.9324 39.0529L29.1704 39.7739C29.1144 39.8112 29.0374 39.8485 28.9394 39.8859C28.8461 39.9232 28.7341 39.9605 28.6034 39.9979C28.4727 40.0305 28.3257 40.0562 28.1624 40.0749C27.9991 40.0982 27.8241 40.1099 27.6374 40.1099ZM32.8433 40.0049C32.7219 39.8182 32.5819 39.6222 32.4233 39.4169C32.2646 39.2115 32.0966 39.0132 31.9193 38.8219C31.7466 38.6305 31.5669 38.4485 31.3803 38.2759C31.1936 38.1032 31.0093 37.9539 30.8273 37.8279V40.0049H29.9453V35.1539H30.8273V37.1559C30.9813 37.0019 31.1423 36.8385 31.3103 36.6659C31.4783 36.4885 31.6439 36.3112 31.8073 36.1339C31.9753 35.9519 32.1339 35.7769 32.2833 35.6089C32.4326 35.4409 32.5679 35.2892 32.6893 35.1539H33.7463C33.5923 35.3312 33.4289 35.5155 33.2563 35.7069C33.0836 35.8982 32.9063 36.0919 32.7243 36.2879C32.5423 36.4792 32.3579 36.6705 32.1713 36.8619C31.9893 37.0532 31.8096 37.2352 31.6323 37.4079C31.8283 37.5572 32.0266 37.7322 32.2273 37.9329C32.4326 38.1289 32.6333 38.3412 32.8293 38.5699C33.0253 38.7939 33.2119 39.0295 33.3893 39.2769C33.5713 39.5195 33.7369 39.7622 33.8863 40.0049H32.8433ZM37.9367 40.0049C37.8714 39.8135 37.8037 39.6245 37.7337 39.4379C37.6637 39.2512 37.5961 39.0599 37.5307 38.8639H35.4867C35.4214 39.0599 35.3537 39.2535 35.2837 39.4449C35.2184 39.6315 35.1531 39.8182 35.0877 40.0049H34.1707C34.3527 39.4869 34.5254 39.0085 34.6887 38.5699C34.8521 38.1312 35.0107 37.7159 35.1647 37.3239C35.3234 36.9319 35.4797 36.5585 35.6337 36.2039C35.7877 35.8492 35.9464 35.4992 36.1097 35.1539H36.9427C37.1061 35.4992 37.2647 35.8492 37.4187 36.2039C37.5727 36.5585 37.7267 36.9319 37.8807 37.3239C38.0394 37.7159 38.2004 38.1312 38.3637 38.5699C38.5317 39.0085 38.7067 39.4869 38.8887 40.0049H37.9367ZM36.5087 36.0919C36.4014 36.3392 36.2777 36.6402 36.1377 36.9949C36.0024 37.3495 35.8601 37.7345 35.7107 38.1499H37.3067C37.1574 37.7345 37.0127 37.3472 36.8727 36.9879C36.7327 36.6285 36.6114 36.3299 36.5087 36.0919ZM39.8734 36.5679C39.8734 36.9552 39.9574 37.2282 40.1254 37.3869C40.2934 37.5409 40.5618 37.6179 40.9304 37.6179C41.0798 37.6179 41.2291 37.6085 41.3784 37.5899C41.5324 37.5712 41.6631 37.5525 41.7704 37.5339V35.1539H42.6524V40.0049H41.7704V38.2899C41.6491 38.3132 41.5044 38.3342 41.3364 38.3529C41.1684 38.3669 40.9981 38.3739 40.8254 38.3739C40.4988 38.3739 40.2188 38.3412 39.9854 38.2759C39.7568 38.2059 39.5678 38.0985 39.4184 37.9539C39.2738 37.8092 39.1664 37.6249 39.0964 37.4009C39.0264 37.1769 38.9914 36.9085 38.9914 36.5959V35.1539H39.8734V36.5679ZM47.0354 40.0049C46.97 39.8135 46.9024 39.6245 46.8324 39.4379C46.7624 39.2512 46.6947 39.0599 46.6294 38.8639H44.5854C44.52 39.0599 44.4524 39.2535 44.3824 39.4449C44.317 39.6315 44.2517 39.8182 44.1864 40.0049H43.2694C43.4514 39.4869 43.624 39.0085 43.7874 38.5699C43.9507 38.1312 44.1094 37.7159 44.2634 37.3239C44.422 36.9319 44.5784 36.5585 44.7324 36.2039C44.8864 35.8492 45.045 35.4992 45.2084 35.1539H46.0414C46.2047 35.4992 46.3634 35.8492 46.5174 36.2039C46.6714 36.5585 46.8254 36.9319 46.9794 37.3239C47.138 37.7159 47.299 38.1312 47.4624 38.5699C47.6304 39.0085 47.8054 39.4869 47.9874 40.0049H47.0354ZM45.6074 36.0919C45.5 36.3392 45.3764 36.6402 45.2364 36.9949C45.101 37.3495 44.9587 37.7345 44.8094 38.1499H46.4054C46.256 37.7345 46.1114 37.3472 45.9714 36.9879C45.8314 36.6285 45.71 36.3299 45.6074 36.0919ZM51.585 35.1539V35.9169H50.094V40.0049H49.205V35.9169H47.714V35.1539H51.585ZM55.8488 38.4789C55.8488 38.9969 55.6528 39.3912 55.2608 39.6619C54.8734 39.9279 54.3274 40.0609 53.6228 40.0609C53.4268 40.0609 53.2051 40.0492 52.9578 40.0259C52.7151 40.0025 52.4818 39.9652 52.2578 39.9139V35.1539H53.1398V36.8969C53.2191 36.8875 53.2938 36.8829 53.3638 36.8829C53.4338 36.8829 53.5061 36.8829 53.5808 36.8829C55.0928 36.8829 55.8488 37.4149 55.8488 38.4789ZM53.5178 37.6389C53.4618 37.6389 53.4011 37.6389 53.3358 37.6389C53.2704 37.6389 53.2051 37.6435 53.1398 37.6529V39.2909C53.2051 39.2955 53.2798 39.3002 53.3638 39.3049C53.4524 39.3049 53.5574 39.3049 53.6788 39.3049C53.8421 39.3049 53.9984 39.2932 54.1478 39.2699C54.3018 39.2419 54.4348 39.1975 54.5468 39.1369C54.6634 39.0715 54.7568 38.9875 54.8268 38.8849C54.8968 38.7775 54.9318 38.6422 54.9318 38.4789C54.9318 38.3155 54.8968 38.1802 54.8268 38.0729C54.7614 37.9655 54.6658 37.8792 54.5398 37.8139C54.4184 37.7485 54.2714 37.7042 54.0988 37.6809C53.9261 37.6529 53.7324 37.6389 53.5178 37.6389ZM29.5054 45.1539V50.0049H28.6234V45.9099H26.5514V50.0049H25.6694V45.1539H29.5054ZM32.0384 45.1049C32.7431 45.1049 33.2821 45.2332 33.6554 45.4899C34.0334 45.7465 34.2224 46.1479 34.2224 46.6939C34.2224 46.9785 34.1711 47.2235 34.0684 47.4289C33.9704 47.6295 33.8258 47.7952 33.6344 47.9259C33.4431 48.0519 33.2098 48.1452 32.9344 48.2059C32.6591 48.2665 32.3441 48.2969 31.9894 48.2969H31.5484V50.0049H30.6664V45.2239C30.8718 45.1772 31.0981 45.1469 31.3454 45.1329C31.5974 45.1142 31.8284 45.1049 32.0384 45.1049ZM32.1014 45.8679C31.8774 45.8679 31.6931 45.8749 31.5484 45.8889V47.5409H31.9754C32.4001 47.5409 32.7268 47.4825 32.9554 47.3659C33.1841 47.2445 33.2984 47.0182 33.2984 46.6869C33.2984 46.5282 33.2681 46.3952 33.2074 46.2879C33.1468 46.1805 33.0628 46.0965 32.9554 46.0359C32.8481 45.9752 32.7198 45.9332 32.5704 45.9099C32.4258 45.8819 32.2694 45.8679 32.1014 45.8679ZM35.0278 50.0049V45.1539H35.9028V48.3739C36.0614 48.1219 36.2411 47.8512 36.4418 47.5619C36.6471 47.2679 36.8571 46.9762 37.0718 46.6869C37.2911 46.3975 37.5081 46.1199 37.7228 45.8539C37.9374 45.5832 38.1381 45.3499 38.3248 45.1539H39.0458V50.0049H38.1778V46.5329C37.9818 46.7662 37.7741 47.0299 37.5548 47.3239C37.3401 47.6132 37.1278 47.9142 36.9178 48.2269C36.7078 48.5349 36.5048 48.8429 36.3088 49.1509C36.1128 49.4542 35.9354 49.7389 35.7768 50.0049H35.0278ZM41.2664 45.1539C41.3691 45.3312 41.4834 45.5482 41.6094 45.8049C41.7354 46.0615 41.8638 46.3322 41.9944 46.6169C42.1251 46.8969 42.2534 47.1839 42.3794 47.4779C42.5101 47.7672 42.6291 48.0355 42.7364 48.2829C42.8438 48.0355 42.9604 47.7672 43.0864 47.4779C43.2124 47.1839 43.3408 46.8969 43.4714 46.6169C43.6021 46.3322 43.7304 46.0615 43.8564 45.8049C43.9824 45.5482 44.0968 45.3312 44.1994 45.1539H44.9974C45.0394 45.5085 45.0791 45.8865 45.1164 46.2879C45.1538 46.6845 45.1864 47.0929 45.2144 47.5129C45.2471 47.9282 45.2751 48.3482 45.2984 48.7729C45.3264 49.1929 45.3498 49.6035 45.3684 50.0049H44.5004C44.4818 49.4402 44.4584 48.8592 44.4304 48.2619C44.4071 47.6645 44.3698 47.0859 44.3184 46.5259C44.2671 46.6332 44.2064 46.7615 44.1364 46.9109C44.0664 47.0602 43.9918 47.2235 43.9124 47.4009C43.8331 47.5735 43.7514 47.7532 43.6674 47.9399C43.5881 48.1265 43.5088 48.3085 43.4294 48.4859C43.3548 48.6585 43.2848 48.8219 43.2194 48.9759C43.1541 49.1252 43.0981 49.2535 43.0514 49.3609H42.3934C42.3468 49.2535 42.2908 49.1229 42.2254 48.9689C42.1601 48.8149 42.0878 48.6515 42.0084 48.4789C41.9338 48.3015 41.8544 48.1195 41.7704 47.9329C41.6911 47.7462 41.6118 47.5665 41.5324 47.3939C41.4531 47.2212 41.3784 47.0602 41.3084 46.9109C41.2384 46.7569 41.1778 46.6285 41.1264 46.5259C41.0751 47.0859 41.0354 47.6645 41.0074 48.2619C40.9841 48.8592 40.9631 49.4402 40.9444 50.0049H40.0764C40.0951 49.6035 40.1161 49.1882 40.1394 48.7589C40.1674 48.3295 40.1954 47.9049 40.2234 47.4849C40.2561 47.0602 40.2911 46.6495 40.3284 46.2529C40.3658 45.8562 40.4054 45.4899 40.4474 45.1539H41.2664ZM46.3959 50.0049V45.1539H49.5109V45.9029H47.2779V47.0999H49.2659V47.8349H47.2779V49.2559H49.6789V50.0049H46.3959ZM51.8695 45.1049C52.5742 45.1049 53.1132 45.2332 53.4865 45.4899C53.8645 45.7465 54.0535 46.1479 54.0535 46.6939C54.0535 46.9785 54.0022 47.2235 53.8995 47.4289C53.8015 47.6295 53.6568 47.7952 53.4655 47.9259C53.2742 48.0519 53.0408 48.1452 52.7655 48.2059C52.4902 48.2665 52.1752 48.2969 51.8205 48.2969H51.3795V50.0049H50.4975V45.2239C50.7028 45.1772 50.9292 45.1469 51.1765 45.1329C51.4285 45.1142 51.6595 45.1049 51.8695 45.1049ZM51.9325 45.8679C51.7085 45.8679 51.5242 45.8749 51.3795 45.8889V47.5409H51.8065C52.2312 47.5409 52.5578 47.4825 52.7865 47.3659C53.0152 47.2445 53.1295 47.0182 53.1295 46.6869C53.1295 46.5282 53.0992 46.3952 53.0385 46.2879C52.9778 46.1805 52.8938 46.0965 52.7865 46.0359C52.6792 45.9752 52.5508 45.9332 52.4015 45.9099C52.2568 45.8819 52.1005 45.8679 51.9325 45.8679ZM21.2487 59.2559H21.8507C22.0607 58.9665 22.2217 58.6632 22.3337 58.3459C22.4504 58.0239 22.5344 57.6925 22.5857 57.3519C22.6417 57.0065 22.6744 56.6519 22.6837 56.2879C22.693 55.9192 22.6977 55.5412 22.6977 55.1539H25.6727V59.2559H26.3937V61.2999H25.5467V60.0049H22.0957V61.2999H21.2487V59.2559ZM23.5447 55.9099C23.5307 56.1899 23.5144 56.4769 23.4957 56.7709C23.477 57.0649 23.442 57.3565 23.3907 57.6459C23.344 57.9305 23.2764 58.2105 23.1877 58.4859C23.099 58.7565 22.9777 59.0132 22.8237 59.2559H24.8047V55.9099H23.5447ZM27.7029 57.5759C27.7029 57.8419 27.7355 58.0845 27.8009 58.3039C27.8662 58.5185 27.9595 58.7029 28.0809 58.8569C28.2069 59.0062 28.3585 59.1229 28.5359 59.2069C28.7132 59.2909 28.9139 59.3329 29.1379 59.3329C29.3572 59.3329 29.5555 59.2909 29.7329 59.2069C29.9102 59.1229 30.0595 59.0062 30.1809 58.8569C30.3069 58.7029 30.4025 58.5185 30.4679 58.3039C30.5332 58.0845 30.5659 57.8419 30.5659 57.5759C30.5659 57.3099 30.5332 57.0695 30.4679 56.8549C30.4025 56.6355 30.3069 56.4512 30.1809 56.3019C30.0595 56.1479 29.9102 56.0289 29.7329 55.9449C29.5555 55.8609 29.3572 55.8189 29.1379 55.8189C28.9139 55.8189 28.7132 55.8609 28.5359 55.9449C28.3585 56.0289 28.2069 56.1479 28.0809 56.3019C27.9595 56.4559 27.8662 56.6402 27.8009 56.8549C27.7355 57.0695 27.7029 57.3099 27.7029 57.5759ZM31.4899 57.5759C31.4899 57.9912 31.4269 58.3575 31.3009 58.6749C31.1795 58.9922 31.0115 59.2582 30.7969 59.4729C30.5869 59.6829 30.3395 59.8415 30.0549 59.9489C29.7702 60.0562 29.4669 60.1099 29.1449 60.1099C28.8229 60.1099 28.5172 60.0562 28.2279 59.9489C27.9432 59.8415 27.6935 59.6829 27.4789 59.4729C27.2689 59.2582 27.1009 58.9922 26.9749 58.6749C26.8489 58.3575 26.7859 57.9912 26.7859 57.5759C26.7859 57.1605 26.8489 56.7965 26.9749 56.4839C27.1009 56.1665 27.2712 55.9005 27.4859 55.6859C27.7052 55.4712 27.9572 55.3102 28.2419 55.2029C28.5265 55.0955 28.8275 55.0419 29.1449 55.0419C29.4622 55.0419 29.7632 55.0955 30.0479 55.2029C30.3325 55.3102 30.5799 55.4712 30.7899 55.6859C31.0045 55.9005 31.1749 56.1665 31.3009 56.4839C31.4269 56.7965 31.4899 57.1605 31.4899 57.5759ZM33.3395 60.0049H32.4575V55.1539H35.5375V55.9099H33.3395V60.0049ZM36.7605 57.5759C36.7605 57.8419 36.7932 58.0845 36.8585 58.3039C36.9238 58.5185 37.0172 58.7029 37.1385 58.8569C37.2645 59.0062 37.4162 59.1229 37.5935 59.2069C37.7708 59.2909 37.9715 59.3329 38.1955 59.3329C38.4148 59.3329 38.6132 59.2909 38.7905 59.2069C38.9678 59.1229 39.1172 59.0062 39.2385 58.8569C39.3645 58.7029 39.4602 58.5185 39.5255 58.3039C39.5908 58.0845 39.6235 57.8419 39.6235 57.5759C39.6235 57.3099 39.5908 57.0695 39.5255 56.8549C39.4602 56.6355 39.3645 56.4512 39.2385 56.3019C39.1172 56.1479 38.9678 56.0289 38.7905 55.9449C38.6132 55.8609 38.4148 55.8189 38.1955 55.8189C37.9715 55.8189 37.7708 55.8609 37.5935 55.9449C37.4162 56.0289 37.2645 56.1479 37.1385 56.3019C37.0172 56.4559 36.9238 56.6402 36.8585 56.8549C36.7932 57.0695 36.7605 57.3099 36.7605 57.5759ZM40.5475 57.5759C40.5475 57.9912 40.4845 58.3575 40.3585 58.6749C40.2372 58.9922 40.0692 59.2582 39.8545 59.4729C39.6445 59.6829 39.3972 59.8415 39.1125 59.9489C38.8278 60.0562 38.5245 60.1099 38.2025 60.1099C37.8805 60.1099 37.5748 60.0562 37.2855 59.9489C37.0008 59.8415 36.7512 59.6829 36.5365 59.4729C36.3265 59.2582 36.1585 58.9922 36.0325 58.6749C35.9065 58.3575 35.8435 57.9912 35.8435 57.5759C35.8435 57.1605 35.9065 56.7965 36.0325 56.4839C36.1585 56.1665 36.3288 55.9005 36.5435 55.6859C36.7628 55.4712 37.0148 55.3102 37.2995 55.2029C37.5842 55.0955 37.8852 55.0419 38.2025 55.0419C38.5198 55.0419 38.8208 55.0955 39.1055 55.2029C39.3902 55.3102 39.6375 55.4712 39.8475 55.6859C40.0622 55.9005 40.2325 56.1665 40.3585 56.4839C40.4845 56.7965 40.5475 57.1605 40.5475 57.5759ZM42.9781 60.0609C42.7214 60.0609 42.4624 60.0515 42.2011 60.0329C41.9397 60.0189 41.7111 59.9862 41.5151 59.9349V55.2239C41.6177 55.2052 41.7274 55.1889 41.8441 55.1749C41.9607 55.1562 42.0797 55.1422 42.2011 55.1329C42.3224 55.1235 42.4414 55.1165 42.5581 55.1119C42.6794 55.1072 42.7937 55.1049 42.9011 55.1049C43.1951 55.1049 43.4681 55.1282 43.7201 55.1749C43.9721 55.2169 44.1891 55.2892 44.3711 55.3919C44.5577 55.4945 44.7024 55.6299 44.8051 55.7979C44.9077 55.9659 44.9591 56.1735 44.9591 56.4209C44.9591 56.6495 44.9031 56.8455 44.7911 57.0089C44.6837 57.1722 44.5321 57.3029 44.3361 57.4009C44.6301 57.4989 44.8471 57.6435 44.9871 57.8349C45.1271 58.0262 45.1971 58.2689 45.1971 58.5629C45.1971 59.0622 45.0151 59.4379 44.6511 59.6899C44.2871 59.9372 43.7294 60.0609 42.9781 60.0609ZM42.3831 57.8209V59.2979C42.4811 59.3072 42.5861 59.3142 42.6981 59.3189C42.8101 59.3235 42.9127 59.3259 43.0061 59.3259C43.1881 59.3259 43.3561 59.3142 43.5101 59.2909C43.6687 59.2675 43.8041 59.2279 43.9161 59.1719C44.0327 59.1112 44.1237 59.0319 44.1891 58.9339C44.2591 58.8359 44.2941 58.7099 44.2941 58.5559C44.2941 58.2805 44.1937 58.0892 43.9931 57.9819C43.7924 57.8745 43.5147 57.8209 43.1601 57.8209H42.3831ZM42.3831 57.1279H43.0061C43.3421 57.1279 43.6057 57.0812 43.7971 56.9879C43.9884 56.8899 44.0841 56.7172 44.0841 56.4699C44.0841 56.2365 43.9837 56.0709 43.7831 55.9729C43.5871 55.8749 43.3304 55.8259 43.0131 55.8259C42.8777 55.8259 42.7564 55.8282 42.6491 55.8329C42.5464 55.8375 42.4577 55.8445 42.3831 55.8539V57.1279ZM46.8367 57.5759C46.8367 57.8419 46.8693 58.0845 46.9347 58.3039C47 58.5185 47.0933 58.7029 47.2147 58.8569C47.3407 59.0062 47.4923 59.1229 47.6697 59.2069C47.847 59.2909 48.0477 59.3329 48.2717 59.3329C48.491 59.3329 48.6893 59.2909 48.8667 59.2069C49.044 59.1229 49.1933 59.0062 49.3147 58.8569C49.4407 58.7029 49.5363 58.5185 49.6017 58.3039C49.667 58.0845 49.6997 57.8419 49.6997 57.5759C49.6997 57.3099 49.667 57.0695 49.6017 56.8549C49.5363 56.6355 49.4407 56.4512 49.3147 56.3019C49.1933 56.1479 49.044 56.0289 48.8667 55.9449C48.6893 55.8609 48.491 55.8189 48.2717 55.8189C48.0477 55.8189 47.847 55.8609 47.6697 55.9449C47.4923 56.0289 47.3407 56.1479 47.2147 56.3019C47.0933 56.4559 47 56.6402 46.9347 56.8549C46.8693 57.0695 46.8367 57.3099 46.8367 57.5759ZM50.6237 57.5759C50.6237 57.9912 50.5607 58.3575 50.4347 58.6749C50.3133 58.9922 50.1453 59.2582 49.9307 59.4729C49.7207 59.6829 49.4733 59.8415 49.1887 59.9489C48.904 60.0562 48.6007 60.1099 48.2787 60.1099C47.9567 60.1099 47.651 60.0562 47.3617 59.9489C47.077 59.8415 46.8273 59.6829 46.6127 59.4729C46.4027 59.2582 46.2347 58.9922 46.1087 58.6749C45.9827 58.3575 45.9197 57.9912 45.9197 57.5759C45.9197 57.1605 45.9827 56.7965 46.1087 56.4839C46.2347 56.1665 46.405 55.9005 46.6197 55.6859C46.839 55.4712 47.091 55.3102 47.3757 55.2029C47.6603 55.0955 47.9613 55.0419 48.2787 55.0419C48.596 55.0419 48.897 55.0955 49.1817 55.2029C49.4663 55.3102 49.7137 55.4712 49.9237 55.6859C50.1383 55.9005 50.3087 56.1665 50.4347 56.4839C50.5607 56.7965 50.6237 57.1605 50.6237 57.5759ZM52.9633 55.1049C53.6679 55.1049 54.2069 55.2332 54.5803 55.4899C54.9583 55.7465 55.1473 56.1479 55.1473 56.6939C55.1473 56.9785 55.0959 57.2235 54.9933 57.4289C54.8953 57.6295 54.7506 57.7952 54.5593 57.9259C54.3679 58.0519 54.1346 58.1452 53.8593 58.2059C53.5839 58.2665 53.2689 58.2969 52.9143 58.2969H52.4733V60.0049H51.5913V55.2239C51.7966 55.1772 52.0229 55.1469 52.2703 55.1329C52.5223 55.1142 52.7533 55.1049 52.9633 55.1049ZM53.0263 55.8679C52.8023 55.8679 52.6179 55.8749 52.4733 55.8889V57.5409H52.9003C53.3249 57.5409 53.6516 57.4825 53.8803 57.3659C54.1089 57.2445 54.2233 57.0182 54.2233 56.6869C54.2233 56.5282 54.1929 56.3952 54.1323 56.2879C54.0716 56.1805 53.9876 56.0965 53.8803 56.0359C53.7729 55.9752 53.6446 55.9332 53.4953 55.9099C53.3506 55.8819 53.1943 55.8679 53.0263 55.8679ZM58.8581 60.0049C58.7928 59.8135 58.7251 59.6245 58.6551 59.4379C58.5851 59.2512 58.5175 59.0599 58.4521 58.8639H56.4081C56.3428 59.0599 56.2751 59.2535 56.2051 59.4449C56.1398 59.6315 56.0745 59.8182 56.0091 60.0049H55.0921C55.2741 59.4869 55.4468 59.0085 55.6101 58.5699C55.7735 58.1312 55.9321 57.7159 56.0861 57.3239C56.2448 56.9319 56.4011 56.5585 56.5551 56.2039C56.7091 55.8492 56.8678 55.4992 57.0311 55.1539H57.8641C58.0275 55.4992 58.1861 55.8492 58.3401 56.2039C58.4941 56.5585 58.6481 56.9319 58.8021 57.3239C58.9608 57.7159 59.1218 58.1312 59.2851 58.5699C59.4531 59.0085 59.6281 59.4869 59.8101 60.0049H58.8581ZM57.4301 56.0919C57.3228 56.3392 57.1991 56.6402 57.0591 56.9949C56.9238 57.3495 56.7815 57.7345 56.6321 58.1499H58.2281C58.0788 57.7345 57.9341 57.3472 57.7941 56.9879C57.6541 56.6285 57.5328 56.3299 57.4301 56.0919Z" fill="white"/>
<g clip-path="url(#clip0)">
<path d="M49.1995 17.5991C49.1995 17.5691 49.1995 17.5391 49.1995 17.5091C49.2013 13.753 46.1578 10.7066 42.4017 10.7048C40.1171 10.7037 37.9845 11.8498 36.7248 13.7557C34.2069 12.9152 31.4844 14.275 30.6439 16.7929C30.4807 17.2819 30.3972 17.7938 30.3966 18.3092C30.3966 18.3432 30.3966 18.3776 30.3966 18.412C28.6858 18.8565 27.6592 20.6036 28.1036 22.3144C28.4696 23.7236 29.7407 24.7081 31.1967 24.7102H38.3714C38.5924 24.7102 38.7715 24.5311 38.7715 24.3102C38.7715 24.0892 38.5924 23.9101 38.3714 23.9101H31.1967C29.8711 23.9022 28.8028 22.8212 28.8107 21.4955C28.8177 20.307 29.6934 19.3027 30.8699 19.1338C31.0815 19.1053 31.2335 18.9156 31.2151 18.7029C31.2043 18.5741 31.1967 18.4416 31.1967 18.3092C31.1996 16.0969 32.9954 14.3057 35.2077 14.3085C35.7323 14.3092 36.2517 14.413 36.7364 14.6138C36.9201 14.6902 37.132 14.6199 37.2337 14.449C38.9212 11.5966 42.6015 10.6522 45.4539 12.3397C47.281 13.4206 48.401 15.3863 48.3994 17.5091C48.3994 17.6415 48.3958 17.7699 48.385 17.8988C48.3665 18.114 48.5221 18.3051 48.7367 18.3304C50.2716 18.5204 51.3619 19.9186 51.172 21.4536C50.9987 22.854 49.8105 23.9067 48.3994 23.9101C48.2791 23.9102 48.1588 23.9032 48.0394 23.8889C47.9819 23.8818 47.9236 23.8891 47.8697 23.9101H41.5839C41.363 23.9101 41.1839 24.0892 41.1839 24.3102C41.1839 24.5311 41.363 24.7102 41.5839 24.7102H47.9993C48.0299 24.7101 48.0603 24.706 48.0898 24.6978C48.191 24.7062 48.2946 24.7102 48.3994 24.7102C50.388 24.7103 52 23.0983 52 21.1097C52.0001 19.4294 50.8378 17.9725 49.1995 17.5991Z" fill="white"/>
<path d="M43.1097 27.2279L40.3981 29.9395V18.7094C40.3981 18.4885 40.219 18.3093 39.998 18.3093C39.7771 18.3093 39.598 18.4885 39.598 18.7094V29.9395L36.8864 27.2279C36.7274 27.0744 36.4742 27.0788 36.3207 27.2377C36.1709 27.3927 36.1709 27.6385 36.3207 27.7936L39.7152 31.1881C39.8714 31.3443 40.1247 31.3443 40.2809 31.1881L43.6754 27.7936C43.8289 27.6347 43.8245 27.3814 43.6656 27.2279C43.5106 27.0781 43.2648 27.0781 43.1097 27.2279Z" fill="white"/>
</g>
<defs>
<linearGradient id="paint0_linear" x1="39.5" y1="0.00488281" x2="39.5" y2="79.0049" gradientUnits="userSpaceOnUse">
<stop stop-color="#5181FF"/>
<stop offset="1" stop-color="white" stop-opacity="0"/>
</linearGradient>
<clipPath id="clip0">
<rect width="24" height="24" fill="white" transform="translate(28 9.00488)"/>
</clipPath>
</defs>
</svg>
