<svg width="24" height="25" viewBox="0 0 24 25" fill="none" xmlns="http://www.w3.org/2000/svg">
<g clip-path="url(#clip0)">
<path d="M21.1995 8.59911C21.1995 8.56911 21.1995 8.5391 21.1995 8.5091C21.2013 4.75296 18.1578 1.70659 14.4017 1.70483C12.1171 1.70373 9.98453 2.84981 8.72479 4.75571C6.20689 3.91523 3.48437 5.27504 2.64389 7.79294C2.48071 8.28186 2.3972 8.79379 2.3966 9.30922C2.3966 9.34323 2.3966 9.37763 2.3966 9.41204C0.685781 9.85646 -0.340829 11.6036 0.10359 13.3144C0.469647 14.7236 1.74075 15.7081 3.19672 15.7102H10.3714C10.5924 15.7102 10.7715 15.5311 10.7715 15.3102C10.7715 15.0892 10.5924 14.9101 10.3714 14.9101H3.19672C1.87107 14.9022 0.802799 13.8212 0.810651 12.4955C0.817702 11.307 1.69344 10.3027 2.86987 10.1338C3.08151 10.1053 3.23348 9.91562 3.21513 9.70288C3.20432 9.57406 3.19672 9.44164 3.19672 9.30922C3.19957 7.09688 4.99535 5.3057 7.2077 5.30855C7.73233 5.3092 8.25171 5.41296 8.73639 5.61385C8.92007 5.69016 9.13195 5.61995 9.23367 5.44902C10.9212 2.59657 14.6015 1.65223 17.4539 3.33969C19.281 4.42056 20.401 6.38627 20.3994 8.5091C20.3994 8.64152 20.3958 8.76994 20.385 8.89876C20.3665 9.11399 20.5221 9.30507 20.7367 9.33043C22.2716 9.52036 23.3619 10.9186 23.172 12.4536C22.9987 13.854 21.8105 14.9067 20.3994 14.9101C20.2791 14.9102 20.1588 14.9032 20.0394 14.8889C19.9819 14.8818 19.9236 14.8891 19.8697 14.9101H13.5839C13.363 14.9101 13.1839 15.0892 13.1839 15.3102C13.1839 15.5311 13.363 15.7102 13.5839 15.7102H19.9993C20.0299 15.7101 20.0603 15.706 20.0898 15.6978C20.191 15.7062 20.2946 15.7102 20.3994 15.7102C22.388 15.7103 24 14.0983 24 12.1097C24.0001 10.4294 22.8378 8.97247 21.1995 8.59911Z" fill="white"/>
<path d="M15.1097 18.2279L12.3981 20.9395V9.70939C12.3981 9.48845 12.219 9.30933 11.998 9.30933C11.7771 9.30933 11.598 9.48845 11.598 9.70939V20.9395L8.88635 18.2279C8.72743 18.0744 8.47419 18.0788 8.32067 18.2377C8.17094 18.3927 8.17094 18.6385 8.32067 18.7936L11.7152 22.1881C11.8714 22.3443 12.1247 22.3443 12.2809 22.1881L15.6754 18.7936C15.8289 18.6347 15.8245 18.3814 15.6656 18.2279C15.5106 18.0781 15.2648 18.0781 15.1097 18.2279Z" fill="white"/>
</g>
<defs>
<clipPath id="clip0">
<rect width="24" height="24" fill="white" transform="translate(0 0.00488281)"/>
</clipPath>
</defs>
</svg>
